<?xml version="1.0" encoding="UTF-8"?><svg xmlns="http://www.w3.org/2000/svg" viewBox="0 0 626.94 500"><defs><style>.cls-1{fill:#ebebeb;}.cls-2{fill:#f5f5f5;}.cls-3{fill:#fff;}.cls-4{fill:#ffbf9d;}.cls-5{fill:#fafafa;}.cls-6{fill:#ff9a6c;}.cls-7{fill:#ff725e;}.cls-8{fill:#ae7461;}.cls-9{fill:#e0e0e0;}.cls-10{fill:#6f4439;}.cls-11{fill:#455a64;}.cls-12{fill:#263238;}.cls-13{opacity:.3;}.cls-14{opacity:.6;}</style></defs><g id="Background_Complete"><g><g><g><path class="cls-1" d="M53.54,385.13c.05-9.3,6.13-15.24,6.13-15.24,1.86,7.65-6.13,15.24-6.13,15.24Z"/><path class="cls-1" d="M62.45,380.82c8.55-3.66,16.42-.45,16.42-.45-6.27,4.75-16.42,.45-16.42,.45Z"/><path class="cls-1" d="M63.47,375.86c-1.49-7.19,2.23-12.76,2.23-12.76,2.69,5.6-2.23,12.76-2.23,12.76Z"/><path class="cls-1" d="M29.02,357.98c13.02,3.47,20,14.79,20,14.79-11.13,0-20-14.79-20-14.79Z"/><path class="cls-1" d="M49.82,363.32c-.68-14.03,13.04-29.92,13.04-29.92-2.07,17.43-13.04,29.92-13.04,29.92"/><path class="cls-1" d="M49.75,323.35c.58,11.38-4.93,20.1-4.93,20.1-1.94-9.03,4.93-20.1,4.93-20.1Z"/><path class="cls-1" d="M44.46,351.86c-10.26-1.1-15.84-11.31-15.84-11.31,12.41,3.48,15.84,11.31,15.84,11.31Z"/><path class="cls-1" d="M22.33,394.77c7.84-5,16.13-3.11,16.13-3.11-5.42,5.7-16.13,3.11-16.13,3.11Z"/><path class="cls-1" d="M48.92,399.37c-1.95,5.36-6.89,7.77-6.89,7.77,.44-4.73,6.89-7.77,6.89-7.77Z"/><path class="cls-1" d="M47.6,397.86c-5.84,3.59-12.27,2.19-12.27,2.19,3.95-4.12,12.27-2.19,12.27-2.19Z"/><path class="cls-9" d="M52.85,416.76s-.01-.07-.02-.21v-.61c-.01-.58-.02-1.36-.02-2.35,0-1.02,0-2.27-.02-3.72-.02-1.45-.03-3.1-.1-4.92-.09-3.65-.35-7.99-.72-12.8-.42-4.81-1-10.08-1.8-15.59-1.62-11.02-3.84-20.87-5.62-27.95-.9-3.54-1.65-6.39-2.21-8.36-.26-.96-.46-1.71-.61-2.27-.06-.24-.11-.43-.15-.59-.03-.13-.04-.2-.04-.21,0,0,.03,.06,.08,.19,.05,.16,.12,.35,.19,.58,.17,.55,.4,1.3,.7,2.25,.61,1.95,1.41,4.8,2.35,8.33,1.86,7.06,4.13,16.92,5.76,27.96,.81,5.52,1.38,10.8,1.77,15.62,.35,4.82,.58,9.17,.62,12.82,.06,1.83,.04,3.48,.04,4.93,0,1.45-.02,2.7-.06,3.72-.03,.99-.06,1.78-.08,2.35l-.03,.61c0,.14-.02,.21-.03,.21Z"/><path class="cls-9" d="M34.01,387.05c.07-.1,4.22,2.61,9.26,6.07,5.04,3.46,9.07,6.35,9,6.45s-4.22-2.61-9.26-6.07c-5.04-3.46-9.07-6.34-9-6.45Z"/><path class="cls-9" d="M52.28,388.55s.21-.27,.64-.7c.51-.49,1.13-1.08,1.85-1.78,1.66-1.56,3.8-3.57,6.17-5.78,2.37-2.22,4.51-4.22,6.17-5.78,.73-.69,1.35-1.27,1.87-1.75,.45-.41,.7-.63,.73-.6,.02,.02-.19,.28-.6,.73-.4,.45-1.01,1.08-1.77,1.86-1.52,1.55-3.67,3.63-6.08,5.89-2.41,2.26-4.63,4.26-6.26,5.69-.81,.71-1.48,1.28-1.95,1.67-.47,.39-.74,.59-.76,.56Z"/><path class="cls-1" d="M20.84,380.4s10.6-.2,15.09,8.14c0,0-9.05,.3-15.09-8.14Z"/><path class="cls-1" d="M35.32,376.14s8.63,6.16,7.26,15.53c0,0-7.44-5.15-7.26-15.53Z"/><path class="cls-1" d="M80.8,360.97s-3.41,11.87-14.23,14c0,0,2.77-10.17,14.23-14Z"/><path class="cls-1" d="M30.61,316.84s13.53,8.82,12.03,23.18c0,0-11.65-7.37-12.03-23.18Z"/></g><path class="cls-9" d="M75.64,395.33s-.3,.28-.88,.7c-.59,.42-1.42,1.05-2.43,1.86-2.02,1.6-4.7,3.96-7.33,6.88-2.62,2.93-4.69,5.84-6.06,8.02-.69,1.09-1.23,1.98-1.58,2.61-.36,.62-.58,.96-.61,.95-.03-.01,.13-.38,.45-1.03,.31-.66,.81-1.58,1.46-2.7,1.31-2.24,3.35-5.21,5.99-8.16,2.65-2.95,5.39-5.29,7.47-6.83,1.04-.77,1.91-1.37,2.52-1.75,.61-.38,.96-.58,.98-.56Z"/><path class="cls-1" d="M63.87,404.15c-1.73-9.14,3.11-16.13,3.11-16.13,1.45,10.06-3.11,16.13-3.11,16.13Z"/><path class="cls-1" d="M72.97,399.18c5.83-3.42,11.81-1.83,11.81-1.83-6.53,3.46-11.81,1.83-11.81,1.83Z"/></g><g><polygon class="cls-1" points="33.12 417.86 38.2 451.22 67.68 451.22 74.53 418.34 33.12 417.86"/><g><path class="cls-5" d="M70.41,439.24c0,.1-7.56,.17-16.88,.17s-16.88-.08-16.88-.17,7.55-.17,16.88-.17,16.88,.08,16.88,.17Z"/><path class="cls-5" d="M70.52,437.6c0,.1-7.61,.17-16.99,.17s-16.99-.08-16.99-.17,7.61-.17,16.99-.17,16.99,.08,16.99,.17Z"/><path class="cls-5" d="M70.46,435.74c0,.1-7.61,.17-16.99,.17s-16.99-.08-16.99-.17,7.61-.17,16.99-.17,16.99,.08,16.99,.17Z"/><path class="cls-5" d="M41.58,449.31c-.09,.02-.5-1.86-.9-4.2-.41-2.34-.66-4.24-.56-4.26,.09-.02,.5,1.86,.9,4.2,.41,2.34,.66,4.24,.56,4.26Z"/><path class="cls-5" d="M43.59,448.96c-.1,0-.21-1.84-.37-4.1-.15-2.26-.29-4.1-.19-4.11,.09-.01,.38,1.81,.54,4.09,.16,2.27,.11,4.12,.02,4.12Z"/><path class="cls-5" d="M47.25,448.96c-.09,.02-.49-1.86-.77-4.2-.28-2.34-.32-4.26-.22-4.27,.1,0,.29,1.89,.57,4.23,.27,2.33,.52,4.23,.42,4.24Z"/><path class="cls-5" d="M49.81,449.13c-.09,0-.33-1.9-.41-4.27-.08-2.37,.04-4.29,.13-4.29,.1,0,.14,1.92,.22,4.28,.08,2.36,.16,4.27,.06,4.28Z"/><path class="cls-5" d="M54.36,448.96c-.1,0-.23-1.81-.31-4.05-.08-2.24-.06-4.06,.04-4.06,.1,0,.23,1.81,.31,4.05,.08,2.24,.06,4.06-.04,4.06Z"/><path class="cls-5" d="M57.67,449.13c-.1,0-.16-1.88-.14-4.19,.02-2.31,.11-4.19,.21-4.19,.1,0,.16,1.88,.14,4.19-.02,2.31-.11,4.19-.21,4.19Z"/><path class="cls-5" d="M60.79,448.69c-.1,0,.02-1.97,.25-4.38,.23-2.41,.5-4.36,.6-4.35,.1,0-.02,1.97-.25,4.38-.23,2.41-.5,4.36-.6,4.35Z"/><path class="cls-5" d="M64.8,448.25c-.09-.01,.05-1.69,.5-3.73,.44-2.03,1.01-3.62,1.1-3.59,.09,.03-.32,1.65-.76,3.67-.44,2.02-.74,3.67-.83,3.65Z"/></g><path class="cls-1" d="M29.74,411.26v6.24c0,1.36,1.1,2.46,2.46,2.46h42.7c1.36,0,2.46-1.1,2.46-2.46v-6.24H29.74Z"/><polygon class="cls-9" points="33.44 419.95 33.79 421.94 73.2 424.75 74.19 419.95 33.44 419.95"/></g></g><g><g><polygon class="cls-2" points="34.7 151.3 19.62 205.96 38.11 219.14 79.67 229.27 96.15 167.56 34.7 151.3"/><path class="cls-1" d="M27.65,203.51l-8.03,2.45s2.53,4.8,6.49,7.57c3.96,2.77,7.83,4.6,11.99,5.61,0,0-8.88-5.16-10.45-15.63Z"/></g><path class="cls-9" d="M84.14,185.26c-.03,.1-10.51-2.58-23.41-5.98-12.9-3.41-23.34-6.25-23.31-6.35,.03-.1,10.51,2.58,23.41,5.98,12.9,3.41,23.34,6.25,23.31,6.35Z"/><path class="cls-9" d="M81.71,193.63c-.03,.1-10.51-2.58-23.41-5.98-12.9-3.41-23.34-6.25-23.31-6.35,.03-.1,10.51,2.58,23.41,5.98,12.9,3.41,23.34,6.25,23.31,6.35Z"/><path class="cls-9" d="M80,201.17c-.03,.1-10.51-2.58-23.41-5.98-12.9-3.41-23.34-6.25-23.31-6.35,.03-.1,10.51,2.58,23.41,5.98,12.9,3.41,23.34,6.25,23.31,6.35Z"/><path class="cls-9" d="M78.05,208.35c-.03,.1-10.51-2.58-23.41-5.98-12.9-3.41-23.34-6.25-23.31-6.35,.03-.1,10.51,2.58,23.41,5.98,12.9,3.41,23.34,6.25,23.31,6.35Z"/></g><g><g><polygon class="cls-2" points="546.99 272.27 535.49 313.96 549.59 324.01 581.29 331.73 593.85 284.67 546.99 272.27"/><path class="cls-1" d="M541.61,312.09l-6.12,1.87s1.93,3.66,4.95,5.77c3.02,2.11,5.98,3.51,9.15,4.28,0,0-6.78-3.94-7.97-11.92Z"/></g><path class="cls-9" d="M584.7,298.17c-.02,.08-8.01-1.97-17.85-4.56-9.84-2.6-17.8-4.77-17.78-4.84,.02-.08,8.01,1.96,17.85,4.56,9.84,2.6,17.8,4.77,17.78,4.84Z"/><path class="cls-9" d="M582.84,304.55c-.02,.08-8.01-1.97-17.85-4.56-9.84-2.6-17.8-4.77-17.78-4.84,.02-.08,8.01,1.96,17.85,4.56,9.84,2.6,17.8,4.77,17.78,4.84Z"/><path class="cls-9" d="M581.54,310.3c-.02,.08-8.01-1.97-17.85-4.56-9.84-2.6-17.8-4.77-17.78-4.84,.02-.08,8.01,1.96,17.85,4.56,9.84,2.6,17.8,4.77,17.78,4.84Z"/><path class="cls-9" d="M580.05,315.78c-.02,.08-8.01-1.97-17.85-4.56-9.84-2.6-17.8-4.77-17.78-4.84,.02-.08,8.01,1.96,17.85,4.56,9.84,2.6,17.8,4.77,17.78,4.84Z"/></g><path class="cls-9" d="M486.2,65.05l-15.2,3.89-.74,4.65c-.24,1.55-.24,2.78,0,3.69,.31,1.21,1.02,1.97,2.14,2.29,.66,.19,2.13,.09,4.42-.32l.3,1.17-14.31,3.66-.3-1.17c1.48-.63,2.59-1.59,3.32-2.89,.73-1.3,1.4-3.78,2.02-7.43l6.61-38.28,.6-.15,24.55,31.33c2.34,2.96,4.09,4.76,5.26,5.38,.89,.47,2,.59,3.34,.36l.3,1.17-20.82,5.33-.3-1.17,.86-.22c1.67-.43,2.79-.96,3.34-1.6,.38-.46,.49-1,.32-1.64-.1-.38-.26-.76-.49-1.13-.09-.18-.61-.89-1.56-2.14l-3.66-4.78Zm-1.68-2.07l-10.2-13.18-2.81,16.51,13.01-3.33Z"/><g><rect class="cls-5" x="47.03" y="84.38" width="42.68" height="38.84" rx="8.92" ry="8.92" transform="translate(3.07 -1.96) rotate(1.68)"/><path class="cls-2" d="M46.75,113.01l14.41-9.67c1.12-.9,2.73-.84,3.78,.14l7.1,3.64,10.13-9.9c1.28-1.14,3.25-.97,4.31,.37l3.31,4.15-.12,13.19c-.05,4.83-4.06,8.68-8.89,8.53l-25.71-.81c-4.77-.15-8.51-4.16-8.34-8.93l.03-.72Z"/><path class="cls-2" d="M67.36,94.39c.11,2.35-1.71,4.35-4.07,4.46-2.35,.11-4.35-1.71-4.46-4.07s1.71-4.35,4.07-4.46c2.35-.11,4.35,1.71,4.46,4.07Z"/></g><path class="cls-12" d="M3.88,108.18c.02,.08,.03,.16,.05,.25l-.04,.02v-.26Z"/></g><g id="Floor"><path class="cls-12" d="M574.86,455.49s.73-.02,2.24-.03c1.51,0,3.79-.02,6.87-.03v.12c-33.68,.02-167.54,.1-327.45,.2-92.96-.03-177.1-.06-238.02-.08-30.45-.03-55.09-.06-72.13-.08-8.51-.02-15.12-.04-19.61-.05-2.24-.01-3.94-.02-5.1-.03-1.15,0-1.74-.03-1.74-.03,0,0,.59-.02,1.74-.03,1.16,0,2.86-.01,5.1-.03,4.49-.01,11.1-.03,19.61-.05,17.04-.02,41.68-.05,72.13-.08,60.91-.02,145.06-.05,238.02-.08,159.92,.1,293.77,.18,327.45,.2v.12c-3.08-.01-5.36-.02-6.87-.03-1.5,0-2.24-.03-2.24-.03Z"/></g><g id="Book"><g><g><path class="cls-5" d="M204.49,69.24h-50.72c-2.45,0-4.41-2.05-4.29-4.5l1.03-21.49c.11-2.29,2-4.09,4.29-4.09h50.72c2.45,0,4.41,2.05,4.29,4.5l-1.03,21.49c-.11,2.29-2,4.09-4.29,4.09Z"/><path class="cls-12" d="M204.49,69.24s.63,.05,1.67-.4c.51-.23,1.12-.62,1.62-1.27,.52-.64,.89-1.55,.91-2.62,.19-4.36,.46-10.63,.8-18.36-.02-1.9,.62-4.12-.79-5.72-.63-.79-1.59-1.34-2.63-1.46-1.04-.08-2.2-.02-3.33-.03-4.56,0-9.44,.02-14.56,.02-10.26,0-21.53,.01-33.37,.02-1.4,0-2.75,.76-3.46,1.95-.36,.59-.55,1.26-.58,1.95-.03,.72-.07,1.45-.1,2.17-.14,2.88-.28,5.72-.41,8.5-.14,2.79-.27,5.53-.4,8.21-.03,.67-.07,1.34-.1,2-.05,.68-.06,1.28,.13,1.88,.34,1.19,1.25,2.19,2.38,2.63,.57,.23,1.15,.31,1.78,.3h1.89c1.25,0,2.48,0,3.7,0,2.43,0,4.79,0,7.07,.01,4.56,.01,8.81,.02,12.69,.03,7.74,.03,14.01,.06,18.37,.08,2.15,.02,3.83,.04,5,.05l1.3,.03c.29,0,.44,.02,.44,.03s-.15,.02-.44,.03l-1.3,.03c-1.17,.01-2.85,.03-5,.05-4.36,.02-10.63,.05-18.37,.08-3.88,0-8.13,.02-12.69,.03-2.28,0-4.64,0-7.07,.01-1.21,0-2.45,0-3.7,0h-1.89c-.64,.02-1.34-.07-1.96-.32-1.27-.49-2.28-1.61-2.67-2.94-.21-.66-.2-1.4-.15-2.04,.03-.66,.06-1.33,.09-2,.13-2.68,.26-5.42,.39-8.21,.13-2.79,.27-5.63,.4-8.5,.03-.72,.07-1.44,.1-2.17,.03-.76,.26-1.53,.66-2.19,.79-1.34,2.33-2.2,3.9-2.2,11.84,0,23.11,.01,33.37,.02,5.13,0,10,.02,14.56,.02,1.15,.02,2.24-.04,3.39,.05,1.15,.15,2.2,.76,2.89,1.62,.7,.86,1.05,1.96,1,3.02-.05,1.01-.1,2.01-.15,2.98-.41,7.73-.73,13.99-.96,18.35-.03,1.1-.44,2.06-.99,2.71-.53,.67-1.17,1.04-1.7,1.27-.54,.22-.98,.27-1.27,.31-.29,0-.44,0-.44,0Z"/></g><polygon class="cls-7" points="362.29 69.42 364.46 55.84 373.71 50.46 381.31 58.61 379.02 72.53 362.29 69.42"/><g><polygon class="cls-9" points="405.06 83.76 393.83 330.18 212.78 325.04 202.01 306.22 221.48 77.2 389.98 66.05 405.06 83.76"/><g class="cls-13"><polygon points="393.83 330.18 378.75 312.47 389.98 66.05 405.06 83.76 393.83 330.18"/></g><g><polygon class="cls-5" points="389.98 66.05 378.75 312.47 202.01 306.22 215.38 63.56 389.98 66.05"/><path class="cls-12" d="M389.98,66.05c-1.73-.02-68.62-.9-174.6-2.28l.21-.2c-3.72,67.81-8.33,151.81-13.32,242.66l-.25-.27c.92,.03,1.92,.07,2.92,.1,62.19,2.21,121.22,4.3,173.82,6.17l-.24,.23c6.77-145.52,11.37-244.3,11.46-246.41-.09,2.1-4.5,100.89-10.99,246.43v.23h-.25c-52.6-1.86-111.63-3.94-173.82-6.13-1-.04-2-.07-2.92-.1h-.27v-.27c5.04-90.85,9.68-174.85,13.43-242.66v-.2h.21c105.97,1.64,172.86,2.68,174.59,2.71Z"/></g><rect class="cls-9" x="233.47" y="116.88" width="66.44" height="7.01" rx="2.35" ry="2.35" transform="translate(529.73 248.52) rotate(-178.32)"/><rect class="cls-9" x="232.87" y="130.42" width="66.44" height="7.01" rx="2.35" ry="2.35" transform="translate(528.14 275.59) rotate(-178.32)"/><rect class="cls-9" x="232.28" y="143.97" width="66.44" height="7.01" rx="2.35" ry="2.35" transform="translate(526.56 302.66) rotate(-178.32)"/><rect class="cls-9" x="231.68" y="157.51" width="66.44" height="7.01" rx="2.35" ry="2.35" transform="translate(524.97 329.73) rotate(-178.32)"/><rect class="cls-9" x="231.09" y="171.06" width="66.44" height="7.01" rx="2.35" ry="2.35" transform="translate(523.38 356.8) rotate(-178.32)"/><rect class="cls-9" x="230.49" y="184.6" width="66.44" height="7.01" rx="2.35" ry="2.35" transform="translate(521.8 383.87) rotate(-178.32)"/><rect class="cls-9" x="229.9" y="198.15" width="66.44" height="7.01" rx="2.35" ry="2.35" transform="translate(520.21 410.93) rotate(-178.32)"/><rect class="cls-9" x="303.69" y="186.63" width="66.44" height="7.01" rx="2.35" ry="2.35" transform="translate(668.11 390.06) rotate(-178.32)"/><rect class="cls-9" x="303.1" y="200.18" width="66.44" height="7.01" rx="2.35" ry="2.35" transform="translate(666.52 417.13) rotate(-178.32)"/><rect class="cls-9" x="302.38" y="214.46" width="66.44" height="7.01" rx="2.35" ry="2.35" transform="translate(664.67 445.67) rotate(-178.32)"/><rect class="cls-9" x="301.66" y="228.75" width="66.44" height="7.01" rx="2.35" ry="2.35" transform="translate(662.82 474.21) rotate(-178.32)"/><rect class="cls-9" x="300.94" y="243.03" width="66.44" height="7.01" rx="2.35" ry="2.35" transform="translate(660.96 502.75) rotate(-178.32)"/><rect class="cls-9" x="300.23" y="257.31" width="66.44" height="7.01" rx="2.35" ry="2.35" transform="translate(659.11 531.29) rotate(-178.32)"/><rect class="cls-9" x="299.51" y="271.6" width="66.44" height="7.01" rx="2.35" ry="2.35" transform="translate(657.25 559.84) rotate(-178.32)"/><path class="cls-9" d="M226.09,288.35l136.22,3.99c1.3,.04,2.38-.98,2.41-2.28l.07-2.31c.04-1.3-.98-2.38-2.28-2.41l-136.22-3.99c-1.3-.04-2.38,.98-2.41,2.28l-.07,2.31c-.04,1.3,.98,2.38,2.28,2.41Z"/><rect class="cls-9" x="234.54" y="98.94" width="46.33" height="7.01" rx="2.35" ry="2.35" transform="translate(512.3 212.4) rotate(-178.32)"/><path class="cls-12" d="M211.78,311.78s.29,.03,.86,.05c.58,.02,1.43,.06,2.53,.11,2.24,.08,5.53,.21,9.78,.37,8.53,.3,20.89,.74,36.3,1.28,30.84,1.04,73.86,2.49,122.61,4.14h.26v-.25c.48-9.74,.96-19.96,1.45-30.36,2.62-55.89,4.99-106.47,6.7-143.1,.83-18.3,1.5-33.12,1.97-43.37,.22-5.11,.39-9.08,.51-11.79,.05-1.34,.09-2.36,.12-3.07,.02-.69,.02-1.05,.02-1.05,0,0-.04,.35-.08,1.04-.04,.7-.1,1.73-.17,3.06-.14,2.71-.34,6.68-.61,11.79-.51,10.25-1.24,25.06-2.14,43.36-1.76,36.63-4.18,87.21-6.86,143.1-.49,10.4-.97,20.62-1.44,30.36l.27-.25c-48.75-1.58-91.77-2.97-122.61-3.96-15.41-.47-27.77-.86-36.3-1.12-4.25-.12-7.54-.21-9.78-.28-1.11-.03-1.95-.05-2.53-.06-.57-.01-.86,0-.86,0Z"/><path class="cls-12" d="M226.14,319.15s.27,.03,.81,.05c.55,.03,1.35,.06,2.39,.11,2.12,.09,5.22,.21,9.24,.38,8.06,.31,19.75,.75,34.34,1.31,29.21,1.07,70.03,2.57,116.51,4.27h.26v-.25c.63-11.76,1.28-23.99,1.94-36.48,2.87-55.14,5.48-105.06,7.36-141.2,.92-18.06,1.66-32.68,2.17-42.79,.24-5.04,.43-8.96,.56-11.64,.06-1.32,.1-2.33,.13-3.03,.03-.68,.03-1.03,.03-1.03,0,0-.04,.35-.08,1.03-.04,.69-.1,1.7-.19,3.02-.15,2.67-.38,6.59-.66,11.63-.55,10.11-1.35,24.73-2.34,42.78-1.92,36.14-4.58,86.05-7.52,141.2-.66,12.5-1.3,24.73-1.92,36.48l.27-.25c-46.48-1.63-87.3-3.06-116.51-4.09-14.6-.49-26.29-.88-34.35-1.15-4.02-.12-7.12-.22-9.24-.29-1.04-.03-1.84-.05-2.39-.06-.54-.01-.81,0-.81,0Z"/><g><polygon class="cls-12" points="284.66 62.9 287.33 60.29 319.16 60.45 320.7 63.36 284.66 62.9"/><rect class="cls-12" x="295" y="52.69" width="15.17" height="36.04" transform="translate(377.1 -230.96) rotate(90.72)"/><rect class="cls-12" x="300.94" y="59.25" width="3.03" height="38.54" rx="1.25" ry="1.25" transform="translate(384.79 -222.92) rotate(90.72)"/><path class="cls-11" d="M310.48,74.7h-.02l-15.85-.2c-.46,0-.88-.23-1.14-.61-.26-.37-.32-.85-.16-1.28l4.67-12.56c-2.06-1.54-3.3-3.94-3.34-6.52-.06-4.52,3.55-8.28,8.06-8.4,2.26-.07,4.42,.79,6.03,2.38,1.62,1.6,2.49,3.73,2.46,6-.03,2.69-1.36,5.17-3.56,6.69l4.17,12.64c.14,.43,.07,.9-.2,1.26-.26,.36-.68,.57-1.13,.57Zm-7.55-28.56c-.06,0-.13,0-.19,0-3.9,.1-7.14,3.48-7.08,7.38,.03,2.38,1.24,4.6,3.22,5.93l.33,.22-4.94,13.28c-.05,.12-.03,.26,.04,.36,.07,.11,.19,.17,.32,.17l15.85,.2c.14,0,.25-.06,.33-.16,.08-.1,.1-.24,.06-.36l-4.41-13.38,.33-.21c2.11-1.32,3.39-3.59,3.42-6.08,.03-2-.74-3.87-2.16-5.27-1.37-1.36-3.18-2.1-5.11-2.1Z"/><path class="cls-11" d="M320.26,77.23s-.13-.02-.36-.02c-.27,0-.61-.02-1.03-.03-.94-.02-2.23-.05-3.81-.08-3.25-.05-7.68-.13-12.57-.21-4.89-.05-9.32-.1-12.58-.14-1.58,0-2.87,0-3.81-.01-.42,0-.77,0-1.04,.01-.24,0-.36,.01-.36,.02,0,.01,.12,.02,.36,.04,.27,.01,.61,.03,1.04,.04,.94,.03,2.23,.06,3.81,.11,3.22,.08,7.66,.16,12.57,.23,4.91,.07,9.36,.11,12.57,.12,1.61,0,2.91,0,3.81-.02,.45,0,.8-.01,1.04-.03,.24-.02,.36-.03,.36-.04Z"/><path class="cls-11" d="M320.77,63.05s-.13-.02-.36-.02c-.27,0-.61-.02-1.03-.03-.94-.02-2.23-.05-3.81-.08-3.25-.05-7.68-.13-12.57-.21-4.89-.06-9.32-.1-12.58-.14-1.58,0-2.87,0-3.81-.01-.42,0-.77,0-1.04,.01-.24,0-.36,.01-.36,.02,0,.01,.12,.02,.36,.04,.27,.01,.61,.03,1.04,.04,.94,.03,2.23,.06,3.81,.11,3.22,.08,7.66,.16,12.57,.23,4.91,.07,9.36,.11,12.57,.12,1.61,0,2.91,0,3.81-.02,.45,0,.8-.01,1.04-.03,.24-.02,.36-.03,.36-.04Z"/></g><g><rect class="cls-1" x="229.26" y="215.2" width="61.41" height="55.88" rx="8.92" ry="8.92" transform="translate(7.24 -7.51) rotate(1.68)"/><path class="cls-9" d="M228.83,257.16c.02-.48,.26-.92,.66-1.19l20.1-13.48c1.57-1.25,3.8-1.21,5.31,.1,.08,.07,.17,.13,.27,.18l9.11,4.68c.57,.29,1.27,.19,1.73-.26l13.8-13.49c1.84-1.64,4.67-1.4,6.2,.53l4.43,5.56c.21,.27,.33,.6,.33,.95l-.21,22.45c-.04,4.76-3.99,8.55-8.75,8.4l-44.92-1.42c-4.7-.15-8.38-4.09-8.21-8.79l.15-4.2Z"/><path class="cls-9" d="M258.51,229.6c.15,3.39-2.46,6.26-5.85,6.41-3.39,.15-6.26-2.46-6.41-5.85-.15-3.39,2.46-6.26,5.85-6.41,3.39-.16,6.26,2.46,6.41,5.85Z"/></g><g><rect class="cls-1" x="308.58" y="120.62" width="61.41" height="55.88" rx="8.92" ry="8.92" transform="translate(4.5 -9.88) rotate(1.68)"/><path class="cls-9" d="M308.18,161.81l20.73-13.91c1.61-1.29,3.92-1.2,5.43,.21l10.21,5.24,14.57-14.25c1.84-1.64,4.67-1.4,6.2,.53l4.76,5.98-.2,21.49c-.05,5.57-4.68,10.02-10.25,9.84l-41.97-1.33c-5.5-.17-9.82-4.79-9.62-10.3l.13-3.5Z"/><path class="cls-9" d="M337.83,135.02c.15,3.39-2.46,6.26-5.85,6.41-3.39,.15-6.26-2.46-6.41-5.85-.15-3.39,2.46-6.26,5.85-6.41,3.39-.15,6.26,2.46,6.41,5.85Z"/></g></g><path class="cls-12" d="M238.15,152.58s-.29-.01-.81-.23c-.5-.22-1.22-.68-1.83-1.55-.59-.85-1.11-2.15-.89-3.67,.19-1.5,1.02-3.11,2.43-4.38,1.41-1.28,3.34-2.15,5.47-2.69,2.13-.53,4.46-.87,6.93-.9,4.92-.06,10.42,1.07,15.39,3.9,1.23,.72,2.39,1.61,3.26,2.74,.86,1.13,1.42,2.49,1.46,3.89,.06,1.41-.54,2.77-1.46,3.74-.92,.98-2.09,1.6-3.25,2.04-2.35,.88-4.73,1.02-6.91,1.12-2.19,.07-4.23-.04-6.08-.26-3.7-.45-6.6-1.34-8.54-2.06-.97-.36-1.72-.67-2.21-.91-.5-.23-.75-.36-.74-.38,0-.02,.28,.08,.78,.28,.51,.2,1.26,.49,2.24,.81,1.95,.65,4.85,1.48,8.51,1.89,1.83,.2,3.85,.29,6.02,.2,2.15-.11,4.5-.27,6.75-1.13,1.11-.43,2.22-1.03,3.06-1.93,.84-.89,1.37-2.11,1.31-3.38-.04-1.27-.56-2.54-1.36-3.59-.82-1.06-1.92-1.9-3.12-2.61-4.87-2.77-10.28-3.91-15.12-3.87-2.43,.01-4.73,.33-6.83,.83-2.09,.51-3.97,1.33-5.33,2.54-1.36,1.2-2.18,2.73-2.38,4.15-.23,1.43,.23,2.68,.77,3.52,.56,.85,1.23,1.32,1.71,1.57,.48,.24,.77,.29,.76,.32Z"/><path class="cls-12" d="M264,292.27s-.29-.01-.81-.23c-.5-.22-1.22-.68-1.83-1.55-.59-.85-1.11-2.16-.89-3.67,.19-1.5,1.02-3.11,2.43-4.38,1.41-1.28,3.34-2.15,5.47-2.69,2.13-.53,4.46-.87,6.93-.9,4.92-.06,10.42,1.07,15.39,3.9,1.23,.72,2.39,1.61,3.26,2.74,.86,1.13,1.42,2.49,1.46,3.89,.06,1.41-.54,2.77-1.46,3.74-.92,.98-2.09,1.6-3.25,2.04-2.35,.88-4.73,1.02-6.91,1.12-2.19,.07-4.23-.04-6.08-.26-3.7-.46-6.6-1.34-8.54-2.06-.97-.36-1.72-.67-2.21-.91-.5-.23-.75-.36-.74-.38,0-.02,.28,.08,.78,.28,.51,.2,1.26,.49,2.24,.81,1.95,.65,4.85,1.48,8.51,1.89,1.83,.2,3.85,.29,6.02,.2,2.16-.11,4.5-.27,6.75-1.13,1.11-.43,2.22-1.03,3.06-1.93,.84-.89,1.37-2.11,1.31-3.38-.04-1.27-.56-2.54-1.36-3.59-.82-1.06-1.92-1.9-3.12-2.61-4.87-2.77-10.28-3.91-15.12-3.87-2.43,.01-4.73,.33-6.83,.83-2.09,.51-3.97,1.33-5.33,2.54-1.36,1.2-2.18,2.73-2.38,4.15-.23,1.43,.23,2.68,.77,3.52,.56,.85,1.23,1.32,1.71,1.57,.48,.24,.77,.29,.76,.32Z"/><path class="cls-12" d="M233.99,106.83s-.29-.01-.81-.23c-.5-.22-1.22-.68-1.83-1.55-.59-.85-1.11-2.16-.89-3.67,.19-1.5,1.02-3.11,2.43-4.38,1.4-1.28,3.34-2.15,5.47-2.69,2.13-.53,4.46-.87,6.93-.9,4.92-.06,10.42,1.07,15.39,3.9,1.23,.72,2.39,1.61,3.26,2.74,.86,1.13,1.42,2.49,1.46,3.89,.06,1.41-.54,2.77-1.46,3.74-.92,.98-2.09,1.6-3.25,2.04-2.35,.88-4.73,1.02-6.91,1.12-2.19,.07-4.23-.04-6.08-.26-3.7-.46-6.6-1.34-8.54-2.06-.97-.36-1.72-.67-2.21-.91-.5-.23-.75-.36-.74-.38,0-.02,.28,.08,.78,.28,.51,.2,1.26,.49,2.24,.81,1.95,.65,4.85,1.48,8.51,1.89,1.83,.2,3.85,.29,6.02,.2,2.16-.11,4.5-.27,6.75-1.13,1.11-.43,2.22-1.03,3.06-1.93,.84-.89,1.37-2.11,1.31-3.38-.04-1.27-.56-2.54-1.36-3.59-.82-1.06-1.92-1.9-3.12-2.61-4.87-2.77-10.28-3.91-15.12-3.87-2.43,.01-4.73,.33-6.83,.83-2.09,.51-3.97,1.33-5.33,2.54-1.36,1.2-2.18,2.73-2.38,4.15-.23,1.43,.23,2.68,.77,3.52,.56,.85,1.23,1.32,1.71,1.57,.48,.24,.77,.29,.76,.32Z"/><polygon class="cls-7" points="387.44 247.14 401.19 247.48 407.75 255.93 400.69 264.55 386.58 264.13 387.44 247.14"/><polygon class="cls-11" points="388.74 223.02 402.49 223.36 409.05 231.82 401.99 240.43 387.88 240.01 388.74 223.02"/><path class="cls-9" d="M157.89,49.61h43.49c.29,0,.52,.23,.52,.52v.22c0,.29-.23,.52-.52,.52h-43.49c-.29,0-.52-.23-.52-.52v-.22c0-.29,.23-.52,.52-.52Z"/><path class="cls-9" d="M157.89,53.58h43.49c.29,0,.52,.23,.52,.52v.22c0,.29-.23,.52-.52,.52h-43.49c-.29,0-.52-.23-.52-.52v-.22c0-.29,.23-.52,.52-.52Z"/><path class="cls-9" d="M157.89,57.54h43.49c.29,0,.52,.23,.52,.52v.22c0,.29-.23,.52-.52,.52h-43.49c-.29,0-.52-.23-.52-.52v-.22c0-.29,.23-.52,.52-.52Z"/><path class="cls-12" d="M209.93,53.31c.11-.09,7.03,8.87,15.45,20.01,8.42,11.14,15.16,20.24,15.04,20.33-.11,.09-7.03-8.87-15.46-20.01-8.42-11.14-15.15-20.24-15.04-20.33Z"/><circle class="cls-12" cx="209.67" cy="52.51" r="1.69"/><g><path class="cls-5" d="M256.78,395.73h-50.72c-2.45,0-4.41-2.05-4.29-4.5l1.03-21.49c.11-2.29,2-4.09,4.29-4.09h50.72c2.45,0,4.41,2.05,4.29,4.5l-1.03,21.49c-.11,2.29-2,4.09-4.29,4.09Z"/><path class="cls-12" d="M256.78,395.73s.63,.05,1.67-.4c.51-.23,1.12-.62,1.62-1.27,.52-.64,.89-1.55,.91-2.62,.19-4.36,.46-10.63,.8-18.36-.02-1.9,.62-4.12-.79-5.72-.63-.79-1.59-1.34-2.63-1.46-1.04-.08-2.2-.02-3.33-.03-4.56,0-9.44,.02-14.56,.02-10.26,0-21.53,.01-33.37,.02-1.4,0-2.75,.76-3.46,1.95-.36,.59-.55,1.26-.58,1.95-.03,.73-.07,1.45-.1,2.17-.14,2.88-.28,5.72-.41,8.5-.14,2.79-.27,5.53-.4,8.21-.03,.67-.07,1.34-.1,2-.05,.68-.06,1.28,.13,1.88,.34,1.19,1.25,2.19,2.38,2.63,.57,.23,1.15,.31,1.78,.3h1.89c1.25,0,2.48,0,3.7,0,2.43,0,4.79,0,7.07,.01,4.56,.01,8.81,.02,12.69,.03,7.74,.03,14.01,.06,18.37,.08,2.15,.02,3.83,.04,5,.05l1.3,.03c.29,0,.44,.02,.44,.03s-.15,.02-.44,.03l-1.3,.03c-1.17,.01-2.85,.03-5,.05-4.36,.02-10.63,.05-18.37,.08-3.88,0-8.13,.02-12.69,.03-2.28,0-4.64,0-7.07,.01-1.21,0-2.45,0-3.7,0h-1.89c-.64,.02-1.34-.07-1.96-.32-1.27-.49-2.28-1.61-2.67-2.94-.21-.66-.2-1.4-.15-2.04,.03-.66,.06-1.33,.09-2,.13-2.68,.26-5.42,.39-8.21,.13-2.79,.27-5.63,.4-8.5,.03-.72,.07-1.44,.1-2.17,.03-.76,.26-1.53,.66-2.19,.79-1.34,2.33-2.2,3.9-2.2,11.84,0,23.11,.01,33.37,.02,5.13,0,10,.02,14.56,.02,1.15,.02,2.24-.04,3.39,.05,1.15,.15,2.2,.76,2.89,1.62,.7,.86,1.05,1.96,1,3.02-.05,1.01-.1,2.01-.15,2.98-.41,7.73-.73,13.99-.96,18.35-.03,1.1-.44,2.06-.99,2.71-.53,.67-1.17,1.04-1.7,1.27-.54,.22-.98,.27-1.27,.31-.29,0-.44,0-.44,0Z"/></g><path class="cls-9" d="M210.19,376.1h43.49c.29,0,.52,.23,.52,.52v.22c0,.29-.23,.52-.52,.52h-43.49c-.29,0-.52-.23-.52-.52v-.22c0-.29,.23-.52,.52-.52Z"/><path class="cls-9" d="M210.19,380.06h43.49c.29,0,.52,.23,.52,.52v.22c0,.29-.23,.52-.52,.52h-43.49c-.29,0-.52-.23-.52-.52v-.22c0-.29,.23-.52,.52-.52Z"/><path class="cls-9" d="M210.19,384.03h43.49c.29,0,.52,.23,.52,.52v.22c0,.29-.23,.52-.52,.52h-43.49c-.29,0-.52-.23-.52-.52v-.22c0-.29,.23-.52,.52-.52Z"/><path class="cls-12" d="M275.98,295.22c.13,.07-7.98,15.89-18.11,35.33-10.13,19.45-18.45,35.16-18.58,35.09-.13-.07,7.98-15.88,18.11-35.33,10.13-19.44,18.45-35.16,18.57-35.09Z"/><path class="cls-12" d="M240.99,365.65c0,.94-.76,1.69-1.69,1.69s-1.69-.76-1.69-1.69,.76-1.69,1.69-1.69,1.69,.76,1.69,1.69Z"/></g></g><g id="Books"><g><g><path class="cls-7" d="M407.54,376.59h146.97c1.39,0,2.51,1.13,2.51,2.51v1.05c0,1.39-1.13,2.51-2.51,2.51h-146.97v-6.07h0Z"/><path class="cls-12" d="M405.55,380.1c0,.12-12.33,.22-27.54,.22s-27.54-.1-27.54-.22,12.33-.22,27.54-.22,27.54,.1,27.54,.22Z"/><g><path class="cls-7" d="M356.73,346.07h69.04v36.6h-69.04c-8.35,0-15.14-6.78-15.14-15.14v-6.32c0-8.35,6.78-15.14,15.14-15.14Z"/><path class="cls-7" d="M408.68,346.07h145.83c1.39,0,2.51,1.13,2.51,2.51v1.05c0,1.39-1.13,2.51-2.51,2.51h-145.83c-.63,0-1.14-.51-1.14-1.14v-3.79c0-.63,.51-1.14,1.14-1.14Z"/><path class="cls-2" d="M552.56,376.59h-128.34c-6.75,0-12.22-5.47-12.22-12.22h0c0-6.75,5.47-12.22,12.22-12.22h128.34c-3.44,8.15-3.44,16.3,0,24.45Z"/><g class="cls-13"><path d="M411.99,382.67h-56.53c-7.66,0-13.87-6.21-13.87-13.87v-8.97c0-7.6,6.16-13.76,13.76-13.76h58.04c-13.25,8.03-12.26,27.25-1.39,36.6Z"/></g><path class="cls-12" d="M536.97,365.51c0,.12-26.34,.22-58.83,.22s-58.84-.1-58.84-.22,26.34-.22,58.84-.22,58.83,.1,58.83,.22Z"/><path class="cls-12" d="M549.08,370.94c0,.12-26.34,.22-58.83,.22s-58.84-.1-58.84-.22,26.34-.22,58.84-.22,58.83,.1,58.83,.22Z"/><path class="cls-12" d="M545.51,357.8c0,.12-26.34,.22-58.83,.22s-58.84-.1-58.84-.22,26.34-.22,58.84-.22,58.83,.1,58.83,.22Z"/><path class="cls-12" d="M405.55,349.11c0,.12-12.33,.22-27.54,.22s-27.54-.1-27.54-.22,12.33-.22,27.54-.22,27.54,.1,27.54,.22Z"/></g></g><g><path class="cls-7" d="M330.3,408.36h81.35c4.17,0,7.56,3.39,7.56,7.56v32.01c0,4.17-3.39,7.56-7.56,7.56h-81.35c-10.76,0-19.49-8.73-19.49-19.49v-8.14c0-10.76,8.73-19.49,19.49-19.49Z"/><path class="cls-7" d="M397.6,408.36h187.41c1.79,0,3.24,1.45,3.24,3.24v1.35c0,1.79-1.45,3.24-3.24,3.24h-187.41c-1.03,0-1.87-.84-1.87-1.87v-4.09c0-1.03,.84-1.87,1.87-1.87Z"/><path class="cls-7" d="M397.6,447.66h187.41c1.79,0,3.24,1.45,3.24,3.24v1.35c0,1.79-1.45,3.24-3.24,3.24h-187.41c-1.03,0-1.87-.84-1.87-1.87v-4.09c0-1.03,.84-1.87,1.87-1.87Z"/><path class="cls-2" d="M582.5,447.66h-165.29c-8.69,0-15.74-7.05-15.74-15.74h0c0-8.69,7.05-15.74,15.74-15.74h165.29c-4.43,10.49-4.43,20.99,0,31.48Z"/><g class="cls-13"><path d="M401.47,455.49h-67.35c-12.87,0-23.31-10.44-23.31-23.31h0c0-13.15,10.66-23.82,23.82-23.82h68.64c-17.06,10.34-15.79,35.09-1.79,47.13Z"/></g><path class="cls-12" d="M562.42,433.38c0,.12-33.93,.22-75.77,.22s-75.77-.1-75.77-.22,33.92-.22,75.77-.22,75.77,.1,75.77,.22Z"/><path class="cls-12" d="M578.01,440.38c0,.12-33.93,.22-75.77,.22s-75.77-.1-75.77-.22,33.92-.22,75.77-.22,75.77,.1,75.77,.22Z"/><path class="cls-12" d="M573.41,426.89c0,.12-33.93,.22-75.77,.22s-75.77-.1-75.77-.22,33.92-.22,75.77-.22,75.77,.1,75.77,.22Z"/><path class="cls-12" d="M393.17,452.18c0,.12-15.88,.22-35.47,.22s-35.47-.1-35.47-.22,15.88-.22,35.47-.22,35.47,.1,35.47,.22Z"/><path class="cls-12" d="M393.17,412.27c0,.12-15.88,.22-35.47,.22s-35.47-.1-35.47-.22,15.88-.22,35.47-.22,35.47,.1,35.47,.22Z"/></g><g><path class="cls-11" d="M370.45,381.55h76.39c.29,0,.52,.23,.52,.52v25.95c0,.29-.23,.52-.52,.52h-76.39c-6.16,0-11.16-5-11.16-11.16v-4.66c0-6.16,5-11.16,11.16-11.16Z"/><path class="cls-11" d="M429.48,381.55h152.58c1.45,0,2.63,1.18,2.63,2.63v1.1c0,1.45-1.18,2.63-2.63,2.63h-152.58c-.66,0-1.2-.54-1.2-1.2v-3.96c0-.66,.54-1.2,1.2-1.2Z"/><path class="cls-11" d="M429.48,402.17h152.58c1.45,0,2.63,1.18,2.63,2.63v1.1c0,1.45-1.18,2.63-2.63,2.63h-152.58c-.66,0-1.2-.54-1.2-1.2v-3.96c0-.66,.54-1.2,1.2-1.2Z"/><path class="cls-2" d="M580.03,402.17h-139.94c-3.94,0-7.14-3.19-7.14-7.14h0c0-3.94,3.19-7.14,7.14-7.14h139.94c-3.6,4.76-3.6,9.51,0,14.27Z"/><g class="cls-13"><path d="M432.95,408.53h-60.28c-7.39,0-13.38-5.99-13.38-13.38h0c0-7.51,6.09-13.6,13.6-13.6h61.52c-13.86,5.92-12.83,20.09-1.46,26.98Z"/></g><path class="cls-12" d="M563.71,393.91c0,.12-27.56,.22-61.56,.22s-61.56-.1-61.56-.22,27.56-.22,61.56-.22,61.56,.1,61.56,.22Z"/><path class="cls-12" d="M576.38,397.76c0,.12-27.56,.22-61.56,.22s-61.56-.1-61.56-.22,27.56-.22,61.56-.22,61.56,.1,61.56,.22Z"/><path class="cls-12" d="M426.21,405.85c0,.12-12.9,.22-28.81,.22s-28.82-.1-28.82-.22,12.9-.22,28.82-.22,28.81,.1,28.81,.22Z"/><path class="cls-12" d="M426.21,384.72c0,.12-12.9,.22-28.81,.22s-28.82-.1-28.82-.22,12.9-.22,28.82-.22,28.81,.1,28.81,.22Z"/><path class="cls-12" d="M582.86,381.55c0,.12-47.33,.22-105.7,.22s-105.71-.1-105.71-.22,47.32-.22,105.71-.22,105.7,.1,105.7,.22Z"/></g><polygon class="cls-7" points="497.98 357.4 497.98 372.06 503.06 368.8 508.72 372.06 508.72 357.4 497.98 357.4"/></g></g><g id="Character_3"><g><g><g><path class="cls-12" d="M443.9,119.77s-4.54,16.98-4.93,29l-.13,4s10.02,8.32,18.43,8.84l7.05-17.33-20.41-24.51Z"/><g><g><g><path class="cls-12" d="M488.43,130.19c-1.92-8.28-2.65-17.93-9.54-23.33-5.11-4.01-10.94-5.13-17.43-4.85-3.2,.13-6.8,1.61-9.59,3.18-3.82,2.16-5.43,6.54-7.27,10.52-3.69,7.97-3.22,18.77-.72,21.77l33.32,17.6c6.65-3.46,10.82-4.84,11.89-13.71,.45-3.73,.19-7.52-.65-11.18Z"/><g><path class="cls-8" d="M478.53,113.44l-20.97-6.19c-6.76-.98-11.59,7.19-12.29,13.98-.77,7.54-1.42,16.79-.75,22.47,1.36,11.42,10,13.21,10,13.21,0-.04,.02,.17-.05,3.54l-.03,6.95c-.09,2.21,.3,2.95,1.65,4.7,3.09,4.01,8.73,4.54,15.38,2.08,3.85-1.43,6.53-4.29,6.83-8.2l3.65-48.36c.12-2.07-1.36-3.89-3.41-4.19Z"/><path class="cls-12" d="M447.26,131.57c-.06,.77,.55,1.45,1.35,1.52,.8,.07,1.49-.49,1.55-1.25,.06-.77-.55-1.45-1.34-1.52-.8-.07-1.5,.49-1.55,1.25Z"/><path class="cls-12" d="M446.66,128.08c.17,.2,1.31-.58,2.87-.51,1.57,.04,2.68,.89,2.86,.71,.09-.08-.08-.43-.57-.82-.48-.38-1.31-.77-2.28-.8-.98-.03-1.81,.29-2.3,.64-.5,.35-.67,.69-.59,.78Z"/><path class="cls-12" d="M461.03,131.8c-.06,.77,.55,1.45,1.35,1.52,.8,.07,1.49-.49,1.55-1.25,.06-.77-.55-1.45-1.34-1.52-.8-.07-1.5,.49-1.55,1.25Z"/><path class="cls-12" d="M462.06,128.26c.17,.2,1.31-.58,2.87-.51,1.56,.04,2.68,.89,2.86,.71,.09-.08-.08-.43-.57-.82-.48-.38-1.3-.77-2.28-.8-.98-.03-1.81,.29-2.3,.64-.49,.35-.67,.69-.59,.78Z"/><path class="cls-12" d="M455.96,138.42c.01-.09-.96-.3-2.53-.56-.4-.06-.77-.15-.83-.43-.08-.29,.1-.72,.31-1.17,.41-.95,.85-1.95,1.3-3,1.81-4.27,3.14-7.79,2.97-7.86-.17-.07-1.78,3.33-3.6,7.6-.44,1.05-.86,2.06-1.25,3.02-.17,.45-.45,.95-.27,1.56,.1,.3,.38,.53,.63,.61,.25,.09,.48,.1,.68,.12,1.58,.15,2.57,.19,2.58,.11Z"/><path class="cls-10" d="M454.47,156.91s7.62,.79,15.36-3.46c0,0-4.07,7.79-15.39,6.28l.03-2.83Z"/><path class="cls-10" d="M461.04,141.9c-.38-.67-1.1-1.05-1.85-1.1-1.08-.08-2,.26-2.74,1.23-.25,.28-.26,1.09-.17,1.32,.09,.23,.02,.12,.19,.28,.61,.58,1.26,1.17,2.06,1.39,.8,.23,1.81,0,2.37-.77,.5-.69,.52-1.67,.14-2.35Z"/><path class="cls-12" d="M460.81,139.75c-.25-.03-.33,1.67-1.84,2.81-1.51,1.14-3.31,.87-3.33,1.11-.03,.11,.39,.35,1.15,.4,.75,.06,1.85-.13,2.78-.83,.92-.7,1.35-1.67,1.44-2.36,.1-.71-.07-1.14-.19-1.13Z"/><path class="cls-12" d="M461.47,122.53c.11,.44,1.69,.39,3.5,.79,1.82,.36,3.24,1.04,3.52,.68,.13-.17-.09-.6-.65-1.06-.55-.47-1.46-.95-2.54-1.18-1.09-.23-2.11-.15-2.8,.06-.7,.21-1.07,.51-1.02,.71Z"/><path class="cls-12" d="M446.79,123.86c.36,.31,1.5-.23,2.93-.45,1.43-.27,2.69-.15,2.91-.56,.1-.2-.15-.52-.73-.78-.57-.26-1.49-.4-2.47-.23-.98,.17-1.79,.61-2.24,1.05-.46,.44-.57,.82-.41,.97Z"/></g></g><path class="cls-12" d="M457.49,106.03c-.02,.08-.03,.16-.05,.25l.04,.02v-.26Z"/></g><path class="cls-12" d="M472.15,161.49c.32-2.98-.88-5.96-.53-8.94,.37-3.15,2.41-5.85,3.25-8.91,1.34-4.9-.5-10.11-1.17-15.18-2.84-.35-5.49-2.06-7.38-4.26-2.28-2.65-3.65-5.94-4.99-9.17,.08,3.17,1.18,6.3,3.09,8.82-1.26,.26-2.59-.28-3.54-1.15-.95-.87-1.57-2.04-2.08-3.22-1.23-2.86-1.9-5.96-2.01-9.08-.42,4.46,.08,9,1.48,13.26-.79-.24-1.65-.03-2.47,.09-.82,.12-1.77,.1-2.35-.5-.39-.4-.53-.97-.64-1.51-.78-3.79-.91-7.72-.38-11.55-1.01,2.07-2.02,4.17-2.6,6.4-.59,2.23-.74,4.63-.05,6.83-.33,.41-1.02,.35-1.41,0-.39-.36-.54-.9-.62-1.43-.3-1.91,.04-3.85,.37-5.75-1.13,2.01-1.51,4.35-2.14,6.57-.63,2.22-1.63,4.5-3.56,5.77-.33-3.33-.22-5.6,.28-8.71,.38-2.38,1.51-4.74,2.55-6.91,1.17-2.43,2.79-4.82,4.6-6.41,3.34-2.93,4.74-1.67,6.88-.55l.25,.11c0-.05,0-.11,.02-.16l.1-.45c5.56-1.25,11.45-.98,16.87,.79,4.03,1.31,4.4,9.98,5.38,5.86,.59-2.49,3.82-.22,3.86-.15,4.75,8.56,9.78,22.15,10.01,43.62h0l-21.09,5.89Z"/></g></g><path class="cls-12" d="M485.89,96.07c-1.9-2.07-4.57-3.51-7.38-3.59-2.81-.09-5.7,1.29-7.13,3.71-1.43,2.42-1.15,5.82,.88,7.77l3.51,2.81c2.41,1.33,5.4,1.77,7.97,.77,2.57-1,4.56-3.57,4.5-6.32-.05-1.93-1.04-3.73-2.34-5.15Z"/><path class="cls-11" d="M483.18,111.65c-.68,.32-2.6-2.62-6.03-4.94-3.38-2.39-6.81-3.14-6.75-3.89,.03-.34,1-.61,2.56-.45,1.55,.15,3.68,.83,5.67,2.2,1.98,1.37,3.37,3.12,4.07,4.52,.7,1.41,.79,2.41,.48,2.55Z"/></g><g><path class="cls-7" d="M434.4,204.94l13.14-12.31,8.9,14.14c-.18,1.27-11.52,25.72-16.44,30.79-5.61,5.78-13.25,5.33-16.62-2.65-2.66-6.29-7.07-25.67-7.07-25.67l18.08-4.3Z"/><path class="cls-7" d="M448.73,167.92c-3.14,1.13-10.36,5.08-12.46,7.67-1.02,1.25-2.01,2.68-2.65,4.1-1.64,3.62-4.77,30.43-4.77,30.43l13.99,10.13,12.18-46.9-.78-7.44-5.52,2Z"/><path class="cls-7" d="M444.09,245.34l.88-6.93s-2.7-12.36-3.69-23.09c-1.58-17.06,2.87-27.66,3.48-29.46,.34-1.02,9.48-19.95,9.48-19.95,0,0,1.92,5.83,9.63,4.45,10.75-1.92,14.67-7.75,14.67-7.75l13.89,3s5.41,21.74,6.21,28.95c.43,3.86-4.66,25.69-4.66,25.69l8.19,12.26c.25,.6-3.56,17.36-4.3,18.05-.74,.69-14.07,3.79-14.24,4.36-.17,.57-25.41,11.14-25.4,10.71,.02-.43-12.15-14.88-12.15-14.88l-2.01-5.41Z"/><path class="cls-12" d="M440.95,188.47s0,.18-.03,.51c-.05,.39-.1,.86-.17,1.44-.15,1.25-.36,3.06-.54,5.29-.35,4.47-.7,10.7,.33,17.48,.9,6.8,2.21,12.88,3.06,17.3,.43,2.21,.76,4,.97,5.24,.09,.57,.16,1.05,.22,1.43,.04,.33,.06,.5,.04,.51-.02,0-.07-.16-.15-.49-.09-.38-.19-.85-.32-1.41-.28-1.31-.66-3.07-1.13-5.21-.94-4.4-2.31-10.48-3.21-17.3-1.04-6.83-.62-13.12-.18-17.59,.23-2.24,.5-4.05,.71-5.29,.11-.62,.2-1.1,.27-1.43,.07-.32,.12-.49,.14-.49Z"/></g><g><path class="cls-12" d="M504.62,242.39c2.49,4.23,8.18,20.41,10.39,28.68,10.09,37.71,18.63,88.43,21.46,98.77,3.78,13.77,12.24,44.93,16.55,65.69l-20.68,9.02s-27.09-72.99-34.47-90.92c-7.66-18.58-20.43-53.64-20.43-53.64l-7.38,139.03-19.81,.61s-6.78-39.18-9.47-62.59c-2.69-23.42-2.99-71.62-3.02-83.85-.03-14.9,6.43-48.41,6.43-48.41,0,0,7.73,5.8,22.22,3.58,11.54-1.77,35.46-10.64,35.46-10.64l2.75,4.67Z"/><path class="cls-11" d="M464.35,253.18s0,.57,.12,1.6c.11,1.02,.29,2.5,.53,4.33,.48,3.65,1.24,8.68,2.23,14.21,.99,5.53,2.02,10.51,2.83,14.1,.4,1.8,.75,3.24,1,4.24,.25,1,.41,1.55,.45,1.54,.03,0-.06-.57-.25-1.58-.22-1.1-.5-2.54-.84-4.27-.72-3.61-1.69-8.59-2.68-14.12-.99-5.52-1.8-10.54-2.38-14.17-.28-1.75-.51-3.2-.69-4.3-.17-1.01-.28-1.57-.31-1.57Z"/><path class="cls-11" d="M471.42,252.89s-.03-.25-.39-.4c-.34-.15-.88-.19-1.51-.05-.31,.07-.65,.18-.99,.4-.35,.23-.6,.65-.68,1.1-.16,.89,.25,1.95,1.13,2.52,.86,.56,1.98,.62,2.76,.12,.39-.24,.66-.65,.76-1.03,.11-.38,.12-.75,.07-1.07-.09-.65-.38-1.13-.67-1.36-.29-.24-.5-.25-.5-.23-.02,.04,.16,.12,.36,.37,.2,.24,.41,.68,.45,1.25,.04,.55-.11,1.31-.72,1.66-.61,.36-1.53,.31-2.23-.15-.71-.45-1.05-1.31-.95-2.01,.05-.35,.21-.65,.46-.83,.26-.19,.56-.31,.83-.4,.56-.17,1.04-.19,1.35-.11,.31,.07,.41,.24,.45,.21Z"/><path class="cls-11" d="M458.75,288.25c-.04,.07,.9,.66,2.4,1.64,1.5,.98,3.55,2.36,5.75,3.98,2.2,1.62,4.12,3.17,5.5,4.32,1.38,1.14,2.23,1.86,2.28,1.8,.05-.05-.71-.86-2.04-2.08-1.32-1.22-3.22-2.82-5.43-4.46-2.21-1.63-4.31-2.97-5.86-3.87-1.55-.91-2.56-1.39-2.59-1.33Z"/><path class="cls-11" d="M508.91,363.45s.31,.04,.86,.03c.55-.01,1.34-.07,2.32-.18,1.95-.22,4.64-.71,7.51-1.61,2.87-.9,5.36-2.03,7.09-2.97,.87-.47,1.55-.87,2.01-1.18,.46-.3,.71-.48,.69-.51-.04-.07-1.1,.52-2.86,1.36-1.76,.85-4.24,1.91-7.08,2.8-2.84,.89-5.48,1.43-7.41,1.74-1.93,.31-3.13,.43-3.13,.51Z"/><path class="cls-11" d="M512.27,361.34c.02,.06,.8-.13,2.03-.54,1.23-.41,2.9-1.05,4.7-1.86,1.8-.81,3.39-1.64,4.51-2.29,1.12-.65,1.78-1.1,1.75-1.16-.07-.13-2.89,1.37-6.47,2.98-3.58,1.62-6.57,2.73-6.52,2.87Z"/></g><g><path class="cls-12" d="M450.12,425.21l-.1,20.64s-21.02,6.83-21.41,10.64l40.01,1.64,1.48-32.15-19.99-.76Z"/><path class="cls-9" d="M462.46,444.63c.77,.24,1.27,1.14,1.05,1.91-.21,.78-1.11,1.29-1.89,1.06-.77-.23-1.4-1.28-1.1-2.03,.3-.75,1.39-1.29,2.08-.89"/><path class="cls-11" d="M468.63,458.13l.02-3.25-38.37-.36s-1.81,.7-1.66,1.97l40.01,1.64Z"/><path class="cls-3" d="M449.38,445.62c0,.2,.97,.32,1.91,.99,.95,.64,1.41,1.51,1.6,1.44,.18-.03-.06-1.21-1.21-2-1.14-.8-2.33-.61-2.3-.43Z"/><path class="cls-3" d="M445.11,447.19c-.05,.19,.78,.55,1.41,1.41,.65,.83,.79,1.74,.98,1.73,.18,.04,.36-1.1-.44-2.15-.79-1.05-1.94-1.18-1.95-1Z"/><path class="cls-3" d="M442.52,452.11c.18,.05,.49-.92,.03-2.01-.45-1.09-1.35-1.55-1.44-1.39-.12,.16,.45,.75,.81,1.66,.38,.89,.41,1.72,.6,1.75Z"/><path class="cls-3" d="M449.92,440.92c.07,.18,.98-.05,2.08,.07,1.1,.1,1.95,.5,2.06,.34,.12-.14-.69-.89-1.99-1.02-1.3-.13-2.24,.45-2.15,.61Z"/></g><g><path class="cls-12" d="M544.62,423.05l7.67,23.77,11.48,17.05c.83,1.23,.44,2.9-.84,3.64h0c-.72,.42-1.59,.46-2.34,.12-4.8-2.2-22.42-10.38-22.88-12.15-.54-2.05-9.75-24.53-9.75-24.53l16.66-7.89Z"/><path class="cls-11" d="M562.93,467.51l-25.78-13.63,.35,1c.3,.86,.89,1.6,1.68,2.06,2.11,1.24,8.01,4.53,21.33,10.71,.78,.36,1.68,.31,2.41-.14h0Z"/><g class="cls-14"><path class="cls-3" d="M539.35,444.59c.73,.2,1.24,1.03,1.06,1.77-.17,.74-1.01,1.26-1.75,1.07-.74-.19-1.37-1.16-1.12-1.88,.25-.72,1.27-1.27,1.94-.91"/></g><path class="cls-3" d="M553.95,459.08c.16,.02,.26-1.4,1.43-2.55,1.14-1.19,2.56-1.31,2.53-1.46,0-.06-.36-.14-.94-.03-.57,.11-1.35,.46-1.98,1.11-.64,.65-.98,1.42-1.08,2-.11,.58-.02,.94,.04,.94Z"/><path class="cls-3" d="M556.73,461.65c.15,.06,.64-.97,1.74-1.74,1.08-.8,2.21-.94,2.2-1.1,.03-.14-1.28-.25-2.52,.65-1.25,.89-1.56,2.17-1.42,2.19Z"/><path class="cls-3" d="M549.42,456.12c.15,.07,.9-1.52,2.5-2.87,1.58-1.38,3.26-1.87,3.21-2.03,0-.14-1.87,.14-3.57,1.62-1.71,1.46-2.28,3.26-2.14,3.28Z"/><path class="cls-3" d="M546.48,449.09c.11,.12,1.23-.88,2.9-1.53,1.67-.67,3.16-.71,3.16-.88,.02-.14-1.57-.35-3.36,.37-1.8,.7-2.81,1.96-2.7,2.04Z"/><path class="cls-3" d="M544.06,442.17c.12,.11,1.16-1.13,2.98-1.67,1.81-.58,3.36-.14,3.4-.3,.02-.06-.34-.27-.99-.39-.65-.13-1.59-.13-2.57,.17-.98,.3-1.76,.84-2.22,1.31-.47,.47-.65,.85-.6,.89Z"/><path class="cls-3" d="M546.53,439.19s-.03-.35-.28-.9c-.25-.55-.71-1.34-1.52-2.09-.41-.35-.87-.82-1.64-.9-.38-.04-.85,.19-1.02,.6-.17,.4-.12,.82,0,1.19,.55,1.49,2.33,2.49,4.09,2.12,1.76-.4,2.95-1.9,3.17-3.43,.03-.39-.01-.83-.33-1.17-.32-.34-.85-.33-1.17-.16-.66,.35-.97,.91-1.27,1.35-.59,.94-.85,1.8-.97,2.39-.12,.6-.11,.94-.08,.94,.1,.03,.19-1.37,1.37-3.12,.31-.42,.65-.93,1.14-1.15,.24-.11,.48-.09,.64,.08,.16,.16,.21,.47,.17,.78-.2,1.25-1.29,2.62-2.78,2.94-1.48,.33-3.05-.55-3.5-1.75-.1-.29-.13-.61-.03-.83,.09-.22,.31-.35,.56-.34,.52,.03,1,.41,1.4,.74,1.6,1.39,1.96,2.76,2.06,2.7Z"/></g><g><polygon class="cls-8" points="419 188.47 428.54 198.33 428.93 206.91 417.85 209.46 417.29 209.46 416.58 203.92 410.19 195.43 419 188.47"/><g><path class="cls-11" d="M408.79,181.34c-10.61,11.33-25,17.85-40.51,18.35-15.51,.51-30.29-5.06-41.62-15.67h0c-23.38-21.9-24.59-58.75-2.69-82.13,10.61-11.33,25-17.85,40.51-18.35,15.51-.51,30.29,5.06,41.62,15.67,9.2,8.61,14.96,19.54,17.24,31.05,3.52,17.75-1.27,36.9-14.55,51.08Zm-79.47-.15c10.57,9.9,24.36,15.09,38.83,14.62,14.47-.47,27.9-6.55,37.79-17.12,9.9-10.57,15.09-24.36,14.62-38.83-.47-14.47-6.55-27.9-17.12-37.8-10.57-9.9-24.36-15.09-38.83-14.62-14.47,.47-27.9,6.55-37.8,17.12-12.4,13.24-16.86,31.1-13.58,47.66,2.13,10.74,7.51,20.93,16.09,28.97Z"/><path class="cls-12" d="M408.79,181.34c-10.61,11.33-25,17.85-40.51,18.35-15.51,.51-30.29-5.06-41.62-15.67h0c-23.38-21.9-24.59-58.75-2.69-82.13,10.61-11.33,25-17.85,40.51-18.35,15.51-.51,30.29,5.06,41.62,15.67,9.2,8.61,14.96,19.54,17.24,31.05,3.52,17.75-1.27,36.9-14.55,51.08Zm-79.47-.15c10.57,9.9,24.36,15.09,38.83,14.62,14.47-.47,27.9-6.55,37.79-17.12,9.9-10.57,15.09-24.36,14.62-38.83-.47-14.47-6.55-27.9-17.12-37.8-10.57-9.9-24.36-15.09-38.83-14.62-14.47,.47-27.9,6.55-37.8,17.12-12.4,13.24-16.86,31.1-13.58,47.66,2.13,10.74,7.51,20.93,16.09,28.97Z"/><path class="cls-11" d="M410.22,178.54c-10.61,11.33-25,17.85-40.51,18.35-15.51,.51-30.29-5.06-41.62-15.67h0c-23.38-21.9-24.59-58.75-2.69-82.13,10.61-11.33,25-17.85,40.51-18.35,15.51-.51,30.29,5.06,41.62,15.67,9.2,8.61,14.96,19.54,17.24,31.05,3.52,17.75-1.27,36.9-14.55,51.08Zm-79.47-.15c10.57,9.9,24.36,15.09,38.83,14.62,14.47-.47,27.9-6.55,37.79-17.12,9.9-10.57,15.09-24.36,14.62-38.83-.47-14.47-6.55-27.9-17.12-37.8-10.57-9.9-24.36-15.09-38.83-14.62-14.47,.47-27.9,6.55-37.8,17.12-12.4,13.24-16.86,31.1-13.58,47.66,2.13,10.74,7.51,20.93,16.09,28.97Z"/></g><path class="cls-11" d="M474.72,251.89l1.85-1.79c1.65-1.6,.72-5.24-1.01-7.02l-64.91-67.1-8.68,8.4,64.82,67c2.19,2.15,5.81,2.56,7.93,.51Z"/><g><path class="cls-8" d="M414.9,184.08c-.31-.29-.91-.47-1.31-.35-.4,.12-.73,.42-1.03,.72-2.11,2.14-3.34,5.13-3.34,8.14,0,1.29,.34,2.77,1.49,3.36l1.3-.75c.4-.52,1.61-1.39,1.77-2.03,.67-2.7-.29-2.58,1.4-7.26,.17-.46,.35-1.23-.27-1.82Z"/><path class="cls-8" d="M414.59,187.9c.37-.64,.78-1.26,1.29-1.7,.52-.44,1.16-.69,1.72-.51,.9,.28,1.34,1.58,1.24,2.78-.1,1.2-.62,2.34-1.12,3.43-1.07,2.32-2.14,4.63-3.21,6.95l-.62-.46c-.44,.43-1.09,.21-1.39-.31-.3-.52-.33-1.22-.31-1.89,.09-2.89,.98-5.83,2.39-8.29Z"/><path class="cls-8" d="M416.16,194.83c.74-1.63,1.97-2.99,3.21-4.3,.43-.46,.89-.92,1.49-1.13,.6-.21,1.38-.06,1.68,.49,.28,.53,.03,1.17-.23,1.71-1.61,3.35-3.45,6.59-5.52,9.69l-1.92-1.93c-.87-1.57,.55-2.89,1.29-4.52Z"/></g><g><g><g><path class="cls-8" d="M467.95,216.27l-1.76-.37-9.21-7.85-5.04-4.23c-.42-.35-.93-.59-1.48-.68l-4.99-.83s-.78,2.17,1.49,3.42l2.73,1.41,2.5,2.96-.32,.64s-16.4,2.54-17.42,3.79c-1.02,1.25,0,2.39,.45,2.62,.45,.23,1.25,.11,1.25,.11,0,0-.8,1.93,1.59,3.52,0,0-1.82,2.39,1.36,3.52,0,0,.91,1.82,2.73,2.39,1.82,.57,11.6,1.71,12.62,1.71s11.75,.02,11.75,.02l2.36,.39-.64-12.53Z"/><path class="cls-10" d="M435.79,217.28c-.01,.13,2.02,.41,4.53,.24,2.51-.18,4.5-.54,4.49-.67-.01-.15-2.04-.03-4.52,.15-2.47,.17-4.49,.12-4.5,.27Z"/><path class="cls-10" d="M437.76,220.78c0,.07,.43,.13,1.11,.22,.68,.09,1.63,.22,2.7,.28,1.08,.07,2.04-.03,2.72-.06,.69-.05,1.1-.04,1.12-.1,.02-.07-.42-.22-1.11-.26-.7-.07-1.66-.02-2.69-.09-1.04-.06-2-.14-2.7-.13-.7,0-1.13,.07-1.13,.14Z"/><path class="cls-10" d="M438.8,224.23c-.01,.14,1.97,.41,4.42,.59,1.23,.08,2.31,.17,3.03,.47,.72,.27,1.05,.66,1.12,.6,.05-.02-.2-.54-.97-.93-.75-.42-1.92-.58-3.14-.65-2.45-.19-4.45-.22-4.46-.08Z"/></g><g><path class="cls-7" d="M492.45,165.62s6.93,1.2,12.18,11.52c2.9,5.71,16.48,40.03,17.28,43.04,3.44,12.88-3.22,21.18-9.64,21.74-7.06,.62-43.59-11.16-43.59-11.16l-.81-15.6,33.32,5.06-16.01-31.07s-.61-20.69,7.25-23.52Z"/><path class="cls-12" d="M512.4,228.74s-.17-.87-.9-2.08c-.71-1.21-2-2.73-3.75-3.98-1.76-1.25-3.61-1.97-4.99-2.25-1.38-.29-2.26-.22-2.26-.17,0,.09,.85,.15,2.17,.52,1.32,.36,3.07,1.11,4.77,2.32,1.69,1.22,2.97,2.63,3.74,3.76,.78,1.12,1.12,1.92,1.2,1.88Z"/></g></g><path class="cls-12" d="M503.13,240.59s-.06,0-.17-.02l-.5-.11c-.44-.09-1.08-.28-1.92-.51-1.67-.48-4.09-1.22-7.14-2.2-6.1-1.95-14.72-4.79-24.86-8.22l-.15-.05v-.16c-.24-4.49-.5-9.39-.77-14.49l-.02-.32,.32,.05c2.63,.43,5.39,.87,8.2,1.33,9.04,1.47,17.59,2.87,25.13,4.1l-.25,.34c-4.53-8.87-8.35-16.36-11.07-21.66-1.32-2.62-2.37-4.7-3.1-6.16-.34-.69-.61-1.24-.8-1.64-.18-.37-.27-.57-.25-.58,.01,0,.12,.18,.32,.54,.21,.39,.5,.93,.87,1.61,.76,1.45,1.85,3.5,3.22,6.1,2.75,5.28,6.63,12.74,11.23,21.58l.22,.41-.46-.07c-7.54-1.21-16.09-2.59-25.13-4.05-2.81-.46-5.57-.9-8.2-1.33l.3-.27c.26,5.11,.5,10,.72,14.49l-.16-.21c10.11,3.43,18.7,6.33,24.79,8.4,3.02,.99,5.41,1.77,7.09,2.32,.83,.25,1.46,.47,1.89,.58,.2,.06,.36,.11,.49,.14,.11,.03,.16,.06,.16,.06Z"/><path class="cls-12" d="M493.93,166.25c.05,.08-.94,.65-2.32,1.84-1.38,1.18-3.09,3.07-4.43,5.5-1.32,2.44-1.97,4.91-2.21,6.71-.25,1.81-.19,2.95-.28,2.95-.04,0-.08-.28-.12-.8-.05-.52-.05-1.27,.03-2.2,.07-.93,.27-2.02,.6-3.21,.35-1.18,.84-2.45,1.52-3.71,.69-1.25,1.48-2.35,2.28-3.29,.82-.92,1.63-1.69,2.37-2.25,.73-.57,1.36-.98,1.82-1.22,.46-.25,.72-.37,.73-.34Z"/></g></g></g></g><g id="Character_2"><g><path class="cls-4" d="M109.69,187.27s-7.36,40.96-7.01,44.79c.36,3.83,2.31,9.92,6.76,10.97,4.44,1.04,8.53,0,8.53,0l-5.33-50.31-2.95-5.45Z"/><g><g><path class="cls-4" d="M131.19,152.29l-.52-42.32c-.47-10.52,5.26-19.57,15.79-19.75l.97,.04c9.81,.41,17.66,8.27,18.04,18.08,.36,9.12,.64,19.21,.37,24.09-.54,10.09-10.71,11.25-10.71,11.25-.02,0-.06,6.14-.06,9.11l-8.13,11.28v.6l-15.78-12.37Z"/><path class="cls-6" d="M155.15,143.66s-6.38,.11-12.99-4.43c0,0,2.85,7.72,12.97,7.23l.02-2.8Z"/><path class="cls-12" d="M162.27,117.04c0,.76-.65,1.39-1.45,1.4-.8,0-1.44-.6-1.43-1.36,0-.76,.65-1.39,1.45-1.4,.8,0,1.44,.6,1.43,1.36Z"/><path class="cls-12" d="M163.15,112.7c-.19,.18-1.25-.67-2.8-.73-1.55-.08-2.72,.67-2.88,.47-.08-.09,.12-.42,.63-.76,.5-.34,1.35-.65,2.32-.61,.97,.05,1.76,.43,2.22,.82,.46,.39,.61,.73,.52,.81Z"/><path class="cls-12" d="M148.41,117.04c0,.76-.65,1.39-1.45,1.4-.8,.01-1.44-.6-1.43-1.36,0-.76,.65-1.39,1.45-1.4,.8-.01,1.44,.6,1.43,1.36Z"/><path class="cls-12" d="M147.93,112.43c-.19,.18-1.25-.67-2.8-.73-1.55-.08-2.72,.67-2.88,.47-.08-.09,.12-.42,.63-.76,.5-.34,1.35-.65,2.32-.61,.97,.05,1.77,.44,2.22,.82,.46,.39,.61,.73,.52,.81Z"/><path class="cls-12" d="M153,124.59c0-.09,.97-.22,2.54-.35,.4-.02,.78-.09,.85-.36,.1-.28-.04-.72-.22-1.19-.33-.97-.68-2-1.05-3.07-1.45-4.36-2.48-7.95-2.31-8,.18-.06,1.49,3.43,2.94,7.8,.35,1.08,.68,2.1,1,3.08,.13,.46,.37,.98,.14,1.56-.12,.29-.42,.49-.68,.55-.26,.07-.48,.06-.68,.07-1.58,.02-2.55-.01-2.56-.1Z"/><path class="cls-12" d="M148.63,107.6c-.23,.39-1.72-.09-3.55-.21-1.83-.15-3.37,.11-3.54-.31-.07-.2,.25-.54,.91-.84,.65-.29,1.65-.51,2.75-.43,1.1,.08,2.05,.43,2.65,.82,.61,.39,.88,.77,.78,.96Z"/><path class="cls-12" d="M163.41,108.14c-.33,.34-1.59-.06-3.11-.11-1.52-.1-2.81,.16-3.1-.21-.12-.18,.09-.53,.66-.85,.56-.32,1.5-.57,2.54-.51,1.04,.06,1.94,.4,2.46,.77,.53,.38,.69,.74,.55,.91Z"/><path class="cls-4" d="M131.19,117.48c-.17-.08-6.85-2.34-6.92,4.57-.06,6.91,6.89,5.55,6.9,5.35,.01-.2,.02-9.93,.02-9.93Z"/><path class="cls-6" d="M129.09,124.77s-.12,.08-.33,.17c-.2,.09-.54,.15-.9,0-.73-.27-1.33-1.44-1.35-2.69-.01-.63,.13-1.23,.35-1.72,.22-.5,.55-.85,.91-.92,.37-.08,.63,.14,.71,.34,.09,.19,.05,.33,.08,.34,.02,.02,.15-.11,.1-.4-.03-.14-.11-.3-.27-.44-.16-.14-.41-.21-.66-.18-.53,.03-1.02,.52-1.27,1.06-.28,.54-.45,1.22-.44,1.92,.03,1.39,.73,2.7,1.73,3,.49,.13,.89-.01,1.1-.17,.22-.17,.25-.32,.23-.34Z"/><path class="cls-12" d="M148.13,125.55c.24-.01,.25,1.57,1.61,2.69,1.36,1.12,3.05,.94,3.07,1.16,.02,.1-.38,.31-1.09,.33-.7,.03-1.72-.19-2.56-.88-.83-.69-1.19-1.61-1.25-2.26-.06-.66,.11-1.06,.22-1.05Z"/></g><g><path class="cls-12" d="M179.44,99.23c-.11-.41-.4-.75-.76-.97-.79-.48-1.7-.42-2.58-.45-2.19-.06-4.36-.65-6.31-1.66,.69-.34,1.33-.75,1.87-1.28,1.13-1.1,1.79-2.8,1.3-4.3-.09-.28-.25-.58-.53-.67-.45-.14-.85,.29-1.16,.64-1.04,1.14-2,1.62-3.53,1.45-.95-.11-1.87-.33-2.62-.81-.03-.03-.06-.07-.09-.1-.36-.38-.7-.73-1.04-1.08h0c-2.57-2.61-4.79-4.42-7.08-5.38-3.36-1.4-9-2.01-12.53-1.13-3.53,.88-6.72,3.7-7.25,7.3-1.95-1.69-4.92-1.71-7.33-.77l-.06-.03c-2.69,.92-4.24,3.73-5.06,6.46-.04,.15-.08,.3-.13,.45-.92,1.42-2.17,2.64-3.64,3.48-.26,.15-.56,.33-.59,.63-.03,.29,.21,.54,.45,.72,.64,.47,1.38,.78,2.16,.93-.25,.65-.55,1.27-.91,1.87-.31,.51-.67,1.12-.42,1.65,.2,.41,.72,.59,1.18,.53,.46-.06,.86-.31,1.25-.55-.31,.71-.61,1.42-.92,2.13,.97,.18,1.97,.11,2.91-.16,.54,2.56,.91,7.29,1.55,9.03,1.83,.05,2.28-.14,3.21,.18,1.19,.41,.71,2.52,2.28,1.94,.8-.3,2.05-3.29,2.32-4.09,1.82-5.34,2.47-11.08,1.9-16.69,1.12-1.17,2.47-2.12,3.95-2.78l-.12,.11c2.84-.95,6.05-1.88,8.71-.52,2.07,1.05,3.27,3.23,4.8,4.97,2.91,3.3,6.23,5.08,10.62,5.32,.36,3.06,.42,8.05,.54,10.9l2.5-5.67v.02c.2-.33,.37-.67,.53-1l.06-.1h0c.26-.55,.5-1.09,.82-1.62l.03,.02c1.53,1.38,3.83-.68,2.63-2.35-.24-.33-.52-.63-.85-.87,.7,.67,1.75,1,2.67,.73,.93-.27,1.66-1.2,1.59-2.17-.05-.66-.51-1.25-1.1-1.52,1.25,.11,2.52-.15,3.62-.75,.72-.4,1.42-1.06,1.19-1.96Z"/><path class="cls-11" d="M140.29,92s-.43,.26-1.03,.92c-.59,.65-1.26,1.79-1.59,3.34-.17,.77-.28,1.64-.29,2.57-.01,.93,.05,1.93,.11,2.98,.06,1.05,.12,2.16,.04,3.32-.04,.58-.12,1.16-.25,1.75-.13,.57-.29,1.2-.73,1.69-.35,.4-.93,.57-1.43,.46-.5-.1-.95-.37-1.28-.74-.64-.77-.79-1.73-.95-2.58l.21,.03c-.36,.76-.72,1.51-1.26,2.11-.53,.6-1.25,.99-1.98,1.05-.36,.03-.73-.03-1.04-.19-.32-.16-.55-.43-.7-.71-.15-.29-.22-.6-.2-.9,.02-.3,.14-.58,.33-.78l.11,.1c-.79,.88-1.62,1.35-2.19,1.61-.29,.13-.52,.21-.68,.25-.16,.04-.24,.06-.24,.06,0,0,.08-.04,.23-.09,.15-.06,.38-.15,.66-.29,.56-.28,1.36-.76,2.12-1.63l.11,.1c-.34,.36-.37,.99-.08,1.5,.14,.25,.35,.49,.63,.63,.28,.14,.61,.19,.94,.16,.67-.06,1.35-.43,1.84-1,.5-.57,.86-1.3,1.21-2.06l.15-.32,.06,.35c.15,.85,.31,1.78,.9,2.47,.29,.33,.7,.58,1.14,.66,.44,.09,.91-.05,1.22-.39,.39-.42,.55-1.02,.68-1.58,.13-.57,.2-1.14,.25-1.71,.08-1.14,.03-2.24-.02-3.29-.05-1.05-.11-2.06-.09-3,.02-.94,.14-1.82,.32-2.6,.35-1.57,1.06-2.72,1.69-3.37,.63-.65,1.09-.85,1.09-.85Z"/><path class="cls-11" d="M171.48,102.21s-.03,.03-.08,.07c-.07,.05-.15,.11-.25,.18-.11,.08-.25,.18-.43,.27-.18,.1-.38,.22-.62,.32-.94,.44-2.46,.86-4.34,.73-1.86-.13-4.1-.81-6.08-2.32-2-1.48-3.75-3.64-5.18-6.11-.72-1.23-1.31-2.5-1.96-3.66-.64-1.17-1.36-2.25-2.23-3.11-.86-.86-1.86-1.5-2.9-1.8-.52-.16-1.04-.2-1.54-.19-.5,.02-.97,.12-1.41,.25-.88,.28-1.58,.76-2.12,1.25-.54,.49-.91,1.02-1.16,1.47-.47,.92-.5,1.52-.54,1.51,0,0,0-.04,0-.11,.01-.08,.03-.19,.05-.31,.05-.27,.17-.66,.4-1.14,.24-.46,.61-1.01,1.15-1.52,.54-.51,1.26-1.01,2.16-1.31,.45-.15,.94-.25,1.46-.28,.52-.01,1.06,.03,1.6,.19,1.08,.3,2.11,.96,2.99,1.84,.89,.87,1.62,1.97,2.28,3.15,.66,1.18,1.24,2.44,1.96,3.66,1.41,2.45,3.14,4.59,5.1,6.05,1.95,1.5,4.13,2.19,5.96,2.33,1.85,.15,3.35-.24,4.29-.65,.95-.41,1.41-.78,1.42-.75Z"/><path class="cls-11" d="M172.45,97.77s-.12,.1-.37,.25c-.24,.15-.61,.34-1.08,.53-.47,.2-1.05,.39-1.71,.54-.66,.14-1.4,.24-2.18,.26-.78,.01-1.52-.06-2.19-.17-.66-.13-1.25-.29-1.73-.47-.48-.18-.85-.35-1.1-.49-.25-.14-.38-.22-.38-.23,.02-.04,.58,.25,1.53,.56,.48,.16,1.06,.3,1.71,.41,.65,.1,1.38,.16,2.15,.15,.76-.02,1.49-.11,2.14-.24,.65-.14,1.22-.3,1.69-.48,.94-.35,1.49-.67,1.51-.63Z"/></g></g><g><g><g><g><path class="cls-11" d="M145.99,419.03l-1,22.86s22.9,8.69,23.12,12.93l-44.39-.35,.1-35.68,22.17,.23Z"/><path class="cls-9" d="M131.28,439.85c-.86,.23-1.46,1.19-1.27,2.06,.19,.87,1.16,1.49,2.03,1.28,.86-.21,1.62-1.34,1.33-2.19-.29-.84-1.47-1.51-2.26-1.09"/><g class="cls-14"><path class="cls-3" d="M123.73,454.47l.15-3.6,42.5,1.68s1.97,.88,1.74,2.27l-44.39-.35Z"/></g><path class="cls-12" d="M145.71,441.66c0,.22-1.09,.31-2.17,1-1.09,.66-1.65,1.6-1.85,1.51-.2-.04,.13-1.34,1.45-2.15,1.3-.82,2.61-.55,2.56-.36Z"/><path class="cls-12" d="M150.35,443.62c.05,.21-.89,.57-1.64,1.48-.77,.89-.96,1.88-1.18,1.87-.2,.03-.34-1.24,.6-2.35,.94-1.12,2.21-1.2,2.21-1Z"/><path class="cls-12" d="M152.95,449.22c-.2,.04-.49-1.04,.08-2.22,.56-1.19,1.58-1.65,1.67-1.47,.12,.18-.54,.81-.99,1.79-.47,.97-.54,1.88-.76,1.9Z"/><path class="cls-12" d="M145.36,436.43c-.09,.2-1.08-.11-2.31-.04-1.23,.05-2.18,.45-2.3,.27-.12-.16,.81-.95,2.26-1.02,1.44-.08,2.46,.62,2.35,.79Z"/></g><path class="cls-12" d="M145.93,436.17c.11,0,.13,2.12,.06,5.5l-.18-.27c2.59,.98,6.04,2.31,9.7,4.04,4.01,1.88,7.54,3.83,9.84,5.66,1.15,.9,2,1.76,2.43,2.48,.46,.71,.4,1.26,.33,1.23-.03,0-.07-.45-.57-1.07-.48-.62-1.35-1.4-2.51-2.22-2.32-1.68-5.85-3.55-9.83-5.41-3.64-1.72-7.05-3.1-9.59-4.19l-.19-.08v-.19c.21-3.38,.4-5.49,.51-5.48Z"/></g><g><path class="cls-12" d="M117.28,259.65v20.71l8.17,66.15s-2.59,31.02-4.18,48.53c-1.38,15.21,.88,41.69,.88,41.69h24.23l8.67-88.32,5.38-55.08,9.76-32.63-52.9-1.05Z"/><g><path class="cls-11" d="M160.23,415.06l-6.35,21.98s20.21,13.83,19.43,18.01l-43.06-10.77,8.48-34.65,21.49,5.44Z"/><path class="cls-9" d="M141.04,431.84c-.89,.02-1.7,.81-1.72,1.7-.02,.89,.78,1.72,1.67,1.72,.89,0,1.89-.93,1.81-1.81-.08-.89-1.07-1.81-1.94-1.59"/><g class="cls-14"><path class="cls-3" d="M130.26,444.28l.99-3.46,40.92,11.62s1.71,1.31,1.15,2.61l-43.06-10.77Z"/></g><path class="cls-12" d="M154.64,437c-.06,.21-1.13,.04-2.34,.46-1.21,.39-1.98,1.16-2.15,1.03-.18-.09,.44-1.27,1.91-1.75,1.46-.49,2.67,.08,2.58,.26Z"/><path class="cls-12" d="M158.69,439.99c0,.22-1,.35-1.94,1.06-.96,.68-1.38,1.6-1.59,1.54-.21-.02-.04-1.28,1.14-2.15,1.17-.87,2.43-.65,2.39-.45Z"/><path class="cls-12" d="M159.9,446.04c-.2,0-.23-1.13,.6-2.14,.82-1.02,1.93-1.23,1.97-1.03,.08,.2-.72,.66-1.38,1.51-.69,.83-.97,1.7-1.18,1.67Z"/><path class="cls-12" d="M155.53,431.83c-.14,.17-1.03-.36-2.24-.58-1.2-.24-2.23-.07-2.29-.28-.08-.18,1.01-.73,2.43-.46,1.42,.26,2.24,1.18,2.1,1.32Z"/></g><polygon class="cls-12" points="179.54 261.06 180.65 272.33 179.31 354.13 160.14 419.85 155.49 435.79 130.75 431.13 149.82 261.08 179.54 261.06"/></g></g><path class="cls-11" d="M178.79,355.85s-.03,.13-.09,.39c-.07,.27-.18,.64-.31,1.14-.29,1.01-.7,2.49-1.25,4.4-1.11,3.85-2.72,9.46-4.75,16.52-4.1,14.15-9.9,34.14-16.69,57.55l-.05,.19-.19-.04c-7.82-1.47-16.14-3.03-24.75-4.65l-.23-.04,.04-.23c1.26-6.67,2.58-13.64,3.93-20.74,4-21.04,7.77-40.89,11.06-58.23v.07c-4.1-25.73-7.37-46.24-9.24-58.02v.03c-1.79-3.27-3.18-5.8-4.12-7.52-.46-.85-.81-1.49-1.05-1.94-.23-.44-.34-.67-.34-.67,0,0,.14,.21,.39,.64,.25,.44,.62,1.08,1.1,1.92,.96,1.71,2.38,4.22,4.21,7.47h0v.03c1.92,11.77,5.27,32.28,9.47,57.99v.07c-3.28,17.35-7.03,37.2-11.01,58.24-1.35,7.1-2.67,14.07-3.93,20.74l-.18-.27c8.61,1.63,16.92,3.2,24.74,4.67l-.25,.15c6.86-23.4,12.71-43.37,16.85-57.51,2.08-7.05,3.73-12.64,4.87-16.49,.57-1.9,1.01-3.37,1.31-4.38,.15-.49,.27-.86,.35-1.13,.08-.25,.13-.38,.13-.38Z"/><path class="cls-11" d="M175.1,267.77s-.4,.84-1.35,1.98c-.95,1.14-2.46,2.57-4.39,3.75-1.94,1.18-3.9,1.87-5.35,2.19-1.45,.32-2.37,.34-2.37,.29-.05-.16,3.67-.52,7.48-2.88,3.84-2.3,5.87-5.44,5.98-5.33Z"/></g><g><g><path class="cls-4" d="M227.83,144.33c.31-.46,.23-1.12-.23-1.44-.12-.08-.25-.13-.37-.11-.5,.08-1.8,1.03-2.8,1.05-1,.02-2.71-.29-3.72,.64-1,.93-3.45,6.04-3.76,7.15-.31,1.11-1.4,10.86-1.4,10.86l12.28-18.15Z"/><path class="cls-12" d="M232.07,143.05c-.05,.06-12.01,5.34-17.26,7.65-1.17,.52-1.43,2.03-.51,2.93h0c.57,.55,1.43,.69,2.14,.33l17.16-8.36,1.41-2.15-2.94-.41Z"/><path class="cls-4" d="M219.41,153.81l3.81-2.81,5.03-7.3s2.06-1.22,3.13-.45c1.07,.77,1.42,1.66,.92,2.66,0,0,2.84,.68,3.05,1.63,.2,.95-.41,3.27-.41,3.27,0,0,.42,1.78,.02,2.72-.4,.94-.36,1.76-.36,1.76,0,0,1.84,2.25,1.05,4.56-.79,2.3-4.11,7.45-5.89,8.78-1.78,1.33-5.14,2.92-5.14,2.92l-2.2,4.6-9.12-8.25,6.1-14.08Z"/><path class="cls-6" d="M228.09,144.01s-.07,.15-.23,.39c-.18,.28-.41,.62-.68,1.03-.58,.87-1.39,2.06-2.3,3.37-.46,.65-.89,1.27-1.29,1.84-.2,.28-.42,.54-.65,.75-.24,.21-.49,.36-.73,.47-.48,.23-.9,.33-1.18,.4-.29,.07-.44,.09-.45,.08,0-.01,.15-.06,.43-.15,.28-.09,.68-.21,1.14-.44,.98-.41,1.64-1.79,2.58-3.06,.91-1.31,1.74-2.49,2.34-3.34,.29-.4,.53-.73,.73-1,.18-.23,.28-.36,.29-.35Z"/><path class="cls-6" d="M229.26,151.61s.61-1.31,1.47-2.87c.86-1.56,1.59-2.81,1.63-2.78s-.61,1.31-1.47,2.87c-.86,1.56-1.59,2.81-1.63,2.78Z"/><path class="cls-6" d="M230.46,156.17s-.04-.16-.14-.4c-.09-.24-.28-.55-.59-.76-.31-.22-.67-.29-.92-.29-.25,0-.41,.03-.42,0,0-.02,.14-.11,.42-.14,.27-.03,.68,.03,1.03,.27,.36,.25,.55,.61,.61,.88,.07,.27,.03,.44,.01,.44Z"/><path class="cls-6" d="M234.69,157.54s-.16-.09-.38-.26c-.22-.17-.52-.41-.89-.58-.37-.17-.75-.22-1.01-.16-.26,.05-.35,.21-.38,.19-.03,0,.04-.22,.34-.32,.29-.1,.72-.06,1.12,.12,.41,.19,.7,.46,.9,.65,.2,.2,.31,.34,.29,.36Z"/><path class="cls-6" d="M233.06,153.7s.33-.7,.84-1.49c.5-.8,.95-1.42,.99-1.39,.04,.03-.33,.7-.84,1.49-.5,.8-.95,1.42-.99,1.39Z"/><path class="cls-6" d="M225.75,154.04s-.03-.16-.09-.39c-.07-.23-.23-.53-.52-.74-.29-.21-.62-.27-.86-.26-.24,0-.39,.05-.4,.02,0-.02,.13-.12,.39-.15,.26-.04,.64,0,.98,.25,.33,.24,.49,.6,.53,.86,.04,.26-.01,.42-.03,.42Z"/><path class="cls-11" d="M215.78,154.01s.16-.17,.33-.48c.16-.31,.28-.82,.09-1.32-.2-.5-.62-.81-.95-.94-.33-.14-.56-.13-.56-.16,0-.02,.24-.07,.61,.04,.36,.11,.85,.43,1.08,1,.22,.57,.06,1.14-.15,1.46-.21,.33-.44,.44-.44,.42Z"/></g><g><path class="cls-4" d="M183.73,177.08l14.46,12.38,17.75-26.52,11.54,6.81s-17.3,39.82-21.99,43.34c-4.69,3.52-8.64,2.61-14.68-.18-6.03-2.79-27.52-24.42-27.52-24.42l20.43-11.41Z"/><path class="cls-6" d="M198.7,200.46c-.14-.02,.25-2.52,.08-5.61-.15-3.09-.81-5.53-.67-5.57,.11-.04,.98,2.39,1.14,5.55,.18,3.15-.43,5.67-.54,5.64Z"/></g></g><g><path class="cls-7" d="M124.71,156.83s12.29,.18,12.47,15.5c.18,15.32-3.13,35.82-3.13,35.82l-31.38-5.53s3.89-28.52,7.22-36.74c3.34-8.27,9.73-10.44,14.82-9.05Z"/><path class="cls-7" d="M130.54,145.8l-.39,2.5s-16.77,11.08-17.72,13.94c-1.47,4.43,1.74,41.89,3.15,52.51,1.42,10.62,1.7,34.01,1.7,34.01-1.03,2.76-2.2,5.24-2.59,9.09-.38,3.81,2.59,7.29,2.59,7.29,17.99,5.87,39.97,1.36,63.75-4.06l-.22-6.74-7.77-73.23s2.26-19.03-7.02-24.54c-1.02-.61-9.12-5.21-9.12-5.21l-26.36-5.56Z"/><g class="cls-13"><path d="M157.51,177.54s-.14,10.54,5.53,22.59c5.67,12.05,14.11,19.58,14.11,19.58l-2.52-21.91-17.12-20.25Z"/></g><g><path class="cls-7" d="M171.59,159.06c-2.94-2.38-8.41-3.67-11.53-1.53-1.39,.95-3.01,2.39-3.79,4.66-2.66,7.79-1.07,16.16,1.06,22.37,2.13,6.21,12.43,18.18,12.43,18.18l25.44-15.44s-17.03-20.64-18.8-22.77c-.93-1.11-3.18-4.15-4.81-5.47Z"/><path class="cls-12" d="M171.59,159.06s.2,.13,.54,.43c.34,.3,.82,.77,1.4,1.43,1.18,1.3,2.73,3.32,4.83,5.79,4.16,5,10.04,12.08,17.01,20.46l.15,.19-.21,.13c-7.2,4.38-15.39,9.36-24.04,14.62-.48,.29-.95,.58-1.39,.84l-.17,.1-.13-.15c-2.84-3.36-5.49-6.74-7.86-10.14-1.18-1.7-2.29-3.41-3.25-5.17-.47-.88-.91-1.77-1.25-2.7-.34-.92-.61-1.84-.88-2.76-2.12-7.31-2.18-14.47-.24-19.93,.46-1.39,1.29-2.55,2.23-3.45,.95-.88,1.95-1.66,3.07-2.01,1.1-.36,2.19-.43,3.17-.38,.98,.05,1.86,.23,2.63,.45,1.55,.43,2.65,1.04,3.37,1.49,.71,.45,1.02,.77,1.02,.77-.02,.03-.35-.27-1.07-.69-.72-.42-1.83-1-3.36-1.39-.76-.21-1.64-.36-2.6-.4-.96-.04-2.02,.04-3.07,.4-1.06,.34-2.02,1.11-2.94,1.98-.91,.89-1.69,2.01-2.13,3.35-1.87,5.39-1.79,12.47,.34,19.71,.27,.9,.54,1.82,.88,2.73,.34,.89,.76,1.77,1.23,2.64,.94,1.74,2.05,3.43,3.23,5.12,2.36,3.38,5.01,6.75,7.84,10.1l-.3-.05c.44-.27,.92-.56,1.39-.85,8.66-5.25,16.86-10.21,24.06-14.58l-.05,.31c-6.92-8.43-12.75-15.54-16.88-20.57-2.07-2.49-3.6-4.55-4.74-5.86-.57-.66-1.03-1.15-1.35-1.46-.32-.32-.5-.47-.49-.48Z"/></g><path class="cls-12" d="M112.1,170.72s.04,.15,.07,.44c.03,.35,.07,.77,.12,1.28,.09,1.18,.2,2.77,.34,4.7,.26,4.04,.6,9.5,.99,15.53,.4,6.06,.81,11.55,1.17,15.51,.18,1.93,.33,3.51,.44,4.69,.04,.51,.08,.93,.11,1.28,.02,.29,.02,.45,0,.45-.02,0-.05-.15-.1-.44-.05-.34-.12-.76-.2-1.27-.16-1.1-.37-2.7-.58-4.68-.44-3.96-.91-9.45-1.31-15.51-.39-6.06-.67-11.56-.85-15.54-.08-1.94-.14-3.53-.19-4.71-.01-.51-.02-.94-.03-1.28,0-.29,0-.45,.02-.45Z"/><path class="cls-12" d="M168.36,259.65s-.16,.07-.47,.15c-.36,.09-.82,.2-1.37,.33-.6,.15-1.33,.3-2.19,.46-.86,.17-1.83,.36-2.92,.52-2.16,.37-4.76,.67-7.65,.96-2.89,.24-6.08,.42-9.43,.46-3.35,.02-6.54-.09-9.44-.28-2.89-.23-5.5-.5-7.66-.85-1.09-.15-2.06-.33-2.92-.49-.86-.15-1.59-.3-2.19-.45-.55-.13-1.01-.24-1.37-.33-.31-.08-.48-.13-.47-.15,0-.02,.17,0,.49,.05,.37,.06,.83,.15,1.39,.24,.6,.12,1.34,.24,2.2,.37,.86,.14,1.83,.3,2.92,.42,2.17,.31,4.76,.54,7.65,.75,2.89,.17,6.07,.27,9.4,.25,3.34-.04,6.51-.21,9.4-.42,2.88-.26,5.47-.52,7.64-.85,1.09-.14,2.06-.31,2.92-.45,.86-.14,1.6-.26,2.2-.38,.56-.1,1.02-.18,1.39-.25,.32-.05,.49-.07,.49-.06Z"/></g></g></g></svg>