<?xml version="1.0" encoding="UTF-8"?><svg id="_лой_1" xmlns="http://www.w3.org/2000/svg" viewBox="0 0 3000 2000"><defs><style>.cls-1{fill:#f4a36c;}.cls-2{fill:#f99746;}.cls-3{fill:#6980e0;}.cls-4{fill:#ed975d;}.cls-5{fill:#ed985f;}.cls-6{fill:#ebf3fa;}.cls-7{fill:#ed7d2b;}.cls-8{fill:#f78248;}.cls-9{fill:#ea7147;}.cls-10{fill:#fff;}.cls-11{fill:#ffb27d;}.cls-12{fill:#fca56b;}.cls-13{fill:#9db0f4;}.cls-14{fill:#8c9df4;}.cls-15{fill:#b3cff9;}.cls-16{fill:#cde3fd;}.cls-17{fill:#d14842;}.cls-18{fill:#abddda;}.cls-19{fill:#abc1ef;}.cls-20{fill:#c7d8ff;}.cls-21{fill:#163560;}.cls-22{fill:#20497a;}.cls-23{fill:#1f4d84;}.cls-24{fill:#233862;}.cls-25{fill:#152949;}.cls-26{fill:#0f2549;}.cls-27,.cls-28{fill:#94b0ed;}.cls-29{fill:#94b7ea;}.cls-30{fill:#2b4570;}.cls-31{fill:#2b478b;}.cls-32{fill:#304f7f;}.cls-33{fill:#314387;}.cls-34{fill:#77a4e5;}.cls-35{fill:#2557a0;}.cls-36,.cls-37{opacity:.3;}.cls-28{opacity:.5;}.cls-38{fill:#496bad;}.cls-38,.cls-39{opacity:.8;}.cls-39{fill:#aec3ff;}.cls-37{fill:#afcdfb;}</style></defs><rect class="cls-10" width="3000" height="2000"/><g><path class="cls-6" d="M2525.01,1843.93c-156.58,0-2131.55,1.06-2131.55,.81-.87-2.04-360.79-405.2,67.52-743.61,207.4-163.87-122.5-414.58,139.76-669.87,200.01-194.69,407.56,21.23,624.26-69.38,38.29-15.99,76.71-41.74,115.17-81.24,21.65-22.21,45.38-41.64,70.78-58.42,3.89-2.58,7.83-5.1,11.8-7.55,15.21-9.38,30.98-17.86,47.22-25.48,10.91-5.12,22.02-9.85,33.35-14.19h0c17.97-6.9,36.42-12.86,55.27-17.89,26.77-7.16,54.33-12.48,82.44-16.08,12.26-1.59,24.62-2.82,37.07-3.76,242.13-18.1,514.62,83.69,655.25,232.47,28.31,29.96,157.05,184.97,55.57,398.04-64.07,134.52,191.18,309.56,250.73,482.21,149.91,434.59-112.45,588.85-114.65,593.94Z"/><g><path class="cls-37" d="M1829.76,775.31s19.52-160.26,111.97-255.93c92.44-95.66,183.21-118.98,186.67-82.61,3.46,36.37-144.88,93.87-203.66,175.8s-94.97,162.73-94.97,162.73Z"/><path class="cls-37" d="M1850.22,819.23s24.33-115.24,97.57-178.91c73.24-63.67,140.68-74.88,140.89-48.22,.21,26.65-111.24,59.06-159.14,114.88-47.9,55.82-79.32,112.26-79.32,112.26Z"/></g><path class="cls-37" d="M2313.81,717.91c-19.35-71.64-140.24-49.33-140.24-49.33,0,0-82.15,125.29-106.03,128.26-23.88,2.97,49.32-120.84,49.32-120.84-46.25-4.5-164.17,52.12-164.17,52.12,0,0,7.37,146.24-16.5,143.24-23.87-3,.08-129.82,.08-129.82-44.77,13.4-86.59,65.6-86.59,65.6-52.28,85.02,59.6,147.76,59.6,147.76,0,0,1.46,50.74-29.91,108.91h0s-7.08,10.74-14.28,29h12.2c1-3.26,2.1-6.43,3.32-9.46,0-.02,0-.04,.02-.05,.02-.04,.04-.09,.05-.13,.84-1.89,2.04-4.57,3.54-7.84h0s0-.02,0-.03c3.73-7.3,6.25-12.69,7.85-16.58,0-.01,0-.02,.01-.04,11.19-22.91,27.3-52.75,38.04-59,0,0-1.35-1.9-2.61-5.6,.83,1.79,1.7,3.65,2.61,5.6,20.86,44.78,125.31,52.3,183.52,40.4,58.2-11.9,32.84-28.33,1.53-54.99-31.32-26.66-96.98-19.68-116.37-30.14-19.39-10.46,8.97-20.89,47.76-17.88s58.17,41.82,120.84,47.83c62.67,6.01,110.49-111.85,110.49-111.85-43.28,13.4-120.86-10.52-123.84-25.44-2.98-14.92,111.92-13.36,129.83-17.83,17.91-4.47,49.27-40.26,29.91-111.9Z"/><g><path class="cls-37" d="M1104.7,1097.9s-126.93-116.72-268.35-130.4c-141.42-13.68-231.35,30.26-208.95,62.22,22.39,31.96,182.8-24.11,287.34,1.74,104.54,25.85,189.96,66.44,189.96,66.44Z"/><path class="cls-37" d="M1118.51,1147.78s-99.63-76.8-203.28-77.79c-103.65-1-166.22,36.63-147.92,58.44,18.3,21.81,131.33-29.09,208.94-16.92,77.61,12.17,142.26,36.27,142.26,36.27Z"/></g><path class="cls-37" d="M785.53,1275.33c-17.76-41.4,48.19-76.3,48.19-76.3,0,0,86.3,28.72,98.78,21.14,12.49-7.58-68.99-38.96-68.99-38.96,20.33-19.56,97.8-37.01,97.8-37.01,0,0,51.56,72.4,61.8,61.99,10.24-10.42-48.93-61.78-48.93-61.78,26.37-10.48,65.93-1.37,65.93-1.37,56.91,20.79,27.27,92.8,27.27,92.8,0,0,18.41,24.71,55.26,40.59h0s7.42,2.45,17.72,8.43l-5.81,4.6c-1.71-1.18-3.42-2.27-5.15-3.26,0-.01-.02-.02-.03-.02-.03-.01-.05-.03-.08-.04-1.11-.58-2.69-1.41-4.64-2.4h-.02c-4.53-2.08-7.76-3.69-9.98-4.95,0,0-.01,0-.02-.01-13.95-6.69-32.86-14.83-40.33-13.77,0,0-.07-1.41-.87-3.65,.28,1.16,.56,2.38,.87,3.65,6.93,29.18-39.97,72.1-72.16,88.35-32.19,16.25-26.31-1.12-21.44-25.61,4.87-24.49,38.76-45.89,44.06-58.17,5.29-12.28-12.13-6.57-29.47,9.48-17.34,16.04-11.95,41.82-39.52,68.28-27.58,26.46-94.73-11.64-94.73-11.64,25.65-9.92,53.58-50.53,49.38-58.75-4.2-8.23-58.32,35.79-68.53,40.41-10.21,4.62-38.62-.61-56.38-42.01Z"/><g><path class="cls-8" d="M1540.34,575.16s92.09-67.94,258.43,24.65c0,0,86.07,32.72,105.79,116.51,5.21,22.15,15.05,42.98,29.42,60.76,17.41,21.54,38.03,56.45,41.95,103.99,2.08,25.18,9.53,49.64,21.86,71.78,14.4,25.87,29.38,68.31,23.88,128.3,0,0,53.23,57.41,23.29,185.35,0,0,24.37,80.21-30.63,152.55,0,0,13.7,92.3-65.85,123.24,0,0-41.98,95.99-167,101.82-18.11,.84-35.9,4.96-52.69,11.7-23.8,9.56-66.55,18.87-127.97,2.72-99.81-26.24-89.79-86.81-89.79-86.81V589.88l29.31-14.72Z"/><path class="cls-8" d="M1486.66,575.16s-92.09-67.94-258.43,24.65c0,0-90.17,34.28-107.07,122.51-3.57,18.62-12.14,35.97-24.54,50.44-19.09,22.26-44.08,61.74-46.08,117.33-.71,19.72-6.7,38.87-17.16,55.69-13.12,21.1-28.52,56.47-29.19,106.92-.23,17.04-4.39,33.79-12.05,49.06-13.47,26.83-29.81,80.49-10.1,164.74,0,0-18.93,62.31,14.23,126.62,8.85,17.17,14.4,35.83,16.09,55.01,2.2,24.92,11.53,60.24,44.21,82.66,14.27,9.79,26.63,22.04,36.91,35.86,20.85,28.03,65.34,70.99,144.91,77.01,21.85,1.66,43.35,6.19,63.9,13.7,24.46,8.94,65.83,16.42,123.88,1.16,99.81-26.24,89.79-86.81,89.79-86.81V589.88l-29.31-14.72Z"/><path class="cls-9" d="M1430.08,1227.2c-44.45-5.41-80.13-30.78-106.05-75.41-.1-.18-.21-.36-.31-.53-12.22-21.17-5.23-47.99,15.5-61.21,4.18-2.66,7.75-5.61,10.14-8.75,0,0-44.82,6.49-98.97-15.77-31.76-13.05-53.27-40.25-53.27-40.25,.6,.87,2.93,29.72,29.42,53.85,7.69,7.01,25.68,16.01,38.61,18.86,13.39,2.94,19.07,16.22,24.01,28.84,4.14,10.57,9.56,22.46,16.56,34.58,11.66,20.2,25.47,37.09,41.11,50.47-30.02,13.39-46.89,34.16-56.02,50.29-11.45,20.24-13.5,37.69-13.58,38.42,0,0,11.14-21.53,34.72-42.51,20.84-18.54,48.34-27.83,76.38-26.62,19.61,.85,41.74-4.25,41.74-4.25Z"/><path class="cls-9" d="M1240.81,1359.07c-2.3,0-4.6-.07-6.91-.2-31.18-1.82-57.85-16.34-77.14-42-30.02-39.93-23.19-76.26-12.16-99.7,.13-.27,.26-.54,.39-.81,4.57-9.51,7.13,8.29,6.58,18.8-1.18,22.54,16.59,57.35,38.7,76.21,25.59,21.83,67.04,21.33,98.64,22.39,11.83,.4,21.81,1.18,11.26,8.25-15.11,10.12-38.32,17.06-59.34,17.06Z"/><path class="cls-9" d="M1176.75,1478.41c-10.79,5.7-24.24,2.14-30.65-8.15-37.79-60.65-88.43-104.66-89.07-104.95h0c3.17,1.45,78.03,36.34,119.72,113.1h0Z"/><path class="cls-9" d="M1073.63,1170.1c8.98-17.11,32.57-23.47,50.86-25.79,21.77-2.76,52.26,1.06,52.26,1.06-2.87-.33-47.92-41.95-99.01-9.54-3.21-30.73-41.01-44.15-41.01-44.15,.06,.08,6.25,8.42,11.52,20.53,4.78,10.98,9.77,27.38,6.43,43.17-3.13,14.79-13.3,27.12-30.21,36.65,0,0,35.84,7.01,49.17-21.92Z"/><path class="cls-9" d="M1337.13,999.88c18.53-5.49,39.54,6.99,53.95,18.48,17.16,13.68,35.67,38.21,35.67,38.21-1.76-2.29-3.33-63.6-62.19-77.64,19.79-23.72,3.06-60.18,3.06-60.18-.02,.1-1.68,10.35-6.69,22.57-4.54,11.08-12.81,26.09-26.47,34.7-12.79,8.06-28.71,9.38-47.33,3.9,0,0,19.95,30.58,50,19.97Z"/><g><path class="cls-9" d="M1611.1,1185.8c48.15-5.86,86.8-33.34,114.88-81.69,.11-.19,.22-.39,.33-.58,13.23-22.93,5.67-51.98-16.8-66.31-4.52-2.88-8.4-6.07-10.99-9.47,0,0,48.55,7.03,107.21-17.09,34.4-14.14,57.71-43.6,57.71-43.6-.65,.94-3.18,32.2-31.87,58.33-8.33,7.59-27.81,17.35-41.83,20.43-14.51,3.19-20.66,17.58-26.01,31.25-4.48,11.45-10.36,24.33-17.94,37.46-12.63,21.89-27.59,40.18-44.54,54.67,32.52,14.51,50.79,37,60.68,54.48,12.41,21.93,14.62,40.83,14.71,41.62,0,0-12.07-23.32-37.61-46.05-22.57-20.08-52.37-30.15-82.74-28.84-21.25,.92-45.21-4.61-45.21-4.61Z"/><path class="cls-9" d="M1785.37,1359.07c2.3,0,4.6-.07,6.91-.2,31.18-1.82,57.85-16.34,77.14-42,30.02-39.93,23.19-76.26,12.16-99.7-.13-.27-.26-.54-.39-.81-4.57-9.51-7.13,8.29-6.58,18.8,1.18,22.54-16.59,57.35-38.7,76.21-25.59,21.83-67.04,21.33-98.64,22.39-11.83,.4-21.81,1.18-11.26,8.25,15.11,10.12,38.32,17.06,59.34,17.06Z"/><path class="cls-9" d="M1644.58,982.82c1.68-.59,3.34-1.23,5-1.91,22.29-9.31,37.94-26.73,45.28-50.4,11.42-36.84-3.13-61.62-17.35-75.92-.17-.17-.33-.33-.5-.49-5.84-5.78-3.03,7.88,.14,15.41,6.79,16.16,2.97,46.13-8.21,65.55-12.95,22.48-43.34,32.73-66.14,41.58-8.54,3.32-15.62,6.44-6.05,8.9,13.7,3.52,32.47,2.65,47.82-2.72Z"/><path class="cls-9" d="M1801.84,1473.35c8.38,8.81,22.27,9.67,31.68,1.94,55.47-45.56,117.72-71.28,118.42-71.36h0c-3.47,.37-85.71,9.83-150.11,69.42h0Z"/><path class="cls-9" d="M1824.69,850.81c-8.98-17.11-32.57-23.47-50.86-25.79-21.77-2.76-52.26,1.06-52.26,1.06,2.87-.33,47.92-41.95,99.01-9.55,3.21-30.73,41.01-44.15,41.01-44.15-.06,.08-6.25,8.43-11.51,20.53-4.78,10.98-9.77,27.38-6.43,43.17,3.13,14.79,13.3,27.12,30.21,36.65,0,0-35.84,7.02-49.17-21.92Z"/><path class="cls-9" d="M1952.54,1170.1c-8.98-17.11-32.57-23.47-50.86-25.79-21.77-2.76-52.26,1.06-52.26,1.06,2.87-.33,47.92-41.95,99.01-9.54,3.21-30.73,41.01-44.15,41.01-44.15-.06,.08-6.25,8.42-11.51,20.53-4.78,10.98-9.77,27.38-6.43,43.17,3.13,14.79,13.3,27.12,30.21,36.65,0,0-35.84,7.01-49.17-21.92Z"/></g><rect class="cls-9" x="1012.93" y="1080.45" width="1003.61" height="22.46" transform="translate(419.49 2603.84) rotate(-89.87)"/></g><g><path class="cls-11" d="M2115.06,1215.74s-2.83-6.36-4.66-9.37c-1.83-3.01-9.65-11.83-10.98-9.83-1.33,2-6.66,15.44-3.83,19.2,2.83,3.76-.18,10.31,13.89,14.27l5.58-14.27Z"/><path class="cls-3" d="M2271.4,1175.6s-72.01,60.11-100.09,54.55c-21.96-4.35-55.66-15.91-55.66-15.91l-6.74,17.24s30.22,40.99,61.73,41.26c49.25,.42,85.64-21.32,85.64-21.32l15.12-75.82Z"/><path class="cls-22" d="M2397.69,1809.66s-2.09,33.72-8.61,34.21c-.87,.06-33.09,.06-33.09,.06l-41.13-.24s.27-9.91,12.29-12.01c12.02-2.1,32.15-10.55,39.43-26.44,7.66-16.72,31.11,4.41,31.11,4.41Z"/><path class="cls-2" d="M2400.06,1812s-12.5,4.18-22.27,4.18c-10.89,0-20.79-2.97-20.79-2.97,0,0-2.35-22.77-15.31-72.93-6.79-26.29-16.49-60.1-30.29-102.11-38.16-116.1-49.76-184.02-50.82-190.45-.06-.34-.08-.51-.08-.51l.12-.06,117.3-51.5s-14.5,160.01,4,221.43c2.59,8.58,4.81,18.59,6.71,29.42,11.68,66.71,11.41,165.49,11.41,165.49Z"/><path class="cls-7" d="M2341.7,1740.29c-6.79-26.29-16.49-60.1-30.29-102.11-38.16-116.1-49.76-184.02-50.82-190.45,.01-.19,.02-.37,.04-.56l117.3-51.5s-14.5,160.01,4,221.43c2.59,8.58-40.24,123.2-40.24,123.2Z"/><path class="cls-22" d="M2306.07,1809.66s-2.09,33.72-8.62,34.21c-.87,.06-33.09,.06-33.09,.06l-41.13-.24s.27-9.91,12.29-12.01c12.02-2.1,32.15-10.55,39.43-26.44,7.66-16.72,31.12,4.41,31.12,4.41Z"/><path class="cls-2" d="M2239.57,1399.43s-1.52,103.69,16.42,231c17.94,127.31,11.86,181.35,11.86,181.35,0,0,12.32,3.99,17.3,4.4,12.67,1.03,25.67-2.97,25.67-2.97,0,0,25.68-127.36,18.32-191.08-7.36-63.72,35.16-218.66,35.16-218.66l-124.72-4.04Z"/><path class="cls-11" d="M2323.55,1149.01l-16.01,20.64-33.61,1.83c-.19-2.7-.68-13.98-1.12-24.19-.02-.6-.05-1.21-.07-1.79-.36-8.69-.51-18.22-.51-18.22l26.65-18.49,9.99-7.66c.01,.18,1.57,9.4,1.57,10.76,.12,26.52,13.09,37.13,13.09,37.13Z"/><path class="cls-14" d="M2232.73,1403.92c.47,54.73,4.12,182.76,6.8,185.36,28.5,27.52,153.89-7.54,160.54-37.86,6.64-30.31-25.26-388.69-73.95-403-10.1-2.96-64.12,14.5-64.12,14.5,0,0-8.47,22.16-14.03,50.4-2.06,10.46-8.78,85.11-12.71,134.99-1.03,13.3-1.88,24.83-2.38,32.92-.2,3.34-.25,11.49-.16,22.7Z"/><path class="cls-12" d="M2308.3,1112.85c-3.88,12.77-26.1,28.41-35.48,34.45-.02-.6-.05-1.21-.07-1.79-.36-8.69-.66-26.25-.66-26.25l26.8-10.46c6.62-1.7,11.02-1.2,9.41,4.06Z"/><path class="cls-11" d="M2263.28,1122.37s49.78,15.53,58.97-15.62c9.19-31.15,21.81-50.12-9.58-61.35-31.39-11.23-41.1-1.18-46.7,8.47-5.6,9.65-15.4,63.66-2.68,68.5Z"/><path class="cls-21" d="M2267.92,1050.87s3.17,36.24,10.67,34.67c7.5-1.57,17.38-1.83,16.29,9.09-1.1,10.93,9.23,29.46,16.12,29.42,23.18-.14,48.71-62.5,42.36-73.78-18.31-32.55-111.9-39.11-85.44,.59Z"/><path class="cls-3" d="M2275.24,1149.22c.64-.27,37.05-16.6,41.31-15.2,4.26,1.41,9.57,14.41,9.57,14.41l-64.12,14.5s5.05-10.26,13.24-13.71Z"/><g><path class="cls-23" d="M2039.35,1332.56l187.21,198.82c3.62,3.84,9.85,3.91,13.85,.14l12.74-11.98c4-3.77,4.32-9.99,.7-13.83l-187.58-199.18c-3.62-3.84-6.76-.82-10.76,2.95l-12.73,11.98c-4,3.77-7.04,7.27-3.42,11.11Z"/><path class="cls-7" d="M2141.98,1441.48l84.3,89.6c3.77,4,10.12,4.2,14.12,.43l12.74-11.98c4-3.77,4.2-10.12,.43-14.12l-84.3-89.6-27.29,25.67Z"/><path class="cls-21" d="M1825.89,1316c60.54,64.35,161.8,67.43,226.15,6.9,21.07-19.83,35.57-44,43.42-69.84,16.13-53.05,4.19-113.03-36.53-156.31-60.55-64.35-161.79-67.43-226.14-6.89-.84,.8-1.69,1.6-2.5,2.42-61.92,60.79-64.14,160.21-4.4,223.72Zm13.72-218.89c22.22-20.89,49.12-33.7,77.09-38.54,47.99-8.31,99.1,6.89,134.97,45.01,56.78,60.35,53.88,155.29-6.46,212.07-38.13,35.87-90.08,47.92-137.49,36.71-27.61-6.55-53.68-20.97-74.58-43.18-56.77-60.34-53.88-155.29,6.46-212.06Z"/><g class="cls-36"><path class="cls-15" d="M1833.15,1309.16c20.89,22.22,46.96,36.64,74.58,43.18,47.4,11.22,99.35-.83,137.48-36.71,27.79-26.14,43.4-60.39,46.59-95.62,3.76-41.27-9.5-83.88-40.14-116.45-35.86-38.13-86.98-53.33-134.97-45.01-8.27,1.43-16.45,3.55-24.46,6.38-19.01,6.75-36.98,17.44-52.62,32.16-60.34,56.78-63.24,151.71-6.46,212.06Z"/></g></g><path class="cls-3" d="M2232.73,1403.92c118.97-80.56,109.27-191.37,109.27-191.37-46.42,26.19-92.43,88.17-106.73,135.75-1.03,13.3-1.88,24.83-2.38,32.92-.2,3.34-.25,11.49-.16,22.7Z"/><g><path class="cls-11" d="M2127.88,1363.15c-7.93-1.83-13.26-7.83-14.36-8.87,0,0-3.38,.23,.55,7.45,.33,.6,1.06,2.15,1.61,3.25,.22,.45-.09,.97-.59,1.01-4.58,.35-9.18-1.46-18,.38-1.22,.25-1.57,3.17-1.52,4.41,.08,2.1-.07,4.46,2.37,7.68,1.42,1.87,5.38,3.89,14.21,7.44,3.36,1.35,12.98,.33,21.99-2.76l7.2-3.33-2.23-13.38-1.81,.38c-2.87,.6-6.43-2.91-9.43-3.64Z"/><path class="cls-14" d="M2307.1,1162.93s101.06,19.24-29.73,165.58c-20.92,23.41-133.93,53.88-133.93,53.88,0,0-11.46-9.75-5.68-17.65,0,0,77.81-56.5,94.93-65.49,7.7-4.04,29.89-90.19,42.45-110.93,12.56-20.75,31.97-25.39,31.97-25.39Z"/></g><path class="cls-11" d="M2112.32,1217.51s-3.31-6.32-3.95-9.65c-.65-3.33-4.81-13.05-6.52-14.76-.69-.68-2.95,.2-3.22,3.15-.12,1.28,.51,3.61,1.62,6.39,1.81,4.52,1.51,10.66,2.14,12.7,1.57,5.09,9.93,2.17,9.93,2.17Z"/></g><g><path class="cls-5" d="M1510.34,1362.38c-6.8-21.85-36.4-25.95-48.3-6.4-2.14,3.51-3.5,7.55-3.61,12.18-.66,25.62,49.87,124.79,56.58,133.56,12.21,15.97,85.91,54.38,85.91,54.38l15.66-2.28s-8.86-5.56-18.02-14.72c-18.94-18.91-46.54-49.64-51.6-53.9-8.68-7.3-23.69-81.33-36.61-122.82Z"/><path class="cls-24" d="M1531.74,1237.03c.41-1.64-35.75,16.34-37.58,18.38-16.96,18.81-12.12,43.36-2.42,43.6,6.22,.15,5.02,10.5,5.02,10.5l69.33-29.33s-8.35-48.68-34.35-43.14Z"/><path class="cls-24" d="M1540.27,1240.83s-23.17-23.89-48.36-5.18c-21.84,16.22-2.88,41.79-30.26,50.71-13.65,4.45-35.91,14.22-27.58,53.31,5.61,26.31,88.46,53.7,83.6,75.82,0,0,28.2-44.11,7.45-65.7-9.87-10.27-22.33-36.11-21.23-40.29,1.1-4.18,36.38-68.67,36.38-68.67Z"/><path class="cls-31" d="M1455.51,1824.83l-15-2.21s-50.45-40.09-57.96-114.89c-.77-7.61-.93-15.34-.36-23.13,.07-.9-.03-1.8-.52-2.55,0,0,0-.01-.02-.02-1.61-2.48-5.63-8.68-11.07-17.5-5.36-8.69-14.54-25.11-24.64-43.54-18.19-33.19-39.37-72.89-46.63-85.54-23.14-40.3-11.99-67.4-11.99-67.4,0,0,64.57-6.38,82.26-21.86l6.37,9.82s13.99,61.93,13.33,62.22c.69,2.11,1.39,4.25,2.1,6.43,11.04,34.08,23.74,76.67,30.66,111.36,3.89,19.52,5.95,36.52,4.84,48.11-.38,3.97,.08,10.08,1.14,17.62,6.25,44.45,27.48,123.07,27.48,123.07Z"/><path class="cls-30" d="M1486.98,1843.82h-62.6s-1.5-9.54,1.77-16.78c3.13-6.95,7.6-7.17,.57-18.05,3.98,4.1,16.76,5.79,25.81,4.57,1.11,1.8,7.15,13.86,10.85,16.52,4.09,2.94,22.33,1.89,23.59,13.74Z"/><path class="cls-24" d="M1391.37,1524.67c-5.47,30.16-18.38,80.34-45.44,96.32-18.19-33.19-39.37-72.89-46.63-85.54-23.14-40.3-11.99-67.4-11.99-67.4,0,0,64.57-6.38,82.26-21.86l6.37,9.82s13.99,61.93,13.33,62.22c.69,2.11,1.39,4.25,2.1,6.43Z"/><path class="cls-31" d="M1347.47,1472.71l.21-11.71c-23.33,2.94-80.43-27.87-80.43-27.87,0,0-24.4,16.23-27.74,62.58-1.63,22.62-11.95,118.3-13.09,146.87-.42,10.35-.55,17.74-.6,20.7,0,.01,0,.02,0,.03-.01,.9-.44,1.7-.99,2.41-4.83,6.13-9.01,12.63-12.64,19.37-35.59,66.22-16.98,156.21-16.98,156.21l8.27-2.1s30.1-93.28,49.76-133.63c3.34-6.84,6.37-12.17,8.91-15.25,7.4-8.98,15.19-24.24,22.88-42.59,14.53-34.71,28.64-80.51,38.7-115.97,.71,.13,23.74-59.04,23.74-59.04Z"/><path class="cls-11" d="M1524.5,1326.46h-.01s-.01,.05-.02,.07c-.01,.01-.02,.02-.02,.03-.02,.02-.05,.07-.08,.12-.01,.01-.01,.02-.02,.03-.32,.53-1.17,1.84-2.42,3.66-.12,.16-.23,.33-.34,.51-1.98,2.85-4.83,6.77-8.14,10.66-4.49,5.29-9.84,10.58-15.03,13.22h0c-1.57-1.27-30.16-25.43-28.07-24.55,5.28-1.08,21.52-9.12,31.93-22.24,4.84-6.1,22.22,18.47,22.22,18.47Z"/><path class="cls-3" d="M1508.05,1354.78s6.7,13.23,10.28,24.69c3.58,11.46,12.53,47.91,12.53,47.91,0,0-18.46,21.06-44.13,19.83,0,0-13.81-21.61-8.94-41.13,4.87-19.52,30.27-51.31,30.27-51.31Z"/><path class="cls-5" d="M1524.5,1326.47s-.01,.02-.03,.06c-.01,.01-.02,.02-.02,.03-.02,.04-.05,.07-.08,.12-.01,.01-.01,.02-.02,.03-.34,.5-1.24,1.83-2.42,3.66-.12,.16-.23,.33-.34,.51-1.98,2.85-4.83,6.77-8.14,10.66-13.47-9.19-13.45-26.52-12.36-35.62l23.41,20.54h.01Z"/><path class="cls-11" d="M1525.15,1336.76s-35.36-19.67-22.76-41.5c12.59-21.83,16.51-39.07,39.61-27.43,23.11,11.64,22.65,22.47,20.22,30.78-2.43,8.31-27.54,42.7-37.07,38.15Z"/><path class="cls-24" d="M1568.19,1285.87c-1.62-9.69-6.54-10.62-9.98-9.97-13.06-21.59-34.39-13.16-34.39-13.16-11.39,14.3-27.87,16.74-27.87,16.74,0,0,4.1,7.63,21.01,12.36,5.16,1.44,11.02,.57,16.68-1.33-11.73,6.54-23.99,9.04-23.99,9.04,22.28,2.04,43.47-18.33,45.67-20.51,1.03,3.16,2.83,9.76,1.75,14.59-1.47,6.57-7.29,18.46-3.74,19.99,0,0,17.28-13.22,14.85-27.75Z"/><path class="cls-30" d="M1245,1843.82h-62.6s-1.5-9.54,1.77-16.78c3.13-6.95,8.04-10.1,6.86-18.5,3.98,4.1,10.46,8.68,19.51,7.46,1.11,1.8,7.16,11.42,10.86,14.08,4.09,2.94,22.33,1.89,23.59,13.74Z"/><path class="cls-14" d="M1488.46,1437.06c-8.06,2.81-19.36,4.35-30.92,5.61-16.46,1.8-33.46,3.02-42.36,6.58-1.74,.69-6.8,2.81-11.87,6.48h0s-.13,.09-.35,.27c-1.68,1.22-3.36,2.64-4.91,4.24-2.36,2.43-4.42,5.27-5.74,8.52-3.26,8.07,1.06,30.42,3.83,42.65,1.12,4.92-1.2,10-5.68,12.32-6.26,3.24-12.41,6.23-18.45,8.96-.32,.15-.63,.28-.95,.43,.06-1.24,.08-2.48,.08-3.68,0-8.43-1.06-15.45-1.06-15.45-1.49,8.51-7.09,17.7-12.32,24.78-84,33.71-142.69,19.05-141.73,2.26,3.31-58.3,42.63-107.89,42.63-107.89,73.32-85.27,221.64-107.71,221.64-107.71,0,0,7.1-.85,15.67,9.45,12.33,14.84,12.94,18.71,12.94,18.71,0,0,3.25,75.22-20.44,83.49Z"/><path class="cls-3" d="M1457.54,1442.66c-16.46,1.8-33.45,3.03-42.35,6.58-3.64-54.36,22.02-95.25,22.02-95.25,0,0,16.73,68.1,20.34,88.67Z"/><path class="cls-3" d="M1396.14,1511.4c1.12,4.92-1.2,10-5.68,12.32-6.26,3.24-12.41,6.23-18.45,8.96-.32-1.03-.61-2.11-.87-3.25-.95-4.26-1.39-9.35-1.06-15.45,1.4-25.81,18.98-45.35,27.98-53.74-2.36,2.43-4.42,5.27-5.74,8.52-3.26,8.07,1.06,30.42,3.83,42.65Z"/><path class="cls-3" d="M1480.29,1325.42s6.46-8.16,10.82-7.9c0,0,17.65,24.71,17.79,36.05,0,0-22.02-29.3-28.62-28.15Z"/><path class="cls-5" d="M1649.63,1564.54s-9.39,.17-11.41-.12c-1.99-.29-4.65-1.15-7.32-1.25-2.63-.1-5.04,.76-7.51,1.26-.37,.08-.74,.11-1.12,.11h-15.57s-1.56-.75-3.27-3.49c-.74-1.19-.84-4.02-2.52-4.96-9.42-5.26,15.66-2.28,15.66-2.28,0,0,15.75-.29,17.2,.8,2.59,1.95,16.44,9.19,15.85,9.94Z"/><path class="cls-5" d="M1606.71,1564.55s9.56,2.76,12.15,4.53l2.74,1.73s1.59-1.77-.91-3.74c-1.32-1.04-4.96-4.07-5.08-7.56-.12-3.48-10.91-.44-8.91,5.03Z"/><path class="cls-20" d="M1755.23,1829.68h0c-22.5,0-40.75-18.24-40.75-40.75v-257.33h81.49v257.33c0,22.5-18.24,40.75-40.75,40.75Z"/><path class="cls-17" d="M1755.23,1817.87h0c-16.72,0-30.27-13.55-30.27-30.27v-91.53h60.55v91.53c0,16.72-13.55,30.27-30.27,30.27Z"/><path class="cls-20" d="M1836.15,1531.61h81.49v257.33c0,22.49-18.26,40.75-40.75,40.75h0c-22.49,0-40.75-18.26-40.75-40.75v-257.33h0Z"/><path class="cls-17" d="M1876.89,1817.87h0c-16.72,0-30.27-13.55-30.27-30.27v-116.93h60.55v116.93c0,16.72-13.55,30.27-30.27,30.27Z"/><path class="cls-20" d="M1572.71,1640.08h0c-20.73-8.75-30.45-32.65-21.7-53.38l100.06-237.08,75.08,31.69-100.06,237.08c-8.75,20.73-32.65,30.45-53.38,21.7Z"/><path class="cls-17" d="M1580.17,1630.4l-5.74-2.42c-13.82-5.83-20.29-21.76-14.46-35.58l72.19-171.04,65.06,1.57-81.46,193.02c-5.83,13.82-21.76,20.29-35.58,14.46Z"/><path class="cls-11" d="M1565.05,1592.56s6.83,6.07,12.02,7.35c5.19,1.28,11.1,16.16,12.04,18.28,.94,2.12-4.96-.94-7.32-4.56-2.36-3.62-3.97-5.04-4.66-4.25-.69,.79,.41,10.7,4.35,16.21,3.94,5.51,6.3,10.39,3.46,10.07-2.83-.31-19.67-4.41-23.14-14.64-3.46-10.23-.92-10.59-8.88-21.11-7.96-10.52,12.13-7.35,12.13-7.35Z"/><path class="cls-11" d="M1474.82,1343.47s-41.25,4.08-44.56,30.88c-3.31,26.8,39.55,135.98,45.69,145.87,11.17,18,76.97,79.69,76.97,79.69l12.13-7.35s-46.67-79.01-53.9-86.4c-11.34-11.61-22.36-153.4-36.33-162.68Z"/><path class="cls-14" d="M1495.96,1394.68s4.24-69.11-48.66-52.4c-52.9,16.71,8.21,135.58,8.21,135.58,0,0,31.05-1.53,42.06-28.62l-1.61-54.56Z"/><g><rect class="cls-27" x="1581.64" y="1794.53" width="369.81" height="13.31"/><rect class="cls-27" x="1581.64" y="1804.57" width="17.31" height="42.79"/><rect class="cls-27" x="1931.72" y="1794.53" width="19.73" height="52.83"/></g><path class="cls-19" d="M1795.04,1534.18h-81.72c-1.99,0-3.61-1.63-3.61-3.61h0c0-1.99,1.62-3.61,3.61-3.61h81.72c1.99,0,3.61,1.63,3.61,3.61h0c0,1.99-1.63,3.61-3.61,3.61Z"/><path class="cls-19" d="M1917.75,1534.18h-81.72c-1.99,0-3.61-1.63-3.61-3.61h0c0-1.99,1.63-3.61,3.61-3.61h81.72c1.99,0,3.61,1.63,3.61,3.61h0c0,1.99-1.63,3.61-3.61,3.61Z"/><path class="cls-19" d="M1724.56,1382.87l-76.79-27.97c-1.87-.68-2.84-2.76-2.16-4.63h0c.68-1.87,2.76-2.84,4.63-2.16l76.79,27.97c1.87,.68,2.84,2.76,2.16,4.63h0c-.68,1.87-2.76,2.84-4.63,2.16Z"/></g><g><path class="cls-1" d="M908.82,1838.93c-.91,2.43-73.46,5.17-73.8-2.51-.01-.12-.01-.25-.01-.39,0-.2,0-.41,.01-.65,.01-.8,.06-1.59,.17-2.38,0-.02,0-.03,.01-.05,.2-1.51,.53-3.01,.86-4.49,.44-1.94,1.36-4.17,2.27-6.52,1.32-3.4,2.64-7.03,2.46-10.31-.52-10.56-4.32-32.78-4.32-32.78l20.88-2.32s3.3,30.65,7.26,37.53c5.37,9.32,14.75,14.45,24.66,17.28,1.12,.32,2.22,.63,3.33,.94,8.79,2.41,17.02,4.5,16.21,6.65Z"/><path class="cls-26" d="M909.52,1839.02c-.91,2.43-7.7,7.85-24.88,7.11-17.19-.74-13.83-3.76-26.15-2.7-12.32,1.07-23.13,.66-23.47-7.02-.01-.12-.01-.25-.01-.39,0-.74,.07-1.8,.18-3.03,0-.02,0-.03,.01-.05,.2-1.51,.53-3.01,.86-4.49,.44-1.94,1.36-4.17,2.27-6.52,7.78,2.06,18.11,11.3,28.89,12.7,14.11,1.84,25.26-2.21,25.26-2.21l.11-.15c10.47,1.89,17.73,4.58,16.92,6.74Z"/><g><path class="cls-16" d="M919.39,1522.21h0c-6.54,0-11.84-5.3-11.84-11.84v-74.79h23.68v74.79c0,6.54-5.3,11.84-11.84,11.84Z"/><path class="cls-29" d="M919.39,1518.77h0c-4.86,0-8.8-3.94-8.8-8.8v-26.6h17.6v26.6c0,4.86-3.94,8.8-8.8,8.8Z"/><path class="cls-16" d="M954.75,1522.21h0c-6.54,0-11.84-5.3-11.84-11.84v-74.79h23.68v74.79c0,6.54-5.3,11.84-11.84,11.84Z"/><path class="cls-29" d="M954.75,1518.77h0c-4.86,0-8.8-3.94-8.8-8.8v-33.98h17.6v33.98c0,4.86-3.94,8.8-8.8,8.8Z"/><path class="cls-16" d="M887.4,1522.21h0c-6.54,0-11.84-5.3-11.84-11.84v-74.79h23.68v74.79c0,6.54-5.3,11.84-11.84,11.84Z"/><path class="cls-29" d="M887.4,1518.77h0c-4.86,0-8.8-3.94-8.8-8.8v-33.98h17.6v33.98c0,4.86-3.94,8.8-8.8,8.8Z"/><g><rect class="cls-34" x="860.79" y="1509.73" width="6.66" height="19.78"/><rect class="cls-34" x="974.69" y="1509.73" width="6.66" height="19.78"/><rect class="cls-34" x="860.79" y="1509.73" width="120.56" height="5.78"/></g></g><path class="cls-24" d="M704.78,1259.52s-13.05-7.14-27.72-2.63c-29.64,9.11-15.36,33.46-30.37,43.22-15.02,9.76-28.75,39.6-19.28,54.87,9.47,15.27,23.35,28.29,31.76,17.87,8.41-10.42,16.86-24.86,16.93-44.59,.07-17.81,7.22-54.03,19.47-51.25,12.25,2.78,9.2-17.49,9.2-17.49Z"/><path class="cls-24" d="M748.69,1285.82s-14.3-31.93-43.91-26.3c-29.61,5.63-33.68,61.15-14.17,68.31,13.58,4.98,58.08-42.01,58.08-42.01Z"/><path class="cls-28" d="M827.42,1624.08h-81.35l-49.4-170.77c-6.24-21.58-25.77-36.62-48.24-37.13l-85.54-1.49c-24.29-.55-42.99,20.09-38.66,42.66l22.96,384.32c-.27,2.68,1.93,5.01,4.78,5.06h.35c1.59,.04,2.96-1.07,3.17-2.56l3.38-189.68h146.3l27.13,189.68c.21,1.49,1.58,2.6,3.17,2.57h.35c2.85-.06,5.05-2.39,4.78-5.07l-18.74-187.18h105.54c3.86,0,7.02-3.16,7.02-7.02v-16.38c0-3.86-3.16-7.02-7.02-7.02Z"/><path class="cls-18" d="M653.33,1452.78l27.36,69.24s26.37,31.07,47.56,21.06l-67.06-130.21-7.87,39.92Z"/><path class="cls-24" d="M855.36,1592.64c-19.87-19.76-143.31-71.96-184.99-76.43l-47.64-17.41s-19.41,46.5-19.72,90.93c-.14,20.72,25.42,34.35,6.08,34.35,0,0,168.61-.67,175.08,0,10.6,1.09,4.63,26.06,8.12,50.1,3.49,24.04,47.6,125.02,47.6,125.02,0,0,12.84,4.12,18.78,3.77,6.39-.38,9.34-2.51,9.34-2.51,0,0,11.46-183.83-12.67-207.82Z"/><path class="cls-11" d="M799.87,1838.77c.34,7.68,72.9,4.95,73.8,2.52,.81-2.16-7.42-4.24-16.21-6.65-1.11-.3-2.22-.62-3.33-.93-9.91-2.83-19.29-7.96-24.66-17.28-3.96-6.88-7.27-37.54-7.27-37.54l-20.88,2.32s3.81,22.22,4.33,32.78c.27,5.53-3.65,12.05-4.74,16.82-.58,2.59-1.17,5.25-1.05,7.95Z"/><path class="cls-32" d="M823.35,1845.79c12.32-1.06,8.96,1.95,26.15,2.69,17.18,.74,23.98-4.67,24.89-7.11,.81-2.16-6.45-4.84-16.92-6.74l-.11,.16s-11.24,5.62-25.36,3.78c-11.5-1.5-23.14-6.66-31.07-7.75-.58,2.59-1.17,5.25-1.05,7.95,.34,7.68,11.15,8.08,23.47,7.02Z"/><path class="cls-31" d="M826.28,1592.91c-11.68-12.2-89.04-37.22-128.27-50-9.45-3.08-101.29-48.6-101.29-48.6,0,0-14.52,129.76,3,129.93,32.82,.33,159.88,6.11,164.86,6.47,15.04,1.08,7.14,35.9,13.09,63.5,6.09,28.24,23.7,104.99,23.7,104.99,0,0,12.84,4.12,18.78,3.77,6.39-.38,9.34-2.51,9.34-2.51,0,0,20.3-182.96-3.22-207.54Z"/><path class="cls-11" d="M719.17,1333.76s-.74,5.25-1.94,11.74c-.71,3.89-1.58,8.25-2.54,12.17-.79,3.24-1.64,6.2-2.52,8.38-3.13,7.74-5.59,15.29-4.15,16.82,.11,.11-16.4,1.75-25.56-5.17-8.62-6.5-12.21-23.99-12.06-24.02,4.67-.85,10.12-1.88,19.7-26.11l1.71,1.1,27.36,5.07Z"/><path class="cls-4" d="M717.23,1345.5c-.71,3.89-1.58,8.25-2.54,12.17-15.63-10.26-21.22-19.4-24.39-27.87l26.94,15.7Z"/><path class="cls-11" d="M724.68,1349.43s-40.71-6.84-36.06-32.13c4.65-25.29,2.53-43.2,28.72-39.9,26.19,3.3,29.45,13.88,29.95,22.69s-11.9,50.46-22.61,49.33Z"/><path class="cls-24" d="M746.27,1286.12s-26.92,21.69-44.79,22.92c-17.87,1.23-19.59-7.03-19.59-7.03,0,0,5.96-6.05,12.74-19.9,2-4.08,6.03-6.8,10.57-7.04,12.75-.68,36.87-.38,41.07,11.05Z"/><path class="cls-24" d="M729.97,1283.55s8.48,8.76,11.03,15.13c2.46,6.15,2.78,20.67,.47,26.36,0,0,14.52-26.08,7.23-39.22-7.74-13.94-18.72-2.26-18.72-2.26Z"/><path class="cls-14" d="M737.84,1398.66c.04-17.09-25.43-33.2-25.43-33.2,0,0-6.18,16.98-36.21-14.2-1.06-1.1-70.86,45.01-70.86,45.01,0,0-11.7,59.78-14.27,87.11-7.75,82.3,2.02,147.34,2.02,147.34,0,0,100.75,17.94,167.28-86.4,0,0-23.52-53.84-23.52-68.84,0-9.68,.97-69.16,.99-76.82Z"/><path class="cls-3" d="M603.01,1502.12s28.46,38.01,110.43,31.36l-38.18-36.16-72.25,4.8Z"/><path class="cls-3" d="M705.98,1491.67l-9.27,11.97c-3.2,.54-33.51-12.68-48.06-18.42-20.02-7.9-10.59-57.84-4.25-40.93,8.44,22.52,36.57,34.67,61.59,47.38Z"/><g><rect class="cls-33" x="767.73" y="1352.7" width="28.4" height="103.15" transform="translate(2079.68 2352.54) rotate(155.27)"/><rect class="cls-33" x="758.42" y="1340.82" width="13.57" height="49.29" transform="translate(2031.52 2285.48) rotate(155.27)"/><path class="cls-33" d="M699.99,1514.58l22.53-3.48c-.06-.41-6.31-42.53,4.62-75.42,10.97-33.02,48.32-39.09,48.7-39.15l-3.45-22.54c-2.1,.32-51.57,8.39-66.89,54.5-12.7,38.2-5.82,84.15-5.52,86.09Z"/><path class="cls-33" d="M664.7,1505.16h97.48v1.38c0,13.55-11,24.55-24.55,24.55h-52.51c-11.27,0-20.41-9.15-20.41-20.41v-5.52h0Z" transform="translate(1426.88 3036.24) rotate(180)"/><rect class="cls-33" x="713.44" y="1475.48" width="105.48" height="7.6" transform="translate(1532.37 2958.56) rotate(180)"/><rect class="cls-33" x="745.77" y="1518.12" width="73.15" height="12.97" transform="translate(1564.7 3049.21) rotate(180)"/><rect class="cls-33" x="774.27" y="1512.85" width="23.12" height="5.28" transform="translate(1571.67 3030.97) rotate(180)"/></g><g><path class="cls-11" d="M746.59,1508.22s5.65,7.29,7.5,8.16c1.85,.87,3.05,.65,3.05,.65l-3.81-6.85-6.74-1.96Z"/><path class="cls-11" d="M745.28,1500.71l16.42,7.98s-.7,1.14-2.72,1.05c-2.02-.09-7.12-1.96-7.12-1.96l-6.58-7.07Z"/><path class="cls-11" d="M713.97,1504.33s26.96-6,31.31-3.61c4.35,2.39,14.98,11.11,16.31,14.14,1.33,3.03-9.69-2.3-13.27-3.26-2.32-.62-8.43,1.5-11.45,2.51-12.72,4.24-20.52,2.06-20.52,2.06l-2.38-11.83Z"/></g><g><rect class="cls-35" x="624.83" y="1529.36" width="381.82" height="10.78"/><path class="cls-35" d="M1005,1852.47c-.79-1.12-2.43-3.45-12.74-159.92-5.08-77.06-9.81-154.54-9.85-155.31l4.04-.25c5.15,84.45,19.14,305.39,22.02,313.43,0,0-.05-.13-.16-.28l-3.3,2.33Z"/><path class="cls-35" d="M621.55,1850.77l-3.31-2.33c-.11,.16-.15,.27-.15,.28,2.89-8.01,17.39-227.74,22.73-311.73l4.03,.26c-.05,.77-4.95,77.82-10.21,154.46-10.67,155.61-12.31,157.94-13.1,159.06Z"/></g><path class="cls-14" d="M676.2,1351.25s-41.15,0-54.8,13.66c-21.4,21.42-37.73,115.08-22.11,133.88,17.6,21.18,117.63,22.28,117.63,22.28,0,0,2.4-4.36-2.96-16.75-1.12-2.6-65.33-28.42-67.27-31.84-1.95-3.42-3.69-51.67-1.48-59.72,2.22-8.06,30.98-61.51,30.98-61.51Z"/></g><g><g><path class="cls-11" d="M1695.11,737.21c1.66,1.9,1.87,4.02,1.05,6.28,0,0,0,.02-.02,.03-1.52,4.19-6.52,8.86-12.33,13.53-.74,.6-1.4,1.14-1.98,1.65-.15,.13-.3,.27-.44,.4-.12,.1-.23,.21-.34,.31-5.42,5-3.38,6.14-13.12,16.28-11.11,11.56-18.75,11.76-20.93,10.71-1.84-.9,1.9-7.03,6.04-13.91,.2-.33,.4-.67,.6-1,.55-.92,1.1-1.85,1.65-2.77,4.86-8.29,3.61-12.18,2.46-24.52-.94-10.03-15.6-56.01-15.6-56.01l21.28-3.67s6.41,36.62,13.47,42.26c3.78,3.01,8,3.04,11.63,5.27,.26,.15,.51,.31,.75,.48,2.06,1.37,4.16,2.78,5.82,4.68Z"/><path class="cls-24" d="M1695.11,737.21c1.66,1.9,1.87,4.02,1.05,6.28,0,0,0,.02-.02,.03-1.86,4.18-6.73,8.83-12.35,13.49-.73,.61-1.38,1.17-1.96,1.69-.15,.13-.3,.27-.44,.4-.12,.1-.23,.21-.34,.31-5.42,5-3.38,6.14-13.12,16.28-11.11,11.56-18.75,11.76-20.93,10.71-1.84-.9,1.9-7.03,6.04-13.91,2.16-.79,12.2-4.87,19.8-14.59,6.44-8.22,10.82-18.7,15.2-25.14,.48-.09,.77-.14,1.25-.23,2.06,1.37,4.16,2.78,5.82,4.68Z"/><path class="cls-11" d="M1523.5,723.91c-1.31,6.57-10.68,5.47-21.14,2.92-10.46-2.56-7.98,.48-22.87-1.17-14.89-1.65-19.4-7.2-19.86-9.41-.41-1.96,6.95-2.66,14.84-3.57,.99-.11,1.99-.23,2.99-.36,8.91-1.12,15.44-6.87,23.53-11.59,7.67-4.47,19.11-22.7,19.11-22.7l20.42,1.62s-10.72,16.28-14.86,23.35c-2.44,4.16-2.31,9.67-2,13.92,.16,2.31,.31,4.67-.16,6.99Z"/><path class="cls-24" d="M1502.36,726.83c-10.46-2.56-7.98,.48-22.87-1.17-14.89-1.65-19.4-7.2-19.86-9.41-.41-1.96,6.95-2.66,14.84-3.57l.07,.15s8.93,6.33,21.32,6.63c10.1,.25,20.8-2.65,27.78-2.54,.16,2.31,.31,4.67-.16,6.99-1.31,6.57-10.68,5.47-21.14,2.92Z"/><path class="cls-24" d="M1601.75,593.34l19.09,51.37,24.92,67.07s6.76,.65,13.24-1.21c5.96-1.72,12.8-6.23,12.8-6.23,0,0-6.92-72.02-19.83-113.35-3.31-10.61-7.02-19.19-11.11-24.03-20.01-23.65-39.12,26.38-39.12,26.38Z"/><path class="cls-31" d="M1621.16,511.76c10.87-3.5,39.22-.05,69.97,5.51,8.5,1.54,17.06-2.34,21.54-9.73h0l77.39-6.04s30.83,61.28,7.84,92.41c-13.43,18.19-58.71,15.58-72.42,12.77-37.7-7.73-80.57-30.13-86.13-31.24-9.1-1.82-12.74,16.38-21.83,35.48-9.1,19.11-85.52,84.61-85.52,84.61,0,0-11.75,.12-16.6-1.7-5.22-1.96-7.13-4.5-7.13-4.5,0,0,84.68-168.48,112.88-177.57Z"/><path class="cls-14" d="M1809.52,554.78c-.33,44.47-11.81,64.9-11.81,64.9-99.64-13.37-121.69-105-121.69-105,20.62-.39,29.16-13.18,29.16-13.18l83.87-53.51,5.1-3.25,5.25-3.34s1.57,8.48,3.48,22.14c2.52,18.19,5.66,45.56,6.46,74.32,.16,5.61,.23,11.27,.18,16.93Z"/><path class="cls-25" d="M1713.13,400.97c27.56,15.17,83.47,46.63,83.76,46.43,0,0,20.55,7.74,32.21,0,19.43-12.9,29.85-47.63-5.68-77.52-17.72-14.91-30.31-18.53-32.23-42.34-1.04-12.96-18.83-55.87-48.37-51.54-2.36,.35-4.75,.5-7.14,.43-3.43-.1-9.04,.42-14.78,3.85-16.6,9.88-49.08,114.81-7.77,120.68Z"/><path class="cls-11" d="M1736.23,388.05c-.12,.08,13.56,4.75,22.71,.7,8.61-3.8,15.13-17.96,15-17.97-3.91-.18-8.38-6.44-11.52-26.06l-1.67,.6-28.03,10.09s2.03,8.99,3.34,17.56c1.11,7.19,1.7,14.08,.17,15.09Z"/><path class="cls-4" d="M1732.71,355.4s1.12,4.85,2.75,13.92c16.1-2.9,23.01-15.3,25.28-24l-28.03,10.09Z"/><path class="cls-11" d="M1728.54,364.33s38.35-5.15,34.78-28.98c-3.57-23.83-1.03-40.55-25.67-38.27-24.64,2.28-28.02,12.08-28.76,20.33-.74,8.25,9.58,47.64,19.65,46.92Z"/><path class="cls-25" d="M1710.28,304.34s24.55,21.16,41.25,22.86c16.7,1.71,23.02-3.65,23.02-3.65,0,0-9.84-8.17-15.76-21.36-1.75-3.89-5.44-6.56-9.68-6.92-11.92-1.03-34.53-1.5-38.82,9.08Z"/><path class="cls-25" d="M1725.63,302.45s-8.21,7.94-10.8,13.83c-2.5,5.68-3.25,19.28-1.26,24.68,0,0-12.79-24.88-5.55-36.97,7.68-12.82,17.61-1.54,17.61-1.54Z"/><path class="cls-14" d="M1703.93,444.54c1.16,77.63,.32,61.41,8.81,68.77,2.05,1.77,7.8,2.83,15.37,3.33,23.8,1.58,65.65-2.34,67.24-6.74,5.49-15.22,1.61-19.95,6.2-43.25,.48-2.48,1.07-5.16,1.76-8.08,3.82-16,7.54-21.45-6.01-47.16-12.29-23.29-24.81-42.36-25.96-41.67-32.42,19.25-35.27,3.23-35.27,3.23,0,0-32.69,33.72-32.12,71.58Z"/><path class="cls-31" d="M1620.84,644.71l24.92,67.07s6.76,.65,13.24-1.21c5.96-1.72,12.8-6.23,12.8-6.23,0,0-6.92-72.02-19.83-113.35l-31.14,53.73Z"/><path class="cls-14" d="M1736.06,372.96s-29.41,4.31-33.61,20.53c-3.73,14.41-17.08,96.09-17.08,96.09,0,0,6.01,14.13,13.85,6.29,7.83-7.83,24.66-81.57,24.66-81.57l12.19-41.35Z"/><path class="cls-11" d="M1726.98,504.9s-4.92,6.35-6.53,7.1c-1.61,.76-2.66,.57-2.66,.57l3.32-5.97,5.87-1.71Z"/><path class="cls-11" d="M1728.11,498.36l-14.31,6.95s.61,1,2.37,.92c1.76-.08,6.2-1.71,6.2-1.71l5.73-6.16Z"/><path class="cls-3" d="M1809.33,537.86c-22.13-1.75-77.95-20.57-68.41-33.84,4.42-6.15,33.98-8.88,49.25-28.35,4.11-5.25-.51-19.56-1.12-27.67-.25-3.49-.08-6.02,1.12-6.6,1.11-.53,2.52,.94,3.97,3.34,3.83,6.28,7.99,18.97,7.99,18.97l.73-.17c2.52,18.19,5.66,45.56,6.46,74.32Z"/><path class="cls-11" d="M1755.38,501.5s-23.48-5.23-27.27-3.14-13.05,9.67-14.21,12.31c-1.16,2.64,8.44-2,11.56-2.84,2.02-.54,7.34,1.31,9.98,2.18,11.08,3.69,17.88,1.79,17.88,1.79l2.07-10.31Z"/><path class="cls-14" d="M1771.33,369.73s31.31,2.08,42.23,17.31c15.37,21.43,31.86,113.08,14.39,125.26-19.67,13.72-75.55,3.28-75.55,3.28,0,0-5.23-15.54,.91-16.12,16.65-1.59,49.18-8.51,48.87-15.78-.46-11.05-20.97-47.71-20.97-54.99s-9.88-58.96-9.88-58.96Z"/></g><g><polygon class="cls-2" points="1605.95 514.69 1755.38 514.69 1755.38 517.99 1607.28 517.99 1605.95 514.69"/><polygon class="cls-2" points="1720.44 517.99 1607.28 517.99 1573.24 433.34 1686.23 433.34 1720.44 517.99"/><path class="cls-10" d="M1635.84,475.66c-.85-2.98,.87-5.39,3.84-5.39s6.08,2.41,6.93,5.39-.87,5.39-3.84,5.39-6.08-2.41-6.93-5.39Z"/></g></g><g><rect class="cls-39" x="756.93" y="487.28" width="634.12" height="424.61" rx="50.37" ry="50.37"/><g><path class="cls-13" d="M925.18,533.38s18.42-13.78,51.7,5c0,0,17.22,6.64,21.16,23.63,1.04,4.49,3.01,8.72,5.89,12.33,3.48,4.37,7.61,11.45,8.39,21.1,.41,5.11,1.91,10.07,4.37,14.56,2.88,5.25,5.88,13.86,4.78,26.03,0,0,10.65,11.65,4.66,37.6,0,0,4.88,16.27-6.13,30.95,0,0,2.74,18.72-13.17,25,0,0-8.4,19.47-33.41,20.66-3.62,.17-7.18,1.01-10.54,2.37-4.76,1.94-13.31,3.83-25.6,.55-19.97-5.32-17.96-17.61-17.96-17.61v-199.18l5.86-2.99Z"/><path class="cls-13" d="M914.44,533.38s-18.42-13.78-51.7,5c0,0-18.04,6.95-21.42,24.85-.71,3.78-2.43,7.3-4.91,10.23-3.82,4.52-8.82,12.52-9.22,23.8-.14,4-1.34,7.88-3.43,11.3-2.62,4.28-5.7,11.46-5.84,21.69-.05,3.46-.88,6.85-2.41,9.95-2.69,5.44-5.96,16.33-2.02,33.42,0,0-3.79,12.64,2.85,25.69,1.77,3.48,2.88,7.27,3.22,11.16,.44,5.06,2.31,12.22,8.84,16.77,2.85,1.99,5.33,4.47,7.38,7.27,4.17,5.69,13.07,14.4,28.99,15.62,4.37,.34,8.67,1.26,12.78,2.78,4.89,1.81,13.17,3.33,24.78,.23,19.97-5.32,17.96-17.61,17.96-17.61v-199.18l-5.86-2.99Z"/><g><path class="cls-38" d="M900.12,657.26c-9.63-1.19-17.36-6.76-22.98-16.57-.02-.04-.04-.08-.07-.12-2.65-4.65-1.13-10.55,3.36-13.45,.9-.59,1.68-1.23,2.2-1.92,0,0-9.71,1.43-21.45-3.47-6.88-2.87-11.54-8.85-11.54-8.85,.13,.19,.64,6.53,6.37,11.83,1.67,1.54,5.56,3.52,8.37,4.14,2.9,.65,4.13,3.57,5.2,6.34,.9,2.32,2.07,4.93,3.59,7.6,2.53,4.44,5.52,8.15,8.91,11.09-6.5,2.94-10.16,7.51-12.14,11.05-2.48,4.45-2.93,8.28-2.94,8.44,0,0,2.41-4.73,7.52-9.34,4.52-4.07,10.48-6.12,16.55-5.85,4.25,.19,9.04-.93,9.04-.93Z"/><path class="cls-38" d="M865.26,692.4c-.46,0-.92-.01-1.38-.04-6.24-.37-11.57-3.32-15.43-8.52-6.01-8.1-4.64-15.47-2.43-20.23,.03-.06,.05-.11,.08-.16,.91-1.93,1.43,1.68,1.32,3.81-.24,4.57,3.32,11.63,7.74,15.46,5.12,4.43,13.41,4.33,19.73,4.54,2.37,.08,4.36,.24,2.25,1.67-3.02,2.05-7.67,3.46-11.87,3.46Z"/><path class="cls-38" d="M893.42,616.08c-.34-.12-.67-.25-1-.39-4.46-1.89-7.59-5.42-9.06-10.23-2.28-7.47,.63-12.5,3.47-15.4,.03-.03,.07-.07,.1-.1,1.17-1.17,.6,1.6-.03,3.13-1.36,3.28-.6,9.36,1.64,13.3,2.59,4.56,8.67,6.64,13.23,8.44,1.71,.67,3.12,1.31,1.21,1.81-2.74,.72-6.5,.54-9.57-.55Z"/><path class="cls-38" d="M852.45,716.61c-2.16,1.16-4.85,.43-6.13-1.65-7.56-12.3-17.69-21.23-17.82-21.29h0c.63,.29,15.61,7.37,23.95,22.94h0Z"/><path class="cls-38" d="M903.51,706.85c-3.22-2.22-3.91-7.06-3.92-10.75-.01-4.39,1.52-10.34,1.52-10.34-.14,.56-9.64,8.45-4.4,19.41-6.27-.14-9.91,7.02-9.91,7.02,.02-.01,1.85-1.03,4.42-1.76,2.33-.67,5.75-1.25,8.85-.18,2.9,1,5.13,3.33,6.62,6.92,0,0,2.31-6.93-3.18-10.32Z"/><path class="cls-38" d="M857.39,589.3c1.8-3.47,6.52-4.76,10.17-5.23,4.35-.56,10.45,.22,10.45,.22-.57-.07-9.59-8.51-19.81-1.94-.64-6.23-8.2-8.96-8.2-8.96,.01,.02,1.25,1.71,2.3,4.16,.96,2.23,1.95,5.55,1.29,8.76-.63,3-2.66,5.5-6.04,7.44,0,0,7.17,1.42,9.84-4.45Z"/><path class="cls-38" d="M831.82,654.07c1.8-3.47,6.52-4.76,10.17-5.23,4.35-.56,10.45,.22,10.45,.22-.57-.07-9.59-8.51-19.81-1.94-.64-6.23-8.2-8.96-8.2-8.96,.01,.02,1.25,1.71,2.3,4.16,.96,2.23,1.96,5.55,1.29,8.76-.63,3-2.66,5.5-6.04,7.44,0,0,7.17,1.42,9.84-4.45Z"/><path class="cls-38" d="M888.85,562.71c4.02-2.77,4.88-8.82,4.89-13.42,.01-5.48-1.9-12.92-1.9-12.92,.17,.7,12.04,10.55,5.49,24.24,7.82-.18,12.38,8.77,12.38,8.77-.02-.01-2.31-1.28-5.52-2.2-2.91-.84-7.19-1.56-11.05-.23-3.62,1.24-6.4,4.15-8.27,8.65,0,0-2.88-8.66,3.97-12.88Z"/><path class="cls-38" d="M863.65,728.45c3.75-2.58,4.56-8.23,4.57-12.53,.01-5.12-1.77-12.06-1.77-12.06,.16,.65,11.24,9.85,5.13,22.63,7.3-.17,11.55,8.18,11.55,8.18-.02-.01-2.16-1.2-5.15-2.06-2.72-.78-6.71-1.45-10.32-.21-3.38,1.16-5.98,3.88-7.72,8.07,0,0-2.69-8.08,3.71-12.02Z"/><g><path class="cls-38" d="M939.33,657.26c9.63-1.19,17.36-6.76,22.98-16.57,.02-.04,.04-.08,.07-.12,2.65-4.65,1.13-10.55-3.36-13.45-.9-.59-1.68-1.23-2.2-1.92,0,0,9.71,1.43,21.45-3.47,6.88-2.87,11.54-8.85,11.54-8.85-.13,.19-.64,6.53-6.37,11.83-1.67,1.54-5.56,3.52-8.37,4.14-2.9,.65-4.13,3.57-5.2,6.34-.9,2.32-2.07,4.93-3.59,7.6-2.53,4.44-5.52,8.15-8.91,11.09,6.5,2.94,10.16,7.51,12.14,11.05,2.48,4.45,2.93,8.28,2.94,8.44,0,0-2.41-4.73-7.52-9.34-4.52-4.07-10.48-6.12-16.55-5.85-4.25,.19-9.05-.93-9.05-.93Z"/><path class="cls-38" d="M974.19,692.4c.46,0,.92-.01,1.38-.04,6.24-.37,11.57-3.32,15.43-8.52,6.01-8.1,4.64-15.47,2.43-20.23-.03-.06-.05-.11-.08-.16-.91-1.93-1.43,1.68-1.32,3.81,.24,4.57-3.32,11.63-7.74,15.46-5.12,4.43-13.41,4.33-19.73,4.54-2.37,.08-4.36,.24-2.25,1.67,3.02,2.05,7.67,3.46,11.87,3.46Z"/><path class="cls-38" d="M946.03,616.08c.34-.12,.67-.25,1-.39,4.46-1.89,7.59-5.42,9.06-10.23,2.28-7.47-.63-12.5-3.47-15.4-.03-.03-.07-.07-.1-.1-1.17-1.17-.6,1.6,.03,3.13,1.36,3.28,.6,9.36-1.64,13.3-2.59,4.56-8.67,6.64-13.23,8.44-1.71,.67-3.12,1.31-1.21,1.81,2.74,.72,6.5,.54,9.57-.55Z"/><path class="cls-38" d="M984.31,709.14c1.68,1.79,4.46,1.96,6.34,.39,11.1-9.24,23.55-14.46,23.69-14.48h0c-.69,.08-17.15,1.99-30.03,14.08h0Z"/><path class="cls-38" d="M935.94,706.85c3.22-2.22,3.91-7.06,3.92-10.75,.01-4.39-1.52-10.34-1.52-10.34,.14,.56,9.64,8.45,4.4,19.41,6.26-.14,9.91,7.02,9.91,7.02-.02-.01-1.85-1.03-4.42-1.76-2.33-.67-5.75-1.25-8.85-.18-2.9,1-5.13,3.33-6.62,6.92,0,0-2.31-6.93,3.18-10.32Z"/><path class="cls-38" d="M982.06,589.3c-1.8-3.47-6.52-4.76-10.17-5.23-4.35-.56-10.45,.22-10.45,.22,.57-.07,9.59-8.51,19.81-1.94,.64-6.23,8.2-8.96,8.2-8.96-.01,.02-1.25,1.71-2.3,4.16-.96,2.23-1.96,5.55-1.29,8.76,.63,3,2.66,5.5,6.04,7.44,0,0-7.17,1.42-9.84-4.45Z"/><path class="cls-38" d="M1007.63,654.07c-1.8-3.47-6.52-4.76-10.17-5.23-4.35-.56-10.45,.22-10.45,.22,.57-.07,9.59-8.51,19.81-1.94,.64-6.23,8.2-8.96,8.2-8.96-.01,.02-1.25,1.71-2.3,4.16-.96,2.23-1.96,5.55-1.29,8.76,.63,3,2.66,5.5,6.04,7.44,0,0-7.17,1.42-9.84-4.45Z"/><path class="cls-38" d="M950.6,562.71c-4.02-2.77-4.88-8.82-4.89-13.42-.01-5.48,1.9-12.92,1.9-12.92-.17,.7-12.04,10.55-5.49,24.24-7.82-.18-12.38,8.77-12.38,8.77,.02-.01,2.31-1.28,5.52-2.2,2.91-.84,7.19-1.56,11.05-.23,3.62,1.24,6.4,4.15,8.27,8.65,0,0,2.88-8.66-3.97-12.88Z"/><path class="cls-38" d="M975.81,728.45c-3.75-2.58-4.56-8.23-4.57-12.53-.01-5.12,1.77-12.06,1.77-12.06-.16,.65-11.24,9.85-5.13,22.63-7.3-.17-11.55,8.18-11.55,8.18,.02-.01,2.16-1.2,5.15-2.06,2.71-.78,6.71-1.45,10.32-.21,3.38,1.16,5.98,3.88,7.72,8.07,0,0,2.69-8.08-3.71-12.02Z"/></g><rect class="cls-38" x="818.26" y="635.92" width="203.59" height="4.49" transform="translate(279.68 1556.68) rotate(-89.86)"/></g></g><g><rect class="cls-31" x="1047" y="519.23" width="168.18" height="17.13"/><rect class="cls-13" x="1047" y="560.58" width="134.62" height="8.56"/><rect class="cls-31" x="1047" y="583.64" width="87.89" height="8.56"/><rect class="cls-13" x="1148.04" y="583.64" width="87.89" height="8.56"/><rect class="cls-31" x="1195.34" y="560.58" width="81.19" height="8.56"/><rect class="cls-8" x="1225.24" y="519.23" width="78.05" height="17.13"/></g><g><rect class="cls-31" x="808" y="796.76" width="134.33" height="13.68"/><rect class="cls-13" x="808" y="829.78" width="107.52" height="6.84"/><rect class="cls-13" x="808" y="848.21" width="70.19" height="6.84"/><rect class="cls-31" x="888.7" y="848.21" width="70.2" height="6.84"/><rect class="cls-13" x="926.47" y="829.78" width="64.85" height="6.84"/><rect class="cls-8" x="950.36" y="796.76" width="62.34" height="13.68"/></g><g><path class="cls-10" d="M1216.07,640.35c3.99,3.94,4.02,10.36,.09,14.35-3.94,3.98-10.36,4.02-14.35,.09-3.99-3.94-4.02-10.36-.09-14.35,3.94-3.98,10.36-4.02,14.34-.09Z"/><path class="cls-10" d="M1175.47,683.06c4.43,4.38,4.48,11.53,.1,15.96-4.38,4.43-11.53,4.48-15.96,.1-4.43-4.38-4.48-11.53-.1-15.96,4.38-4.43,11.53-4.48,15.96-.1Z"/><path class="cls-10" d="M1125.33,660.61c3.78,3.74,3.82,9.84,.08,13.62-3.74,3.78-9.84,3.82-13.62,.08-3.78-3.74-3.82-9.84-.08-13.62,3.74-3.78,9.84-3.82,13.62-.08Z"/><path class="cls-10" d="M1079.76,686.73c3.78,3.74,3.82,9.84,.08,13.62-3.74,3.78-9.84,3.82-13.62,.08-3.78-3.74-3.82-9.84-.08-13.62,3.74-3.78,9.84-3.82,13.62-.08Z"/><polygon class="cls-10" points="1072.56 692.84 1118.53 666.49 1167.34 690.05 1208.32 646.97 1209.56 648.15 1167.72 692.13 1118.6 668.43 1073.41 694.33 1072.56 692.84"/></g><g><path class="cls-10" d="M1240.22,707.59c-3.8-2.67-4.71-7.92-2.03-11.72s7.92-4.71,11.72-2.03c3.8,2.67,4.71,7.92,2.03,11.72-2.67,3.8-7.92,4.71-11.72,2.03Z"/><path class="cls-10" d="M1267.58,667.12c-4.22-2.98-5.24-8.81-2.26-13.03,2.98-4.22,8.81-5.24,13.03-2.26s5.24,8.81,2.26,13.03c-2.98,4.22-8.81,5.24-13.03,2.26Z"/><path class="cls-10" d="M1311.63,678.62c-3.61-2.54-4.47-7.52-1.93-11.13,2.54-3.61,7.52-4.47,11.13-1.93,3.61,2.54,4.47,7.52,1.93,11.13-2.54,3.6-7.52,4.47-11.13,1.93Z"/><path class="cls-10" d="M1345.32,651.03c-3.6-2.54-4.47-7.52-1.93-11.13,2.54-3.61,7.52-4.47,11.13-1.93,3.6,2.54,4.47,7.52,1.93,11.13-2.54,3.61-7.52,4.47-11.13,1.93Z"/><polygon class="cls-10" points="1350.37 645.05 1316.39 672.88 1273.26 660.3 1245.65 701.12 1244.48 700.32 1272.67 658.64 1316.07 671.3 1349.47 643.95 1350.37 645.05"/></g><polygon class="cls-10" points="1151.56 845.69 1141.76 794.23 1137.48 816.21 1079.73 816.21 1079.73 812.74 1134.62 812.74 1141.8 775.84 1152.04 829.65 1156.65 811.49 1166.63 811.49 1173.43 779.81 1182.14 828.11 1186.72 809.62 1207.31 809.62 1214.89 784.76 1221.53 828.28 1226.86 809.62 1243.9 809.62 1248.91 782.33 1259.67 825.26 1263.56 809.62 1285.6 809.62 1286.76 822.65 1298.9 775.19 1306.87 809.74 1342.72 809.74 1342.72 813.22 1304.11 813.22 1298.72 789.9 1285.09 843.21 1282.42 813.09 1266.28 813.09 1259.67 839.6 1249.43 798.73 1246.8 813.09 1229.48 813.09 1220.49 844.57 1213.76 800.39 1209.89 813.09 1189.44 813.09 1181.6 844.74 1173.13 797.75 1169.43 814.96 1159.36 814.96 1151.56 845.69"/><path class="cls-10" d="M1358.86,879.53h-296.46v-125.55h296.46v125.55Zm-294.55-1.92h292.63v-121.72h-292.63v121.72Z"/></g><rect class="cls-24" x="249.33" y="1843.42" width="2465.5" height="7.89" rx="3.07" ry="3.07"/></g></svg>