<?xml version="1.0" encoding="UTF-8"?><svg id="Camada_1" xmlns="http://www.w3.org/2000/svg" xmlns:xlink="http://www.w3.org/1999/xlink" viewBox="0 0 362 176"><defs><style>.cls-1,.cls-2,.cls-3,.cls-4{fill:none;}.cls-5{clip-path:url(#clippath);}.cls-6{fill:#cee4f1;}.cls-7{fill:#4472c4;}.cls-8{fill:#294666;}.cls-9{clip-path:url(#clippath-1);}.cls-10{clip-path:url(#clippath-4);}.cls-11{clip-path:url(#clippath-3);}.cls-12{clip-path:url(#clippath-2);}.cls-13{clip-path:url(#clippath-7);}.cls-14{clip-path:url(#clippath-8);}.cls-15{clip-path:url(#clippath-6);}.cls-16{clip-path:url(#clippath-5);}.cls-17{clip-path:url(#clippath-9);}.cls-2{stroke:#d9d9d9;stroke-linejoin:round;stroke-width:.75px;}.cls-18{clip-path:url(#clippath-14);}.cls-19{clip-path:url(#clippath-13);}.cls-20{clip-path:url(#clippath-12);}.cls-21{clip-path:url(#clippath-10);}.cls-22{clip-path:url(#clippath-11);}.cls-3{stroke:#54b590;stroke-width:2px;}.cls-3,.cls-4{stroke-miterlimit:10;}.cls-4{stroke:#294666;}</style><clipPath id="clippath"><rect class="cls-1" width="362" height="176"/></clipPath><clipPath id="clippath-1"><rect class="cls-1" x="11" y="67" width="341" height="78"/></clipPath><clipPath id="clippath-2"><rect class="cls-1" width="362" height="176"/></clipPath><clipPath id="clippath-3"><rect class="cls-1" width="362" height="176"/></clipPath><clipPath id="clippath-4"><rect class="cls-1" width="362" height="176"/></clipPath><clipPath id="clippath-5"><rect class="cls-1" width="362" height="176"/></clipPath><clipPath id="clippath-6"><rect class="cls-1" width="362" height="176"/></clipPath><clipPath id="clippath-7"><rect class="cls-1" width="362" height="176"/></clipPath><clipPath id="clippath-8"><rect class="cls-1" width="362" height="176"/></clipPath><clipPath id="clippath-9"><rect class="cls-1" width="362" height="176"/></clipPath><clipPath id="clippath-10"><rect class="cls-1" width="362" height="176"/></clipPath><clipPath id="clippath-11"><rect class="cls-1" width="362" height="176"/></clipPath><clipPath id="clippath-12"><rect class="cls-1" width="362" height="176"/></clipPath><clipPath id="clippath-13"><rect class="cls-1" width="362" height="176"/></clipPath><clipPath id="clippath-14"><rect class="cls-1" width="362" height="176"/></clipPath></defs><g class="cls-5"><line class="cls-2" x1="11.5" y1="144.5" x2="351.5" y2="144.5"/></g><g class="cls-9"><polyline class="cls-3" points="40 135 97 114 153 114 210 114 267 114 323 91"/></g><g class="cls-12"><circle class="cls-6" cx="39.27" cy="134.31" r="8.5"/><circle class="cls-6" cx="96.27" cy="113.31" r="8.5"/><circle class="cls-6" cx="152.27" cy="113.31" r="8.5"/><circle class="cls-6" cx="209.27" cy="113.31" r="8.5"/><circle class="cls-6" cx="266.27" cy="113.31" r="8.5"/><circle class="cls-6" cx="322.27" cy="90.31" r="8.5"/></g><g class="cls-11"><path class="cls-7" d="M34.66,136.44v-1.66l3.79-5.42h2.29v5.3h.98v1.78h-.98v1.56h-2.05v-1.56h-4.03Zm4.18-4.82l-2.02,3.05h2.02v-3.05Z"/></g><g class="cls-10"><g><path class="cls-7" d="M91.03,111.15v-1.91h3.32v8.76h-2.14v-6.85h-1.19Z"/><path class="cls-7" d="M96.06,116.06c.78-.65,1.4-1.18,1.85-1.6s.83-.85,1.15-1.31,.47-.9,.47-1.33c0-.33-.08-.58-.23-.77-.15-.18-.38-.28-.68-.28s-.54,.11-.71,.34c-.17,.23-.26,.55-.26,.97h-1.98c.02-.68,.16-1.25,.44-1.7,.28-.46,.64-.79,1.09-1.01,.45-.22,.95-.32,1.51-.32,.95,0,1.67,.24,2.15,.73,.48,.49,.73,1.12,.73,1.91,0,.86-.29,1.65-.88,2.38-.58,.73-1.33,1.45-2.23,2.14h3.24v1.67h-6.02v-1.52c.27-.22,.4-.32,.37-.3Z"/></g></g><g class="cls-16"><g><path class="cls-7" d="M147.71,111.15v-1.91h3.32v8.76h-2.14v-6.85h-1.19Z"/><path class="cls-7" d="M152.73,116.06c.78-.65,1.4-1.18,1.85-1.6s.83-.85,1.15-1.31,.47-.9,.47-1.33c0-.33-.08-.58-.23-.77-.15-.18-.38-.28-.68-.28s-.54,.11-.71,.34c-.17,.23-.26,.55-.26,.97h-1.98c.02-.68,.16-1.25,.44-1.7,.28-.46,.64-.79,1.09-1.01,.45-.22,.95-.32,1.51-.32,.95,0,1.67,.24,2.15,.73,.48,.49,.73,1.12,.73,1.91,0,.86-.29,1.65-.88,2.38-.58,.73-1.33,1.45-2.23,2.14h3.24v1.67h-6.02v-1.52c.27-.22,.4-.32,.37-.3Z"/></g></g><g class="cls-15"><g><path class="cls-7" d="M204.38,111.15v-1.91h3.32v8.76h-2.14v-6.85h-1.19Z"/><path class="cls-7" d="M209.41,116.06c.78-.65,1.4-1.18,1.85-1.6s.83-.85,1.15-1.31c.31-.46,.47-.9,.47-1.33,0-.33-.08-.58-.23-.77-.15-.18-.38-.28-.68-.28s-.54,.11-.71,.34c-.17,.23-.26,.55-.26,.97h-1.98c.02-.68,.16-1.25,.44-1.7,.28-.46,.64-.79,1.09-1.01,.45-.22,.95-.32,1.51-.32,.95,0,1.67,.24,2.15,.73,.48,.49,.73,1.12,.73,1.91,0,.86-.29,1.65-.88,2.38-.58,.73-1.33,1.45-2.23,2.14h3.24v1.67h-6.02v-1.52c.27-.22,.4-.32,.37-.3Z"/></g></g><g class="cls-13"><g><path class="cls-7" d="M261.05,111.15v-1.91h3.32v8.76h-2.14v-6.85h-1.19Z"/><path class="cls-7" d="M266.08,116.06c.78-.65,1.4-1.18,1.85-1.6s.83-.85,1.15-1.31c.31-.46,.47-.9,.47-1.33,0-.33-.08-.58-.23-.77-.15-.18-.38-.28-.68-.28s-.54,.11-.71,.34c-.17,.23-.26,.55-.26,.97h-1.98c.02-.68,.16-1.25,.44-1.7s.64-.79,1.09-1.01,.95-.32,1.51-.32c.95,0,1.67,.24,2.15,.73,.48,.49,.73,1.12,.73,1.91,0,.86-.29,1.65-.88,2.38-.58,.73-1.33,1.45-2.23,2.14h3.24v1.67h-6.02v-1.52c.27-.22,.4-.32,.37-.3Z"/></g></g><g class="cls-14"><g><path class="cls-7" d="M318.24,92.06c.78-.65,1.4-1.18,1.85-1.6s.83-.85,1.15-1.31c.31-.46,.47-.9,.47-1.33,0-.33-.08-.58-.23-.77-.15-.18-.38-.28-.68-.28s-.54,.11-.71,.34c-.17,.23-.26,.55-.26,.97h-1.98c.02-.68,.16-1.25,.44-1.7s.64-.79,1.09-1.01,.95-.32,1.51-.32c.95,0,1.67,.24,2.15,.73,.48,.49,.73,1.12,.73,1.91,0,.86-.29,1.65-.88,2.38-.58,.73-1.33,1.45-2.23,2.14h3.24v1.67h-6.02v-1.52c.27-.22,.4-.32,.37-.3Z"/><path class="cls-7" d="M324.57,87.15v-1.91h3.32v8.76h-2.14v-6.85h-1.19Z"/></g></g><g class="cls-17"><g><path class="cls-8" d="M27.46,164.06c.78-.65,1.4-1.18,1.85-1.6s.83-.85,1.15-1.31,.47-.9,.47-1.33c0-.33-.08-.58-.23-.77-.15-.18-.38-.28-.68-.28s-.54,.11-.71,.34c-.17,.23-.26,.55-.26,.97h-1.98c.02-.68,.16-1.25,.44-1.7,.28-.46,.64-.79,1.09-1.01,.45-.22,.95-.32,1.51-.32,.95,0,1.67,.24,2.15,.73,.48,.49,.73,1.12,.73,1.91,0,.86-.29,1.65-.88,2.38-.58,.73-1.33,1.45-2.23,2.14h3.24v1.67h-6.02v-1.52c.27-.22,.4-.32,.37-.3Z"/><path class="cls-8" d="M34.81,158.25c.53-.79,1.39-1.19,2.57-1.19s2.04,.4,2.57,1.19c.53,.79,.8,1.88,.8,3.25s-.27,2.48-.8,3.28c-.53,.79-1.39,1.19-2.57,1.19s-2.04-.4-2.57-1.19-.8-1.88-.8-3.28,.27-2.46,.8-3.25Zm3.67,1.39c-.18-.44-.54-.65-1.09-.65s-.92,.22-1.09,.65c-.18,.44-.26,1.06-.26,1.87,0,.54,.03,.99,.1,1.35,.06,.36,.19,.64,.39,.86,.2,.22,.49,.33,.87,.33s.67-.11,.87-.33c.2-.22,.33-.51,.39-.86,.06-.36,.1-.81,.1-1.35,0-.81-.09-1.43-.26-1.87Z"/><path class="cls-8" d="M41.62,159.15v-1.91h3.32v8.76h-2.14v-6.85h-1.19Z"/><path class="cls-8" d="M47.26,157.73c.53-.46,1.24-.7,2.15-.7,.6,0,1.11,.1,1.54,.31,.43,.21,.75,.49,.97,.85,.22,.36,.33,.76,.33,1.21,0,.53-.13,.96-.4,1.29-.26,.33-.57,.56-.92,.68v.05c.46,.15,.82,.4,1.08,.76,.26,.35,.4,.8,.4,1.36,0,.5-.11,.93-.34,1.31-.23,.38-.56,.68-1,.89-.44,.22-.95,.32-1.55,.32-.96,0-1.73-.24-2.3-.71-.57-.47-.87-1.18-.91-2.14h1.99c0,.35,.11,.63,.3,.83,.19,.2,.47,.31,.84,.31,.31,0,.55-.09,.73-.27,.17-.18,.26-.42,.26-.71,0-.38-.12-.66-.37-.83s-.63-.26-1.17-.26h-.38v-1.67h.38c.41,0,.74-.07,.99-.21,.25-.14,.38-.39,.38-.75,0-.29-.08-.51-.24-.67s-.38-.24-.66-.24c-.3,0-.53,.09-.68,.28-.15,.18-.23,.41-.26,.68h-2c.03-.86,.31-1.52,.84-1.98Z"/></g></g><g class="cls-21"><g><path class="cls-8" d="M84.13,164.06c.78-.65,1.4-1.18,1.85-1.6s.83-.85,1.15-1.31,.47-.9,.47-1.33c0-.33-.08-.58-.23-.77-.15-.18-.38-.28-.68-.28s-.54,.11-.71,.34c-.17,.23-.26,.55-.26,.97h-1.98c.02-.68,.16-1.25,.44-1.7,.28-.46,.64-.79,1.09-1.01,.45-.22,.95-.32,1.51-.32,.95,0,1.67,.24,2.15,.73,.48,.49,.73,1.12,.73,1.91,0,.86-.29,1.65-.88,2.38-.58,.73-1.33,1.45-2.23,2.14h3.24v1.67h-6.02v-1.52c.27-.22,.4-.32,.37-.3Z"/><path class="cls-8" d="M91.48,158.25c.53-.79,1.39-1.19,2.57-1.19s2.04,.4,2.57,1.19c.53,.79,.8,1.88,.8,3.25s-.27,2.48-.8,3.28c-.53,.79-1.39,1.19-2.57,1.19s-2.04-.4-2.57-1.19-.8-1.88-.8-3.28,.27-2.46,.8-3.25Zm3.67,1.39c-.18-.44-.54-.65-1.09-.65s-.92,.22-1.09,.65c-.18,.44-.26,1.06-.26,1.87,0,.54,.03,.99,.1,1.35,.06,.36,.19,.64,.39,.86,.2,.22,.49,.33,.87,.33s.67-.11,.87-.33c.2-.22,.33-.51,.39-.86,.06-.36,.1-.81,.1-1.35,0-.81-.09-1.43-.26-1.87Z"/><path class="cls-8" d="M98.29,159.15v-1.91h3.32v8.76h-2.14v-6.85h-1.19Z"/><path class="cls-8" d="M103.07,164.44v-1.66l3.79-5.42h2.29v5.3h.98v1.78h-.98v1.56h-2.05v-1.56h-4.03Zm4.18-4.82l-2.02,3.05h2.02v-3.05Z"/></g></g><g class="cls-22"><g><path class="cls-8" d="M140.81,164.06c.78-.65,1.4-1.18,1.85-1.6s.83-.85,1.15-1.31,.47-.9,.47-1.33c0-.33-.08-.58-.23-.77-.15-.18-.38-.28-.68-.28s-.54,.11-.71,.34c-.17,.23-.26,.55-.26,.97h-1.98c.02-.68,.16-1.25,.44-1.7,.28-.46,.64-.79,1.09-1.01,.45-.22,.95-.32,1.51-.32,.95,0,1.67,.24,2.15,.73,.48,.49,.73,1.12,.73,1.91,0,.86-.29,1.65-.88,2.38-.58,.73-1.33,1.45-2.23,2.14h3.24v1.67h-6.02v-1.52c.27-.22,.4-.32,.37-.3Z"/><path class="cls-8" d="M148.16,158.25c.53-.79,1.39-1.19,2.57-1.19s2.04,.4,2.57,1.19c.53,.79,.8,1.88,.8,3.25s-.27,2.48-.8,3.28c-.53,.79-1.39,1.19-2.57,1.19s-2.04-.4-2.57-1.19-.8-1.88-.8-3.28,.27-2.46,.8-3.25Zm3.67,1.39c-.18-.44-.54-.65-1.09-.65s-.92,.22-1.09,.65c-.18,.44-.26,1.06-.26,1.87,0,.54,.03,.99,.1,1.35,.06,.36,.19,.64,.39,.86,.2,.22,.49,.33,.87,.33s.67-.11,.87-.33c.2-.22,.33-.51,.39-.86,.06-.36,.1-.81,.1-1.35,0-.81-.09-1.43-.26-1.87Z"/><path class="cls-8" d="M154.97,159.15v-1.91h3.32v8.76h-2.14v-6.85h-1.19Z"/><path class="cls-8" d="M165.86,159.03h-3.74v1.66c.16-.18,.38-.32,.67-.43,.29-.11,.6-.17,.94-.17,.6,0,1.1,.14,1.49,.41,.4,.27,.69,.62,.87,1.06,.18,.43,.28,.9,.28,1.4,0,.94-.26,1.68-.79,2.23-.53,.55-1.27,.82-2.23,.82-.64,0-1.2-.11-1.67-.33-.47-.22-.84-.53-1.09-.92-.26-.39-.4-.84-.42-1.36h2c.05,.25,.16,.45,.35,.62,.18,.16,.44,.25,.76,.25,.38,0,.66-.12,.84-.36,.18-.24,.28-.56,.28-.96s-.1-.69-.29-.9c-.19-.21-.47-.31-.84-.31-.27,0-.5,.07-.67,.2-.18,.13-.29,.31-.35,.52h-1.98v-5.22h5.6v1.8Z"/></g></g><g class="cls-20"><g><path class="cls-8" d="M197.48,164.06c.78-.65,1.4-1.18,1.85-1.6s.83-.85,1.15-1.31c.31-.46,.47-.9,.47-1.33,0-.33-.08-.58-.23-.77-.15-.18-.38-.28-.68-.28s-.54,.11-.71,.34c-.17,.23-.26,.55-.26,.97h-1.98c.02-.68,.16-1.25,.44-1.7,.28-.46,.64-.79,1.09-1.01,.45-.22,.95-.32,1.51-.32,.95,0,1.67,.24,2.15,.73,.48,.49,.73,1.12,.73,1.91,0,.86-.29,1.65-.88,2.38-.58,.73-1.33,1.45-2.23,2.14h3.24v1.67h-6.02v-1.52c.27-.22,.4-.32,.37-.3Z"/><path class="cls-8" d="M204.83,158.25c.53-.79,1.39-1.19,2.57-1.19s2.04,.4,2.57,1.19c.53,.79,.8,1.88,.8,3.25s-.27,2.48-.8,3.28c-.53,.79-1.39,1.19-2.57,1.19s-2.04-.4-2.57-1.19-.8-1.88-.8-3.28,.27-2.46,.8-3.25Zm3.67,1.39c-.18-.44-.54-.65-1.09-.65s-.92,.22-1.09,.65c-.18,.44-.26,1.06-.26,1.87,0,.54,.03,.99,.1,1.35,.06,.36,.19,.64,.39,.86,.2,.22,.49,.33,.87,.33s.67-.11,.87-.33c.2-.22,.33-.51,.39-.86,.06-.36,.1-.81,.1-1.35,0-.81-.09-1.43-.26-1.87Z"/><path class="cls-8" d="M211.64,159.15v-1.91h3.32v8.76h-2.14v-6.85h-1.19Z"/><path class="cls-8" d="M220.36,158.94c-.16-.15-.39-.22-.68-.22-.46,0-.78,.2-.98,.59-.2,.4-.3,1.02-.31,1.88,.18-.28,.43-.5,.76-.66s.7-.24,1.1-.24c.78,0,1.41,.25,1.89,.74s.71,1.19,.71,2.08c0,.58-.12,1.1-.35,1.54-.24,.44-.58,.78-1.03,1.03s-.99,.37-1.6,.37c-1.23,0-2.09-.39-2.57-1.16-.48-.77-.72-1.88-.72-3.33,0-1.52,.25-2.65,.76-3.39s1.32-1.11,2.44-1.11c.6,0,1.11,.12,1.52,.35s.72,.55,.94,.93,.34,.8,.38,1.26h-1.91c-.06-.29-.18-.52-.34-.67Zm-1.47,3.28c-.23,.2-.34,.49-.34,.87s.11,.68,.32,.9c.21,.22,.51,.32,.91,.32,.35,0,.63-.11,.83-.32,.2-.21,.31-.5,.31-.87s-.1-.67-.3-.89c-.2-.22-.49-.32-.86-.32-.34,0-.63,.1-.86,.31Z"/></g></g><g class="cls-19"><g><path class="cls-8" d="M254.15,164.06c.78-.65,1.4-1.18,1.85-1.6s.83-.85,1.15-1.31c.31-.46,.47-.9,.47-1.33,0-.33-.08-.58-.23-.77-.15-.18-.38-.28-.68-.28s-.54,.11-.71,.34c-.17,.23-.26,.55-.26,.97h-1.98c.02-.68,.16-1.25,.44-1.7s.64-.79,1.09-1.01,.95-.32,1.51-.32c.95,0,1.67,.24,2.15,.73,.48,.49,.73,1.12,.73,1.91,0,.86-.29,1.65-.88,2.38-.58,.73-1.33,1.45-2.23,2.14h3.24v1.67h-6.02v-1.52c.27-.22,.4-.32,.37-.3Z"/><path class="cls-8" d="M261.5,158.25c.53-.79,1.39-1.19,2.57-1.19s2.04,.4,2.57,1.19,.8,1.88,.8,3.25-.27,2.48-.8,3.28-1.39,1.19-2.57,1.19-2.04-.4-2.57-1.19-.8-1.88-.8-3.28,.27-2.46,.8-3.25Zm3.67,1.39c-.18-.44-.54-.65-1.09-.65s-.92,.22-1.09,.65c-.18,.44-.26,1.06-.26,1.87,0,.54,.03,.99,.1,1.35,.06,.36,.19,.64,.39,.86,.2,.22,.49,.33,.87,.33s.67-.11,.87-.33c.2-.22,.33-.51,.39-.86,.06-.36,.1-.81,.1-1.35,0-.81-.09-1.43-.26-1.87Z"/><path class="cls-8" d="M268.31,159.15v-1.91h3.32v8.76h-2.14v-6.85h-1.19Z"/><path class="cls-8" d="M276.35,164.38c.42,0,.72-.19,.9-.56s.26-.99,.26-1.84c-.18,.25-.42,.44-.72,.58-.3,.14-.64,.2-1.02,.2-.51,0-.97-.11-1.37-.32s-.71-.53-.94-.95c-.23-.42-.34-.93-.34-1.53s.12-1.11,.37-1.55c.24-.44,.59-.78,1.04-1.02,.45-.24,.99-.36,1.6-.36,1.18,0,2.01,.37,2.48,1.1,.47,.74,.71,1.82,.71,3.25,0,1.04-.09,1.9-.28,2.57-.19,.68-.5,1.19-.95,1.54-.44,.35-1.05,.53-1.82,.53-.61,0-1.13-.12-1.55-.36-.43-.24-.76-.56-.98-.95-.23-.39-.36-.82-.39-1.3h1.9c.12,.63,.49,.95,1.1,.95Zm.7-3.55c.2-.2,.3-.48,.3-.83,0-.38-.1-.68-.31-.89s-.49-.31-.84-.31-.63,.11-.83,.32-.31,.5-.31,.87c0,.34,.1,.62,.31,.83s.5,.32,.88,.32c.34,0,.6-.1,.8-.31Z"/></g></g><g class="cls-18"><g><path class="cls-8" d="M310.82,164.06c.78-.65,1.4-1.18,1.85-1.6s.83-.85,1.15-1.31c.31-.46,.47-.9,.47-1.33,0-.33-.08-.58-.23-.77-.15-.18-.38-.28-.68-.28s-.54,.11-.71,.34c-.17,.23-.26,.55-.26,.97h-1.98c.02-.68,.16-1.25,.44-1.7,.28-.46,.64-.79,1.09-1.01,.45-.22,.95-.32,1.51-.32,.95,0,1.67,.24,2.15,.73,.48,.49,.73,1.12,.73,1.91,0,.86-.29,1.65-.88,2.38-.58,.73-1.33,1.45-2.23,2.14h3.24v1.67h-6.02v-1.52c.27-.22,.4-.32,.37-.3Z"/><path class="cls-8" d="M318.17,158.25c.53-.79,1.39-1.19,2.57-1.19s2.04,.4,2.57,1.19c.53,.79,.8,1.88,.8,3.25s-.27,2.48-.8,3.28c-.53,.79-1.39,1.19-2.57,1.19s-2.04-.4-2.57-1.19-.8-1.88-.8-3.28,.27-2.46,.8-3.25Zm3.67,1.39c-.18-.44-.54-.65-1.09-.65s-.92,.22-1.09,.65c-.18,.44-.26,1.06-.26,1.87,0,.54,.03,.99,.1,1.35,.06,.36,.19,.64,.39,.86,.2,.22,.49,.33,.87,.33s.67-.11,.87-.33c.2-.22,.33-.51,.39-.86,.06-.36,.1-.81,.1-1.35,0-.81-.09-1.43-.26-1.87Z"/><path class="cls-8" d="M325.5,164.06c.78-.65,1.4-1.18,1.85-1.6s.83-.85,1.15-1.31c.31-.46,.47-.9,.47-1.33,0-.33-.08-.58-.23-.77-.15-.18-.38-.28-.68-.28s-.54,.11-.71,.34c-.17,.23-.26,.55-.26,.97h-1.98c.02-.68,.16-1.25,.44-1.7,.28-.46,.64-.79,1.09-1.01,.45-.22,.95-.32,1.51-.32,.95,0,1.67,.24,2.15,.73,.48,.49,.73,1.12,.73,1.91,0,.86-.29,1.65-.88,2.38-.58,.73-1.33,1.45-2.23,2.14h3.24v1.67h-6.02v-1.52c.27-.22,.4-.32,.37-.3Z"/><path class="cls-8" d="M331.84,159.15v-1.91h3.32v8.76h-2.14v-6.85h-1.19Z"/></g></g><g><path class="cls-8" d="M58.57,27.92l-1.44-1.94c-.43,.08-.84,.13-1.25,.13-1.06,0-2.02-.25-2.9-.74-.88-.49-1.58-1.18-2.1-2.06-.52-.88-.78-1.87-.78-2.97s.26-2.08,.78-2.96c.52-.87,1.22-1.56,2.1-2.05,.88-.49,1.85-.74,2.9-.74s2.02,.25,2.9,.74c.88,.49,1.57,1.17,2.08,2.05,.51,.88,.76,1.86,.76,2.96,0,.96-.19,1.84-.58,2.63-.39,.79-.93,1.45-1.62,1.98l2.46,2.96h-3.31Zm-4.86-5.19c.54,.59,1.26,.89,2.17,.89s1.61-.3,2.15-.9c.54-.6,.81-1.39,.81-2.37s-.27-1.78-.81-2.38c-.54-.59-1.26-.89-2.15-.89s-1.63,.29-2.17,.88c-.54,.59-.81,1.38-.81,2.38s.27,1.78,.81,2.38Z"/><path class="cls-8" d="M65.87,14.77v6.72c0,.67,.17,1.19,.5,1.55s.82,.54,1.46,.54,1.13-.18,1.47-.54,.51-.88,.51-1.55v-6.72h2.74v6.7c0,1-.21,1.85-.64,2.54-.43,.69-1,1.22-1.72,1.57-.72,.35-1.52,.53-2.41,.53s-1.68-.17-2.38-.52-1.25-.87-1.66-1.57c-.41-.7-.61-1.55-.61-2.55v-6.7h2.74Z"/><path class="cls-8" d="M81.45,24.02h-4.19l-.67,1.98h-2.86l4.06-11.23h3.17l4.06,11.23h-2.9l-.67-1.98Zm-.7-2.11l-1.39-4.11-1.38,4.11h2.77Z"/><path class="cls-8" d="M96.3,26h-2.74l-4.58-6.93v6.93h-2.74V14.77h2.74l4.58,6.96v-6.96h2.74v11.23Z"/><path class="cls-8" d="M106.36,14.77v2.19h-2.98v9.04h-2.74v-9.04h-2.98v-2.19h8.69Z"/><path class="cls-8" d="M110.48,14.77v11.23h-2.74V14.77h2.74Z"/><path class="cls-8" d="M119.77,15.47c.89,.47,1.57,1.13,2.06,1.98,.49,.85,.73,1.83,.73,2.94s-.24,2.08-.73,2.93c-.49,.85-1.17,1.52-2.06,1.98-.89,.47-1.92,.7-3.1,.7h-4.21V14.77h4.21c1.18,0,2.22,.24,3.1,.7Zm-.86,7.31c.58-.57,.86-1.37,.86-2.4s-.29-1.84-.86-2.42-1.38-.86-2.42-.86h-1.3v6.53h1.3c1.03,0,1.84-.28,2.42-.85Z"/><path class="cls-8" d="M131.08,24.02h-4.19l-.67,1.98h-2.86l4.06-11.23h3.17l4.06,11.23h-2.9l-.67-1.98Zm-.7-2.11l-1.39-4.11-1.38,4.11h2.77Z"/><path class="cls-8" d="M143.2,15.47c.89,.47,1.57,1.13,2.06,1.98,.49,.85,.73,1.83,.73,2.94s-.24,2.08-.73,2.93c-.49,.85-1.17,1.52-2.06,1.98-.89,.47-1.92,.7-3.1,.7h-4.21V14.77h4.21c1.18,0,2.22,.24,3.1,.7Zm-.86,7.31c.58-.57,.86-1.37,.86-2.4s-.29-1.84-.86-2.42-1.38-.86-2.42-.86h-1.3v6.53h1.3c1.03,0,1.84-.28,2.42-.85Z"/><path class="cls-8" d="M150.25,16.96v2.27h3.66v2.11h-3.66v2.46h4.14v2.19h-6.88V14.77h6.88v2.19h-4.14Z"/><path class="cls-8" d="M166.87,15.47c.89,.47,1.57,1.13,2.06,1.98,.49,.85,.73,1.83,.73,2.94s-.24,2.08-.73,2.93c-.49,.85-1.17,1.52-2.06,1.98-.89,.47-1.92,.7-3.1,.7h-4.21V14.77h4.21c1.18,0,2.22,.24,3.1,.7Zm-.86,7.31c.58-.57,.86-1.37,.86-2.4s-.29-1.84-.86-2.42-1.38-.86-2.42-.86h-1.3v6.53h1.3c1.03,0,1.84-.28,2.42-.85Z"/><path class="cls-8" d="M173.93,16.96v2.27h3.66v2.11h-3.66v2.46h4.14v2.19h-6.88V14.77h6.88v2.19h-4.14Z"/><path class="cls-8" d="M193.29,26h-2.74l-4.58-6.93v6.93h-2.74V14.77h2.74l4.58,6.96v-6.96h2.74v11.23Z"/><path class="cls-8" d="M198.01,16.96v2.27h3.66v2.11h-3.66v2.46h4.14v2.19h-6.88V14.77h6.88v2.19h-4.14Z"/><path class="cls-8" d="M214.47,14.77l-3.98,11.23h-3.42l-3.98-11.23h2.91l2.78,8.48,2.8-8.48h2.9Z"/><path class="cls-8" d="M217.47,25.71c-.65-.27-1.17-.66-1.56-1.18s-.59-1.15-.62-1.89h2.91c.04,.42,.19,.73,.43,.95,.25,.22,.56,.33,.96,.33s.72-.09,.96-.28c.23-.19,.35-.45,.35-.78,0-.28-.09-.51-.28-.69-.19-.18-.42-.33-.69-.45-.27-.12-.66-.25-1.16-.4-.73-.22-1.32-.45-1.78-.67-.46-.22-.85-.55-1.18-.99-.33-.44-.5-1.01-.5-1.71,0-1.04,.38-1.86,1.14-2.46,.76-.59,1.74-.89,2.96-.89s2.24,.3,2.99,.89c.76,.59,1.16,1.42,1.22,2.47h-2.96c-.02-.36-.15-.65-.4-.86-.25-.21-.56-.31-.94-.31-.33,0-.6,.09-.8,.26-.2,.18-.3,.43-.3,.76,0,.36,.17,.65,.51,.85,.34,.2,.87,.42,1.6,.66,.73,.25,1.31,.48,1.77,.7,.45,.22,.84,.55,1.18,.98,.33,.43,.5,.98,.5,1.65s-.16,1.22-.49,1.74-.8,.94-1.42,1.25c-.62,.31-1.35,.46-2.19,.46s-1.56-.13-2.21-.4Z"/><path class="cls-8" d="M238.89,26h-2.74l-4.58-6.93v6.93h-2.74V14.77h2.74l4.58,6.96v-6.96h2.74v11.23Z"/><path class="cls-8" d="M243.28,25.38c-.88-.49-1.58-1.18-2.1-2.06-.52-.88-.78-1.87-.78-2.97s.26-2.08,.78-2.96c.52-.87,1.22-1.56,2.1-2.05,.88-.49,1.85-.74,2.9-.74s2.02,.25,2.9,.74c.88,.49,1.57,1.17,2.08,2.05,.51,.88,.76,1.86,.76,2.96s-.26,2.09-.77,2.97-1.21,1.57-2.08,2.06c-.88,.49-1.84,.74-2.9,.74s-2.02-.25-2.9-.74Zm5.06-2.66c.54-.6,.81-1.39,.81-2.37s-.27-1.78-.81-2.38c-.54-.59-1.26-.89-2.15-.89s-1.63,.29-2.17,.88c-.54,.59-.81,1.38-.81,2.38s.27,1.78,.81,2.38c.54,.59,1.26,.89,2.17,.89s1.61-.3,2.15-.9Z"/><path class="cls-8" d="M265.21,21.21c.39,.51,.59,1.09,.59,1.74,0,.94-.33,1.68-.98,2.23-.66,.55-1.57,.82-2.74,.82h-5.23V14.77h5.06c1.14,0,2.04,.26,2.68,.78,.64,.52,.97,1.23,.97,2.13,0,.66-.17,1.21-.52,1.65s-.81,.74-1.38,.91c.65,.14,1.17,.46,1.57,.97Zm-5.63-1.9h1.79c.45,0,.79-.1,1.03-.3,.24-.2,.36-.49,.36-.87s-.12-.68-.36-.88c-.24-.2-.58-.3-1.03-.3h-1.79v2.35Zm3.08,4.17c.25-.21,.38-.51,.38-.9s-.13-.7-.39-.93c-.26-.22-.62-.34-1.08-.34h-1.98v2.48h2.02c.46,0,.81-.1,1.06-.31Z"/><path class="cls-8" d="M273.11,26l-2.34-4.24h-.66v4.24h-2.74V14.77h4.59c.89,0,1.64,.16,2.26,.46,.62,.31,1.09,.73,1.4,1.27,.31,.54,.46,1.14,.46,1.8,0,.75-.21,1.41-.63,2-.42,.59-1.04,1-1.86,1.25l2.59,4.45h-3.09Zm-2.99-6.18h1.7c.5,0,.88-.12,1.13-.37,.25-.25,.38-.59,.38-1.04s-.13-.76-.38-1.01c-.25-.25-.63-.37-1.13-.37h-1.7v2.78Z"/><path class="cls-8" d="M284.81,24.02h-4.19l-.67,1.98h-2.86l4.06-11.23h3.17l4.06,11.23h-2.9l-.67-1.98Zm-.7-2.11l-1.39-4.11-1.38,4.11h2.77Z"/><path class="cls-8" d="M291.47,25.71c-.65-.27-1.17-.66-1.56-1.18s-.59-1.15-.62-1.89h2.91c.04,.42,.19,.73,.43,.95,.25,.22,.56,.33,.96,.33s.72-.09,.96-.28c.23-.19,.35-.45,.35-.78,0-.28-.09-.51-.28-.69-.19-.18-.42-.33-.69-.45-.27-.12-.66-.25-1.16-.4-.73-.22-1.32-.45-1.78-.67-.46-.22-.85-.55-1.18-.99-.33-.44-.5-1.01-.5-1.71,0-1.04,.38-1.86,1.14-2.46,.76-.59,1.74-.89,2.96-.89s2.24,.3,2.99,.89c.76,.59,1.16,1.42,1.22,2.47h-2.96c-.02-.36-.15-.65-.4-.86-.25-.21-.56-.31-.94-.31-.33,0-.6,.09-.8,.26-.2,.18-.3,.43-.3,.76,0,.36,.17,.65,.51,.85,.34,.2,.87,.42,1.6,.66,.73,.25,1.31,.48,1.77,.7,.45,.22,.84,.55,1.18,.98,.33,.43,.5,.98,.5,1.65s-.16,1.22-.49,1.74-.8,.94-1.42,1.25c-.62,.31-1.35,.46-2.19,.46s-1.56-.13-2.21-.4Z"/><path class="cls-8" d="M302.18,14.77v11.23h-2.74V14.77h2.74Z"/><path class="cls-8" d="M306.9,23.89h3.58v2.11h-6.32V14.77h2.74v9.12Z"/><path class="cls-8" d="M134.08,34.67c.89,.47,1.57,1.13,2.06,1.98,.49,.85,.73,1.83,.73,2.94s-.24,2.08-.73,2.93c-.49,.85-1.17,1.52-2.06,1.98-.89,.47-1.92,.7-3.1,.7h-4.21v-11.23h4.21c1.18,0,2.22,.24,3.1,.7Zm-.86,7.31c.58-.57,.86-1.37,.86-2.4s-.29-1.84-.86-2.42-1.38-.86-2.42-.86h-1.3v6.53h1.3c1.03,0,1.84-.28,2.42-.85Z"/><path class="cls-8" d="M141.13,36.16v2.27h3.66v2.11h-3.66v2.46h4.14v2.19h-6.88v-11.23h6.88v2.19h-4.14Z"/><path class="cls-8" d="M150.57,42.61c1.04-.86,1.87-1.57,2.47-2.13s1.11-1.14,1.53-1.74c.42-.61,.62-1.2,.62-1.78,0-.44-.1-.78-.3-1.02s-.51-.37-.91-.37-.72,.15-.95,.46c-.23,.3-.34,.73-.34,1.29h-2.64c.02-.91,.22-1.66,.58-2.27,.37-.61,.85-1.06,1.46-1.34s1.27-.43,2.01-.43c1.27,0,2.23,.33,2.87,.98,.65,.65,.97,1.5,.97,2.54,0,1.14-.39,2.2-1.17,3.18-.78,.98-1.77,1.93-2.98,2.86h4.32v2.22h-8.03v-2.03c.36-.29,.53-.42,.5-.4Z"/><path class="cls-8" d="M160.37,34.86c.71-1.06,1.85-1.58,3.43-1.58s2.72,.53,3.43,1.58,1.06,2.5,1.06,4.34-.35,3.31-1.06,4.37c-.71,1.06-1.85,1.58-3.43,1.58s-2.72-.53-3.43-1.58c-.71-1.06-1.06-2.51-1.06-4.37s.35-3.28,1.06-4.34Zm4.89,1.85c-.23-.58-.72-.87-1.46-.87s-1.22,.29-1.46,.87c-.23,.58-.35,1.41-.35,2.49,0,.73,.04,1.33,.13,1.8,.08,.47,.26,.86,.52,1.15,.26,.29,.65,.44,1.16,.44s.9-.15,1.16-.44c.26-.29,.43-.68,.52-1.15s.13-1.07,.13-1.8c0-1.08-.12-1.91-.35-2.49Z"/><path class="cls-8" d="M169.45,36.06v-2.54h4.43v11.68h-2.85v-9.14h-1.58Z"/><path class="cls-8" d="M176.97,34.18c.7-.62,1.66-.93,2.86-.93,.8,0,1.49,.14,2.06,.42,.57,.28,1,.66,1.3,1.14,.29,.48,.44,1.02,.44,1.62,0,.7-.18,1.28-.53,1.72-.35,.44-.76,.74-1.23,.9v.06c.61,.2,1.09,.54,1.44,1.01,.35,.47,.53,1.07,.53,1.81,0,.66-.15,1.25-.46,1.75-.3,.51-.75,.9-1.33,1.19-.58,.29-1.27,.43-2.07,.43-1.28,0-2.3-.31-3.06-.94-.76-.63-1.17-1.58-1.21-2.85h2.66c.01,.47,.14,.84,.4,1.11s.63,.41,1.12,.41c.42,0,.74-.12,.97-.36s.34-.56,.34-.95c0-.51-.16-.88-.49-1.11s-.85-.34-1.56-.34h-.51v-2.22h.51c.54,0,.98-.09,1.32-.28s.5-.52,.5-1c0-.38-.11-.68-.32-.9s-.51-.32-.88-.32c-.41,0-.71,.12-.9,.37-.2,.25-.31,.55-.34,.91h-2.67c.04-1.14,.42-2.02,1.12-2.64Z"/><path class="cls-8" d="M196.09,43.22h-4.19l-.67,1.98h-2.86l4.06-11.23h3.17l4.06,11.23h-2.9l-.67-1.98Zm-.7-2.11l-1.39-4.11-1.38,4.11h2.77Z"/><path class="cls-8" d="M204.41,42.61c1.04-.86,1.87-1.57,2.47-2.13s1.11-1.14,1.53-1.74c.42-.61,.62-1.2,.62-1.78,0-.44-.1-.78-.3-1.02-.2-.25-.51-.37-.91-.37s-.72,.15-.95,.46c-.23,.3-.34,.73-.34,1.29h-2.64c.02-.91,.22-1.66,.58-2.27,.37-.61,.85-1.06,1.46-1.34s1.27-.43,2.01-.43c1.27,0,2.23,.33,2.87,.98,.64,.65,.97,1.5,.97,2.54,0,1.14-.39,2.2-1.17,3.18-.78,.98-1.77,1.93-2.98,2.86h4.32v2.22h-8.03v-2.03c.36-.29,.53-.42,.5-.4Z"/><path class="cls-8" d="M214.21,34.86c.71-1.06,1.85-1.58,3.43-1.58s2.72,.53,3.43,1.58c.71,1.06,1.06,2.5,1.06,4.34s-.35,3.31-1.06,4.37c-.71,1.06-1.85,1.58-3.43,1.58s-2.72-.53-3.43-1.58c-.71-1.06-1.06-2.51-1.06-4.37s.35-3.28,1.06-4.34Zm4.89,1.85c-.24-.58-.72-.87-1.46-.87s-1.22,.29-1.46,.87c-.23,.58-.35,1.41-.35,2.49,0,.73,.04,1.33,.13,1.8,.08,.47,.26,.86,.52,1.15s.65,.44,1.16,.44,.9-.15,1.16-.44c.26-.29,.43-.68,.52-1.15,.09-.47,.13-1.07,.13-1.8,0-1.08-.12-1.91-.35-2.49Z"/><path class="cls-8" d="M223.98,42.61c1.04-.86,1.87-1.57,2.47-2.13s1.11-1.14,1.53-1.74c.42-.61,.62-1.2,.62-1.78,0-.44-.1-.78-.3-1.02-.2-.25-.51-.37-.91-.37s-.72,.15-.95,.46c-.23,.3-.34,.73-.34,1.29h-2.64c.02-.91,.22-1.66,.58-2.27,.37-.61,.85-1.06,1.46-1.34s1.27-.43,2.01-.43c1.27,0,2.23,.33,2.87,.98,.64,.65,.97,1.5,.97,2.54,0,1.14-.39,2.2-1.17,3.18-.78,.98-1.77,1.93-2.98,2.86h4.32v2.22h-8.03v-2.03c.36-.29,.53-.42,.5-.4Z"/><path class="cls-8" d="M232.43,36.06v-2.54h4.43v11.68h-2.85v-9.14h-1.58Z"/></g><rect class="cls-4" x="1.5" y="1.5" width="362" height="175"/></svg>