<?xml version="1.0" encoding="UTF-8"?><svg id="_лой_2" xmlns="http://www.w3.org/2000/svg" viewBox="0 0 3500 2000"><defs><style>.cls-1{fill:#ebf2f9;}.cls-2{fill:#f1a34f;}.cls-3{fill:#e9f3fe;}.cls-4{fill:#e7f1fd;}.cls-5{fill:#e58638;}.cls-6{fill:#e49963;}.cls-7{fill:#fff;}.cls-8{fill:#ffb973;}.cls-9{fill:#ffb27d;}.cls-10{fill:#fca56b;}.cls-11{fill:#ee9849;}.cls-12{fill:#699dee;}.cls-13{fill:#c45446;}.cls-14{fill:#b5453c;}.cls-15{fill:#a8d29f;}.cls-16{fill:#aa413e;}.cls-17{fill:#afcdfb;}.cls-18{fill:#c65447;}.cls-19,.cls-20{fill:#d86713;}.cls-21{fill:#e37970;}.cls-22{fill:#c95c12;}.cls-23{fill:#d68d5d;}.cls-24{fill:#163560;}.cls-25{fill:#233862;}.cls-26{fill:#1c468a;}.cls-27{fill:#283250;}.cls-28{fill:#2b478b;}.cls-29{fill:#4a75cb;}.cls-30{fill:#82b378;}.cls-20{opacity:.4;}</style></defs><path class="cls-1" d="M2857.93,1811.51s343.75,63.13,453.17-175.7c141.97-309.85-149.7-544.78-373.39-501.01-487.44,95.38-370.06-956.85-1152.33-742.1-219.96,60.38-814.28-298.33-980.03,276.84-39.41,136.77-179.06,151.83-381.78,238.62-396.74,169.84-215.34,906.23,68.15,909.12,283.49,2.89,2366.21-5.76,2366.21-5.76Z"/><path class="cls-15" d="M2130.59,1704.43c-70.87-53.12-138.91,16.26-238.14-29.1-99.22-45.36,104.89-269.32,22.68-337.36-82.21-68.04-218.29,76.54-218.29,76.54,0,0,238.14-297.67,147.42-334.8-90.72-37.13-664.49-132.05-664.49-132.05l-103.67,598.01c-21.2-27.43-66.13-62.8-105.04-18.17-51.76,59.37,121.78,187.24,94.38,213.12-27.4,25.88-92.86-83.73-148.24-40.86-55.38,42.87,15.65,116.41,15.65,116.41l155.42,2.16s.02-1.93,.07-5.43h1096.18s16.95-55.37-53.93-108.49Z"/><g><g><path class="cls-19" d="M1389.25,915.03l-71.38,848.73s-7.48,51.45,30.79,51.54c62.92,.15,313.18,0,313.18,0,0,0-47.36-10.71-46.78-34.81,.68-28.4,83.43-873.49,83.43-873.49l-309.24,8.03Z"/><path class="cls-11" d="M1682.14,1799.9c-12.38,.04-251.41,.79-312.68,0-26.7-.33-31.39-23.74-31.61-38.9-.11-7.26,.81-12.63,.81-12.63l1.86-22.06,4.73-56.22,4.18-49.67,5.37-63.83,4.52-53.88,50.72-603.08,309.24-8.02s-34.85,353.67-59.51,611.11c-2.75,28.68-5.37,56.19-7.79,81.86-.79,8.2-1.54,16.21-2.27,24.01-2.29,24.36-4.38,46.72-6.19,66.47-.96,10.41-1.84,20.08-2.64,28.94-3.15,34.72-4.99,56.89-5.01,61.1-.01,2.46,.2,4.74,.6,6.87,5.08,27.05,41.03,27.93,45.68,27.93Z"/><polygon class="cls-2" points="2122.9 453.19 638.24 453.19 812.11 1151.59 835.92 1247.23 916.9 1572.53 2421.38 1572.53 2122.9 453.19"/><polygon class="cls-11" points="638.24 453.19 614.15 461.22 884.86 1596.83 916.9 1572.53 638.24 453.19"/><polygon class="cls-19" points="884.86 1596.83 2380.08 1596.83 2421.37 1572.53 916.9 1572.53 884.86 1596.83"/><rect class="cls-2" x="1409.94" y="1800.24" width="323.74" height="15.38" transform="translate(3143.62 3615.87) rotate(180)"/><polygon class="cls-19" points="1651.38 1596.82 1649.71 1608.58 1345.25 1670.09 1349.43 1620.42 1351.42 1596.82 1651.38 1596.82"/><path class="cls-20" d="M1682.14,1799.9c-12.38,.04-251.41,.79-312.68,0-26.7-.33-31.39-23.74-31.61-38.9l303.02-57.01c-3.15,34.72-4.99,56.89-5.01,61.1-.01,2.46,.2,4.74,.6,6.87,5.08,27.05,41.03,27.93,45.68,27.93Z"/><polygon class="cls-20" points="1558.24 1352.63 916.9 1572.53 862.13 1352.5 1558.24 1352.63"/><polygon class="cls-12" points="2122.9 453.19 638.24 453.19 862 1352.5 2363.79 1352.79 2122.9 453.19"/></g><path class="cls-19" d="M1709.02,1466.51c-4.29-22.06-25.65-39.95-47.71-39.95s-36.47,17.88-32.18,39.95c4.29,22.06,25.65,39.95,47.71,39.95s36.47-17.88,32.18-39.95Z"/><polygon class="cls-3" points="2293.77 1313.8 903.68 1313.8 746.25 686.67 734.18 638.58 723.88 597.56 699.74 501.37 2069.79 501.37 2096.31 597.56 2107.62 638.58 2120.87 686.67 2293.77 1313.8"/><polygon class="cls-17" points="2069.79 501.37 699.74 501.37 723.88 597.56 2096.31 597.56 2069.79 501.37"/><polygon class="cls-15" points="1189.72 750.16 1328.31 750.16 1346.29 819.63 1207.7 819.63 1189.72 750.16"/><polygon class="cls-15" points="932.19 819.63 1070.77 819.63 1087.93 885.93 949.71 885.93 932.19 819.63"/><polygon class="cls-15" points="1606.88 750.16 1745.47 750.16 1763.45 819.63 1624.86 819.63 1606.88 750.16"/><polygon class="cls-15" points="1642.03 890.68 1780.62 890.68 1797.78 956.98 1659.55 956.98 1642.03 890.68"/><polygon class="cls-15" points="1538.82 1028.03 1816.74 1028.03 1833.97 1097.5 1556.8 1097.5 1538.82 1028.03"/><g><rect class="cls-17" x="760.13" y="748.14" width="1380.34" height="4.04"/><rect class="cls-17" x="779.95" y="817.61" width="1379.28" height="4.04"/><rect class="cls-17" x="793.64" y="887.08" width="1384.35" height="4.04"/><rect class="cls-17" x="814.03" y="956.55" width="1382.71" height="4.04"/><rect class="cls-17" x="831.59" y="1026.02" width="1383.9" height="4.04"/><rect class="cls-17" x="848.12" y="1095.49" width="1386.13" height="4.04"/><rect class="cls-17" x="865.16" y="1164.95" width="1387.85" height="4.04"/><rect class="cls-17" x="883.83" y="1234.42" width="1387.94" height="4.04"/></g><g><path class="cls-3" d="M765.44,532.82c-6.64,0-10.68,5.38-9.03,12.02,1.66,6.64,8.38,12.02,15.02,12.02s10.68-5.38,9.03-12.02c-1.66-6.64-8.38-12.02-15.02-12.02Z"/><path class="cls-3" d="M805.4,532.82c-6.64,0-10.68,5.38-9.03,12.02,1.66,6.64,8.38,12.02,15.02,12.02s10.68-5.38,9.03-12.02c-1.66-6.64-8.38-12.02-15.02-12.02Z"/><path class="cls-3" d="M863.44,544.84c-1.66-6.64-8.38-12.02-15.02-12.02s-10.68,5.38-9.03,12.02c1.66,6.64,8.38,12.02,15.02,12.02s10.68-5.38,9.03-12.02Z"/></g><polygon class="cls-17" points="2165.18 1314.31 2169.08 1313.29 2006.9 686.67 2120.87 686.67 2107.62 638.58 1994.45 638.58 1994.32 638.08 1992.37 638.58 1855.86 638.58 1855.73 638.08 1853.78 638.58 1717.28 638.58 1717.15 638.08 1715.19 638.58 1578.69 638.58 1578.56 638.08 1576.61 638.58 1440.1 638.58 1439.97 638.08 1438.02 638.58 1301.52 638.58 1301.38 638.08 1299.43 638.58 1162.93 638.58 1162.8 638.08 1160.84 638.58 1024.34 638.58 1024.21 638.08 1022.26 638.58 885.75 638.58 885.62 638.08 883.67 638.58 734.18 638.58 746.25 686.67 894.03 686.67 1056.48 1314.31 1060.38 1313.29 898.2 686.67 1032.62 686.67 1195.06 1314.31 1198.97 1313.29 1036.79 686.67 1171.21 686.67 1333.65 1314.31 1337.56 1313.29 1175.38 686.67 1309.79 686.67 1472.24 1314.31 1476.14 1313.29 1313.96 686.67 1448.38 686.67 1610.83 1314.31 1614.73 1313.29 1452.55 686.67 1586.97 686.67 1749.41 1314.31 1753.32 1313.29 1591.14 686.67 1725.56 686.67 1888 1314.31 1891.91 1313.29 1729.72 686.67 1864.14 686.67 2026.59 1314.31 2030.49 1313.29 1868.31 686.67 2002.73 686.67 2165.18 1314.31"/></g><g><g><rect class="cls-19" x="2829.53" y="1047.08" width="290.06" height="290.07"/><rect class="cls-11" x="2918.97" y="1047.08" width="290.07" height="290.07"/></g><g><path class="cls-1" d="M3067.08,1240.51c-11.7,.05-21.15,9.57-21.1,21.27h0c.05,11.7,9.57,21.14,21.27,21.1h0c11.7-.05,21.14-9.57,21.1-21.27h0c-.05-11.7-9.57-21.15-21.27-21.1Z"/><path class="cls-1" d="M3067.26,1140.46h0c11.7-.05,21.14-9.57,21.1-21.27h0c-.05-11.7-9.57-21.14-21.27-21.1-11.7,.05-21.15,9.57-21.1,21.27,.05,11.7,9.57,21.15,21.27,21.1Z"/><rect class="cls-1" x="2976.11" y="1170.92" width="181.55" height="42.37" transform="translate(-4.92 12.73) rotate(-.24)"/></g></g><g><g><rect class="cls-29" x="343.6" y="1248.05" width="247.96" height="247.96"/><rect class="cls-12" x="420.06" y="1248.05" width="247.96" height="247.96"/></g><rect class="cls-1" x="468.9" y="1353.92" width="155.2" height="36.22"/></g><g><polygon class="cls-6" points="995.5 1706.58 1009.97 1767.52 1031.65 1767.4 1032.44 1706.58 995.5 1706.58"/><polygon class="cls-6" points="1177.81 1709.18 1218.98 1767.52 1235.03 1746.92 1210.25 1701.16 1177.81 1709.18"/><path class="cls-24" d="M1070.78,905.75c-7.48-4.25-16.45-4.72-22.72-4.35,1.62-1.67,4.79-2.27,4.79-2.27-3.89-.58-12.57,3.28-12.57,3.28-54.1-20.85-62.6,58.81-61.46,77.32,1.13,18.5-18.18,24.55-46.32,39.13-53.7,27.82-58.42,65.07-58.42,65.07,.42,.25,.85,.53,1.32,.85,2.66-4.51,8.15-12.99,12.77-14.27-.17,.41-5.47,11.67-7.44,18.12,15.84,12.05,45.48,38.75,66.14,57.69-.09-3.7,.06-8.95,1.41-11.73l2.55,15.37c11.05,10.16,18.67,17.31,18.67,17.31-1.37-14.95,67.63-93.87,103.63-117.51,8.76-12.9,11.88-35.69,12.11-37.49-1.51,18.07-4.6,28.21-7.37,33.92,30.48-28.06,12.74-129.16-7.1-140.43Z"/><path class="cls-6" d="M1071,1050.93c.18,.08-17.38,9.2-30.59,5.59-12.43-3.39-20.54-19.5-20.37-19.54,5.26-1.04,6.78-8.28,6.67-39.35l2.38,.47,40,7.92s-.91,12.59-.94,24.45c-.03,9.96,.58,19.4,2.86,20.46Z"/><path class="cls-21" d="M1025.76,918.79s19.73-21.01,44.5-1.08c0,0-14.42-2.49-44.5,1.08Z"/><path class="cls-23" d="M1069.08,1006.02s-.91,12.59-.94,24.45c-22.38-.63-34.21-21.05-39.06-32.37l40,7.92Z"/><path class="cls-24" d="M1024.95,993.74s-11.73-18.53-14.54-34.38c-2.01-11.31,3.75-53.25,45.9-47.21,0,0,12.24,1.21,23.75,8.98,9.15,6.18,22.35,19.52,7.59,56.12l-3.84,12.36-58.85,4.14Z"/><path class="cls-28" d="M1228.5,1730.93l-21.2,.65-22.95,.7s-53.01-59.02-82.74-153.63c-.69-2.2-1.42-4.42-2.2-6.68-16.27-47.45-50.01-107.01-67.79-160.92-2.83-8.59-5.37-16.67-7.65-24.32-.73-2.45-1.44-4.86-2.12-7.23-13.1-45.52-16.89-75.41-20.39-107.34l128.37,1.03s20.72,218.06,98.67,457.74Z"/><path class="cls-4" d="M1111.86,1199.42c-.32,61.09,8.96,87.3,8.96,87.3,0,0-54.96,27.93-120.29,7.37-.77-.24-54.09-12.41-54.09-12.41,1.09-2.47,10.82-43.64,11.88-45.91,13.79-29.62,24.27-42.61,25.9-51.71,3.03-17,3.1-34.59,1.59-51.18-3.99-43.92-15.84-80.37-15.84-80.37,17.8-4.05,34.47-11.17,52.99-18.11,4.26,5.31,17.29,10.86,28.59,10.6,13.01-.29,17.23-5.86,16.56-11.94,13.87,7.72,24.93,15.01,24.93,15.01,11.79,20.47,35.69,40.35,37.42,71.75,.43,7.72-18.59,77.9-18.6,79.61Z"/><path class="cls-18" d="M1186.39,1108.67c-18.85-22.01-67.67-69.76-118.06-75.61l43.48,84.7s2.44,14.52,15.32,22.98c31.54,20.72,71.63,29.89,71.63,29.89,0,0,27.16-11.85,64.28-39.05,11.65-8.54,32.13-41.1,32.13-41.1l-5.52-18.48s-34.76,19.43-47.18,25.04c-7.08,3.2-23.37,10.82-34.85,16.21-7.3,3.43-15.98,1.55-21.23-4.58Z"/><path class="cls-6" d="M1076.55,1017.25s-52.96,.87-52.99-32.11c-.04-32.99-6.9-55.09,26.91-57.04,33.81-1.95,40.39,10.63,43.08,21.63,2.69,11.01-3.23,66.44-17,67.52Z"/><path class="cls-24" d="M1074.59,927.28s-14.5,38.7-36.75,44.42c-22.25,5.72-31.9-.24-31.9-.24,0,0,17.07-13.56,20.61-37.23,0,0,37.11-25.37,48.04-6.95Z"/><path class="cls-24" d="M1071,930.42s10.83,8.64,13.47,17.04c2.64,8.4,3.83,25.69,8.87,25.1,0,0,10.92-26.3-1.35-41.18-13.02-15.78-20.98-.96-20.98-.96Z"/><path class="cls-6" d="M1289.65,1071.99s7.47-26.91,37.04-23.1c3.39,1.06,13.31,5.02,6.97,15.64-4.67,7.83-6.7,3.79-14.05,14.31-7.35,10.52-15.33,12.89-24.45,11.64l-5.52-18.48Z"/><path class="cls-6" d="M1009.24,1764.12s1.75,12.07-2.76,24.99c0,0-3.55,16.16,12.37,16.46,15.92,.3,19.82-1.2,18.02-11.11-1.8-9.91-5.23-27.05-5.23-27.05l-22.4-3.28Z"/><path class="cls-13" d="M1038.38,1812.47s-.34,.21-1,.53h-31.16c-.6-.32-.88-.53-.88-.53-1.8-8.11,1.14-23.37,1.14-23.37,18.03,16.52,29.31-.41,29.31-.41,2.93,7.06,2.59,23.78,2.59,23.78Z"/><path class="cls-6" d="M1273.39,1796.07s-29.35-32.58-38.36-49.15l-21.82,11.18,48.78,45.81,11.41-1.5v-6.34Z"/><path class="cls-13" d="M1291.6,1813h-40.16c-3.87-2.89-7.48-9.58-11.97-18.56-2.39-4.79-7.77-7.43-13.29-8.88v27.13h-8.33l-7.89-28.84c-5.19-9.55-.41-18.21,3.25-25.75,4.25,0,15.69,2.9,37.37,27.33,7.13,8.02,15,10.89,22.81,10.64,.11,.07,.22,.13,.32,.17,13.08,5.88,16.82,13.19,17.89,16.76Z"/><path class="cls-18" d="M1068.11,1033.06s30.64,75.69,31.54,91.01c.9,15.32,3.6,250.49,3.6,250.49,0,0-1.8,10.81,18.92,6.31,20.72-4.5,26.13-9.01,26.13-9.01,0,0-19.82-145.07-14.42-195.53,5.41-50.46-41.45-132.76-41.45-132.76l-24.33-10.51Z"/><path class="cls-25" d="M1207.3,1731.58l-22.95,.7s-53.01-59.02-82.74-153.63c-.69-2.2-1.42-4.42-2.2-6.68-16.27-47.45-50.01-107.01-67.79-160.92-2.83-8.59-5.37-16.67-7.65-24.32-.73-2.45-1.44-4.86-2.12-7.23l18.9-14.34s56.76,91.91,74.33,178.4c15.26,75.13,76.39,165.53,92.21,188.01Z"/><path class="cls-24" d="M1147.04,1162.28l-1.11,3.43-59.41-19.31s-.78-.92-.38-2.12c.45-1.32,1.49-1.31,1.49-1.31l59.41,19.31Z"/><path class="cls-28" d="M1042.73,1551.62c.32,42.06-1.8,138.76-7.28,178.8h-20.33c-11.24,0-16.84-.16-16.84-.16-13.74-69.61-23.52-127.2-30.64-176.83-5.84-40.73-11.03-75.64-15.02-105.7-4.02-30.25-6.81-55.58-7.81-76.98-.15-3.37-.27-6.65-.33-9.83-.06-3.2-.08-6.31-.05-9.33l110.92-10.81c-1.4,73.7-12.79,186.4-12.61,210.85Z"/><path class="cls-25" d="M1015.12,1730.41c-11.24,0-16.84-.16-16.84-.16-13.74-69.61-23.52-127.2-30.64-176.83-5.84-40.73-11.03-75.64-15.02-105.7-4.02-30.25-6.81-55.58-7.81-76.98l40.7,23.94s-25.98,9.16-16.07,78.55c9.91,69.38,31.88,247.37,45.67,257.19Z"/><path class="cls-18" d="M1020.36,1370.05s-7.81,28.23-34.84,24.63c-27.03-3.6-65.47-19.82-65.47-19.82,0,0,11.55-36.5,25.91-84.46,17.39-58.05,38.92-132.9,49.06-180.1,2.85-13.23,4.79-24.27,5.51-32.19l22.43-43.51s33.44,75.05,35.24,93.97c1.8,18.92-37.84,241.48-37.84,241.48Z"/><path class="cls-6" d="M993.37,1125.75l29.6-91.15c-.08,.04-37.38,11.1-56.15,20.58,0,0-11.73,15.12-18.99,50.01,0,0-7.67,83.75,9.45,114.39,0,0,54.06,10.81,140.56-18.92v-19.82s-94.61,4.96-113.98,7.21l9.5-62.29Z"/><path class="cls-16" d="M1019.16,1168.22c-1.21,30.64-8.42,90.11-72.69,121.94-.17,.08-.34,.17-.51,.24,17.39-58.05,38.92-132.9,49.06-180.1,11.8,17.64,24.8,41.05,24.14,57.92Z"/><path class="cls-18" d="M1022.96,1034.6s-54.87,3.87-68.08,33.3c-13.22,29.43-17.42,127.35-.6,156.18,0,0,23.16,6.59,64.11-1.06,.5-.09,1.01-.19,1.51-.29,0,0,13.07-31.99,1.35-38.29,0,0-34.54,1.8-30.94-9.61,3.6-11.41,32.64-140.23,32.64-140.23Z"/><path class="cls-6" d="M1088.15,1186.1s7.54-9.13,9.14-18.46c1.61-9.33,6.6-16.24,19.6-17.95,13.01-1.71,18.6-1.89,18.57,1.77-.03,3.67-10.63,29.27-29.3,44.56-18.67,15.29-18.02-9.92-18.02-9.92Z"/><polygon class="cls-24" points="1151.31 1165.59 1147.04 1162.28 1145.92 1165.71 1151.31 1165.59"/></g><g><g><g><rect class="cls-19" x="2686.56" y="1337.14" width="480.31" height="480.31" transform="translate(5853.42 3154.59) rotate(180)"/><rect class="cls-2" x="2538.46" y="1337.14" width="480.31" height="480.31"/></g><polygon class="cls-1" points="2924.15 1542.22 2808.92 1542.22 2808.92 1426.99 2738.76 1426.99 2738.76 1542.22 2623.54 1542.22 2623.54 1612.37 2738.76 1612.37 2738.76 1727.6 2808.92 1727.6 2808.92 1612.37 2924.15 1612.37 2924.15 1542.22"/></g><polygon class="cls-22" points="3018.77 1337.14 3166.87 1409.26 3166.87 1337.14 3018.77 1337.14"/></g><g><g><path class="cls-6" d="M2594.22,1534.62c2.42,2.77,2.72,5.86,1.53,9.17,0,.01,0,.03-.02,.05-2.21,6.11-9.52,12.93-18,19.75-1.08,.88-2.05,1.67-2.89,2.41-.22,.19-.44,.39-.65,.58-.17,.15-.33,.31-.5,.45-7.91,7.29-4.93,8.96-19.15,23.76-16.21,16.86-27.37,17.17-30.54,15.63-2.69-1.31,2.77-10.25,8.82-20.31,.29-.48,.58-.98,.88-1.47,.81-1.34,1.61-2.69,2.41-4.04,7.09-12.1,5.27-17.78,3.59-35.78-1.37-14.63-22.76-81.74-22.76-81.74l31.06-5.35s9.35,53.44,19.66,61.67c5.51,4.39,11.68,4.44,16.98,7.69,.37,.23,.74,.46,1.1,.7,3.01,2,6.08,4.05,8.5,6.83Z"/><path class="cls-18" d="M2594.22,1534.62c2.42,2.77,2.72,5.86,1.53,9.17,0,.01,0,.03-.02,.05-2.71,6.1-9.83,12.89-18.03,19.68-1.07,.89-2.02,1.71-2.86,2.47-.22,.19-.44,.39-.65,.58-.17,.15-.33,.31-.5,.45-7.91,7.29-4.93,8.96-19.15,23.76-16.21,16.86-27.37,17.17-30.54,15.63-2.69-1.31,2.77-10.25,8.82-20.31,3.16-1.16,17.81-7.11,28.89-21.29,9.76-12.45,16.27-28.46,22.91-37.72,.37,.23,.74,.46,1.1,.7,3.01,2,6.08,4.05,8.5,6.83Z"/><path class="cls-6" d="M2343.77,1515.22c-1.92,9.59-15.58,7.99-30.85,4.26-15.27-3.73-11.64,.7-33.37-1.7-21.73-2.41-28.31-10.51-28.98-13.74-.59-2.87,10.14-3.88,21.66-5.21,1.45-.16,2.9-.34,4.36-.52,13-1.63,22.53-10.02,34.34-16.91,11.19-6.53,27.88-33.12,27.88-33.12l29.8,2.36s-15.64,23.75-21.69,34.08c-3.56,6.07-3.37,14.11-2.93,20.31,.23,3.37,.45,6.82-.23,10.19Z"/><path class="cls-18" d="M2312.91,1519.48c-15.27-3.73-11.64,.7-33.37-1.7-21.73-2.41-28.31-10.51-28.98-13.74-.59-2.87,10.14-3.88,21.66-5.21l.11,.22s13.03,9.24,31.12,9.67c14.74,.36,30.36-3.87,40.54-3.7,.23,3.37,.45,6.82-.23,10.19-1.92,9.59-15.58,7.99-30.85,4.26Z"/><path class="cls-6" d="M2410.08,1077.51s-7.1-17.4-14.91-18.11c-7.81-.71-32.66-4.62-34.44-1.06-1.77,3.55,0,16.33,5.33,20.95,5.33,4.62,38.34,12.07,38.34,12.07l5.68-13.85Z"/><path class="cls-16" d="M2457.97,1324.66l64.23,172.85s9.87,.96,19.33-1.77c8.7-2.51,18.68-9.1,18.68-9.1,0,0-15.93-165.97-45.14-200.49-29.21-34.52-57.09,38.5-57.09,38.5Z"/><path class="cls-18" d="M2712.01,1254.73s-184.55-62.4-225.71-49.13c-41.16,13.28-164.74,259.15-164.74,259.15,0,0,2.79,3.71,10.4,6.57,7.08,2.66,24.22,2.48,24.22,2.48,0,0,111.53-95.6,124.81-123.48,13.28-27.88,18.59-54.44,31.87-51.78,13.28,2.66,171.28,65.06,207.12,27.88,35.85-37.18,26.47-85.48,26.47-85.48l-34.44,13.78Z"/><path class="cls-14" d="M2599.23,964.43c-2.95-6.09-6.24-16.89-7.85-36.16,.25,1.91,3.57,26.21,12.91,39.97,38.38,25.2,111.95,109.34,110.49,125.28,0,0,25.91-43.95,26.36-44.21,0,0,47.8-60.78-8.85-95.6-28.79-17.7-28.65-40.41-27.44-60.13,1.21-19.73-7.85-104.66-65.53-82.43,0,0-9.25-4.11-13.4-3.5,0,0,3.39,.65,5.11,2.42-6.69-.4-16.25,.1-24.22,4.63-21.14,12.01-40.07,119.81-7.57,149.73Z"/><path class="cls-6" d="M2606.56,969.49c-.19,.09,18.53,9.81,32.62,5.96,13.25-3.61,21.9-20.79,21.72-20.83-5.61-1.11-7.23-8.82-7.11-41.95l-2.54,.5-42.65,8.44s.97,13.42,1,26.06c.03,10.62-.61,20.68-3.05,21.82Z"/><path class="cls-23" d="M2608.61,921.61s.97,13.42,1,26.06c23.86-.67,36.48-22.44,41.65-34.51l-42.65,8.44Z"/><path class="cls-14" d="M2655.66,908.52s12.51-19.76,15.51-36.66c2.14-12.06-4-56.78-48.93-50.34,0,0-13.05,1.29-25.32,9.57-9.76,6.59-23.84,20.81-8.09,59.83l4.09,13.18,62.75,4.41Z"/><path class="cls-6" d="M2600.64,933.58s56.46,.93,56.5-34.24c.04-35.17,7.35-58.74-28.7-60.82-36.05-2.08-43.07,11.33-45.93,23.07-2.87,11.74,3.44,70.84,18.13,71.99Z"/><path class="cls-14" d="M2653.95,845.08s-38.56-26.37-50.76-8.13c-3.7-3.17-10.29-5.47-19,5.09-13.09,15.86-1.44,43.91-1.44,43.91,5.37,.63,6.64-17.81,9.46-26.77,2.12-6.75,9.21-13.65,12.56-16.64,4.93,11.11,18.48,37.68,37.15,42.48,23.72,6.1,34.02-.26,34.02-.26,0,0-18.2-14.46-21.97-39.69Z"/><path class="cls-12" d="M2755.3,1255.71c-3.04,8.45-12.38,10.63-24.9,9.16-23.86-2.79-59.32-18.81-84.86-29.89-38.95-16.88-56.65-1.02-69.05-11.76-12.39-10.75,14.16-34.64-8.85-145.58-7.81-37.62,41.63-118.34,41.63-118.34,0,0,3.42,21.87,51.63-4.68,.24-.13,20.3,26.59,38.24,60.59,19.78,37.51,38.72,82.83,33.15,106.18-10.62,44.52,31.87,109.76,23.01,134.32Z"/><path class="cls-12" d="M2609.27,959.29l-29.15,119.74s-3.63,6.46-9.32,15.66c-13.36,21.6-38.08,58.29-53.91,62.02-7.81,1.84-24.41-4.66-42.79-13.94-34.74-17.55-75.83-45.07-75.83-45.07-2.66-15.93,11.21-28.92,11.21-28.92,0,0,83.21,31.27,91.48,31.87,18.01,1.28,36.35-85.66,53.18-114.63,12.17-20.95,55.13-26.72,55.13-26.72Z"/><path class="cls-7" d="M2613.19,912.26s-1.05,4.47-12.17,3.78c0,0-9.33-.58-9.05-5.49,0,0,9.05-3.49,21.21,1.71Z"/><path class="cls-29" d="M2755.3,1255.71c-3.04,8.45-12.38,10.63-24.9,9.16-16.52-7.2-87.87-34.84-87.08-53.57,1.19-27.73,13.72-28.62,4.87-62.85-7.11-27.49,58.82-78.59,69.34-89.7,19.78,37.51,20.32,39.29,14.75,62.64-10.62,44.52,31.87,109.76,23.01,134.32Z"/><path class="cls-29" d="M2570.8,1094.69c-13.36,21.6-38.08,58.29-53.91,62.02-7.81,1.84-24.41-4.66-42.79-13.94,13.41,3.46,26.44,3.36,39.1,2.14,13.72-1.33,17.7-18.15,39.39-43.37,14.07-16.36,17.52-12.24,18.21-6.84Z"/><path class="cls-6" d="M2636.91,1147.79s-11.95-9.29-23.24-7.08c-11.29,2.21-16.82,9.96-16.38,13.5s6.42,13.5,15.05,14.38c8.63,.88,33.19-5.31,33.19-5.31l-8.63-15.49Z"/><path class="cls-12" d="M2660.9,954.62s46.02,2.83,61.95,25.05c22.43,31.28,76.25,170.4,50.75,188.18-28.71,20.02-140.01-.59-140.01-.59,0,0-3.39-15.86,1.33-23.53s81.44-20.06,84.98-23.61c3.54-3.54-44.26-69.04-44.26-79.67s-14.74-85.84-14.74-85.84Z"/></g><g><g><polygon class="cls-26" points="2624.9 1210.3 2455.4 1210.3 2424.84 1103.74 2594.08 1103.74 2624.9 1210.3"/><rect class="cls-24" x="2455.98" y="1206.15" width="221.59" height="4.15"/></g><path class="cls-24" d="M2509.22,1155.29c-1.07-3.75,1.09-6.78,4.84-6.78s7.65,3.04,8.73,6.78c1.07,3.75-1.09,6.78-4.84,6.78s-7.65-3.04-8.73-6.78Z"/></g></g><path class="cls-27" d="M3293.86,1818.34H249.01c-1.49,0-2.72-1.22-2.72-2.72h0c0-1.49,1.22-2.72,2.72-2.72H3293.86c1.49,0,2.72,1.22,2.72,2.72h0c0,1.49-1.22,2.72-2.72,2.72Z"/><g><g><rect class="cls-19" x="371.21" y="1496.01" width="316.9" height="316.9"/><rect class="cls-2" x="468.92" y="1496.01" width="316.9" height="316.9"/><polygon class="cls-1" points="717.87 1706.8 663.24 1653.93 716.12 1599.29 682.85 1567.1 629.98 1621.73 575.35 1568.86 543.16 1602.12 597.79 1655 544.92 1709.63 578.18 1741.82 631.05 1687.19 685.68 1740.06 717.87 1706.8"/></g><polygon class="cls-22" points="468.92 1496.01 371.21 1555.25 371.21 1496.01 468.92 1496.01"/></g><g><path class="cls-5" d="M2077.17,984.83s73.87,75.23,77.42,104.01c3.55,28.78-35.17,73.8-35.17,73.8l-42.25-177.8Z"/><path class="cls-24" d="M2045.51,1776.41s-1.57,25.35-6.12,36.26h-92.37c1.56-3.63,5.19-8.29,13.61-9.76,14.47-2.53,38.68-12.69,47.44-31.81,9.22-20.11,37.44,5.31,37.44,5.31Z"/><path class="cls-24" d="M2155.73,1776.41s-1.57,25.35-6.11,36.26h-92.37c1.55-3.63,5.18-8.29,13.61-9.76,14.46-2.53,38.68-12.69,47.44-31.81,9.22-20.11,37.43,5.31,37.43,5.31Z"/><path class="cls-24" d="M1990.7,1340.38s12.94,82.78,61.23,229.73c48.28,146.95,54.86,210.58,54.86,210.58l51.8-1.45s.44-160.6-21.81-234.49c-22.25-73.89-4.8-266.4-4.8-266.4l-141.27,62.03Z"/><path class="cls-26" d="M1965.49,1282.88s-1.83,124.74,19.75,277.91c21.58,153.16,14.27,218.18,14.27,218.18l51.69,1.72s30.89-153.22,22.04-229.88c-8.86-76.66,42.3-263.06,42.3-263.06l-150.05-4.86Z"/><path class="cls-9" d="M2065.56,990.96l-27.54,18.06-39.8-7.42c.55-3.21,3.18-16.53,5.57-28.59,.14-.71,.29-1.42,.42-2.12,2.05-10.26,3.82-19.08,3.82-19.08l37.18-16.4,13.86-6.12c-.04,.22-1.07,11.39-1.22,13.02-2.6,28.97,7.71,48.65,7.71,48.65Z"/><path class="cls-11" d="M2135.4,1298.28c-7.99,36.47-141.03,40.79-175.33,7.69-3.9-3.77-4.09-21.33-2.62-45,2.88-46.24,12.12-115.8,12.48-151.34,.18-17.16,2.53-34.72,5.68-50.66,6.68-33.97,16.87-60.63,16.87-60.63,0,0,64.98-21.01,77.14-17.43,58.58,17.21,73.77,280.91,65.78,317.37Z"/><path class="cls-5" d="M1957.46,1260.97c2.88-46.24,12.12-115.8,12.48-151.34,.18-17.16,2.53-34.72,5.68-50.66l39.09-6.9s38.22,156.1-57.24,208.9Z"/><path class="cls-9" d="M1978.62,1196.51s2.66,6.37-2.93,10.64c-5.59,4.28-9.22,11.2-7.94,16.27,1.28,5.06,13.56,13.32,17.81,11.99,4.25-1.33,12.91-8,11.98-10.67-.93-2.67,5.83-23.44-4.55-31.43-10.37-7.99-14.37,3.2-14.37,3.2Z"/><path class="cls-11" d="M2022.33,988.98s-38.12,7.13-68.5,51.9c-30.38,44.76-50.36,78.05-44.76,94.18s56.6,72.09,65.39,72.09,22.98-6.39,23.78-20.78c0,0-35.91-53.82-28.84-61.88,3.02-3.45,46.62-38.84,52.85-22.85,10.3,26.45,.08-112.65,.08-112.65Z"/><path class="cls-10" d="M2055.06,942.82c-8.16,13.83-38.58,25.79-51.27,30.18,.14-.71,.29-1.42,.42-2.12,2.05-10.26,3.82-19.08,3.82-19.08l37.18-16.4c8.22-.11,13.22,1.73,9.85,7.42Z"/><path class="cls-9" d="M1994.02,949.55s59.88,18.68,70.94-18.79c11.06-37.47,26.24-60.3-11.53-73.81-37.77-13.51-49.45-1.42-56.18,10.19-6.73,11.61-18.52,76.58-3.23,82.41Z"/><path class="cls-24" d="M1999.6,863.53s3.82,43.61,12.84,41.71,17.2-3.3,15.88,9.85c-1.32,13.14-13.83,28.32,13.97,30.65,27.79,2.33,67.74-69.35,60.11-82.92-22.03-39.16-134.63-47.06-102.79,.71Z"/><path class="cls-5" d="M2008.41,981.85c.77-.33,47.93-14.24,53.06-12.55,5.12,1.69,8.16,11.6,8.16,11.6l-77.14,17.44s6.07-12.34,15.93-16.49Z"/></g><g><g><path class="cls-30" d="M517.94,1092.24s-25-29.17-1.54-47.69c0,0,17.13-10.37,31.11-9.53,0,0-19.8,33.2-13.39,36.5,6.4,3.3,19.39-38.58,19.39-38.58,0,0,38.99-3.78,51.54,2.25,0,0-33.33,27.28-26.31,28.9,7.02,1.62,43.03-25.15,43.03-25.15,0,0,36.29,6.18,34.36,28.31-1.93,22.14-14.44,28.97-19.94,28.39-5.5-.59-37.65-12.86-38.35-8.36-.7,4.5,18.65,19.22,32.2,19.91,0,0-25.59,28.22-42.59,20.07-17-8.14-18.46-21.05-29.06-25.89s-19.65-4.83-15.27,.11c4.38,4.94,23.56,9.74,29.62,20.46,6.06,10.72,11.5,17.95-6.09,15.31-17.59-2.65-46.19-15.52-47.45-30.26l-1.26-14.74Z"/><g><path class="cls-30" d="M638.28,1067.85s-98.57-3.8-120.34,24.39c0,0-4.81,14.42-19.63,27.55l-2.31,6.29s17.08-18.01,23.19-19.1c0,0-9.56-34.92,119.08-39.13Z"/><path class="cls-30" d="M498.31,1119.79s-21.16,15.65-22.63,43.6l3.84,.34s6.76-28.91,18.97-40.21c12.21-11.3-.18-3.74-.18-3.74Z"/></g></g><g><path class="cls-15" d="M430.53,1055.56s39.77-22.27,21.21-52.49c0,0-14.85-18.56-30.75-23.33,0,0,8.48,45.07,0,46.13-8.48,1.06-5.83-50.9-5.83-50.9,0,0-41.89-20.15-58.33-18.56,0,0,25.98,44.01,17.5,42.95-8.48-1.06-37.65-45.6-37.65-45.6,0,0-42.95-7.95-49.84,17.5-6.89,25.45,4.24,38.18,10.61,39.77s47.19,1.06,46.13,6.36c-1.06,5.3-28.63,13.79-44.01,9.01,0,0,16.97,41.89,39.24,39.77,22.27-2.12,29.16-15.91,42.95-16.97,13.79-1.06,23.86,2.65,16.97,6.36-6.89,3.71-30.22,1.22-41.36,10.68-11.14,9.47-20.15,15.3,.53,19.54,20.68,4.24,57.8,1.59,65.22-14.32l7.42-15.91Z"/><g><path class="cls-30" d="M306.46,979.21s111.35,36.06,124.08,76.35c0,0-.53,18.03,10.6,38.71v7.95s-11.67-27.04-18.03-30.75c0,0,24.92-35-116.65-92.26Z"/><path class="cls-30" d="M441.14,1094.27s17.17,26.08,7.38,57.82l-4.42-1.19s4.29-34.96-4.7-52.55c-8.98-17.58,1.73-4.09,1.73-4.09Z"/></g></g><g><path class="cls-15" d="M493.8,1024.85s-52.42-29.36-27.96-69.2c0,0,19.57-24.46,40.54-30.75,0,0-11.18,59.41,0,60.81,11.18,1.4,7.69-67.1,7.69-67.1,0,0,55.22-26.56,76.88-24.46,0,0-34.25,58.01-23.06,56.61,11.18-1.4,49.62-60.11,49.62-60.11,0,0,56.61-10.48,65.7,23.06,9.09,33.55-5.59,50.32-13.98,52.42-8.39,2.1-62.21,1.4-60.81,8.39,1.4,6.99,37.74,18.17,58.01,11.88,0,0-22.37,55.22-51.72,52.42-29.36-2.8-38.44-20.97-56.61-22.37-18.17-1.4-31.45,3.5-22.37,8.39,9.09,4.89,39.84,1.6,54.52,14.08,14.68,12.48,26.56,20.17-.7,25.76-27.26,5.59-76.18,2.1-85.97-18.87l-9.79-20.97Z"/><g><path class="cls-30" d="M657.35,924.2s-146.78,47.53-163.55,100.65c0,0,.7,23.76-13.98,51.02v10.48s15.38-35.65,23.76-40.54c0,0-32.85-46.13,153.77-121.62Z"/><path class="cls-30" d="M479.82,1075.87s-22.64,34.37-9.73,76.22l5.82-1.56s-5.65-46.09,6.19-69.27c11.84-23.18-2.28-5.39-2.28-5.39Z"/></g></g><path class="cls-2" d="M492.03,1242.82c56.71,0,102.68-45.97,102.68-102.68h-205.37c0,56.71,45.97,102.68,102.68,102.68Z"/><path class="cls-8" d="M517.3,1242.04c-4.18,.52-8.44,.79-12.76,.79-56.71,0-102.68-45.98-102.68-102.69h25.51c0,52.39,39.24,95.62,89.93,101.9Z"/><path class="cls-2" d="M583.47,1235.38h-182.87c-7,0-12.67,5.67-12.67,12.67h208.21c0-7-5.67-12.67-12.67-12.67Z"/><rect class="cls-19" x="385.97" y="1140.14" width="211.08" height="3.15"/></g></svg>