<?xml version="1.0" encoding="UTF-8"?><svg id="img-slide-5" xmlns="http://www.w3.org/2000/svg" xmlns:xlink="http://www.w3.org/1999/xlink" viewBox="0 0 353.4 260.5"><defs><style>.cls-1{fill:none;}.cls-2{clip-path:url(#clippath);}.cls-3{fill:#ebebeb;}.cls-4{fill:#f5f5f5;}.cls-5{fill:#fff;}.cls-6{fill:#91644a;}.cls-7{fill:#e0e0e0;}.cls-8{fill:#455a64;}.cls-9{fill:#263238;}.cls-10{clip-path:url(#clippath-1);}.cls-11{clip-path:url(#clippath-4);}.cls-12{clip-path:url(#clippath-3);}.cls-13{clip-path:url(#clippath-2);}.cls-14{clip-path:url(#clippath-5);}.cls-15{opacity:.36;}.cls-16{isolation:isolate;}</style><clipPath id="clippath"><rect class="cls-1" width="353.4" height="260.5"/></clipPath><clipPath id="clippath-1"><rect class="cls-1" width="353.4" height="260.5"/></clipPath><clipPath id="clippath-2"><rect class="cls-1" width="353.4" height="260.5"/></clipPath><clipPath id="clippath-3"><rect class="cls-1" x="117.88" y="167.71" width="169" height="3.8"/></clipPath><clipPath id="clippath-4"><rect class="cls-1" x="119.72" y="172.07" width="50.4" height="3.8"/></clipPath><clipPath id="clippath-5"><rect class="cls-1" x="226.77" y="172.07" width="56.1" height="3.8"/></clipPath></defs><g class="cls-2"><g id="Grupo_1882"><g id="Grupo_1870"><g class="cls-10"><g id="Grupo_1869"><path id="Caminho_1614" class="cls-3" d="M93.3,46.6c0,25.8-20.9,46.6-46.6,46.6S.1,72.3,.1,46.6C0,20.9,20.9,0,46.6,0s46.7,20.9,46.7,46.6h0"/><path id="Caminho_1615" class="cls-5" d="M89,46.2c0,23.3-18.9,42.2-42.2,42.2S4.6,69.5,4.6,46.2,23.5,4,46.8,4s42.2,18.9,42.2,42.2h0"/><path id="Caminho_1616" class="cls-7" d="M4.2,43.6v4.2c0,.5,.1,1.1,.2,1.8s.1,1.3,.2,2.1,.2,1.6,.4,2.3c.7,4,2.1,7.9,3.9,11.6,2.5,4.8,5.8,9.1,9.9,12.7l1.7,1.5c.6,.5,1.3,.9,1.9,1.3,.7,.4,1.3,.9,2,1.3l2.1,1.2,1.1,.6,1.1,.5,2.3,1c.8,.3,1.6,.5,2.4,.8s1.7,.5,2.5,.7c1.7,.4,3.5,.8,5.3,1l2.7,.3h4.2l1.4-.1c.9-.1,1.9-.1,2.9-.3,1.9-.3,3.8-.7,5.7-1.3l1.4-.4c.2-.1,.5-.1,.7-.2l.7-.3,2.8-1.1c.9-.4,1.8-.9,2.7-1.4,.4-.2,.9-.5,1.4-.7l1.3-.8c1.8-1.1,3.4-2.4,5-3.7l2.3-2.2,.6-.6,.5-.6,1-1.2,1.1-1.2,.9-1.3,.9-1.3,.5-.7c.1-.2,.3-.5,.4-.7l1.6-2.9,1.3-3c1.7-4.2,2.7-8.6,3.1-13.1,.2-4.5-.2-9.1-1.3-13.4l-.9-3.2-1.2-3.1-.3-.8-.4-.7-.8-1.4-.8-1.4-.9-1.4-.9-1.4-.4-.7-.5-.6-2-2.5c-1.4-1.6-2.9-3-4.5-4.4l-1.2-1-1.2-.9c-.8-.6-1.7-1.2-2.5-1.7l-2.6-1.5-.7-.4c-.2-.1-.5-.2-.7-.3l-1.4-.6c-1.8-.8-3.6-1.5-5.5-2-.9-.3-1.9-.4-2.8-.6l-1.4-.3c-.5-.1-.9-.1-1.4-.2l-2.8-.3c-.9-.1-1.8,0-2.8-.1-1.8,0-3.6,.1-5.4,.3-.9,.1-1.7,.2-2.6,.4-.9,.2-1.7,.3-2.5,.5l-2.4,.7-1.2,.3-1.1,.5-2.3,.9c-.8,.3-1.4,.7-2.1,1.1-.7,.4-1.4,.7-2.1,1.1l-1.9,1.2c-4.5,3-8.4,6.8-11.5,11.3-2.4,3.4-4.2,7-5.4,10.9-.3,.7-.5,1.5-.7,2.3-.2,.7-.3,1.4-.5,2-.1,.6-.3,1.2-.4,1.8-.1,.5-.1,1-.2,1.5-.1,.9-.2,1.5-.3,2,.4,.1,.4,.3,.4,.3,0,0,0-.2,.1-.7s.1-1.1,.2-2c0-.4,.1-.9,.2-1.5,.1-.5,.2-1.1,.4-1.8s.3-1.3,.4-2.1c.2-.8,.4-1.5,.7-2.3,1.2-3.9,3-7.7,5.4-11,3.1-4.5,7-8.4,11.6-11.4l1.9-1.3c.7-.4,1.4-.7,2.1-1.1,.7-.3,1.4-.8,2.2-1.1l2.3-.9,1.2-.5,1.2-.4,2.4-.7c.8-.2,1.7-.3,2.6-.5s1.7-.3,2.6-.4c1.8-.2,3.6-.3,5.4-.3,.9,0,1.9,0,2.8,.1l2.8,.3c.5,.1,.9,.1,1.4,.2l1.4,.3c.9,.2,1.9,.4,2.8,.6,1.9,.6,3.8,1.2,5.6,2l1.4,.6c.2,.1,.5,.2,.7,.3l.7,.4,2.7,1.5c.9,.5,1.7,1.2,2.6,1.8,.4,.3,.9,.6,1.3,.9l1.2,1c1.6,1.4,3.1,2.8,4.6,4.4l2,2.5,.5,.6,.4,.7,.9,1.4,.9,1.4,.8,1.5,.8,1.5,.4,.7,.3,.8c.4,1,.8,2.1,1.3,3.1l.9,3.2c1.1,4.4,1.6,9,1.3,13.6-.4,4.6-1.4,9-3.1,13.3l-1.4,3.1-1.6,2.9c-.1,.2-.3,.5-.4,.7l-.5,.7-.9,1.4-1,1.3-1.1,1.2-1.1,1.2-.5,.6-.6,.6-2.3,2.2c-1.6,1.4-3.3,2.6-5.1,3.8l-1.3,.9c-.4,.3-.9,.5-1.4,.7-.9,.5-1.8,1-2.8,1.4l-2.8,1.1-.7,.3c-.2,.1-.5,.1-.7,.2l-1.4,.4c-1.9,.6-3.8,1-5.8,1.3-1,.1-1.9,.2-2.9,.3l-1.4,.1h-4.2c-.9,0-1.9-.2-2.8-.3-1.8-.2-3.6-.5-5.3-1-.9-.2-1.7-.5-2.5-.8s-1.7-.5-2.5-.8l-2.3-1-1.1-.5-1.1-.6-2.1-1.2c-.7-.4-1.3-.9-2-1.3-.6-.5-1.3-.9-1.9-1.4l-1.7-1.5c-4.1-3.6-7.5-7.9-10-12.8-1.9-3.7-3.2-7.6-3.9-11.6-.2-.8-.3-1.6-.4-2.4-.1-.7-.1-1.4-.2-2.1,0-.6-.1-1.2-.1-1.8v-1.5c0-.9,0-1.6,.1-2-.6-.2-.6-.5-.6-.5"/><path id="Caminho_1617" class="cls-7" d="M66.1,47.3c-.5,.1-1,.1-1.5,.1l-4.1,.1c-3.5,0-8.4,.1-13.9,.1h-.3v-3.1c0-6.2,0-11.7,.1-15.7,0-1.9,.1-3.6,.1-4.8,0-.6,0-1.2,.1-1.8,.1,.6,.1,1.2,.1,1.8,0,1.2,.1,2.8,.1,4.8,.1,4,.1,9.6,.1,15.7v2.8l-.3-.3c5.5,0,10.4,0,13.9,.1l4.1,.1c.5,0,1,.1,1.5,.1"/><path id="Caminho_1618" class="cls-7" d="M46.7,10.5c.3,1.2,.4,2.4,.3,3.6,.1,1.2,0,2.4-.3,3.6-.3-1.2-.4-2.4-.3-3.6-.1-1.2,0-2.4,.3-3.6"/><path id="Caminho_1619" class="cls-7" d="M66,16.3c-.6,1-1.4,1.9-2.3,2.7-.8,.9-1.7,1.7-2.7,2.3,.6-1,1.4-1.9,2.3-2.7,.8-.9,1.7-1.7,2.7-2.3"/><path id="Caminho_1620" class="cls-7" d="M77.3,28.6c-.9,.8-1.9,1.4-2.9,2-1,.7-2,1.3-3.1,1.7,.8-.9,1.7-1.6,2.8-2.2,1-.7,2.1-1.2,3.2-1.5"/><path id="Caminho_1621" class="cls-7" d="M84,47c-1.6,.3-3.2,.4-4.9,.3-1.6,.1-3.3,0-4.9-.3,1.6-.3,3.2-.4,4.9-.3,1.6-.1,3.3,0,4.9,.3"/><path id="Caminho_1622" class="cls-7" d="M16.5,46.3c-1.5,.3-3.1,.4-4.6,.3-1.5,.1-3.1,0-4.6-.3,1.5-.3,3.1-.4,4.6-.3,1.6,0,3.1,0,4.6,.3"/><path id="Caminho_1623" class="cls-7" d="M21.3,60c-1,1.2-2.2,2.2-3.5,3.2-1.2,1.1-2.4,2-3.8,2.7,1-1.2,2.2-2.2,3.5-3.2,1.1-1.1,2.4-2,3.8-2.7"/><path id="Caminho_1624" class="cls-7" d="M33,70.5c-.7,1.4-1.5,2.8-2.4,4.1-.7,1.4-1.6,2.7-2.5,4,.5-1.5,1.1-3,2-4.3,.9-1.4,1.8-2.6,2.9-3.8"/><path id="Caminho_1625" class="cls-7" d="M46.7,84.2c-.3-1.6-.4-3.2-.3-4.9-.1-1.6,0-3.3,.3-4.9,.3,1.6,.4,3.2,.3,4.9,0,1.6-.1,3.2-.3,4.9"/><path id="Caminho_1626" class="cls-7" d="M67.6,77.7c-1.5-.7-2.8-1.6-4-2.7-1.3-1-2.4-2.2-3.3-3.6,1.3,1,2.5,2.1,3.6,3.2,1.4,.9,2.6,2,3.7,3.1"/><path id="Caminho_1627" class="cls-7" d="M77.5,67.1c-1.2-.8-2.3-1.8-3.2-2.8-1.1-.9-2-2-2.8-3.2,1.2,.8,2.3,1.8,3.2,2.8,1,.9,2,2,2.8,3.2"/><path id="Caminho_1628" class="cls-7" d="M20.8,33.2c-1.1-.7-2-1.5-2.8-2.5-1-.8-1.8-1.8-2.5-2.8,1.1,.7,2,1.5,2.8,2.5,1,.8,1.9,1.8,2.5,2.8"/><path id="Caminho_1629" class="cls-7" d="M33,20.4c-1-.7-2-1.5-2.8-2.4-.9-.8-1.7-1.7-2.4-2.8,1,.7,2,1.5,2.8,2.4,.9,.9,1.7,1.8,2.4,2.8"/><path id="Caminho_1630" class="cls-4" d="M9,46.6C9,24.3,26.4,5.8,48.7,4.5c-.8,0-1.7-.1-2.5-.1C22.9,4.4,4,23.3,4,46.6s18.9,42.2,42.2,42.2c.8,0,1.7,0,2.5-.1-22.3-1.3-39.7-19.8-39.7-42.1"/><path id="Caminho_1631" class="cls-8" d="M233.5,76.8c4.5,2.1,8.2,5.6,10.6,10-4.7,.6-11.1,.2-15.3-2-4.1-2.1-7.5-5.4-9.7-9.5,4.9-1.1,9.9-.6,14.4,1.5"/><path id="Caminho_1632" class="cls-9" d="M237.6,83.4c-.2-.2-.4-.3-.6-.5-.4-.3-1-.7-1.8-1.2-4.1-2.5-8.5-4.4-13.1-5.8-.9-.3-1.6-.4-2.1-.6-.3-.1-.5-.1-.8-.2,.2,.1,.5,.2,.8,.3,.5,.1,1.2,.4,2.1,.6,4.5,1.5,8.9,3.4,13.1,5.7,.8,.5,1.4,.8,1.9,1.1,0,.3,.3,.5,.5,.6"/><path id="Caminho_1633" class="cls-8" d="M251,63.9c4.5,2.1,8.2,5.6,10.6,10-4.7,.6-11.1,.2-15.3-2s-7.6-5.6-9.8-9.8c4.9-.9,10-.3,14.5,1.8"/><path id="Caminho_1634" class="cls-9" d="M255.1,70.5c-.2-.2-.4-.3-.6-.5-.4-.3-1-.7-1.8-1.2-4.1-2.5-8.5-4.4-13.1-5.8-.9-.3-1.6-.4-2.1-.6-.3-.1-.5-.1-.8-.2,.2,.1,.5,.2,.8,.3,.5,.1,1.2,.4,2.1,.6,4.5,1.5,8.9,3.4,13.1,5.7,.8,.5,1.4,.8,1.9,1.1,0,.4,.3,.5,.5,.6"/><path id="Caminho_1635" class="cls-8" d="M249,45c.3-5-.9-10-3.6-14.2-2.8,3.9-5.5,9.8-5.6,14.5s1.2,9.4,3.8,13.4c3.2-3.9,5.1-8.7,5.4-13.7"/><path id="Caminho_1636" class="cls-9" d="M245.2,38.2c.1,.3,.1,.5,.1,.8,.1,.5,.1,1.3,.1,2.2,.2,4.8-.3,9.7-1.3,14.4-.2,.9-.4,1.6-.5,2.1-.1,.3-.1,.5-.2,.8,0-.3,.1-.5,.1-.8,.1-.5,.3-1.2,.4-2.2,.4-1.8,.8-4.3,1-7.2s.3-5.4,.3-7.2v-2.9"/><path id="Caminho_1637" class="cls-8" d="M231,56.4c.3-5-.9-10-3.6-14.2-2.8,3.9-5.5,9.8-5.6,14.5s1.2,9.4,3.8,13.4c3.1-3.9,5-8.7,5.4-13.7"/><path id="Caminho_1638" class="cls-9" d="M227.2,49.5c.1,.3,.1,.5,.1,.8,.1,.5,.1,1.3,.1,2.2,.2,4.8-.3,9.7-1.3,14.4-.2,.9-.4,1.6-.5,2.1-.1,.3-.1,.5-.2,.8,0-.3,.1-.5,.1-.8,.1-.5,.3-1.2,.4-2.2,.4-1.8,.8-4.3,1-7.2s.3-5.4,.3-7.2v-2.9"/><path id="Caminho_1639" class="cls-9" d="M209.7,86.8c.1-.2,.2-.4,.3-.5l1-1.4,.7-1,.9-1.2c.7-.8,1.4-1.8,2.3-2.8l1.4-1.6c.5-.6,1-1.1,1.6-1.7,1.1-1.2,2.3-2.3,3.6-3.6,5.7-5.3,12.2-9.8,19.2-13.2,1.6-.8,3.2-1.5,4.6-2.1l2.1-.9,2-.7c1.3-.5,2.4-.8,3.5-1.2,.5-.2,1-.3,1.4-.4l1.2-.3,1.7-.4c.2-.1,.4-.1,.6-.1-.2,.1-.4,.1-.6,.2l-1.7,.5-1.2,.3c-.4,.1-.9,.3-1.4,.5-1,.3-2.2,.7-3.4,1.2l-2,.8-2.1,.9c-1.5,.6-3,1.4-4.6,2.1-7,3.5-13.4,7.9-19.1,13.2-1.3,1.2-2.6,2.4-3.7,3.6-.6,.6-1.1,1.1-1.6,1.7l-1.4,1.6c-.9,1-1.7,2-2.4,2.8-.3,.4-.7,.8-.9,1.2l-.8,1-1.1,1.4c.1-.2,0,0-.1,.1"/><path id="Caminho_1640" class="cls-8" d="M263.7,47.4c4.8-1.2,9.9-.9,14.6,1-3.3,3.4-8.6,7.2-13.2,8.2-4.6,1-9.4,.5-13.8-1.3,3.1-3.9,7.5-6.7,12.4-7.9"/><path id="Caminho_1641" class="cls-9" d="M271,49.9h-.8c-.5,0-1.3,.1-2.2,.3-4.8,.7-9.4,2-13.9,3.9-.9,.4-1.5,.7-2,.9-.2,.1-.5,.2-.7,.4,.3-.1,.5-.2,.8-.3,.5-.2,1.2-.5,2-.8,1.7-.7,4.1-1.5,6.8-2.3s5.2-1.3,7-1.6c.9-.2,1.6-.3,2.2-.4,.3,0,.6-.1,.8-.1"/><path id="Caminho_1642" class="cls-8" d="M193.5,37.9c3.5-4.4,8.2-7.7,13.6-9.3-.5,5.2-2.7,12.2-6.1,16.3-3.4,4.1-8,7-13.1,8.5,.2-5.7,2.2-11.1,5.6-15.5"/><path id="Caminho_1643" class="cls-9" d="M201.7,34.9c-.2,.2-.5,.4-.7,.6l-1.7,1.7c-3.7,3.9-7,8.3-9.6,13-.5,.9-.9,1.6-1.2,2.2-.1,.3-.3,.5-.4,.8,.2-.2,.3-.5,.5-.8,.3-.5,.7-1.2,1.2-2.1,1.1-1.8,2.6-4.2,4.5-6.7s3.7-4.7,5.1-6.3c.7-.8,1.3-1.4,1.7-1.8,.3-.1,.5-.3,.6-.6"/><path id="Caminho_1644" class="cls-8" d="M199.1,59.5c3.9-2.9,8.7-4.6,13.5-4.7-1.7,4.3-5.1,9.7-8.9,12.3-3.8,2.6-8.3,4.1-13,4.1,1.6-4.6,4.5-8.7,8.4-11.7"/><path id="Caminho_1645" class="cls-9" d="M206.7,58.9c-.2,.1-.5,.2-.7,.3-.4,.2-1.1,.6-1.9,1.1-4,2.5-7.8,5.4-11.1,8.8-.6,.6-1.1,1.2-1.5,1.6-.2,.2-.4,.4-.5,.6,.2-.2,.4-.3,.6-.5l1.5-1.5c1.3-1.3,3.1-2.9,5.3-4.7s4.2-3.1,5.8-4.1c.8-.5,1.4-.9,1.8-1.1,.3-.2,.5-.3,.7-.5"/><path id="Caminho_1646" class="cls-8" d="M182.7,53.9c-3.7-3.1-8.4-4.9-13.2-5.2,1.4,4.4,4.4,9.9,8.1,12.7,3.7,2.8,8.1,4.4,12.7,4.6-1.2-4.8-3.9-9-7.6-12.1"/><path id="Caminho_1647" class="cls-9" d="M175.1,53c.2,.1,.5,.2,.7,.4,.4,.3,1,.6,1.8,1.1,3.9,2.6,7.4,5.7,10.5,9.2,.6,.7,1.1,1.2,1.4,1.6,.2,.2,.3,.4,.5,.6-.2-.2-.4-.4-.5-.6-.3-.4-.8-.9-1.4-1.6-3.2-3.4-6.7-6.5-10.5-9.2-.7-.5-1.3-.9-1.7-1.2-.4,0-.6-.1-.8-.3"/><path id="Caminho_1648" class="cls-8" d="M176.1,34.6c-4.3-2-9.2-2.5-13.8-1.5,2.4,3.8,6.7,8.2,10.8,9.9,4.2,1.7,8.8,2.1,13.2,1.1-2.4-4.2-5.9-7.5-10.2-9.5"/><path id="Caminho_1649" class="cls-9" d="M168.7,35.7c.3,0,.5,.1,.7,.2,.5,.1,1.2,.3,2,.6,4.3,1.5,8.5,3.5,12.3,6,.7,.5,1.3,.9,1.7,1.2,.2,.1,.4,.3,.6,.5-.2-.1-.4-.2-.7-.4-.4-.3-1-.6-1.7-1.1-3.9-2.4-8-4.4-12.2-6-.8-.3-1.5-.5-2-.7-.3-.1-.5-.2-.7-.3"/><path id="Caminho_1650" class="cls-9" d="M188.7,112.4v-.2l.1-.6c.1-.6,.2-1.4,.4-2.5,.1-.5,.2-1.1,.3-1.8l.3-2.1c.2-1.5,.5-3.3,.6-5.2l.3-3c.1-1.1,.1-2.2,.2-3.3,.2-2.3,.2-4.7,.3-7.3,.1-5.6-.2-11.1-.7-16.7-.6-5.5-1.4-11-2.6-16.4-.6-2.5-1.1-4.9-1.8-7-.3-1.1-.6-2.2-.9-3.2s-.6-2-.9-2.9c-.6-1.8-1.2-3.5-1.7-4.9-.3-.7-.5-1.4-.8-2s-.5-1.2-.7-1.7l-1-2.3-.2-.6c0-.1-.1-.1-.1-.2,0,.1,.1,.1,.1,.2l.3,.6,1,2.3c.2,.5,.5,1,.7,1.6s.5,1.3,.8,2c.5,1.4,1.2,3.1,1.8,4.9,.3,.9,.6,1.9,1,2.9,.3,1,.6,2.1,.9,3.2,.7,2.2,1.2,4.6,1.8,7,1.2,5.4,2,10.9,2.6,16.5,.5,5.5,.7,11.1,.6,16.7-.1,2.6-.1,5-.3,7.3-.1,1.1-.1,2.2-.2,3.3s-.2,2.1-.3,3c-.2,1.9-.5,3.7-.7,5.2-.1,.8-.2,1.5-.3,2.1-.1,.7-.2,1.2-.3,1.8l-.5,2.5c-.1,.3-.1,.5-.1,.6,.1,0,.1,.1,0,.2"/><path id="Caminho_1651" class="cls-8" d="M139.5,70.8c-4.9,1-9.3,3.5-12.6,7.2,4.4,1.7,10.8,2.8,15.3,1.7,4.5-1.1,8.6-3.5,11.7-7-4.5-2.1-9.5-2.8-14.4-1.9"/><path id="Caminho_1652" class="cls-9" d="M134,76.3c.2-.1,.5-.2,.7-.3,.5-.2,1.2-.4,2.1-.7,4.6-1.4,9.3-2.3,14.1-2.5,.9,0,1.7-.1,2.2-.1h.8c-.3,0-.5,.1-.8,.1-.5,0-1.3,.1-2.2,.1-4.8,.3-9.5,1.2-14.1,2.5-.9,.3-1.6,.5-2.1,.6-.2,.2-.5,.3-.7,.3"/><path id="Caminho_1653" class="cls-8" d="M125.6,54.2c-4.9,1-9.3,3.5-12.6,7.2,4.4,1.7,10.8,2.8,15.3,1.7,4.6-1.1,8.7-3.6,11.8-7.2-4.6-2.1-9.7-2.7-14.5-1.7"/><path id="Caminho_1654" class="cls-9" d="M120,59.6c.2-.1,.5-.2,.7-.3,.5-.2,1.2-.4,2.1-.7,4.6-1.4,9.3-2.3,14.1-2.5,.9,0,1.7-.1,2.2-.1h.8c-.3,0-.5,.1-.8,.1-.5,0-1.3,.1-2.2,.1-4.8,.3-9.5,1.2-14.1,2.5-.9,.3-1.6,.5-2.1,.6-.2,.2-.4,.3-.7,.3"/><path id="Caminho_1655" class="cls-8" d="M132,36.3c.9-4.9,3.3-9.5,6.9-12.9,1.8,4.4,3,10.8,2,15.4s-3.4,8.8-6.8,12.1c-2.3-4.5-3-9.6-2.1-14.6"/><path id="Caminho_1656" class="cls-9" d="M137.2,30.6c-.1,.2-.2,.5-.3,.8-.2,.5-.4,1.2-.6,2.1-1.3,4.7-2,9.5-2.2,14.3v2.2c0,.3,0,.5,.1,.8,0-.3,.1-.5,.1-.8,0-.5,0-1.3,.1-2.2,.1-1.8,.3-4.4,.7-7.2s1-5.3,1.4-7.1c.2-.9,.4-1.6,.6-2.1,0-.3,.1-.6,.1-.8"/><path id="Caminho_1657" class="cls-8" d="M146.8,51.6c.9-4.9,3.3-9.5,6.9-12.9,1.8,4.4,3,10.8,2,15.4-1,4.6-3.4,8.8-6.8,12.1-2.2-4.5-2.9-9.6-2.1-14.6"/><path id="Caminho_1658" class="cls-9" d="M152.1,45.9c-.1,.2-.2,.5-.3,.8-.2,.5-.4,1.2-.6,2.1-1.3,4.7-2,9.5-2.2,14.3v2.2c0,.3,0,.5,.1,.8,0-.3,.1-.5,.1-.8,0-.5,0-1.3,.1-2.2,.1-1.8,.3-4.4,.7-7.2s1-5.3,1.4-7.1c.2-.9,.4-1.6,.6-2.1,0-.3,0-.6,.1-.8"/><path id="Caminho_1659" class="cls-9" d="M160.3,86.2c-.1-.2-.1-.4-.2-.6-.2-.4-.4-.9-.6-1.6l-.5-1.2c-.2-.4-.4-.9-.6-1.4-.5-1-.9-2.1-1.6-3.3l-1-1.9c-.3-.7-.8-1.3-1.1-2-.8-1.4-1.7-2.8-2.7-4.3-4.3-6.5-9.6-12.4-15.5-17.4-1.4-1.1-2.7-2.2-4-3.2-.6-.5-1.3-.9-1.9-1.4l-1.8-1.2c-1.1-.8-2.2-1.4-3.1-1.9-.5-.3-.9-.5-1.3-.8l-1.1-.6-1.5-.8c-.2-.1-.4-.2-.5-.3,.2,.1,.3,.2,.5,.3l1.5,.9,1.1,.6c.4,.2,.8,.5,1.3,.8,.9,.6,2,1.2,3.1,2l1.8,1.2c.6,.4,1.2,.9,1.8,1.4,1.3,.9,2.6,2,4,3.2,5.9,5,11.1,10.9,15.5,17.3,1,1.5,1.9,2.9,2.7,4.3,.4,.7,.8,1.3,1.2,2l1,1.9c.7,1.2,1.2,2.3,1.6,3.3,.2,.5,.5,.9,.6,1.4l.5,1.2,.7,1.6c-.1,.2,0,.4,.1,.5"/><path id="Caminho_1660" class="cls-8" d="M117.2,35.2c-4.4-2.3-9.4-3.2-14.4-2.5,2.4,4.1,6.7,9,10.9,11.1,4.3,2,9,2.7,13.7,2-2.2-4.6-5.8-8.3-10.2-10.6"/><path id="Caminho_1661" class="cls-9" d="M109.4,35.8c.3,.1,.5,.1,.8,.2,.5,.2,1.2,.4,2,.8,4.5,1.8,8.7,4.2,12.6,7.1,.7,.6,1.3,1,1.7,1.3,.2,.2,.4,.3,.6,.5-.2-.1-.5-.3-.7-.5-.4-.3-1-.7-1.8-1.3-1.5-1.1-3.6-2.5-6.1-3.9-2.1-1.2-4.2-2.2-6.4-3.2-.8-.4-1.5-.7-2-.9-.2,.2-.4,.1-.7-.1"/><rect id="Retângulo_1066" class="cls-6" x="56" y="62.5" width="282.1" height="191.7"/><rect id="Retângulo_1067" class="cls-8" x="65.9" y="71.2" width="262.2" height="175.6"/><path id="Caminho_1662" class="cls-9" d="M338.2,62.5l-.6,.6c-.4,.4-1.1,1-1.9,1.8l-7.5,6.8h0l-131,.1-131.2-.1h0l-7.3-6.8-1.9-1.8-.6-.6s.2,.2,.7,.6l1.9,1.7,7.3,6.7h-.1l131.2-.1,131,.1h-.1l7.5-6.7,1.9-1.7c.4-.4,.7-.6,.7-.6"/><path id="Caminho_1663" class="cls-9" d="M338.2,254.2s-.2-.2-.7-.5l-1.9-1.4c-1.7-1.3-4.2-3.1-7.5-5.5h.1l-131,.1-131.2-.1h.1l-7.3,5.5-1.9,1.4c-.4,.3-.7,.5-.7,.5,0,0,.2-.2,.6-.5l1.9-1.4,7.3-5.6h0l131.2-.1,131,.1h0l7.5,5.6,1.9,1.4c.3,.4,.6,.5,.6,.5"/><path id="Caminho_1664" class="cls-9" d="M328.1,71.5c.1,0,.2,39.2,.2,87.6s-.1,87.6-.2,87.6-.2-39.2-.2-87.6,.1-87.6,.2-87.6"/><rect id="Retângulo_1068" class="cls-6" x="45.8" y="254.2" width="306.8" height="6.3"/><path id="Caminho_1665" class="cls-9" d="M353.4,254.6c0,.1-68.8,.2-153.6,.2s-153.6-.1-153.6-.2,68.8-.2,153.6-.2c84.8-.1,153.6,0,153.6,.2"/><path id="Caminho_1666" class="cls-9" d="M65.9,71.2c.1,0,.2,39.7,.2,88.7s-.1,88.7-.2,88.7-.2-39.7-.2-88.7c0-49,.1-88.7,.2-88.7"/></g></g></g><g class="cls-16"><path class="cls-5" d="M91.38,150.55l.13,.1-.29,.49-.21,.08v.18l-.39,.57h-.16l-.1,.23-.31,.31-.29,.42-.21-.05-.18,.18,.08,.05-.31,.29-.23,.29-.1-.1-.78,.36v-.1h-.21v-.34l-.36,.1v-.49l-.21-.05,.13,.39-.13,.13,.1,.16-.08,.08v.21l.1,.16v1.35l-.16,.29,.16,.83v.65l-.1,.18-.05,.26,.23,.23v.49l-.08,.18-.03-.1-.1,.44,.1,.1,.03-.08,.08-.03v.29h-.13l.05,.44,.16-.08-.18,.26,.03,.29,.16,.13-.08,.05-.08-.08-.21,.13,.1,.21,.16-.16,.13,.1v.47l-.18,.23,.16,.16v.42l-.26,.05v-.29l-.05,.23h-.13v-.13l-.1,.08,.08,.31-.21,.13h-.1v.29l-.08,.08-.05-.08-.16,.08v-.44l-.05-.26-.13,.57h-.16v.13h-.13l-.08-.18h-.16v-.81l-.1-1.66v-.86l-.13-.91v-.88l-.05-.42v-2.57l-.08-.49v-1.79l.1-.08-.1-.1,.08-.21-.08-.23v-.68l.1-.16-.1-.08-.05-2.34,.1-.34-.13-.52,.08-1.48,.08,.08,.1-.31v-.44l.08,.05,.05,.21,.13-.16-.08-.08,.23-.16,.31-.34,.1-.34,.44-.05v-.1h1.51l.73,.16,1.14,.62h.21l.88,.62,.16,.31h.18l.34,.47,.23,.44,.05,.31v.68l.08,.13-.08,.62-.16,.52v.44l-.39,.36-.05,.31,.1,.1-.42,.26Zm-5.38,5.23l.05,.26v-.47l-.05,.21Zm.05-.65l.08-.08-.08-.1v.18Zm.42,6.68v-.26l-.08,.08,.08,.18Zm.52,.68l-.05-.13h.1l.13-.23,.05,.18-.13,.13,.08,.1-.08,.26h-.1l-.13,.36-.08-.42,.21-.26Zm.1-.94l.18-.03-.05-.08,.05-.18h-.1v.1l-.08,.18Zm.16-.39l.1-.1-.08-.05v-.1l-.1,.1,.08,.16Zm.1-8.53l.21-.1h.13l.34-.23v-.21l.23-.29,.05-.21,.47-.47,.36-.62,.18-.18,.81-1.43,.18-.13,.13-.49h.16l.05-.83-.03-.83-.29-.55-.21-.13-.29-.29h-.34l-.47-.1-.13,.05h-.88l-.68,.31-.08,1.61,.08,.75-.08,.81,.08,.08-.1,.65,.1,.08v1.64l-.08,.08,.1,.21-.1,.23,.08,.18v.42Zm0,9.8v.18l-.08,.05v-.18l.08-.05Zm.29-1.3v.23l-.08-.05,.08-.18Zm.55-8.11l.26-.13h-.13l-.13,.13Z"/><path class="cls-5" d="M92.37,162.46l-.23-.08-.08,.13-.23,.05-.18-.18h-.23l-.18-.13,2.13-13.7,.08-.13,.08-.34,.16,.16v-.42l.26-1.14,.16-.16-.1-.1,.1-.55,.08-.08v.18l.05-.08,.13-.03,.05-.13v.86h-.13v.31l.08-.08,.13-.44h.23v-.23l-.21-.29,.16-.7-.08-.29-.18-.21v-.16l.18,.05,.08-.13,.34,.13,.1-.08,.23,.08,.29,.18h.1l.08,.08,.34,.1,.08,.18v.18l.26,.49,.18,.73v.31l.18,.36v.31l.18,.68v.36l.13,.42v.81l.18,.23v.39l-.08,.18v.31l.08-.13v.42l.13,.13v.6l.1,.7-.05,.78,.13,.05v.62l.05,.36-.08,.16,.08,.08v.21l.13,.34v.44l-.08,.23h.13l-.05,.26,.05,.1-.1,.21,.18-.05-.08,.1,.1,.08-.1,.1,.08,.05,.05,.62,.05,.1v.18l.13,.39v.49l.13-.08,.05,.42v1.04l.08,.08,.03,.68,.13,.96-.05,.08-.16-.08,.08,.31,.08,.08v.18h-.18l-.13-.18-.05,.23v-.36l-.18-.13-.1,.1-.16-.16v-.18l-.1-.18-.08,.49h-.26l-.21-.39-.44-1.56-.05-.62-.08-.13v-.44l-.16-.31-.18-1.25-.08,.05-.1,.29-.08-.23-.23,.23v.16l-.26,.23h-.1l-.26,.18h-.26l-.05,.1-.86,.39h-.18l-.13,.16,.08,.08-.13,.08v.23l-.08-.08-.03,.18h-.16v.21l-.1,.23v.36l-.13,.08-.18,.55-.13,.83v1.07h.23l.08,.13-.36,.1-.05-.08-.1,.08-.16-.18v-.1Zm1.35-11.88l.1-.1-.1-.08v.18Zm.26,5.93l.05-.08v-.29l.13,.1v.16l.65-.08h.49l.39-.08v.16l.1-.08,.08,.08,.13-.16-.21-1.59-.08-1.35,.08-.16v-.13l-.08,.13v-.62h-.1v-.62l-.08-.23,.08-.18v-.6l-.18-1.04,.08-.96-.13-.16v-.26h-.13v.81l-.05,.08v.55l-.16,.29-.08,.39-.26,.34-.05,.62-.16,.13v.73l-.13,.52-.16-.08-.05,.23v.44h.1v.13h-.18v.1h.13l-.05,.08,.05,.1-.05,.18h-.13l.05,.26,.08-.13,.1,.31-.05-.08v.49l-.16,.57-.21,.23v.18l.05-.16v.62l.08,.08Zm.05-1.17v-.49l-.05,.36,.05,.13Zm.13-7.41h.1v-.18l-.1,.08v-.18l-.08-.08-.05,.16v.29l.13-.08Zm0,7.96l-.13,.13v-.18l.13,.05Zm.1-5.38l.08-.05-.08-.13v.18Zm.44-3.54v-.13l-.21,.18-.03,.18,.23-.23Zm-.05,1.51l-.08-.05-.08,.05h.16Zm.16-.73l-.05-.49-.08,.49h.13Zm.16-.42l-.1-.08,.1-.16-.16-.52v.75h.16Zm3.64,12.84v.23l-.05,.13v-.16l.05-.21Zm.08,1.66l-.08,.05v-.13l.08,.08Zm.1,.42l-.1,.13v-.31l.1,.18Z"/><path class="cls-5" d="M101.11,141.5l.21,.13-.31,.16-.08-.1-.08,.21-.36,.29,.1,.05-.21,.18h-.18l-.29,.18-.23,.29-.47,.29-.05,.16-.16,.05-.13,.16-.1-.05-.08,.05-.21-.05-.03-.08-.16-.05-.08-.1-.18-.1-.26-.31h-.18v-.18l.49-.47,2.37-1.53,.42-.23h.26l.18-.05,.08,.23,.13-.08,.13,.26,.1,.05,.1-.05-.26,.23v.23l.21-.05-.13,.1v.13l-.23-.03-.08,.08-.03,.16-.13-.34-.1,.21Zm-1.33,4l.05-.31v-.62l-.1-.1,.05-.23,.16-.16,.88,.39,.18,.1h.1l.36,.18,.05,.16h.13l.05,.6v2.34l.08,.08-.1,1.07,.1,.39v.88l.08,.18-.08,.26v.23l.05-.23,.05,.7-.05,.31,.05,.13-.13,.34,.08,.44v.6l.05,.08-.05,.1,.08,2.94-.08,.03v.36l.18,.1-.1,.1,.08,.1h-.16l-.05,.34,.05,.1-.1,.1v.49l-.05-.18-.13,.23,.18,.23v.13l.1,.05h.13l-.13,.23h-.16l-.05,.57-.08,.05v.23l-.08-.08-.23,.1v.47l.08,.05,.05-.13,.08,.18,.05,.26,.05-.13v.42l-.18,.26-.05-.08-.08,.08-.05,.47-.13,.36-.13-.68-.08,.44-.08-.08-.05-.1v-.18l-.18,.18v.1l-.18,.31-.13,.08-.05-.08-.08,.13-.1-.13-.21-16.38Zm1.07,16.33l.1-.08,.08,.21,.1,.05-.1,.16-.08-.1-.08,.1-.1-.1,.08-.23Zm.47-.96v-.49l-.1,.39,.1,.1Zm.49-1.04l-.08,.08v-.16l.08,.08Zm.23-.86l-.05,.13-.16-.05,.21-.08Z"/><path class="cls-5" d="M106.98,162.53l-.21-.18h-.29l-1.12-.94-.13-.26-.68-.65h-.1l-.08-.26-.6-.68-.26-.44v-.18l-.18-.13v-.73l-.13-.13v-.1l.08-.03,.05-.73,.05-.13,.08,.16,.23-.21,.21,.1,.03,.16,.16-.03v.16l.08-.08,.08,.08v.52l.18-.47v-.13l.26-.05v.39l.13,.13v.49l.1,.1v.1l-.1-.03v.36l.08-.21,.1,.29,.1,.1-.05,.16,.18,.16,.05,.13v.21l.13,.1,.1,.16v.13l.16,.13,.03,.16,.29,.34v.18l.57,.36,.16,.31h.18l.23-.44,.18-.75,.08-.57v-1.3l-.21-1.46-.1-.1-.1-.49-.18-.36v-.18l-.1-.13,.08-.05-.13-.1-.13-.44-.1-.13v-.49l-.08-.05v-.13l-.16-.34-.18-.65-.29-.42v-.13l-.34-.73-.08-.03-.18-.34-.18-.23-.6-1.43-.31-.44-.31-.62v-.16l-.18-.49v-.78l.26-1.07,.36-.55,.55-.47,.88-.47h.7l1.33,.49,.1,.23h.18l.18,.16h.16l.18,.18,.13,.05,.31,.26,.08,.29,.1,.13h.13v.26l-.05,.1v.26l-.21,.08-.31-.05-.05-.34-.08,.21-.08-.1h-.16l-.1-.21-.08,.1-.1-.1-.05-.18-.13,.05h-.18l-.13-.26-.13-.49-.1-.1-.62,.26-.49,.34v-.1l-.39,.6-.1,.39-.18,.42v1.04l.05,.1v.21l.13,.21v.13l.08,.1,.03,.23,.1,.05,.88,1.72h.16l1.09,2.44,.78,2.18-.05,.08,.05,.21,.13,.13,.31,1.09,.13,.81,.05,.13v.34l.05,.16-.05,.18v.16l.05,.1-.05,.13v.34l-.13,.08v.34l.08,.05-.13,.18-.1,.23-.08-.08,.05,.47,.1,.08-.21,.18v.16l-.36,.49-.18,.08h-.16l-.05,.21-.1-.13-.39,.13h-.29l-.08-.05-.08,.08-.1-.16-.16,.1Z"/><path class="cls-5" d="M112.57,155.49h.16l-.03,1.74-.16-.1,.08,.23,.08,.05v.23l-.1,.23,.13,.36-.16,.16-.08-.05-.03,.81,.1-.05,.05-.16-.05,.39-.23,.75-.08-.05-.1,.68v.13l.1,.08v.34h.13l.1-.08,1.72-.47h.26l.36-.16,.08,.05,.36-.18,.08,.05,.1-.08,.08,.16,.1-.08v-.1l.47-.05v.16h.57l.31-.1,.05,.1,.18-.18,.16,.16h.13l-.08,.13,.08,.1h.13l.21,.26-.23,.23-.05,.23-.52,.08h-.7l-.13,.05-.39,.05-.23,.13v.18l-.23-.08-.34,.13-.34,.23-.44,.05-.34,.18-.16,.16h-.18l-.23,.18-.62,.23h-.36l-.21,.05-.29-.18-.31-.05-.81-.23v-.57l.08-.1-.08-.08,.03-1.14,.18-2.42v-11.31l-.05-.16v-.83h-.13l-.1-.18-.21-.18-.08-.29,.1-.34h.36l.1,.1,.05-.16,3.85-.34v.1h.29l.13-.1h.52l.21,.1h.21l.1-.1,.13,.05,.57,.1,.16,.1,.18,.23,.05-.1,.08,.18,.31,.31-.31,.08-.08,.08,.16,.08-.21,.16-.44,.05-.08,.18-.13,.05-.16-.13h-.31l-.16,.08-.34-.16-.42,.08-.57,.21-.16-.1-1.61,.36-.29,.16,.05,.62,.08,.16v.57l-.08,.13,.08,.05v1.56l-.1,.23,.1,.08-.08,.05,.08,.23-.16,.52h.16v.29l-.08,.1-.03,.65-.08-.05-.05,.1v.52l.47-.1h.96l.08,.05,.05-.1h.23l.16,.05,.26-.1h.16l.08,.05,.05-.08,.23,.08h.23l.23,.1,.1,.29-.23,.34v.13l-.1,.05,.08,.18h-.1l-.13,.23h-.21l-.47,.1-.03,.08h-.21l-.49,.16-.13,.08h-.1l-.13,.1h-.42l-.49,.29v.18l-.08,.05-.13-.13v.31l.1,.16,.13-.34v.18l-.08,.1,.08,.18v.23h-.1l-.16,.18,.03,.47,.08-.31,.1,.13-.05-.29-.05-.08Zm-1.17,5.12l.05,.08-.05-.23v.16Zm6.68,.47l.18-.13v.16l-.29,.26v-.29h.1Z"/><path class="cls-5" d="M121.75,162.53l-.21-.18h-.29l-1.12-.94-.13-.26-.68-.65h-.1l-.08-.26-.6-.68-.26-.44v-.18l-.18-.13v-.73l-.13-.13v-.1l.08-.03,.05-.73,.05-.13,.08,.16,.23-.21,.21,.1,.03,.16,.16-.03v.16l.08-.08,.08,.08v.52l.18-.47v-.13l.26-.05v.39l.13,.13v.49l.1,.1v.1l-.1-.03v.36l.08-.21,.1,.29,.1,.1-.05,.16,.18,.16,.05,.13v.21l.13,.1,.1,.16v.13l.16,.13,.03,.16,.29,.34v.18l.57,.36,.16,.31h.18l.23-.44,.18-.75,.08-.57v-1.3l-.21-1.46-.1-.1-.1-.49-.18-.36v-.18l-.1-.13,.08-.05-.13-.1-.13-.44-.1-.13v-.49l-.08-.05v-.13l-.16-.34-.18-.65-.29-.42v-.13l-.34-.73-.08-.03-.18-.34-.18-.23-.6-1.43-.31-.44-.31-.62v-.16l-.18-.49v-.78l.26-1.07,.36-.55,.55-.47,.88-.47h.7l1.33,.49,.1,.23h.18l.18,.16h.16l.18,.18,.13,.05,.31,.26,.08,.29,.1,.13h.13v.26l-.05,.1v.26l-.21,.08-.31-.05-.05-.34-.08,.21-.08-.1h-.16l-.1-.21-.08,.1-.1-.1-.05-.18-.13,.05h-.18l-.13-.26-.13-.49-.1-.1-.62,.26-.49,.34v-.1l-.39,.6-.1,.39-.18,.42v1.04l.05,.1v.21l.13,.21v.13l.08,.1,.03,.23,.1,.05,.88,1.72h.16l1.09,2.44,.78,2.18-.05,.08,.05,.21,.13,.13,.31,1.09,.13,.81,.05,.13v.34l.05,.16-.05,.18v.16l.05,.1-.05,.13v.34l-.13,.08v.34l.08,.05-.13,.18-.1,.23-.08-.08,.05,.47,.1,.08-.21,.18v.16l-.36,.49-.18,.08h-.16l-.05,.21-.1-.13-.39,.13h-.29l-.08-.05-.08,.08-.1-.16-.16,.1Z"/><path class="cls-5" d="M136.21,162.53l-.42-.29-.29-.05-.26-.13-.1-.13-.68-.44-.08-.26-.18-.29v-.18l.1-.08-.23-.16v-.18l.13-.1-.23-.36,.08-.08-.1-.13-.1,.1v.21l-.16-.13-.16-.62-.29-.83v-1.3h.13l-.05-.23,.05-.08,.05-.31,.08-.08,.1-.36,.16,.18-.08-.34,.05-.08-.05-.29h-.16l-.03,.47-.08-.29v-.88h-.18v-.36l.08,.1,.05-.1,.05,.23,.1-.94-.1-.6-.05,.13v-.18l.05-.13-.1-.05h-.18l-.05-.52-.08-.08,.08-.08,.16-.52,.08-.1v-.18l-.16,.1,.16-.29v-.47l.05-.23v-.55l.13-.1v-.1l.1-.13v-.47l.08-.13,.03-.6-.1,.08,.31-1.17,.86-1.74,.6-.7,.73-.73,.47-.21,.6-.13,.16,.05,.18-.05,.23,.13-.18,.05,.23,.13-.34,.03,.47,.13,.13-.13,.1,.13,.1-.05,.31,.1,.05,.08,1.01,.34,.18,.13,.1,.18v.13l.18,.03,.16-.05-.08,.18,.16,.23,.08-.16,.16,.16v.1l.08,.13v.18l.18-.21-.03,.49-.16,.18v.21l.21,.34h.26l.23,.05-.13,.1,.13,.26,.1,.1-.05,.08,.18,.39-.05,.49,.1-.26v.18l-.05,.13,.13-.05,.03,.29h-.1l-.1-.08,.05,.26,.16,.29h-.1l.08,.18h.1v.31l-.08,.16,.13,.42v.42l-.08-.08-.13,.1,.08,.08-.03,.13h.1l.05,.13-.13-.08v.1l.13,.21-.16,.16-.08-.21-.1,.39-.08-.29-.05,.6,.18,.18h.16v.29l-.1,.29,.08-.1v.52l.1-.23,.1,.23-.05,.1v.36l-.13,.13-.03,.1h-.13v.6l.08,.05,.16-.21,.08,.05-.18,.23,.16,.1-.13,.52-.03,.68-.08-.05v.16l.08,.13v.23l-.08,.08v.21l-.05,.08v.18l-.05,.1v.23h-.13v.1l-.18,.31-.18,.05v.18l.08,.1,.08-.08,.1,.13-.08,.08h-.29v.18l.1-.1,.08,.16-.13,.13-.05,.23,.1,.29-.18,.18v.21l-.39,.21,.05,.16,.05-.16v.16l-.1,.18-.13,.08-.13,.23v.29l.91,.96,.18,.39-.08,.23-.7-.16-.18-.1h-.13l-.03-.08h-.13l-.21-.21-.36-.13-.34,.34,.08,.08h-.23l-.23,.16,.18,.13h-.18l-.36,.1,.05,.08-.18,.03-.1,.13-.08-.05-.34,.18-.1-.13-.13,.13-.47,.05-.18-.05-.65-.13Zm-2.52-8.92v-.31l-.16,.16,.16,.16Zm0,1.61v-.42l-.08,.23-.08,.05,.16,.13Zm-.08-4.26l.18,.05-.1-.23-.08,.18Zm.18,7.44v-.18l-.1,.08,.1,.1Zm2.34,3.15h.26l.81-.42,.91-.91-.73-1.01-.7-1.22-.1-.29v-.42l.23-.13,.1,.13,.78,.1,.05,.08,.34,.13,.26-.08v.13h.1v.1l.08,.08,.29,.57,.18,.18,.16-.16,.68-2.55,.18-1.53v-3.85l.05-.7-.05-.18v-.6l-.13-.83v-.39l-.18-.44,.08-.36v-.29h-.13l-.05-.23,.05-.18-.13,.05v-.29l.18-.18,.13,.13v.1l-.13-.1v.16l.08,.18,.1-.23v.13l.13-.31-.1-.34-.21-.13-.05,.08v.18h-.13l-.05-.31-.13-.23-.1,.08-.29-.13-.31-.31v.18l.1,.1-.47,.03,.18-.05v-.18h-.1l-.18,.29h-.29l-.18,.18v.1l-.23,.1-.29,.31v-.13l.1-.18,.05-.31-.23,.1-.18,.18v.18l-.1,.16-.23,.08v.16h.1l-.05,.23-.13-.1v.23h.18l-.1,.16-.08-.03-.21,.05-.18,.34h.1l-.18,.18v-.29h-.1v.47h.1l-.05,.18,.05,.16-.18,.18,.08,.08-.16,.57-.1-.1-.1,.05,.1,.13-.52,1.95v.13l-.1,.1,.08,.08-.08,.1v.39l-.13,.6-.05,1.14-.1,.21,.03,.96-.05,.7,.05,1.07,.08-.1-.08,.29,.08,.1-.08,.16v.1l.08-.1v.21l-.08,.26,.08,.21v.42h.1v.78l.26,1.12,.1,.13,.05,.39,.6,1.33,.16,.23Zm-.88-12.61v-.18l-.08,.29,.08-.1Zm1.25-2.05l-.18,.18,.08-.18h.1Zm.6-2.7l.23-.08h-.13l-.1,.08Zm2.96,1.87l.23-.18-.18-.05-.05,.23Zm.62,3.3l-.1,.18,.08,.08,.03-.26Zm0,3.56h.16l-.08-.23-.08,.1v.13Zm.18-6.29l-.1,.16v-.16l.21-.13,.08,.31-.18,.08v-.26Zm.08,8.53l.05,.08v-.6l-.05,.52Zm.18,3.48v.13l-.08-.05,.08-.08Zm.78-7.1l-.08,.18h-.1v-.1l.18-.08Z"/><path class="cls-5" d="M147.96,157.2l.18-.18,.05-.29,.08,.05v.52l.1,.08v-.29l.08-.26v-.34l-.08-.08,.13-.1v-.36l-.05-.08,.18-.16v-.18l-.18,.18,.05-.13-.13-.05,.08-.13,.1-.6-.18-.34-.1,.57v1.12l-.23-.1-.08-.1,.13-.47-.05-.08,.1-.47-.1-.13,.05-.13v-.36l.1,.16,.18-.26v-.18l-.1,.13-.08-.23-.1,.05,.1-.18v-.1l.13-.31-.05-.18h-.13v-.65l-.05-.49-.13,.08,.13-.18-.05-.13,.16-.47,.18,.13v.18l.13,.21-.05-.65h-.18v-.18l-.08-.13v-.1h-.1v-.1l.1-.08v-.1l-.13-.08,.08-.7,.18-.18h-.13l-.05-.23v-.44l.18-.21-.13,.03,.18-.16,.13,.42,.13,.1v-.21l-.13-.18,.05-.31,.08,.31,.1-.18v-.18l-.1-.05-.26,.05v-.21l.16-.05-.21-.23v-.52l.18-.26-.18,.13-.05-.16-.13-.21v-.29l.08-.08-.08-.29v-.55h.13l.08-.34,.16,.18v-.31h-.18l-.13,.05,.13-.23,.18-.18,.05-.18,.08,.08,.03,.23,.16,.18,.16-.55h.13l-.05,.13,.05,.23,.13-.39,.47,.44v.13h.1v.6l.08,.18-.1,.08,.1,.1-.08,.05,.13,.73-.05,.52-.08-.05v.1l.13,.23v1.07l-.13,.91,.08,.05-.08,.08,.13,.1-.13,.13v.23l.1,.08-.16,.16v.18l.13-.23v.34l-.08,.08-.05,.7,.05,.08-.1,.18h.1v.36l-.05,.23v1.14l-.05,.18,.05,.23-.05,.55-.1,.16h.1v.83l-.1,.13v1.2l-.26,.49,.18-.18v.34l-.1,.13,.03,.29-.1,.6-.05-.1-.05,.16v.36l-.08,.18-.1,.68-.08-.26-.05,.26v.39l-.26,.31-.18,.62-.1,.1-.1,.23-.13-.08v.31h-.1l-.26,.23-.52,.39-.44,.1-.03-.08h-.55l-.39-.18-.21-.31-.36-.1-.31-.29h-.1l-.26-.23,.1-.1-.26-.16v-.18h-.26v-.1l-.21-.23-.18-.31v-.13l-.18-.18-.08-.16v-.31l.08-.05v-.42l-.13,.23-.1-.08-.08,.16v-.26l-.1,.08v-.44l-.13-.65,.13-.1h.16l-.05-.29,.05-.36-.23,.34-.1,.23-.08-.21,.08-.18-.13-.29,.13-.31-.08-.18v-.26l-.1,.08,.05-.18,.13-.13-.08-.23-.05,.18v-.42l-.05-.08-.13,.08,.08-.68h.1l.05-1.43-.05-.1v-.42h-.13l.08-.36-.08-.31h.13v-.42l.05-.13v-.29l-.05-.1v-.31l-.21-.96,.68-5.49,.34-.65h.21l.08,.05,.13-.16,.08,.21,.13-.05-.05,.1h.18l.05,.16,.23,.03,.05-.1,.13,.18,.23,.1h.23v.36l-.16,.31-.13,1.72-.49,2.34,.08,.18-.08,.18,.08,.34-.08,.36v1.66l-.05,.29,.05,.08-.05,.73v1.9l-.05,.18v.83l.1-.05-.05,.42v.96l.05,.1,.13,.91,.36,1.43,.47,.96,.42,.55h.18l.26-.13-.08,.13h.39l.08-.18,.08,.1,.18-.42h.13l.16-.6,.13-.16v.16l-.08,.13,.1,.08,.08-.08,.08-.47h-.1l.16-.13,.23-.36-.08-.1-.1,.1-.05,.18-.08-.36,.08-.08h.21l.1-.26-.08-.08,.18-1.14-.05-.29h-.13Zm-4.55,1.01l.13-.18-.05-.23-.13,.23,.05,.18Zm.13,.55l.08-.31-.08-.29v.6Zm.91-9.91l.05-.18-.05-.08-.08,.18,.08,.08Zm.05,1.25l.05-.26-.05,.13v.13Zm3.43,8.29l-.16,.36v-.36h.16Zm.1-1.79l-.18-.1,.23-.31-.05,.65-.08,.36v-.47l.08-.13Zm.16-6.58l.08-.1v-.13l-.08,.05v.18Zm.34-3.41l.1-.47-.13-.1v-.26h-.13l-.05,.18-.05-.1v.29l.18,.18,.08,.29Zm-.08,.96l.13-.52-.13,.23-.08,.05,.08,.23Zm-.08,5.62l.13-.18-.05-.6-.08,.31v.47Zm.29-7.83l.08,.08v-.26l-.08,.18Zm.08,2.57l.08,.05-.08-.23v.18Zm.08-.55l.1-.18v-.18l-.1,.08v.29Zm0,7.64l.13-.29h-.13v.29Zm.29-6.79l.05-.31-.16,.21,.1,.1Z"/><path class="cls-5" d="M153.7,155.49h.16l-.03,1.74-.16-.1,.08,.23,.08,.05v.23l-.1,.23,.13,.36-.16,.16-.08-.05-.03,.81,.1-.05,.05-.16-.05,.39-.23,.75-.08-.05-.1,.68v.13l.1,.08v.34h.13l.1-.08,1.72-.47h.26l.36-.16,.08,.05,.36-.18,.08,.05,.1-.08,.08,.16,.1-.08v-.1l.47-.05v.16h.57l.31-.1,.05,.1,.18-.18,.16,.16h.13l-.08,.13,.08,.1h.13l.21,.26-.23,.23-.05,.23-.52,.08h-.7l-.13,.05-.39,.05-.23,.13v.18l-.23-.08-.34,.13-.34,.23-.44,.05-.34,.18-.16,.16h-.18l-.23,.18-.62,.23h-.36l-.21,.05-.29-.18-.31-.05-.81-.23v-.57l.08-.1-.08-.08,.03-1.14,.18-2.42v-11.31l-.05-.16v-.83h-.13l-.1-.18-.21-.18-.08-.29,.1-.34h.36l.1,.1,.05-.16,3.85-.34v.1h.29l.13-.1h.52l.21,.1h.21l.1-.1,.13,.05,.57,.1,.16,.1,.18,.23,.05-.1,.08,.18,.31,.31-.31,.08-.08,.08,.16,.08-.21,.16-.44,.05-.08,.18-.13,.05-.16-.13h-.31l-.16,.08-.34-.16-.42,.08-.57,.21-.16-.1-1.61,.36-.29,.16,.05,.62,.08,.16v.57l-.08,.13,.08,.05v1.56l-.1,.23,.1,.08-.08,.05,.08,.23-.16,.52h.16v.29l-.08,.1-.03,.65-.08-.05-.05,.1v.52l.47-.1h.96l.08,.05,.05-.1h.23l.16,.05,.26-.1h.16l.08,.05,.05-.08,.23,.08h.23l.23,.1,.1,.29-.23,.34v.13l-.1,.05,.08,.18h-.1l-.13,.23h-.21l-.47,.1-.03,.08h-.21l-.49,.16-.13,.08h-.1l-.13,.1h-.42l-.49,.29v.18l-.08,.05-.13-.13v.31l.1,.16,.13-.34v.18l-.08,.1,.08,.18v.23h-.1l-.16,.18,.03,.47,.08-.31,.1,.13-.05-.29-.05-.08Zm-1.17,5.12l.05,.08-.05-.23v.16Zm6.68,.47l.18-.13v.16l-.29,.26v-.29h.1Z"/><path class="cls-5" d="M171.83,162.56l-.05-.08-.21-.13-.13-.13h-.55l-.83-.55v-.34h-.23v-.1l-.26-.31h-.13l-.31-.68v-.13l-.18-.18-.39-.99v-.29l-.23-1.14v-2.24l-.08-.08v-3.9l.94-4.08,.52-1.09,.99-.99,1.04-.18,.65,.1,.65,.21h.16l.39,.39,.26,.13,.81,.6,.65,.78h.18l.1,.21v.13l.05,.16,.08,.03v.29l.16,.26-.1,.08-.13-.16-.1,.31,.1,.1h.13l.13,.13v.1h-.13l-.23,.29,.18,.05,.08,.31,.13-.26,.34,.44v.55l-.23,.1v.18l-.05,.13v.34l.05,.08v.31l-.05,.08,.05,.13,.08-.13v.26l.08,.13v.55l-.08,.36v.42l-.08-.08-.05,.16-.34-.21-.05-.16-.08-.05-.03-.21-.16,.26-.16-.26-.1,.1-.08-.1v-.52l-.39-.05h-.34l-.05-.39,.16-1.66v-1.2l-.05-.34v-.26l-.05-.18v-.16l-.34-1.12h-.16l-.18-.31-.26-.26-.29-.13h-.44l-.29-.13-.34,.34v.1l-.23,.26-.08-.03-.08,.03v.13l-.26,.29v.13h.13v.16l-.21,.39-.05,.26v.1l-.13,.13v.6l-.26,.81v.21l-.08-.08-.08,.13v.34l-.08,.03-.05,.29v.13l-.05,.34v.6l-.05,.52v.23l-.08,.96-.08,.31,.08,.42-.08,.68,.08,.55-.08,.31,.16,.65-.13,.31h-.16v.81l.05,.08,.16-.29,.08,.13v.34l.08,.23-.08,.08-.08-.05-.08,.13,.16,.08,.1-.08-.05,.26,.05,.08,.05,.31-.08,.13,.08,.1-.1,.1v.21l.1-.16v.21l.16,.13,.52,1.64,.44,.68,.49-.31,.81-.78,.81-1.56,.26-.7,.08-.08v-.18l.18-.21v-.39l.05-.34,.1,.13,.13-.47-.08-.05-.05,.21v-.29l.05-.13-.18-.81,.23-.39,.34,.16,.16,.13,.18,.05,.26,.16h.13l.62,.52,.05-.13,.05,.39,.16,.26v1.09l-.21,.1v.42l-.21,.39-.08-.16-.05,.31h.13v.29l-.73,1.59-.05,.08-.08,.1-.39,.26-.08,.34-.13,.21h-.13l-.47,.52-.55,.47-.52,.13-.52-.08-.62-.31Zm-1.59-4.97v-.18l-.08,.13,.08,.05Zm.08,.73v-.13l-.08,.08,.08,.05Zm.86-10.95h.13l-.08-.1-.05,.1Zm.39-.39h-.13l.34-.34-.21,.34Zm3.48,14.33l-.16,.13v-.13h.16Z"/><path class="cls-5" d="M180.95,162.51l-.18-.21h-.34l-.05-.13-1.09-.65-.36-.55-.13-.05-.23-.18-.05-.36-.13-.26-.03-.13-.13-.13v-.21l-.08-.08,.08-.05-.1-.08-.05-.23-.08-.05,.13-.08v-.13l-.05-.08,.08-.08-.16-.16-.05-.68-.1,.31-.03-.18-.08-.13-.05-1.14h.13v-.16l-.26,.16-.03-3.82-.05-.1,.1-.57,.08,.36,.05-.62h-.13l-.03-.44,.05-.26-.03-.31,.52-2.47,1.12-2.29,.91-1.17,.68-.34,.13,.08-.21,.1h.23l.21-.1-.1-.08,.47-.1,.29,.13,.1,.16,.13,.13v.36h.44l.03,.13,.36-.16-.05,.16-.18,.08,.13,.05,.26,.31,.03,.18,.36,.31,.18-.23,.1,.23h.18l.31,.34v.1l.18,.23,.03,.44,.05-.18,.29-.05-.08,.18,.13-.13,.08,.13v.23h.1l.1,.49,.08,.08v.18l-.13-.13,.08,.36,.13-.13v.21l.05,.08v.29l.08,.08,.03,.62,.13,.13-.05,.21,.13-.03,.03,.36,.05,.23,.05,.99-.05,1.04,.13,.31-.18,.52,.13,.26v.36l-.05,.18v.31l-.05,.13,.03,.18-.21,.21,.26,.05-.1,.23v.13l.13-.05-.13,.26h.13l-.16,.36,.03,.6-.13,.08-.1,.81-.1,.26v.36l-.18,.42-.08,.7-.13,.13v-.18l-.13,.23v.23l-.44,.81v.39l-.18,.13,.05-.13-.13,.05-.1,.44h-.18l-.08,.13h-.13l-.16,.36h-.13l-.23,.26h-.29l-.13,.1h-.39l-.13,.26-.08-.05-.18,.05h-.39l-.13-.13-.39-.16Zm.16-1.07l.16-.21,.39-.26,.55-.52,.75-1.64,.21-.68,.21-.39v-.1l.16-.26v-.23l.08-.08-.13-.39h.1l-.03-.65,.21-1.61-.03-.49,.05-.36,.1-.1,.05-.65-.13-.21-.03-.42,.18-.1,.05-.26h.13v-.13l-.18,.05-.08,.08-.13-.08v-.31l.13-.65-.1-.1,.05-.13-.1,.08,.03-.13-.03-.75-.13-.29,.05-.21-.1,.08-.1-.23,.08-.18-.21-.34-.08-.44-.55-1.27-.34-.52h-.21l.08-.18-.42-.31h-.26v.18h-.21l-.16,.18,.05,.39-.34,.36,.08,.05v.13l-.42,.62v.23l-.44,.55,.03,.26,.13-.05-.47,.99,.13-.05-.03,.57-.08,.03-.1,.75-.13,.13,.03,.65-.05,.57-.1,.21,.08,.21-.08,.08,.1,2.26-.08,.6,.13,.73,.03,.68,.21,1.79,.49,1.43v.1l.44,.75,.31,.21Zm2.78-3.43l.08-.08-.08-.1v.18Zm.18-8.42l.13-.13h-.13v.13Zm.1,2.6v-.21l-.1,.39,.1-.18Zm.18,1.66l.08,.13-.1-.34,.03,.21Zm.49-1.92l-.03-.18-.08,.08,.1,.1Z"/><path class="cls-5" d="M197.83,162.74l-.16-.16-.16,.08v-.47l-.13-.13v.13l-.13,.16h-.16l-.08-.1-.13,.13-.23-.23v-.52l-.13-.13v-.39l-.13-.13-.05-1.27h.1v-.36l-.1-.81-.08-.08v-.21l-.05-.08,.18-.05,.05-.18v-.26l-.1-.08v-.65l-.1-.42,.16-.29,.05,.13,.13-.13v-.26h-.13l-.18-.65,.13-.26,.08,.18,.13-.21-.08-.16-.18-.1-.08-.29,.08-.68-.13,.08v-.26l-.08-.05v-.21l-.18-.52v-.57h.18v-.81l-.05-.36,.05-.7,.13-.08v-.21l.08-.08-.08-.1-.18,.08-.16-1.3,.08-.08,.21,.13v-.13l-.08-.08,.13-.13v-.44l-.05,.21-.13-.39v-.55l-.21,.26v.42l-.08-.13-.05,.31h-.13v.52h-.13v.52l-.21,.21h-.1v.44l.08,.16-.08,.1-.34,1.3-.05,.47-.08,.1v.21l-.13,.26v.36l-.13,.29v.31l-.08,.26v.31l-.26,.6v.57l-.05,.13-.18,1.38h-.13l-.13,.13h-.39l-.21-.08h-.29l-.1-.18-.18,.05-.44-.05-.08-.08h-.23l-.18-.18-.18-.31-.08-.47-.31-.44-1.09-3.64-.08-.47v-.36l-.23-.13v-.29l-.08,.08v1.35l-.18-.18v.34l-.08-.1v.29l.13,.13h.13l-.05,.26-.13-.08v.13l.31,.44v.23h-.18l-.08,.05,.13,.13v.18l.13-.05-.05,.13-.08,.05,.18,.49-.18,.42v.26l.13-.47v.6l.08,.08,.05,1.09,.05,.13h-.13l.13,.52-.13,.29,.08,.62-.16,.47-.13,.16,.1,.39-.08,.08v1.3h.13l-.05,.13v.34l-.08-.08v.18l.08,.13,.05,.73-.13,.21,.16-.1-.1,.52,.1,.52-.08,.1-.13-.08-.13,.26h-.42v-.16l-.26,.1-.05-.08-.26-.08-.31-1.35-.18-1.64-.16-5.82-.21-2.29v-1.22l-.05-.18,.13-.83v-.68l-.08-.13v-.31l.08-.05v-.73l.05-.26v-.52l.08-.26,.08,.08,.21-.34,.26,.05-.08,.21v.21l.05-.21,.08,.13v-.57l-.08-.08-.05-.26-.08,.13v.18l-.34,.13-.08-.18h.29l-.08-.44,.47-.26,.13-.21h.13l.18-.13,.13,.13,.08-.08h.26l.13,.13h.39l.18,.31,1.38,4.34v.29l.18,.21,.13,.65,.26,.75,.16,.29v.26l.18,.39,.05,.39,1.25-4.81,.31-.73v-.13l.08-.05,.05-.57,.13,.13,.13-.13v-.21l.18-.21,.21-.57v-.26h.21l.05-.52,.08,.05,.05-.31,.13,.13,.08,.47,.05-.16v.34l.13-.23v-.34l.18-.21,.1,.23,.1-.39,.13,.23v-.39h-.34v-.18l.23-.16,.18,.08,.08,.18,.18-.18h.13v.13h.18l.05,.13h.26l.13,.13h.13l.26,.26,.21,2.08v.39l.13,.65,.05,.57-.05,.39,.16,.55-.1,.23v.13l.08-.13,.05,1.12,.08,.31v.57l.05,.13v.73l.08,.62v1.72l.13,1.87v1.22h.1l-.05,1.25,.42,3.8-.1,.26-.36-.29h-.39Zm-10.19-14.74l.05-.13v-.34l-.13,.21,.08,.26Zm.18,1.04l.08-.34,.08,.08-.08-.34-.08,.08-.18-.13,.05,.44,.13,.21Zm.34,.13l.08-.21-.08-.05-.18,.39,.18-.13Zm.08-4.37l.05,.08-.18,.1v-.18h.13Zm.83,13.6h.13l.08-.23-.21-.05v.29Zm.96,4.13l.21-.05-.23,.39-.1-.18,.13-.16Zm4.68-16.43l.08-.05v-.26l-.21,.08,.13,.23Zm.39-.49h.13l-.13-.26v.26Zm.13,3.51l.05-.16-.1,.08,.05,.08Zm.91,.05l.08-.05v-.16l-.08,.08v.13Zm.08,.7v-.13l-.08-.18v.18l.08,.13Zm.36,2.16l.08-.08-.21-.23v-.1l-.05,.23,.18,.18Zm.39,7.98l-.05-.21v.13l.05,.08Z"/><path class="cls-5" d="M200.92,162.66l-.08,.13h-.26l-.05-.13h-.13l-.26,.13-.08-.08h-.13l-.13-.13,.13-3.95-.13-2.6-.13-.81-.23-4.37,.1-.57-.13-2.76,.08,.05,.03-.44,.08-.21-.05-.68h.18l.13-.23,.18-.18v-.1l.21-.26,.21-.13h.18l.36-.21,.23,.03-.05-.08,.42-.1,.47-.05h1.04l.52,.05,.65,.31,1.33,.73,.34,.31,.23,.1,.1,.18,.44,.39v.16h.13l.16,.31,.08,.47,.08,.26-.08,.05,.16,.26-.1,.47,.08,.05,.03,.44-.36,.47-.16,.34-.36,.42v.16l.08,.08-.05,.1-.05,.26-.23,.23v.31l-.44,.42,.1,.1-.16,.08-.1,.36-.21,.13,.03,.13-.34,.29-.21,.36-.26,.1,.08-.18-.26,.18-.1,.36-.44,.21h-.1l-.13,.29-.03-.36,.08-.18-.08-.05v.1l-.21,.21-.1-.1-.47,.26v.21l-.13,.16h.13l.03,.13-.7,.39,.18-.26h.21v-.18l-.13,.05h-.21v.18l-.13,.13-.05-.08v-.16l-.08-.08-.18,.18,.18,1.04-.05,.31,.03,.47,.13,.29,.03,.65-.1,.34h.13l.03,.36-.13,.26,.03,.16,.08,.08v.18l-.16,.13-.08,.47-.08-.08-.1,.13,.13,.18,.21-.08-.13,.29v.1l.13-.08,.03,.49-.1,.29-.21,.21,.03,.29,.13,.1v.18l-.05,.18-.08-.18-.21-.29,.03,.83-.13-.05,.08-.13h-.1l-.16,.55-.13,.13v-.31l-.13-.05Zm.73-8.89l1.2-1.14,1.33-1.82,.65-1.33,.36-1.04-.16-1.27-.23-.55-.44-.42-.49,.13-.23-.13-.73,.05-.08,.18-.88,.31-.16,.18-.39,.13,.16,1.98-.05,.26,.05,.91-.13,.18,.13-.08-.03,.68-.13,.36,.1,.42-.1,.31h.13v.26l-.1,.23,.13-.08,.08,.42-.16,.18,.21,.16-.18,.18,.1,.05,.05,.29Z"/><path class="cls-5" d="M211.27,162.51l-.18-.21h-.34l-.05-.13-1.09-.65-.36-.55-.13-.05-.23-.18-.05-.36-.13-.26-.03-.13-.13-.13v-.21l-.08-.08,.08-.05-.1-.08-.05-.23-.08-.05,.13-.08v-.13l-.05-.08,.08-.08-.16-.16-.05-.68-.1,.31-.03-.18-.08-.13-.05-1.14h.13v-.16l-.26,.16-.03-3.82-.05-.1,.1-.57,.08,.36,.05-.62h-.13l-.03-.44,.05-.26-.03-.31,.52-2.47,1.12-2.29,.91-1.17,.68-.34,.13,.08-.21,.1h.23l.21-.1-.1-.08,.47-.1,.29,.13,.1,.16,.13,.13v.36h.44l.03,.13,.36-.16-.05,.16-.18,.08,.13,.05,.26,.31,.03,.18,.36,.31,.18-.23,.1,.23h.18l.31,.34v.1l.18,.23,.03,.44,.05-.18,.29-.05-.08,.18,.13-.13,.08,.13v.23h.1l.1,.49,.08,.08v.18l-.13-.13,.08,.36,.13-.13v.21l.05,.08v.29l.08,.08,.03,.62,.13,.13-.05,.21,.13-.03,.03,.36,.05,.23,.05,.99-.05,1.04,.13,.31-.18,.52,.13,.26v.36l-.05,.18v.31l-.05,.13,.03,.18-.21,.21,.26,.05-.1,.23v.13l.13-.05-.13,.26h.13l-.16,.36,.03,.6-.13,.08-.1,.81-.1,.26v.36l-.18,.42-.08,.7-.13,.13v-.18l-.13,.23v.23l-.44,.81v.39l-.18,.13,.05-.13-.13,.05-.1,.44h-.18l-.08,.13h-.13l-.16,.36h-.13l-.23,.26h-.29l-.13,.1h-.39l-.13,.26-.08-.05-.18,.05h-.39l-.13-.13-.39-.16Zm1.74-18.7l-.49-.21-.57-.31-.57-.6-.26-.21-.31-.36h-.39l-.05,.1-.42,.42,.16-.31-.21,.23-.16,.03-.05,.18-.05-.08-.16,.16-.05,.6,.05,.1v.16l-.13-.1-.08-.36-.18,.16-.08,.16-.18,.05-.21-.1h-.1l-.31-.47v-.47l.21-.73,.47-.73,.42-.21h.7l1.48,.86,.62,.73,.21,.08,.42-.23,.44-.52,.75-.99,.29,.08,.55,.05,.16,.16,.26,.08,.08,.7-.18,.39-.08-.08-.08,.29-.78,.88-.21,.13-.21,.21-.34,.16h-.16l-.1-.05h-.1Zm-1.59,17.63l.16-.21,.39-.26,.55-.52,.75-1.64,.21-.68,.21-.39v-.1l.16-.26v-.23l.08-.08-.13-.39h.1l-.03-.65,.21-1.61-.03-.49,.05-.36,.1-.1,.05-.65-.13-.21-.03-.42,.18-.1,.05-.26h.13v-.13l-.18,.05-.08,.08-.13-.08v-.31l.13-.65-.1-.1,.05-.13-.1,.08,.03-.13-.03-.75-.13-.29,.05-.21-.1,.08-.1-.23,.08-.18-.21-.34-.08-.44-.55-1.27-.34-.52h-.21l.08-.18-.42-.31h-.26v.18h-.21l-.16,.18,.05,.39-.34,.36,.08,.05v.13l-.42,.62v.23l-.44,.55,.03,.26,.13-.05-.47,.99,.13-.05-.03,.57-.08,.03-.1,.75-.13,.13,.03,.65-.05,.57-.1,.21,.08,.21-.08,.08,.1,2.26-.08,.6,.13,.73,.03,.68,.21,1.79,.49,1.43v.1l.44,.75,.31,.21Zm2.78-3.43l.08-.08-.08-.1v.18Zm.18-8.42l.13-.13h-.13v.13Zm.1,2.6v-.21l-.1,.39,.1-.18Zm.18,1.66l.08,.13-.1-.34,.03,.21Zm.49-1.92l-.03-.18-.08,.08,.1,.1Z"/><path class="cls-5" d="M219.09,155.49h.16l-.03,1.74-.16-.1,.08,.23,.08,.05v.23l-.1,.23,.13,.36-.16,.16-.08-.05-.03,.81,.1-.05,.05-.16-.05,.39-.23,.75-.08-.05-.1,.68v.13l.1,.08v.34h.13l.1-.08,1.72-.47h.26l.36-.16,.08,.05,.36-.18,.08,.05,.1-.08,.08,.16,.1-.08v-.1l.47-.05v.16h.57l.31-.1,.05,.1,.18-.18,.16,.16h.13l-.08,.13,.08,.1h.13l.21,.26-.23,.23-.05,.23-.52,.08h-.7l-.13,.05-.39,.05-.23,.13v.18l-.23-.08-.34,.13-.34,.23-.44,.05-.34,.18-.16,.16h-.18l-.23,.18-.62,.23h-.36l-.21,.05-.29-.18-.31-.05-.81-.23v-.57l.08-.1-.08-.08,.03-1.14,.18-2.42v-11.31l-.05-.16v-.83h-.13l-.1-.18-.21-.18-.08-.29,.1-.34h.36l.1,.1,.05-.16,3.85-.34v.1h.29l.13-.1h.52l.21,.1h.21l.1-.1,.13,.05,.57,.1,.16,.1,.18,.23,.05-.1,.08,.18,.31,.31-.31,.08-.08,.08,.16,.08-.21,.16-.44,.05-.08,.18-.13,.05-.16-.13h-.31l-.16,.08-.34-.16-.42,.08-.57,.21-.16-.1-1.61,.36-.29,.16,.05,.62,.08,.16v.57l-.08,.13,.08,.05v1.56l-.1,.23,.1,.08-.08,.05,.08,.23-.16,.52h.16v.29l-.08,.1-.03,.65-.08-.05-.05,.1v.52l.47-.1h.96l.08,.05,.05-.1h.23l.16,.05,.26-.1h.16l.08,.05,.05-.08,.23,.08h.23l.23,.1,.1,.29-.23,.34v.13l-.1,.05,.08,.18h-.1l-.13,.23h-.21l-.47,.1-.03,.08h-.21l-.49,.16-.13,.08h-.1l-.13,.1h-.42l-.49,.29v.18l-.08,.05-.13-.13v.31l.1,.16,.13-.34v.18l-.08,.1,.08,.18v.23h-.1l-.16,.18,.03,.47,.08-.31,.1,.13-.05-.29-.05-.08Zm-1.17,5.12l.05,.08-.05-.23v.16Zm6.68,.47l.18-.13v.16l-.29,.26v-.29h.1Z"/><path class="cls-5" d="M235.58,162.74l-.16-.16-.16,.08v-.47l-.13-.13v.13l-.13,.16h-.16l-.08-.1-.13,.13-.23-.23v-.52l-.13-.13v-.39l-.13-.13-.05-1.27h.1v-.36l-.1-.81-.08-.08v-.21l-.05-.08,.18-.05,.05-.18v-.26l-.1-.08v-.65l-.1-.42,.16-.29,.05,.13,.13-.13v-.26h-.13l-.18-.65,.13-.26,.08,.18,.13-.21-.08-.16-.18-.1-.08-.29,.08-.68-.13,.08v-.26l-.08-.05v-.21l-.18-.52v-.57h.18v-.81l-.05-.36,.05-.7,.13-.08v-.21l.08-.08-.08-.1-.18,.08-.16-1.3,.08-.08,.21,.13v-.13l-.08-.08,.13-.13v-.44l-.05,.21-.13-.39v-.55l-.21,.26v.42l-.08-.13-.05,.31h-.13v.52h-.13v.52l-.21,.21h-.1v.44l.08,.16-.08,.1-.34,1.3-.05,.47-.08,.1v.21l-.13,.26v.36l-.13,.29v.31l-.08,.26v.31l-.26,.6v.57l-.05,.13-.18,1.38h-.13l-.13,.13h-.39l-.21-.08h-.29l-.1-.18-.18,.05-.44-.05-.08-.08h-.23l-.18-.18-.18-.31-.08-.47-.31-.44-1.09-3.64-.08-.47v-.36l-.23-.13v-.29l-.08,.08v1.35l-.18-.18v.34l-.08-.1v.29l.13,.13h.13l-.05,.26-.13-.08v.13l.31,.44v.23h-.18l-.08,.05,.13,.13v.18l.13-.05-.05,.13-.08,.05,.18,.49-.18,.42v.26l.13-.47v.6l.08,.08,.05,1.09,.05,.13h-.13l.13,.52-.13,.29,.08,.62-.16,.47-.13,.16,.1,.39-.08,.08v1.3h.13l-.05,.13v.34l-.08-.08v.18l.08,.13,.05,.73-.13,.21,.16-.1-.1,.52,.1,.52-.08,.1-.13-.08-.13,.26h-.42v-.16l-.26,.1-.05-.08-.26-.08-.31-1.35-.18-1.64-.16-5.82-.21-2.29v-1.22l-.05-.18,.13-.83v-.68l-.08-.13v-.31l.08-.05v-.73l.05-.26v-.52l.08-.26,.08,.08,.21-.34,.26,.05-.08,.21v.21l.05-.21,.08,.13v-.57l-.08-.08-.05-.26-.08,.13v.18l-.34,.13-.08-.18h.29l-.08-.44,.47-.26,.13-.21h.13l.18-.13,.13,.13,.08-.08h.26l.13,.13h.39l.18,.31,1.38,4.34v.29l.18,.21,.13,.65,.26,.75,.16,.29v.26l.18,.39,.05,.39,1.25-4.81,.31-.73v-.13l.08-.05,.05-.57,.13,.13,.13-.13v-.21l.18-.21,.21-.57v-.26h.21l.05-.52,.08,.05,.05-.31,.13,.13,.08,.47,.05-.16v.34l.13-.23v-.34l.18-.21,.1,.23,.1-.39,.13,.23v-.39h-.34v-.18l.23-.16,.18,.08,.08,.18,.18-.18h.13v.13h.18l.05,.13h.26l.13,.13h.13l.26,.26,.21,2.08v.39l.13,.65,.05,.57-.05,.39,.16,.55-.1,.23v.13l.08-.13,.05,1.12,.08,.31v.57l.05,.13v.73l.08,.62v1.72l.13,1.87v1.22h.1l-.05,1.25,.42,3.8-.1,.26-.36-.29h-.39Zm-10.19-14.74l.05-.13v-.34l-.13,.21,.08,.26Zm.18,1.04l.08-.34,.08,.08-.08-.34-.08,.08-.18-.13,.05,.44,.13,.21Zm.34,.13l.08-.21-.08-.05-.18,.39,.18-.13Zm.08-4.37l.05,.08-.18,.1v-.18h.13Zm.83,13.6h.13l.08-.23-.21-.05v.29Zm.96,4.13l.21-.05-.23,.39-.1-.18,.13-.16Zm4.68-16.43l.08-.05v-.26l-.21,.08,.13,.23Zm.39-.49h.13l-.13-.26v.26Zm.13,3.51l.05-.16-.1,.08,.05,.08Zm.91,.05l.08-.05v-.16l-.08,.08v.13Zm.08,.7v-.13l-.08-.18v.18l.08,.13Zm.36,2.16l.08-.08-.21-.23v-.1l-.05,.23,.18,.18Zm.39,7.98l-.05-.21v.13l.05,.08Z"/><path class="cls-5" d="M246.42,162.46l-.23-.08-.08,.13-.23,.05-.18-.18h-.23l-.18-.13,2.13-13.7,.08-.13,.08-.34,.16,.16v-.42l.26-1.14,.16-.16-.1-.1,.1-.55,.08-.08v.18l.05-.08,.13-.03,.05-.13v.86h-.13v.31l.08-.08,.13-.44h.23v-.23l-.21-.29,.16-.7-.08-.29-.18-.21v-.16l.18,.05,.08-.13,.34,.13,.1-.08,.23,.08,.29,.18h.1l.08,.08,.34,.1,.08,.18v.18l.26,.49,.18,.73v.31l.18,.36v.31l.18,.68v.36l.13,.42v.81l.18,.23v.39l-.08,.18v.31l.08-.13v.42l.13,.13v.6l.1,.7-.05,.78,.13,.05v.62l.05,.36-.08,.16,.08,.08v.21l.13,.34v.44l-.08,.23h.13l-.05,.26,.05,.1-.1,.21,.18-.05-.08,.1,.1,.08-.1,.1,.08,.05,.05,.62,.05,.1v.18l.13,.39v.49l.13-.08,.05,.42v1.04l.08,.08,.03,.68,.13,.96-.05,.08-.16-.08,.08,.31,.08,.08v.18h-.18l-.13-.18-.05,.23v-.36l-.18-.13-.1,.1-.16-.16v-.18l-.1-.18-.08,.49h-.26l-.21-.39-.44-1.56-.05-.62-.08-.13v-.44l-.16-.31-.18-1.25-.08,.05-.1,.29-.08-.23-.23,.23v.16l-.26,.23h-.1l-.26,.18h-.26l-.05,.1-.86,.39h-.18l-.13,.16,.08,.08-.13,.08v.23l-.08-.08-.03,.18h-.16v.21l-.1,.23v.36l-.13,.08-.18,.55-.13,.83v1.07h.23l.08,.13-.36,.1-.05-.08-.1,.08-.16-.18v-.1Zm1.35-11.88l.1-.1-.1-.08v.18Zm.26,5.93l.05-.08v-.29l.13,.1v.16l.65-.08h.49l.39-.08v.16l.1-.08,.08,.08,.13-.16-.21-1.59-.08-1.35,.08-.16v-.13l-.08,.13v-.62h-.1v-.62l-.08-.23,.08-.18v-.6l-.18-1.04,.08-.96-.13-.16v-.26h-.13v.81l-.05,.08v.55l-.16,.29-.08,.39-.26,.34-.05,.62-.16,.13v.73l-.13,.52-.16-.08-.05,.23v.44h.1v.13h-.18v.1h.13l-.05,.08,.05,.1-.05,.18h-.13l.05,.26,.08-.13,.1,.31-.05-.08v.49l-.16,.57-.21,.23v.18l.05-.16v.62l.08,.08Zm.05-1.17v-.49l-.05,.36,.05,.13Zm.13-7.41h.1v-.18l-.1,.08v-.18l-.08-.08-.05,.16v.29l.13-.08Zm0,7.96l-.13,.13v-.18l.13,.05Zm.1-5.38l.08-.05-.08-.13v.18Zm.44-3.54v-.13l-.21,.18-.03,.18,.23-.23Zm-.05,1.51l-.08-.05-.08,.05h.16Zm.16-.73l-.05-.49-.08,.49h.13Zm.16-.42l-.1-.08,.1-.16-.16-.52v.75h.16Zm3.64,12.84v.23l-.05,.13v-.16l.05-.21Zm.08,1.66l-.08,.05v-.13l.08,.08Zm.1,.42l-.1,.13v-.31l.1,.18Z"/><path class="cls-5" d="M267.97,153.15h.1l.13,.08-.05,.13-.36,.31h-.29l-.05-.31h-.1l-.16,.13h-.34l-.23,.26-.23,.13-.08,.1h-.1l-.16,.18h-.31v-.13l-.16,.08h-.44v.18h-.42l-.36,.21-.08-.08-.08,.08v.42l-.05,.16v.29l-.05,.08,.1,.08-.05,.23v.44l-.13,.49,.13-.18,.05,.08v.52l-.08,.39,.13,.13-.1,.23v1.07l.18,.36-.13,.21v.13l-.1,.23,.18,.08v.23l.08,.16v.13h.16l.75-.34,.78-.18,.1-.08h.55l.1-.16,.08,.16,.26-.13,.42-.03,.36-.16,.16,.08,.31-.16,.21,.16,.42,.1v.21l-.08,.13v.26l-.52,.36-1.01,.29-.05,.16h-.34l-.1,.13-.42,.05-.91,.47h-.1l-.65,.42-.31,.08-.13,.13h-.47l-.1-.05h-.47l-.49-.26h-.34l-.05-.49,.05-.34,.13-.18-.05-.47-.18-.29,.05-.36-.13-.16v-.75l-.05-.57,.1-.26-.1-.96,.05-.1,.13-.03-.18-.1,.05-.26-.05-.18v-1.22l.05-.13v-.23l.08-.36-.08-.26v-.62l.08-.34,.05-.36,.05,.1,.18-.26h.13l-.08-.13,.16-.23,.08,.36,.08-.05v-.36h-.13v-.39l-.1,.26v.13l-.13,.18h-.23l-.13-.13-.05-.18v-.21l.08-.16-.6-6.32-.08-.23v-.44h.26l.18,.05h.34l.05,.1,.13-.1v.1h.18l.1-.1v.1l.18-.1h1.87l.05,.1h.23l.18-.1-.08,.1h.23l.18,.03,.16-.08,.36,.16,.29-.13,.08,.05h.34l.13-.03,.05,.1h.36v.13l.13,.05-.13,.13-.05,.21h-.13l-.1,.13,.08,.08-.08,.16-.08-.08-.21,.08-.1,.21-.34,.1h-.1l-.16,.13-.1,.21h-.39l-.18-.08-.16,.18h-.18l-.05,.13-.08-.16-.26,.08-.16-.05-.1,.05-.1-.05-.31,.13-.39,.08,.1,1.43v.6l.08,.13v1.56l.05,.26v.65h.1v.91l1.53-.16,.52-.13h.88l.34-.1,.26,.1,.47,.39-.08,.1-.03,.21-.08-.08-.13,.13v.13l-.13,.18-.1,.08h.31l.05-.21v-.13Zm-5.28,7.98l.05,.47v-.65l-.05,.18Zm.05-5.77l.08,.39,.03-.44-.1,.05Zm.18-.29l.05-.08-.13-.08,.08,.16Zm.13,5.38l-.08-.39-.08,.81,.16-.42Zm4.32-6.94l-.29,.47,.18-.47h.1Z"/><path class="cls-5" d="M271.85,160.82v-.36l-.1-.1v-.26l.08-.16-.18-.21v-.26l-.16,.08-.08-.7,.08-.08-.03-.75h-.13v-.23l-.05-.1v-.31l-.08-.05v-.18l.08-.05v-.26h-.13v-.39h-.16v-.81l-.05-.08-.18-.96v-.65l.08-.16-.08-.03-.08,.1-.03-.6-.13-.1-.05-.99-.08-.08v-.29l-.1-.49-.1-.05,.1-.05-.16-.29-.36-2.13-.1-.26v-.29l-.13-.44-.1-.16v-.31l-.49-1.59v-.7l.1-.26v-.44l.05,.08,.13-.26,.05,.13h.16l.1-.13,.05,.13,.1-.16,.08,.1h.31l.1,.1h.39l.08,.08,.29,1.56v.23l.26,.88v.36l.13,.1,.16,.96,.08,.05v.21l-.08,.1h.16v.73l.16,.36,.13,.55,.05,.49-.05,.08,.1,.03,.21,1.22v.36l.31,.96v.36l-.08,.23h.13l.05,.75,.1,.18,.08,1.09,.23,.81,.18-.83,.16-.18,.16-.29h-.16l.31-.44-.08-.1v-.16l-.18,.03-.05,.13v-.23h.13l.31-1.07,.18-.18v-.29l-.16,.44,.13-.73,.08,.18,.08-.55,.1-.23,.08,.18-.13,.21v.18l.13-.03v.42h.18l-.08-.08v-.34l.21-.16,.1,.08v-.36l-.05-.1,.13-.13-.13-.08,.1-.21-.1-.1v-.23l.05-.13,.08,.13,.05-.13-.05-.29-.13-.13-.26,.36v.18l-.08,.23-.1-.23,.1-.55,.08,.18,.08-.05v-.18l.18-.34h.16l-.13-.47h.16l.13-.16-.13,.03,.18-.29,.05,.08v-.13l-.1-.18-.18,.18,.05-.23v-.6l.13-.26,.16-.18v-.26l-.05-.18h.13l.05-.34v-.44l-.08-.23,.08-.49,.13-.29v-.18l.26-.26-.05-.16,.23-.36-.05-.29,.13-.44,.1,.1,.08-.29h.16l.05,.34,.13-.05-.13,.34v.36l.16-.49h.16l.08-.21-.18,.08-.08-.6,.16-.26,.1,.18,.05,.23,.13-.05,.08,.08,.1-.23,.36,.13v.26l-.08-.08,.16,.42,.05-.52,.1,.1-.16,.65-.16,.39,.16-.16-.08,.18v.18l-.1-.08v.31l.08,.05-.08,.05v.16l.1-.08-.1,.36-.08,.1-.18,1.17-.05,.13-.13,.1,.05,.34-.18,.47v.47l-.05,.13,.05,.1-.16,.44,.03,.1h-.18v.18l-.18,.65,.16,.08-.16,.13v.47h-.13l-.05,.26v.23l-.18,1.04-.1,.18-.08,.05,.08,.08-.13,.1v.29l-.05,.13v.18l-.1,.13,.1,.08-.13,.1v.44l-.08,.1v.23l-.08-.05-.05,.08,.08,.26-.08,.16-.05,.29-.08,.16v.39l-.16,.18v.49l-.13,.23-.13,.42v.26l-.05,.08v.39l-.16,.13v.31l-.1,.13-.29,1.46-.13,.1v.23l-.08,.13v.34l-.05,.13-.05,.65-.16,.34-.23,.05-.05-.1h-.18l-.18-.18h-.31l-.18-.1-.26-.26-.49-.34v-.39l-.05-.08,.1-.42Zm-1.27-8.79l.1-.31,.08,.08,.08-.31-.16-.23v.23l-.18,.44,.08,.1Zm2.89,3.28l.1,.23-.21-.05,.1-.18Zm.39,1.04v-.26l-.13,.16,.13,.1Zm-.08-.34l.08-.03v-.16l-.08,.08v.1Zm.39-1.07l.05,.13,.05-.18-.18-.18-.16,.34,.1,.08,.13-.18Zm-.08-.36h.13l.08-.34-.08-.16-.13,.49Zm.86-3.33l.13,.05,.08-.16-.08-.05,.16-.18,.08-.39h-.13l-.05-.13h-.1l-.08,.18,.18-.1-.18,.55h-.18l-.05,.23,.18-.13-.05,.13h.1Zm.49-1.9l.13,.03v-.18l-.13-.05v.21Zm.13-.96h.13l.18-.31-.05-.29-.26,.26v.34Zm1.17-3.61l.1-.18-.1,.03v.16Zm.23,.55l.16-.16-.08-.08-.08,.13v.1Z"/><path class="cls-5" d="M278.5,145.5l.05-.31v-.62l-.1-.1,.05-.23,.16-.16,.88,.39,.18,.1h.1l.36,.18,.05,.16h.13l.05,.6v2.34l.08,.08-.1,1.07,.1,.39v.88l.08,.18-.08,.26v.23l.05-.23,.05,.7-.05,.31,.05,.13-.13,.34,.08,.44v.6l.05,.08-.05,.1,.08,2.94-.08,.03v.36l.18,.1-.1,.1,.08,.1h-.16l-.05,.34,.05,.1-.1,.1v.49l-.05-.18-.13,.23,.18,.23v.13l.1,.05h.13l-.13,.23h-.16l-.05,.57-.08,.05v.23l-.08-.08-.23,.1v.47l.08,.05,.05-.13,.08,.18,.05,.26,.05-.13v.42l-.18,.26-.05-.08-.08,.08-.05,.47-.13,.36-.13-.68-.08,.44-.08-.08-.05-.1v-.18l-.18,.18v.1l-.18,.31-.13,.08-.05-.08-.08,.13-.1-.13-.21-16.38Zm1.07,16.33l.1-.08,.08,.21,.1,.05-.1,.16-.08-.1-.08,.1-.1-.1,.08-.23Zm.47-.96v-.49l-.1,.39,.1,.1Zm.49-1.04l-.08,.08v-.16l.08,.08Zm.23-.86l-.05,.13-.16-.05,.21-.08Z"/><path class="cls-5" d="M283.83,162.66l-.08,.13h-.26l-.05-.13h-.13l-.26,.13-.08-.08h-.13l-.13-.13,.13-3.95-.13-2.6-.13-.81-.23-4.37,.1-.57-.13-2.76,.08,.05,.03-.44,.08-.21-.05-.68h.18l.13-.23,.18-.18v-.1l.21-.26,.21-.13h.18l.36-.21,.23,.03-.05-.08,.42-.1,.47-.05h1.04l.52,.05,.65,.31,1.33,.73,.34,.31,.23,.1,.1,.18,.44,.39v.16h.13l.16,.31,.08,.47,.08,.26-.08,.05,.16,.26-.1,.47,.08,.05,.03,.44-.36,.47-.16,.34-.36,.42v.16l.08,.08-.05,.1-.05,.26-.23,.23v.31l-.44,.42,.1,.1-.16,.08-.1,.36-.21,.13,.03,.13-.34,.29-.21,.36-.26,.1,.08-.18-.26,.18-.1,.36-.44,.21h-.1l-.13,.29-.03-.36,.08-.18-.08-.05v.1l-.21,.21-.1-.1-.47,.26v.21l-.13,.16h.13l.03,.13-.7,.39,.18-.26h.21v-.18l-.13,.05h-.21v.18l-.13,.13-.05-.08v-.16l-.08-.08-.18,.18,.18,1.04-.05,.31,.03,.47,.13,.29,.03,.65-.1,.34h.13l.03,.36-.13,.26,.03,.16,.08,.08v.18l-.16,.13-.08,.47-.08-.08-.1,.13,.13,.18,.21-.08-.13,.29v.1l.13-.08,.03,.49-.1,.29-.21,.21,.03,.29,.13,.1v.18l-.05,.18-.08-.18-.21-.29,.03,.83-.13-.05,.08-.13h-.1l-.16,.55-.13,.13v-.31l-.13-.05Zm.73-8.89l1.2-1.14,1.33-1.82,.65-1.33,.36-1.04-.16-1.27-.23-.55-.44-.42-.49,.13-.23-.13-.73,.05-.08,.18-.88,.31-.16,.18-.39,.13,.16,1.98-.05,.26,.05,.91-.13,.18,.13-.08-.03,.68-.13,.36,.1,.42-.1,.31h.13v.26l-.1,.23,.13-.08,.08,.42-.16,.18,.21,.16-.18,.18,.1,.05,.05,.29Z"/><path class="cls-5" d="M298.19,162.38h-.31l-.23-.47-.21,.18-.16-.08h-.13l-.21-.39-.13,.08,.08-.13h-.13v-.21l-.08-.1-.42-1.09-.73-2.34v-.18l-.18-.49v-.23l-.21-.52v-.18l-.16-.36v-.31l-.08-.13v-.21l-.21-.34v-.13l-.13-.13v-.52l-.23-.29v-.13l-.68-1.51-.05-.21-.42-.91-.05,.08-.05,.18v.75l.05,.08v.55l-.05,.29,.1,.44v.52l-.1,.03v.13l.1,.18-.05,.39-.05,.08v.47l.1-.47v.55l.05,.49-.05,.55,.05,.26-.1,.13v.13l.1,.13v.6l.05,.21v.31l-.05,.13,.05,1.04,.08,.05-.08,.05,.08,.1v.91l-.13,.13h.13v.18l.05,.08,.1,1.25-.03,.18-.31,.18v-.1l-.34-.08v-.13l-.13,.13-.16-.18h-.29l-.1,.05v-.13h-.18l-.08-.08h-.1l-.13-.13-.13,.08v-.31l-.1-.23-.05-2.31-.08-.81v-.94l.08-.05-.16-.23v-2.13l.08-.05v-.44l-.13-.26v-2.31l.05-.13-.39-5.33,.16-.16v-.13l.1-.26h-.1l-.13,.18-.18-1.09,.16-.16h.47l.13,.13,.08-.13,.1,.13h.13l.26-.1,.18,.23h.47l.42,.81,.29,.39v.42l.16,.21,.08,.16v.13l.26,.55,.05,.08v.18l.26,.52,.08,.47-.05,.08,.13,.05v.21l.13,.1,.1,.39,.05,.36,.13-.08v.34l.08,.05,.05,.18,.26,.55,.16,.49v.29l.18,.18v.29l.18,.21v.23l.05,.1v.23l.08,.1,.1-.05-.1,.21,.16-.08v.1l.94,2.5,.03,.23,.08,.13v.23l.1,.13,.18,.57v.13l.21,.13-.31-12.45,.34-.16,.34,.26,.13,.05,.13-.05,.44,.29,.1,.21,.18-.1,.1,.18,.08-.1,.13,.13,.03,2.73-.1,.08,.16,.23-.05,.31-.13,.1,.13,.05-.08,.08,.13,.08-.13,.81,.08,.05,.05,.99h-.13v.36l.08-.1,.05,.1-.05,.18,.05,.29v.42l-.05,.08v.13l.1,.1-.05,.52-.18,.16v.13l.21-.18,.08,.05v.13h-.1v.31l.03-.1v.18l.08,.1v.75l-.08,.08,.08,.1,.05,1.61-.05,.08,.05,.1-.05,2.37,.08,.1-.08,.23v.78l-.08,.26-.08,1.2,.08,.49-.21,.23-.26,.18-.44-.08-.16-.16Zm.91-6.71l.13-.21h-.13v.21Z"/><path class="cls-5" d="M302.76,155.49h.16l-.03,1.74-.16-.1,.08,.23,.08,.05v.23l-.1,.23,.13,.36-.16,.16-.08-.05-.03,.81,.1-.05,.05-.16-.05,.39-.23,.75-.08-.05-.1,.68v.13l.1,.08v.34h.13l.1-.08,1.72-.47h.26l.36-.16,.08,.05,.36-.18,.08,.05,.1-.08,.08,.16,.1-.08v-.1l.47-.05v.16h.57l.31-.1,.05,.1,.18-.18,.16,.16h.13l-.08,.13,.08,.1h.13l.21,.26-.23,.23-.05,.23-.52,.08h-.7l-.13,.05-.39,.05-.23,.13v.18l-.23-.08-.34,.13-.34,.23-.44,.05-.34,.18-.16,.16h-.18l-.23,.18-.62,.23h-.36l-.21,.05-.29-.18-.31-.05-.81-.23v-.57l.08-.1-.08-.08,.03-1.14,.18-2.42v-11.31l-.05-.16v-.83h-.13l-.1-.18-.21-.18-.08-.29,.1-.34h.36l.1,.1,.05-.16,3.85-.34v.1h.29l.13-.1h.52l.21,.1h.21l.1-.1,.13,.05,.57,.1,.16,.1,.18,.23,.05-.1,.08,.18,.31,.31-.31,.08-.08,.08,.16,.08-.21,.16-.44,.05-.08,.18-.13,.05-.16-.13h-.31l-.16,.08-.34-.16-.42,.08-.57,.21-.16-.1-1.61,.36-.29,.16,.05,.62,.08,.16v.57l-.08,.13,.08,.05v1.56l-.1,.23,.1,.08-.08,.05,.08,.23-.16,.52h.16v.29l-.08,.1-.03,.65-.08-.05-.05,.1v.52l.47-.1h.96l.08,.05,.05-.1h.23l.16,.05,.26-.1h.16l.08,.05,.05-.08,.23,.08h.23l.23,.1,.1,.29-.23,.34v.13l-.1,.05,.08,.18h-.1l-.13,.23h-.21l-.47,.1-.03,.08h-.21l-.49,.16-.13,.08h-.1l-.13,.1h-.42l-.49,.29v.18l-.08,.05-.13-.13v.31l.1,.16,.13-.34v.18l-.08,.1,.08,.18v.23h-.1l-.16,.18,.03,.47,.08-.31,.1,.13-.05-.29-.05-.08Zm-1.17,5.12l.05,.08-.05-.23v.16Zm6.68,.47l.18-.13v.16l-.29,.26v-.29h.1Z"/><path class="cls-5" d="M311.97,162.17l.1-.13-.23,.1-.13-.29-.08,.29-.1-.1-.23,.52-.36-.16v-5.3l-.08-.86v-1.2l.1-.31-.05-.34-.08-3.09-.13-.18v-4.32l.05-.65-.05-.68h-.62l-.08-.08-.39-.1-.05-.1-.23-.05-.49-.31-.29-.29-.13-.05,.26-.68h.23l.1,.08h2.81l.13,.05,.36-.13,.05,.08h.18l.49,.18,.1,.16,.18,.13h.13v.31l.1-.08,.08,.23-.13,.13h-.13l-.31,.13-.1,.18h-.1l-.18-.13-.13,.05,.1,.75-.1,.47,.13,.62v4.19l-.08,.26,.08,.29,.05,.88-.05-.1v.52l.05,.18,.05,.96v2.03l-.1,.18,.1,.23-.08,.34,.08,.31v.26l.08,.18v.42l-.08,.23,.1,.1v1.74l-.1,.13v.16l-.1,.13h-.1l-.08,.42,.08,.08-.16,.78-.05-.08-.08,.34-.1-.1-.05,.91-.05-.65-.1-.18Zm.81-.73h-.1l.05-.13,.05,.13Z"/></g><g id="Grupo_1881"><g class="cls-13"><g id="Grupo_1880"><g id="Grupo_1873" class="cls-15" transform="translate(117.88 187.709)"><g id="Grupo_1872"><g class="cls-12"><g id="Grupo_1871"><path id="Caminho_1667" class="cls-5" d="M286.88,168.71l-.2-.3-.9,.3h1.1Z"/><path id="Caminho_1668" class="cls-5" d="M278.18,168.41c-.8,.3-2.3,.5-2.3,1l1.4-.5c.2,.4,1.1,.4,2,.3h-.9c.2-.1,.1-.3,.3-.4,1.4,.2,1.8-.4,3.1,.1h-.1l1-.3c.3,.1,.2,.3,.1,.3,.9-.3,1.9-.4,2.9-.4-1-.8-2.8,.6-3.7-.2h.1c-1.3,.4-2.7-.1-3.9,.1"/><path id="Caminho_1670" class="cls-5" d="M232.28,168.01l-.1,.1c.1,0,.1-.1,.1-.1"/><path id="Caminho_1671" class="cls-5" d="M247.68,169.51h0c-.2,.1-.1,.1,0,0"/><path id="Caminho_1672" class="cls-5" d="M148.28,168.21l-.3-.2c0,.1,.2,.2,.3,.2"/><path id="Caminho_1674" class="cls-5" d="M136.98,170.41v.2q.1-.2,0-.2"/><path id="Caminho_1675" class="cls-5" d="M130.28,170.71c-.2,0-.4-.1-.6-.1,.2,.1,.4,.1,.6,.1"/><path id="Caminho_1676" class="cls-5" d="M127.78,168.01q-.1,0-.2,.1c0-.1,.1-.1,.2-.1"/><path id="Caminho_1677" class="cls-5" d="M147.08,170.61l.3,.4c-.1-.1-.2-.2-.3-.4"/><path id="Caminho_1678" class="cls-5" d="M128.58,171.01c-.1-.1-.2-.1-.4-.1,.2,0,.3,.1,.4,.1"/><path id="Caminho_1679" class="cls-5" d="M276.78,168.51c.2,0,.4,0,.7-.1-.3,0-.5,0-.7,.1"/><path id="Caminho_1680" class="cls-5" d="M184.78,171.01c-.1,0-.1,.1-.1,.2q.2-.1,.1-.2"/><path id="Caminho_1683" class="cls-5" d="M157.78,171.41c-.1,0-.2,.1-.2,.1l.2-.1Z"/><path id="Caminho_1684" class="cls-5" d="M153.18,170.91c.2,.1,0,.3-.2,.4,1.2,.2,1.6-.3,2.8,0l-.6-.2c1-.3,2-.3,2.9,0l-.2,.1c.7-.3,1.9,.3,2.2,0-.3-.2,0-.3-.5-.4l1.9-.3,.1,.5,1-.2c-.2-.2,1.3,.2,1.4-.3,.6,.2-.2,.4-.4,.6,.6-.2,.6,.1,1.1-.2l.6,.5,1.5-.3c-.1,0,0,.1-.1,.1,.7-.4,1.7,.2,2.5-.5v.1c.5-.4,1.6-.1,2,0,.8-.1,.3-.5,.3-.7,2.2,.1,1.5,.1,3.3-.5,1.1,.6-1.3,1,.1,1.4,.7-.4,1.5-.6,2.2-.6,1.2,.2,2.5,.4,3.6,.8l-.1-.4,1.4-.2-.8,.6c.2-.1,.9-.4,1.4-.6,1.5-.3,.8,.8,2,.3l.1,.1c.4-.3,1.3-.2,2.4-.3l-.4,.5-.7-.1c.4,.5,1.2-.1,1.9-.1,.7-.2,.4-.6,.8-.7,.3,0,.7-.1,.9,0,.6,.2,.1,.6-.1,.8,.6-.5,.7-.4,2-.6,.1,.2,0,.3-.2,.4,.2,0,.5-.2,.6-.4l.4,.3c1.4,.4,1.4-.9,3.1-.8-.4,.3,1.4-.1,2,.3-.6,.1,.3,.7-.1,1,1.3,.2,.5-.6,1.6-.7l-.4,.6c1-.3,.3-.3,1.3-.5-.3,.2,.5,.2-.2,.4,1.4,.1,1,0,2.3,.1l.1-.6c.3,0,.5,.1,.7,.3-.2,0-.4,0-.4,.1,.5,.5,.8-.3,1.3,.2-.1-.2-.3-.5,.2-.5-.2,.4,.8,.3,.8,.5-.3-.3,1.1-.1,1.2-.5,.6,.3-.2,.3-.2,.5,.5-.5,2.1-.1,2.5-.3v.1c.6-.3,1.6-.4,2.9-.8l-.4,.3c1.2,.1,.8-.7,1.8-.7-.2,.5,1.7,0,1.2,.5,.6-.2,1.2-.5,1.7-.8,.6,.3-1.1,.7-.3,.8l.9-.3,.2,.3c0-.2,.8-.2,.8-.4,.1,.3,.5,.5,.5,.8,.6-.1,1.3,.2,1.8-.1v.2c.5-.6,1.7-.1,2-.7l.3,.3c.8-.1,.7-.7,1.1-.8,.4-.1,.7-.1,1.1,0-1.1,.4,.6,.5,.8,.7,.7,0,1.4-.1,2.1-.3-.5,.3-.2,.6-1.1,.6,.5,.6,1.4-.1,2.5-.1v.3c1.5-.2,1.5-.7,2.2-1.1,.2,.3,0,.4-.4,.8,1.2,.1,2.5,.1,3.7,0,.4,.2,.1,.4-.3,.5,1.2-.3,2.6,.1,3.3-.5-.3,.2,.5,.2,.9,.3,0-.1,.1-.3,.1-.3,1-.3,2.1-.4,3.1-.3l-.3,.2c1.9,.1,2.8-.9,4.9-.5,.4,.1-.4,.5,.4,.5,.4-.2,.3-.7,1.2-.6l-.1,.4,.7-.4c-.3-.3-1.4-.2-.7-.6,.9,.4,.8-.4,1.8,.1-.3,.1-.5,.3-.7,.5,2.2,.5,3.1-.4,5.4,.1,1.1-.3,2.6-.4,3.3-.7,0,.4-.2,.8-.6,1.1,1,.1,1.4-.8,2.1-.3,.5-.5,2.7-.3,2.9-1.1,0,.2,1,0,0,.4,1.3-.2,1.7,.7,2.3,.7,.3,0-.4-.5,.4-.5,.1,0,.1,.1,.2,.1l.3-.2c.3,.2-.3,.4-.4,.6,1.1,.2,1.8-.4,3.1-.5l-.2,.1h1.2l1-.3v.2c.2-.1,.3-.2,.6-.2l-.1,.2c.7-.4,1.4-.6,2.2-.6l.1,.1,1.4-.5c.8,.3-1,.6,.5,.4l-.4,.5c1.1-.2,1.2,.1,2-.1-.3-.3-.8-.2-.5-.4,.8,.6,1.3-.1,2.1-.4-.3-.1-.7,.1-1,.3-.4,0-.2-.3-.4-.3l-.6,.3-.2-.3-1,.3c.1-.4-1-.1-.6-.5-.7,.2-1.2-.1-1.8,.3-.5-.2,.8-.3,.3-.3-3,.3-6,.3-9,.1l.3-.2c-.3,.2-.7,.3-.9,.5-.5-.3-2.5-.7-3.2-.1-.1,0,.1-.1,.1-.2-1,.1-2.8-.3-4.3-.3-.6,.6-2.2-.4-2.7,.5l.3-.2c.5,.2-.7,.6-.9,.8-.4-.6,0-.4-.5-.9l.6,.2-.1-.5c-1.8,1.2-3.4-.5-4.6,.3,.1,0,.1-.1,.1-.2-.8-.3-1.3,.3-1.9,.5-.1-.2,.3-.4,.6-.6-1.3-.2-3.6,.4-5.1,.1-.5,.3,.2,.4-.3,.7-.5-.1-.8-.3-.2-.5-1.3-.6-4.2,.4-6.2-.2-1,.3-.4,.5-2,.7,.4-.2-.4-.8,.6-.8l.1-.2c-1.6,0-3.7-.1-4.5,.6,0-.5-.3-.1-.9-.4-.2,.1,0,.1,.1,.1-.6,.4-.9,0-1.3,.1l.1-.1-1.1,.3c-.2-.1-.5-.2-.5-.3v.4c-.6,0-.3-.4-1-.4l.2,.3c-.5-.2-1.2,.2-1.3-.2,0-.1,.1,0,.2-.1-.7-.5-1.9,.2-2.9-.1l.2,.6c-.9,.2-.5-.1-.5-.3-.6,0-.7-.2-1.5-.2-.4,.1-.2,.2-.3,.4l-.8-.1,.5-.3c-1.2,.8-3.1-.1-4,.7-.5-.2,.4-.3,.1-.4-1.5-.4-3.3,.5-4.5,.1-2-.4-4.3,0-6.5-.3v.2l-1.6-.1c-.4,.3-1.5,.2-2.2,.6,.1-.1-.1-.3,.1-.4-.6,.1-1.2,.1-1.8,0l.2-.1c-1.4-.1-2.9-.1-4.3,.2-.5,0-.5-.2-.6-.4-.7,0-1.5,.1-2.1,.4l-.6-.3-.3,.4c-.4-.1-.1-.3-.4-.4-1.3,.4-2.9,0-3.9,.1l.1,.2c-.4,.1-1.1-.1-.7-.3-1.9-.2-2.8,.6-5.3,.5-.4-.7-2.3,.2-2.6-.6-1.1,.2-1.8-.1-2.5,.3,0-.1-.1-.1,.1-.1-.4-.3-1.8-.1-2.9,.1l-.1-.2c-.4,.5-2.2,.4-2.6,.8-.1-.1,.2-.2,.4-.3-.6-.5-1,.2-1.7,.1,.1-.1-.2-.3,0-.4-2.4-.5-5.8,.4-9,0-.9,0,.3,.5-.8,.5-.3-.3,.6-.5-.2-.6-.5,.3-.7,.2-1.4,.2,.1-.2,0-.3,.5-.4-.4-.2-1.7,.4-2.5,0,0,.2-.1,.2-.3,.3-1.2,.4-2.7-.4-2.8-.2,0,0-.4,.1-.1,.1-.4,0-1.1-.1-.9-.3-.2,.2-.5,.3-.8,.4l.2-.3-.6,.3,.3,.2c-.5-.2-1.5,.3-1.4-.2h.2l-.9-.2c-.4,.3-.9,.4-1.4,.4-.2-.6-1.6-.1-2.4-.2v-.2c-.6,.3-2.2,.2-1.9,.3-.6,0-1.4-.1-1.1-.3-.5,.1-1.5,.1-1.8,.4l-1-.5c-.6,.7-2-.3-2,.5-.5-.1-.4-.3-.8-.4-.7,.3-1.6,.4-2.3,.2v-.1c-.8-.1-1.7,.3-2.8,.4l-.2-.6c-.6,.1-.7,.5-1.3,.4-.1-.1,0-.1,.1-.1-.6,.1-1.1,0-1.7-.2-.8,.4-1.5,.3-2.2,.7-.7-.5,1-.2,.4-.7-1.2-.2-2.5-.1-3.7,.3-.1-.1,0-.2,.1-.3,0,0-2.7,1.4-2.2,1.9-.3,.4-.7,.6,.4,.9,.4-.2,1.4-.5,1.6-.1l.1-.4c1.5-.2,.1,.8,1.9,.8l-.4-.1c.3,0,.6-.3,1-.1,.1,.1-.1,.2-.3,.3l1.5-.5c.1,.2,0,.4-.3,.5,1.4,0-.3-.7,1.4-.6,.3,.2-.1,.2-.3,.4,.8,.3,1.3,0,2.1-.2,0,.4-.5,.3,.1,.5-.1-.2-.2-.5,.3-.5-.2,.4,.4,.2,.9,.3-.1-.1-.1-.2,0-.3,0,0,.1,0,.1-.1,.2-.1,.5,.1,.8,.1l-.6-.3c.9-.3,1.3,.2,2,.3-.1,.1-.2,.1-.3,.1,.7,.3,1.5,.3,2.3,.1h-.1c1.6-.3-.5-.6,1.4-.9,.6,.1-.3,1.2,1.1,.7-.7-.3,.9-.7,1.8-.9l-.8,.7c.4-.1,.7-.1,1.1-.1v-.2c-.1-.6,1.1,.1,1.7-.3-.7,.8-.8,.6-.9,1.4,.6-.5,1.5-.8,2.3-.7l-.9,.6c1.4,.1,3.1-.8,4.2-1.3-.3,.5,.2,.6-.3,1l1.4-.1-.4,.5c.6-.5,1.2-.2,1.1-.8-.1,.1-.1,.2-.4,.1,0-.2,.3-.6,1-.6,.5,.2-.3,.3-.1,.4,.4-.3,.5,.2,.9,0l-.4-.3c.3-.4,.8,0,1.2-.2-.6,.2-.4,.4-.2,.6h0c.3,0,.8-.3,1-.1l-.3,.5,.5-.4c.2,.1,.3,.3,0,.4,1.5,.3,0-1.1,2-.6,0,.2-.3,.3-.8,.2-.1,.3,0,.5,.6,.6v.1c1.2-.2,2.2-.4,3.2-.7"/><path id="Caminho_1685" class="cls-5" d="M149.98,171.31c-.4,0-.8,0-1.3,.1,.2,0,1.4,.2,1.3-.1"/><path id="Caminho_1686" class="cls-5" d="M232.98,170.71q-.1,0-.2,.1c.1-.1,.2-.1,.2-.1"/><path id="Caminho_1687" class="cls-5" d="M237.48,170.51q-.1-.1-.2-.1c0,.1,0,.2,.2,.1"/><path id="Caminho_1689" class="cls-5" d="M216.68,171.01c.4-.2,.5-.3,.6-.4-.3,0-.5,.2-.6,.4"/><path id="Caminho_1690" class="cls-5" d="M208.08,170.81c-.1,0-.1,.1-.2,.1,.2,0,.2-.1,.2-.1"/><path id="Caminho_1691" class="cls-5" d="M189.98,171.11c.4-.1,.9-.2,1.3-.3-.4,.2-1.1,0-1.3,.3"/><path id="Caminho_1692" class="cls-5" d="M242.88,170.01l-.4,.3,.4-.3h0Z"/><path id="Caminho_1693" class="cls-5" d="M238.78,170.11c-.2-.1-.9,.1-.7,.2,.2,0,.4-.1,.7-.2"/><path id="Caminho_1694" class="cls-5" d="M222.78,169.91l-.2,.3,.4-.2-.2-.1Z"/></g></g></g></g><g id="Grupo_1876" class="cls-15" transform="translate(119.723 192.075)"><g id="Grupo_1875"><g class="cls-11"><g id="Grupo_1874"><path id="Caminho_1695" class="cls-5" d="M170.12,173.07v-.3l-.3,.3h.3Z"/><path id="Caminho_1696" class="cls-5" d="M167.52,172.77c-.2,.3-.7,.5-.7,1l.4-.5c.1,.4,.3,.4,.6,.3h-.3c.1-.1,0-.3,.1-.4,.4,.2,.5-.4,.9,.1h0l.3-.3c.1,.1,.1,.3,0,.3,.3-.2,.5-.4,.9-.4-.3-.8-.8,.6-1.1-.2h0c-.3,.4-.7-.1-1.1,.1"/><path id="Caminho_1700" class="cls-5" d="M128.82,172.57l-.1-.2c0,.1,0,.2,.1,.2"/><path id="Caminho_1703" class="cls-5" d="M123.42,175.07s-.1-.1-.2-.1q.1,.1,.2,.1"/><path id="Caminho_1705" class="cls-5" d="M128.42,174.97l.1,.4c0-.1-.1-.2-.1-.4"/><path id="Caminho_1706" class="cls-5" d="M122.92,175.37c0-.1-.1-.1-.1-.1l.1,.1"/><path id="Caminho_1707" class="cls-5" d="M167.12,172.87q.1,0,.2-.1c-.1,0-.2,0-.2,.1"/><path id="Caminho_1711" class="cls-5" d="M131.62,175.77l-.1,.1,.1-.1Z"/><path id="Caminho_1712" class="cls-5" d="M130.22,175.27c0,.1,0,.3-.1,.4,.3,.2,.5-.3,.8,0l-.2-.2c.1-.2,.5-.3,.7-.2,.1,0,.1,.1,.2,.2l-.1,.1c.2-.3,.6,.3,.7,0-.1-.2,0-.3-.1-.4l.6-.3v.5l.3-.2c-.1-.2,.4,.2,.4-.3,.2,.2-.1,.4-.1,.6,.2-.2,.2,.1,.3-.2l.2,.5,.4-.3v.1c.2-.4,.5,.2,.8-.5v.1c.1-.4,.5-.1,.6,0,.2-.1,.1-.5,.1-.7,.7,.1,.4,.1,1-.5,.3,.6-.4,1,0,1.4,.1-.3,.4-.5,.7-.6,.4,.2,.8,.4,1.1,.8v-.4l.4-.2-.2,.6c.1-.2,.3-.4,.4-.6,.4-.3,.2,.8,.6,.3v.1c.1-.3,.4-.2,.7-.3l-.1,.5-.2-.1c.1,.5,.4-.1,.6-.1,.2-.2,.1-.6,.2-.7,.1,0,.2-.1,.3,0,.2,.2,0,.6,0,.8,.2-.5,.2-.4,.6-.6,0,.2,0,.3-.1,.4,.1-.1,.2-.2,.2-.4l.1,.3c.4,.4,.4-.9,.9-.8-.1,.3,.4-.1,.6,.3-.2,.1,.1,.7,0,1,.4,.2,.2-.6,.5-.7l-.1,.6c.3-.3,.1-.3,.4-.5-.1,.2,.1,.2,0,.4,.4,.1,.3,0,.7,.1v-.6c.1-.1,.2,.2,.2,.3q-.1,0-.1,.1c.1,.5,.2-.3,.4,.2,0-.2-.1-.5,.1-.5,0,.4,.2,.3,.2,.5-.1-.3,.3-.1,.3-.5,.2,.3-.1,.3-.1,.5,.1-.5,.6-.1,.7-.3v.1c.2-.3,.5-.4,.9-.8l-.1,.3c.4,.1,.2-.7,.5-.7-.1,.5,.5,0,.4,.5,.2-.2,.4-.5,.5-.8,.2,.3-.3,.7-.1,.8l.3-.3v.3c0-.2,.2-.2,.2-.4,.1,.3,.1,.5,.1,.8,.2-.1,.4,.2,.5-.1v.2c.2-.6,.5-.1,.6-.7l.1,.3c.3-.1,.2-.7,.3-.8,.1,0,.2-.1,.3,0-.3,.4,.2,.5,.2,.7,.3,0,.5-.1,.6-.3-.2,.3-.1,.6-.3,.6,.1,.6,.4-.1,.7-.1v.3c.4-.2,.5-.7,.7-1.1,0,.3,0,.5-.1,.8,.3,.2,.8,0,1.1,0,.1,.2,.1,.4-.1,.5,.3-.3,.8,.1,1-.5-.1,.2,.1,.2,.3,.3v-.3c.2-.2,.7-.5,.9-.3l-.1,.2c.6,.1,.8-.9,1.5-.5,.1,.1-.1,.5,.1,.5,.1-.2,.1-.7,.4-.6v.4l.2-.4c-.1-.3-.4-.2-.2-.6,.3,.4,.2-.4,.5,.1-.1,.2-.2,.3-.2,.5,.7,.5,.9-.4,1.6,.1,.3-.3,.8-.4,1-.7,0,.4,0,.7-.2,1.1,.3,.1,.4-.8,.6-.3,.1-.5,.8-.3,.9-1.1,0,.2,.3,0,0,.4,.4-.2,.5,.7,.7,.7,.1,0-.1-.5,.1-.5,0,0,0,.1,.1,.1l.1-.2c.1,.2-.1,.4-.1,.6,.3,.2,.5-.4,.9-.5l-.1,.1h.4l.3-.3v.2c.1-.1,.1-.2,.2-.2v.2c.1-.3,.3-.5,.6-.6v.1l.4-.5c.2,.3-.3,.6,.2,.4l-.1,.5c.3-.2,.4,.1,.6-.1-.1-.3-.2-.2-.1-.4,.3,.6,.4-.1,.6-.4-.1,0-.2,0-.3,.3-.1,0,0-.3-.1-.3l-.2,.3-.1-.3-.3,.3c0-.4-.3-.1-.2-.5-.2,.2-.3-.1-.5,.3-.1-.2,.2-.3,.1-.3-.9,.3-1.8,.3-2.7,.1l.1-.2c-.1,.2-.2,.3-.3,.5-.2-.3-.8-.7-1-.1v-.2c-.3,.1-.8-.3-1.3-.3-.2,.6-.6-.4-.8,.5l.1-.2c.1,.2-.2,.6-.3,.8-.1-.6,0-.4-.2-.9l.2,.2v-.5c-.5,1.2-1-.5-1.4,.3v-.2c-.2-.3-.4,.3-.6,.5,0-.2,.1-.4,.2-.6-.4-.2-1.1,.4-1.5,.1-.2,.3,.1,.4-.1,.7-.2-.1-.2-.3-.1-.5h0c-.4-.6-1.3,.4-1.8-.2-.3,.3-.1,.5-.6,.7,.1-.2-.1-.8,.2-.8v-.2c-.5,0-1.1-.1-1.3,.6,0-.5-.1-.1-.3-.4-.1,.1,0,.1,0,.1-.2,.4-.3,0-.4,.1v-.1l-.3,.3c-.1-.1-.1-.2-.2-.3v.4c-.2,0-.1-.4-.3-.4v.3c-.1-.2-.4,.2-.4-.2,0-.1,0,0,.1-.1-.2-.5-.6,.2-.9-.1l.1,.6c-.3,.2-.2-.1-.2-.3-.2,0-.2-.2-.5-.2-.1,.1-.1,.2-.1,.4l-.2-.1,.2-.3c-.4,.8-.9-.1-1.2,.7-.1-.2,.1-.3,0-.4-.4-.4-1,.5-1.4,.1-.6-.4-1.3,0-1.9-.3v.2l-.5-.1c-.1,.3-.4,.2-.6,.6v-.4c-.2,0-.4,.2-.5,0l.1-.1c-.4-.1-1.1-.1-1.3,.2-.2,0-.1-.2-.2-.4-.3,0-.4,.1-.6,.4-.1-.1-.1-.2-.2-.3l-.1,.4c-.1-.1,0-.3-.1-.4-.4,.4-.9,0-1.1,.1v.2c-.1,.1-.3-.1-.2-.3-.6-.2-.8,.6-1.6,.5-.1-.7-.7,.2-.8-.6-.3,.2-.5-.1-.7,.3v-.1c-.1-.3-.5-.1-.9,.1v-.2c-.1,.5-.7,.4-.8,.8,0-.1,.1-.2,.1-.3-.2-.5-.3,.2-.5,.1v-.4c-.7-.5-1.7,.4-2.7,0-.3,0,.1,.5-.2,.5-.1-.3,.2-.5,0-.6-.2,.3-.2,.2-.4,.2,0-.2,0-.3,.1-.4-.1-.2-.5,.4-.7,0,0,.1,0,.2-.1,.3-.4,.4-.8-.4-.8-.2,0,0-.1,.1,0,.1-.2,0-.3-.1-.3-.3v-.1c-.1,.1-.1,.3-.2,.4l.1-.3c-.1,.1-.1,.2-.2,.3l.1,.2c-.1-.2-.4,.3-.4-.2h.1l-.3-.2c-.1,.2-.2,.4-.4,.4-.1-.6-.5-.1-.7-.2v-.2c-.2,.3-.7,.2-.6,.3-.2,0-.4-.1-.3-.3-.1,.1-.5,.1-.5,.4l-.3-.5c-.2,.7-.6-.3-.6,.5-.2-.1-.1-.3-.2-.4-.1,.3-.4,.4-.7,.2h0v-.1c-.2-.1-.5,.3-.8,.4l-.1-.6c-.2,.1-.2,.5-.4,.4v-.1h0c-.2,.1-.4,0-.5-.2-.2,.4-.4,.3-.7,.7-.2-.5,.3-.2,.1-.7-.4-.3-.7,0-1.1,.3v-.3s-.8,1.4-.6,1.9c-.1,.4-.2,.6,.1,.9,.1-.2,.4-.5,.5-.1v-.4c.4-.2,0,.8,.6,.8l-.1-.1c.1,0,.2-.3,.3-.1,0,.1,0,.2-.1,.3l.4-.5c0,.2,0,.4-.1,.5,.4,0-.1-.7,.4-.6,.1,.2,0,.2-.1,.4,.2,.3,.4,0,.6-.2,0,.4-.2,.3,0,.5,0-.2-.1-.5,.1-.5-.1,.4,.1,.2,.3,.3v-.4c.1-.1,.1,.1,.2,.1l-.2-.3c.3-.3,.4,.2,.6,.3q0,.1-.1,.1c.2,.1,.4,.4,.7,.1h0c.5-.3-.1-.6,.4-.9,.2,.1-.1,1.2,.3,.7-.2-.3,.3-.7,.5-.9l-.3,.7c.1,0,.3-.2,.3-.1v-.2c0-.6,.3,.1,.5-.3-.2,.5-.3,.9-.3,1.4,.2-.4,.4-.8,.7-.7l-.3,.6c.4,.1,.9-.8,1.3-1.3-.1,.5,0,.6-.1,1l.4-.1-.1,.5c.2-.5,.3-.2,.3-.8,0,.1,0,.2-.1,.1,0-.2,.1-.6,.3-.6,.1,.2-.1,.3,0,.4,.1-.3,.1,.2,.3,0l-.1-.3c.1-.4,.2,0,.4-.2-.2,.2-.1,.4,0,.6h0c.1,0,.2-.3,.3-.1l-.1,.5,.1-.4c.1,.1,.1,.2,0,.4,.5,.3,0-1.1,.6-.6,0,.2-.1,.3-.2,.2,0,.3,0,.5,.2,.6v.1c.6-.2,1-.2,1.2-.6"/><path id="Caminho_1713" class="cls-5" d="M129.32,175.67c-.2,0-.3,0-.4,.1,0,0,.4,.2,.4-.1"/><path id="Caminho_1715" class="cls-5" d="M155.42,174.87s0-.1-.1-.1c0,.1,0,.2,.1,.1"/><path id="Caminho_1717" class="cls-5" d="M149.22,175.37c.1-.1,.2-.3,.2-.4-.1,0-.2,.1-.2,.4"/><path id="Caminho_1719" class="cls-5" d="M141.22,175.47c.1-.2,.3-.2,.4-.3-.1,.2-.3,0-.4,.3"/><path id="Caminho_1720" class="cls-5" d="M157.02,174.37l-.1,.3,.1-.3h0Z"/><path id="Caminho_1721" class="cls-5" d="M155.72,174.47c-.1-.1-.3,.1-.2,.2,.1,0,.2-.1,.2-.2"/><path id="Caminho_1722" class="cls-5" d="M151.02,174.27l-.1,.3,.1-.3h0Z"/></g></g></g></g><g id="Grupo_1879" class="cls-15" transform="translate(226.773 192.075)"><g id="Grupo_1878"><g class="cls-14"><g id="Grupo_1877"><path id="Caminho_1723" class="cls-5" d="M282.87,173.07l-.1-.3-.3,.3h.4Z"/><path id="Caminho_1724" class="cls-5" d="M279.97,172.77c-.3,.3-.8,.5-.8,1l.5-.5c.1,.4,.4,.4,.6,.3h-.3c.1-.1,0-.3,.1-.4,.5,.2,.6-.4,1,.1h0l.3-.3c.1,.1,.1,.3,0,.3,.3-.3,.6-.4,1-.4-.3-.8-.9,.6-1.2-.2h0c-.3,.4-.8-.1-1.2,.1"/><path id="Caminho_1726" class="cls-5" d="M264.67,172.37v.1s.1-.1,0-.1"/><path id="Caminho_1727" class="cls-5" d="M269.87,173.87h0q-.1,.1,0,0"/><path id="Caminho_1728" class="cls-5" d="M236.87,172.57l-.1-.2c0,.1,0,.2,.1,.2"/><path id="Caminho_1730" class="cls-5" d="M233.07,174.77v.2q.1-.2,0-.2"/><path id="Caminho_1731" class="cls-5" d="M230.87,175.07c-.1,0-.1-.1-.2-.1q.1,.1,.2,.1h0"/><path id="Caminho_1733" class="cls-5" d="M236.47,174.97l.1,.4c0-.1-.1-.2-.1-.4"/><path id="Caminho_1734" class="cls-5" d="M230.37,175.37c0-.1-.1-.1-.1-.1,0,0,0,.1,.1,.1"/><path id="Caminho_1735" class="cls-5" d="M279.47,172.87c.1,0,.2,0,.2-.1,0,0-.1,0-.2,.1"/><path id="Caminho_1739" class="cls-5" d="M240.07,175.77l-.1,.1,.1-.1Z"/><path id="Caminho_1740" class="cls-5" d="M238.47,175.27c.1,.1,0,.3-.1,.4,.4,.2,.5-.3,.9,0l-.2-.2c.2-.3,.6-.3,.8-.1,.1,0,.1,.1,.1,.1l-.1,.1c.2-.3,.6,.3,.7,0-.1-.2,0-.3-.2-.4l.6-.3v.5l.3-.2c-.1-.2,.4,.2,.5-.3,.2,.2-.1,.4-.1,.6,.2-.2,.2,.1,.4-.2l.2,.5,.5-.3v.1c.2-.4,.6,.2,.8-.5v.1c.2-.4,.5-.1,.7,0,.3-.1,.1-.5,.1-.7,.7,.1,.5,.1,1.1-.5,.4,.6-.4,1,0,1.4,.1-.3,.4-.6,.7-.6,.4,.2,.9,.4,1.2,.8v-.4l.5-.2-.3,.6c.1-.2,.3-.4,.5-.6,.5-.3,.3,.8,.7,.3v.1c.1-.3,.4-.2,.8-.3l-.1,.5-.2-.1c.1,.5,.4-.1,.6-.1,.2-.2,.1-.6,.3-.7,.1,0,.2-.1,.3,0,.2,.2,0,.6,0,.8,.2-.5,.2-.4,.7-.6,0,.2,0,.3-.1,.4,.1-.1,.2-.2,.2-.4l.1,.3c.5,.4,.5-.9,1-.8-.1,.3,.5-.1,.7,.3-.2,.1,.1,.7,0,1,.4,.2,.2-.6,.5-.7l-.1,.6c.3-.3,.1-.3,.4-.5-.1,.2,.2,.2-.1,.4,.5,.1,.3,0,.7,.1v-.6c.1-.1,.2,.2,.2,.3q-.1,0-.1,.1c.2,.5,.3-.3,.4,.2,0-.2-.1-.5,.1-.5-.1,.4,.3,.3,.3,.5-.1-.3,.4-.1,.4-.5,.2,.3-.1,.3-.1,.5,.2-.5,.7-.1,.8-.3v.1c.2-.3,.5-.4,1-.8l-.1,.3c.4,.1,.3-.7,.6-.7-.1,.5,.6,0,.4,.5,.2-.2,.4-.5,.6-.8,.2,.3-.4,.7-.1,.8l.3-.3,.1,.3c0-.2,.3-.2,.3-.4,.1,.3,.1,.5,.1,.8,.2-.1,.4,.2,.6-.1v.2c.2-.6,.6-.1,.6-.7l.1,.3c.3-.1,.2-.7,.4-.8,.1,0,.2-.1,.4,0-.4,.4,.2,.5,.3,.7,.1,0,.6,0,.7-.3-.2,.3-.1,.6-.4,.6,.2,.6,.5-.1,.8-.1v.3c.5-.2,.5-.7,.7-1.1,.1,.3,0,.5-.1,.8,.3,.2,.9,0,1.2,0,.1,.2,.1,.4-.1,.5,.4-.3,.9,.1,1.1-.5-.1,.2,.2,.2,.3,.3v-.3c.2-.2,.8-.5,1-.3l-.1,.2c.6,.1,.9-.9,1.6-.5,.1,.1-.1,.5,.1,.5,.1-.2,.1-.7,.4-.6v.4l.2-.4c-.1-.3-.5-.2-.2-.6,.3,.4,.3-.4,.6,.1-.1,0-.2,.3-.2,.5,.7,.5,1-.4,1.8,.1,.4-.3,.9-.4,1.1-.7,0,.4,0,.7-.2,1.1,.3,.1,.5-.8,.7-.3,.2-.5,.9-.3,1-1.1,0,.2,.3,0,0,.4,.4-.2,.6,.7,.8,.7,.1,0-.1-.5,.1-.5,0,0,0,.1,.1,.1l.1-.2c.1,.2-.1,.4-.1,.6,.4,.2,.6-.4,1-.5l-.1,.1h.4l.3-.3v.2c.1-.1,.1-.2,.2-.2v.2c.1-.3,.4-.5,.7-.6v.1l.5-.5c.3,.3-.3,.6,.2,.4l-.1,.5c.4-.2,.4,.1,.6-.1-.1-.3-.3-.2-.2-.4,.3,.6,.4-.1,.7-.4-.1,0-.2,0-.3,.3-.1,0-.1-.3-.1-.3l-.2,.3-.1-.3-.3,.3c0-.4-.3-.1-.2-.5-.2,.2-.4-.1-.6,.3-.2-.2,.3-.3,.1-.3-1,.3-2,.3-3,.1l.1-.2c-.1,.2-.2,.3-.3,.5-.2-.3-.8-.7-1.1-.1v-.2c-.3,.1-.9-.3-1.4-.3-.2,.6-.7-.4-.9,.5l.1-.2c.2,.2-.2,.6-.3,.8,0-.3-.1-.6-.2-.9l.2,.2v-.5c-.6,1.2-1.1-.5-1.5,.3v-.2c-.3-.3-.4,.3-.6,.5,0-.2,.1-.4,.2-.6-.4-.2-1.2,.4-1.7,.1-.2,.3,.1,.4-.1,.7-.2-.1-.2-.3-.1-.4,0,0,0-.1,.1-.1-.4-.6-1.4,.4-2-.2-.3,.3-.1,.5-.6,.7,.1-.2-.1-.8,.2-.8v-.2c-.5,0-1.2-.1-1.5,.6,0-.5-.1-.1-.3-.4-.1,.1,0,.1,0,.1-.2,.4-.3,0-.4,.1v-.1l-.4,.3c-.1-.1-.2-.2-.2-.3v.4c-.2,0-.1-.4-.3-.4l.1,.3c-.2-.2-.4,.2-.4-.2,0-.1,0,0,.1-.1-.2-.5-.6,.2-.9-.1l.1,.6c-.3,.2-.2-.1-.2-.3-.2,0-.2-.2-.5-.2-.1,.1-.1,.2-.1,.4l-.3-.1,.2-.3c-.4,.8-1-.1-1.3,.7-.2-.2,.1-.3,0-.4-.5-.4-1.1,.5-1.5,.1-.7-.4-1.4,0-2.2-.3v.2l-.5-.1c-.1,.3-.5,.2-.7,.6v-.4c-.2,0-.5,.2-.6,0l.1-.1c-.5-.1-1.2-.1-1.4,.2-.2,0-.2-.2-.2-.4-.3,0-.5,.1-.7,.4-.1-.1-.2-.2-.2-.3l-.1,.4c-.1-.1,0-.3-.1-.4-.4,.4-1,0-1.3,.1v.2c-.1,.1-.4-.1-.2-.3-.6-.2-.9,.6-1.8,.5-.1-.7-.8,.2-.9-.6-.4,.2-.6-.1-.8,.3v-.1c-.1-.3-.6-.1-1,.1v-.2c-.1,.5-.7,.4-.9,.8,0-.1,.1-.2,.1-.3-.2-.5-.3,.2-.6,.1,0-.1-.1-.3,0-.4-.8-.5-1.9,.4-3,0-.3,0,.1,.5-.3,.5-.1-.3,.2-.5-.1-.6-.2,.3-.2,.2-.5,.2,0-.2,0-.3,.2-.4-.1-.2-.6,.4-.8,0,0,.1,0,.2-.1,.3-.4,.4-.9-.4-.9-.2,0,0-.1,.1,0,.1-.1,0-.3-.1-.3-.3-.1,.1-.1,.3-.3,.4l.1-.3c-.1,.1-.1,.2-.2,.3l.1,.2c-.2-.2-.5,.3-.5-.2h.1l-.3-.2c-.1,.2-.2,.4-.5,.4-.1-.6-.5-.1-.8-.2v-.2c-.2,.3-.7,.2-.6,.3-.2,0-.5-.1-.4-.3-.2,.1-.5,.1-.6,.4l-.3-.5c-.2,.7-.7-.3-.7,.5-.2-.1-.1-.3-.3-.4-.2,.3-.5,.4-.8,.2v-.1c-.3-.1-.6,.3-.9,.4l-.1-.6c-.2,.1-.2,.5-.4,.4v-.1c-.2,.1-.4,0-.6-.2-.3,.4-.5,.3-.7,.7-.2-.5,.3-.2,.1-.7-.4-.3-.8,0-1.2,.3v-.3s-.9,1.4-.7,1.9c-.1,.4-.2,.6,.1,.9,.1-.2,.5-.5,.5-.1v-.4c.5-.2,0,.8,.6,.8l-.1-.1c.1,0,.2-.3,.3-.1,0,.1,0,.2-.1,.3l.5-.5c0,.2,0,.4-.1,.5,.5,0-.1-.7,.5-.6,.1,.2,0,.2-.1,.4,.3,.3,.4,0,.7-.2,0,.4-.2,.3,0,.5,0-.2-.1-.5,.1-.5-.1,.4,.1,.2,.3,.3v-.4c.1-.1,.1,.1,.3,.1l-.2-.3c.3-.3,.4,.2,.7,.3q0,.1-.1,.1c.2,.1,.5,.4,.7,.1h0c.5-.3-.2-.6,.5-.9,.2,.1-.1,1.2,.4,.7-.2-.3,.3-.7,.6-.9l-.3,.7c.1,0,.3-.2,.4-.1v-.2c0-.6,.4,.1,.5-.3-.2,.5-.3,.9-.3,1.4,.2-.4,.4-.8,.8-.7l-.3,.6c.5,.1,1-.8,1.4-1.3-.1,.5,.1,.6-.1,1l.4-.1-.1,.5c.2-.5,.4-.2,.4-.8,0,.1,0,.2-.1,.1,0-.2,.1-.6,.3-.6,.2,.2-.1,.3,0,.4,.1-.3,.2,.2,.3,0l-.1-.3c.1-.4,.3,0,.4-.2-.2,.2-.1,.4-.1,.6h0c.1,0,.3-.3,.3-.1l-.1,.5,.2-.4c.1,.1,.1,.2,0,.4,.5,.3,0-1.1,.7-.6,0,.2-.1,.3-.3,.2,0,.3,0,.5,.2,.6v.1c.6-.3,1.1-.3,1.3-.7"/><path id="Caminho_1741" class="cls-5" d="M237.47,175.67c-.1,0-.3,0-.4,.1,0,0,.4,.2,.4-.1"/><path id="Caminho_1743" class="cls-5" d="M266.47,174.87s0-.1-.1-.1c0,.1,0,.2,.1,.1"/><path id="Caminho_1745" class="cls-5" d="M259.57,175.37c.1-.1,.2-.3,.2-.4-.1,0-.2,.1-.2,.4"/><path id="Caminho_1747" class="cls-5" d="M250.67,175.47c.1-.2,.3-.2,.4-.3-.1,.2-.3,0-.4,.3"/><path id="Caminho_1748" class="cls-5" d="M268.27,174.37l-.1,.3,.1-.3h0Z"/><path id="Caminho_1749" class="cls-5" d="M266.87,174.47c-.1-.1-.3,.1-.2,.2l.2-.2"/><path id="Caminho_1750" class="cls-5" d="M261.57,174.27l-.1,.3,.1-.3h0Z"/></g></g></g></g></g></g></g></g></g></svg>