<?xml version="1.0" encoding="utf-8"?>
<!-- Generator: Adobe Illustrator 24.0.1, SVG Export Plug-In . SVG Version: 6.00 Build 0)  -->
<svg version="1.1" xmlns="http://www.w3.org/2000/svg" xmlns:xlink="http://www.w3.org/1999/xlink" x="0px" y="0px"
	 viewBox="0 0 850.59 340.9" style="enable-background:new 0 0 850.59 340.9;" xml:space="preserve">
<style type="text/css">
	.st0{fill:#009E60;}
	.st1{fill:#CFCFE1;}
	.st2{display:none;}
	.st3{display:inline;}
	.st4{font-family:'CenturyGothic';}
	.st5{font-size:39.9151px;}
	.st6{letter-spacing:-1;}
	.st7{font-family:'CenturyGothic-Bold';}
	.st8{font-size:236.629px;}
	.st9{letter-spacing:-17;}
	.st10{font-size:236px;}
	.st11{letter-spacing:-23;}
	.st12{fill:#00B060;}
	.st13{fill:#00C260;}
	.st14{fill:#00D460;}
	.st15{font-size:45.412px;}
	.st16{letter-spacing:-4.35;}
</style>
<g id="Layer_1_copy">
	<g>
		<g>
			<path d="M227.47,240.13l3.46,1.82c-1.13,2.23-2.44,4.02-3.93,5.39c-1.49,1.37-3.16,2.41-5.01,3.12s-3.96,1.07-6.3,1.07
				c-5.2,0-9.27-1.7-12.2-5.11s-4.4-7.26-4.4-11.56c0-4.04,1.24-7.65,3.72-10.81c3.15-4.02,7.36-6.04,12.64-6.04
				c5.43,0,9.77,2.06,13.02,6.18c2.31,2.91,3.48,6.54,3.52,10.9H203.3c0.08,3.7,1.26,6.74,3.55,9.1c2.29,2.37,5.11,3.55,8.48,3.55
				c1.62,0,3.2-0.28,4.74-0.85c1.54-0.56,2.84-1.31,3.92-2.25C225.05,243.72,226.21,242.21,227.47,240.13z M227.47,231.55
				c-0.55-2.19-1.34-3.94-2.39-5.24c-1.05-1.31-2.43-2.36-4.15-3.16s-3.53-1.2-5.43-1.2c-3.13,0-5.82,1.01-8.07,3.02
				c-1.64,1.46-2.88,3.66-3.73,6.59H227.47z"/>
			<path d="M246.75,206.53v4.01c-1.5-0.64-2.79-0.97-3.87-0.97c-0.8,0-1.46,0.16-1.99,0.48s-0.86,0.69-1,1.11
				c-0.14,0.42-0.21,1.54-0.21,3.35l0,4.31h6.65v3.54h-6.66l-0.02,28.33h-4.1v-28.33h-4.19v-3.54h4.19v-4.98
				c0-2.29,0.21-3.92,0.63-4.89s1.13-1.76,2.14-2.36s2.22-0.89,3.65-0.89C243.3,205.71,244.89,205.98,246.75,206.53z"/>
			<path d="M259.59,206.53v4.01c-1.5-0.64-2.79-0.97-3.87-0.97c-0.8,0-1.46,0.16-1.99,0.48s-0.86,0.69-1,1.11
				c-0.14,0.42-0.21,1.54-0.21,3.35l0,4.31h6.65v3.54h-6.66l-0.02,28.33h-4.1v-28.33h-4.19v-3.54h4.19v-4.98
				c0-2.29,0.21-3.92,0.63-4.89s1.13-1.76,2.14-2.36s2.22-0.89,3.65-0.89C256.14,205.71,257.73,205.98,259.59,206.53z"/>
			<path d="M286.14,240.13l3.46,1.82c-1.13,2.23-2.44,4.02-3.93,5.39c-1.49,1.37-3.16,2.41-5.01,3.12s-3.96,1.07-6.3,1.07
				c-5.2,0-9.27-1.7-12.2-5.11s-4.4-7.26-4.4-11.56c0-4.04,1.24-7.65,3.72-10.81c3.15-4.02,7.36-6.04,12.64-6.04
				c5.43,0,9.77,2.06,13.02,6.18c2.31,2.91,3.48,6.54,3.52,10.9h-28.68c0.08,3.7,1.26,6.74,3.55,9.1c2.29,2.37,5.11,3.55,8.48,3.55
				c1.62,0,3.2-0.28,4.74-0.85c1.54-0.56,2.84-1.31,3.92-2.25C283.72,243.72,284.88,242.21,286.14,240.13z M286.14,231.55
				c-0.55-2.19-1.34-3.94-2.39-5.24c-1.05-1.31-2.43-2.36-4.15-3.16s-3.53-1.2-5.43-1.2c-3.13,0-5.82,1.01-8.07,3.02
				c-1.64,1.46-2.88,3.66-3.73,6.59H286.14z"/>
			<path d="M323.23,225.45l-3.25,2.02c-2.81-3.73-6.64-5.6-11.5-5.6c-3.88,0-7.11,1.25-9.67,3.75c-2.57,2.5-3.85,5.53-3.85,9.1
				c0,2.32,0.59,4.51,1.77,6.56c1.18,2.05,2.8,3.64,4.86,4.77s4.37,1.7,6.92,1.7c4.68,0,8.51-1.87,11.47-5.6l3.25,2.14
				c-1.52,2.29-3.57,4.07-6.14,5.34s-5.49,1.9-8.77,1.9c-5.04,0-9.22-1.6-12.54-4.8c-3.32-3.2-4.98-7.1-4.98-11.69
				c0-3.09,0.78-5.95,2.33-8.6s3.69-4.71,6.4-6.2c2.71-1.48,5.75-2.23,9.11-2.23c2.11,0,4.15,0.32,6.11,0.97s3.63,1.48,5,2.52
				C321.11,222.53,322.27,223.85,323.23,225.45z"/>
			<path d="M328.69,207h4.1v11.84h6.5v3.54h-6.5v28.33h-4.1v-28.33h-5.6v-3.54h5.6V207z"/>
			<path d="M340.87,205.71c0.93,0,1.73,0.33,2.39,1s0.99,1.46,0.99,2.4c0,0.92-0.33,1.71-0.99,2.37s-1.46,1-2.39,1
				c-0.91,0-1.7-0.33-2.36-1c-0.66-0.66-0.99-1.46-0.99-2.37c0-0.94,0.33-1.74,0.99-2.4C339.16,206.04,339.95,205.71,340.87,205.71z
				 M338.83,218.83h4.1v31.88h-4.1V218.83z"/>
			<path d="M342.44,218.83h4.37l10.7,23.24l10.57-23.24h4.39l-14.59,31.88h-0.76L342.44,218.83z"/>
			<path d="M399.54,240.13l3.46,1.82c-1.13,2.23-2.44,4.02-3.93,5.39c-1.49,1.37-3.16,2.41-5.01,3.12s-3.96,1.07-6.3,1.07
				c-5.2,0-9.27-1.7-12.2-5.11s-4.4-7.26-4.4-11.56c0-4.04,1.24-7.65,3.72-10.81c3.15-4.02,7.36-6.04,12.64-6.04
				c5.43,0,9.77,2.06,13.02,6.18c2.31,2.91,3.48,6.54,3.52,10.9h-28.68c0.08,3.7,1.26,6.74,3.55,9.1c2.29,2.37,5.11,3.55,8.48,3.55
				c1.62,0,3.2-0.28,4.74-0.85c1.54-0.56,2.84-1.31,3.92-2.25C397.13,243.72,398.29,242.21,399.54,240.13z M399.54,231.55
				c-0.55-2.19-1.34-3.94-2.39-5.24c-1.05-1.31-2.43-2.36-4.15-3.16s-3.53-1.2-5.43-1.2c-3.13,0-5.82,1.01-8.07,3.02
				c-1.64,1.46-2.88,3.66-3.73,6.59H399.54z"/>
			<path d="M531.34,250.71v-44.18h4.1v17.78c1.72-2.11,3.64-3.69,5.77-4.73c2.13-1.04,4.46-1.57,7-1.57c4.51,0,8.36,1.64,11.55,4.91
				c3.19,3.27,4.79,7.24,4.79,11.91c0,4.61-1.61,8.54-4.83,11.81c-3.22,3.26-7.09,4.89-11.62,4.89c-2.6,0-4.95-0.56-7.05-1.67
				c-2.11-1.11-3.97-2.78-5.59-5.01v5.86H531.34z M547.75,247.57c2.28,0,4.38-0.56,6.31-1.68c1.93-1.12,3.46-2.7,4.6-4.73
				s1.71-4.18,1.71-6.45s-0.58-4.42-1.72-6.47s-2.69-3.65-4.63-4.79c-1.94-1.14-4.01-1.71-6.21-1.71c-2.24,0-4.37,0.57-6.39,1.71
				s-3.57,2.68-4.65,4.61s-1.62,4.11-1.62,6.53c0,3.69,1.21,6.78,3.64,9.26S544.2,247.57,547.75,247.57z"/>
			<path d="M597.76,218.83v31.88h-4.04v-5.48c-1.72,2.09-3.65,3.66-5.79,4.72s-4.48,1.58-7.02,1.58c-4.51,0-8.36-1.64-11.56-4.91
				s-4.79-7.25-4.79-11.94c0-4.59,1.61-8.52,4.83-11.78s7.1-4.89,11.63-4.89c2.62,0,4.99,0.56,7.1,1.67s3.98,2.78,5.58,5.01v-5.86
				H597.76z M581.37,221.97c-2.28,0-4.39,0.56-6.32,1.68c-1.93,1.12-3.47,2.7-4.61,4.73c-1.14,2.03-1.71,4.17-1.71,6.44
				c0,2.24,0.58,4.39,1.73,6.44c1.15,2.05,2.7,3.64,4.64,4.78c1.94,1.14,4.02,1.71,6.25,1.71c2.24,0,4.37-0.57,6.38-1.7
				c2.01-1.13,3.55-2.66,4.64-4.59c1.08-1.93,1.62-4.11,1.62-6.53c0-3.69-1.21-6.77-3.64-9.25S584.92,221.97,581.37,221.97z"/>
			<path d="M617.01,222.32l-2.64,2.72c-2.19-2.13-4.34-3.19-6.43-3.19c-1.33,0-2.47,0.44-3.42,1.32c-0.95,0.88-1.42,1.9-1.42,3.08
				c0,1.04,0.39,2.02,1.17,2.96c0.78,0.96,2.43,2.08,4.93,3.37c3.05,1.58,5.13,3.11,6.22,4.57c1.08,1.48,1.61,3.15,1.61,5.01
				c0,2.62-0.92,4.83-2.76,6.65s-4.14,2.72-6.89,2.72c-1.84,0-3.59-0.4-5.27-1.2c-1.67-0.8-3.06-1.9-4.15-3.31l2.58-2.93
				c2.09,2.36,4.32,3.54,6.67,3.54c1.64,0,3.04-0.53,4.2-1.58c1.15-1.05,1.73-2.29,1.73-3.72c0-1.17-0.38-2.22-1.14-3.13
				c-0.76-0.9-2.49-2.03-5.17-3.4c-2.88-1.48-4.83-2.95-5.87-4.39s-1.56-3.1-1.56-4.95c0-2.42,0.83-4.43,2.48-6.04
				s3.74-2.4,6.27-2.4C611.09,218.01,614.04,219.45,617.01,222.32z"/>
			<path d="M619.7,205.71c0.93,0,1.73,0.33,2.39,1s0.99,1.46,0.99,2.4c0,0.92-0.33,1.71-0.99,2.37s-1.46,1-2.39,1
				c-0.91,0-1.7-0.33-2.36-1s-0.99-1.46-0.99-2.37c0-0.94,0.33-1.74,0.99-2.4S618.79,205.71,619.7,205.71z M617.67,218.83h4.1v31.88
				h-4.1V218.83z"/>
			<path d="M655.23,225.45l-3.25,2.02c-2.81-3.73-6.64-5.6-11.5-5.6c-3.88,0-7.11,1.25-9.67,3.75s-3.85,5.53-3.85,9.1
				c0,2.32,0.59,4.51,1.77,6.56c1.18,2.05,2.8,3.64,4.86,4.77c2.06,1.13,4.37,1.7,6.92,1.7c4.68,0,8.5-1.87,11.47-5.6l3.25,2.14
				c-1.52,2.29-3.57,4.07-6.14,5.34s-5.49,1.9-8.77,1.9c-5.04,0-9.22-1.6-12.54-4.8s-4.98-7.1-4.98-11.69c0-3.09,0.78-5.95,2.33-8.6
				s3.69-4.71,6.4-6.2s5.75-2.23,9.11-2.23c2.11,0,4.15,0.32,6.11,0.97s3.63,1.48,5,2.52S654.27,223.85,655.23,225.45z"/>
			<path d="M683.75,222.32l-2.64,2.72c-2.19-2.13-4.34-3.19-6.43-3.19c-1.33,0-2.47,0.44-3.42,1.32c-0.95,0.88-1.42,1.9-1.42,3.08
				c0,1.04,0.39,2.02,1.17,2.96c0.78,0.96,2.43,2.08,4.93,3.37c3.05,1.58,5.13,3.11,6.22,4.57c1.08,1.48,1.61,3.15,1.61,5.01
				c0,2.62-0.92,4.83-2.76,6.65s-4.14,2.72-6.89,2.72c-1.84,0-3.59-0.4-5.27-1.2c-1.67-0.8-3.06-1.9-4.15-3.31l2.58-2.93
				c2.09,2.36,4.32,3.54,6.67,3.54c1.64,0,3.04-0.53,4.2-1.58c1.15-1.05,1.73-2.29,1.73-3.72c0-1.17-0.38-2.22-1.14-3.13
				c-0.76-0.9-2.49-2.03-5.17-3.4c-2.88-1.48-4.83-2.95-5.87-4.39s-1.56-3.1-1.56-4.95c0-2.42,0.83-4.43,2.48-6.04
				s3.74-2.4,6.27-2.4C677.82,218.01,680.77,219.45,683.75,222.32z"/>
			<path d="M711.85,240.13l3.46,1.82c-1.13,2.23-2.44,4.02-3.93,5.39c-1.49,1.37-3.16,2.41-5.01,3.12
				c-1.86,0.71-3.96,1.07-6.31,1.07c-5.2,0-9.27-1.7-12.2-5.11s-4.4-7.26-4.4-11.56c0-4.04,1.24-7.65,3.72-10.81
				c3.15-4.02,7.36-6.04,12.64-6.04c5.43,0,9.77,2.06,13.02,6.18c2.31,2.91,3.48,6.54,3.52,10.9h-28.68c0.08,3.7,1.26,6.74,3.55,9.1
				c2.29,2.37,5.11,3.55,8.48,3.55c1.62,0,3.2-0.28,4.74-0.85c1.53-0.56,2.84-1.31,3.92-2.25
				C709.43,243.72,710.6,242.21,711.85,240.13z M711.85,231.55c-0.55-2.19-1.34-3.94-2.39-5.24c-1.05-1.31-2.43-2.36-4.15-3.16
				c-1.72-0.8-3.53-1.2-5.43-1.2c-3.13,0-5.82,1.01-8.07,3.02c-1.64,1.46-2.88,3.66-3.73,6.59H711.85z"/>
			<path d="M716.45,218.83h4.19v4.66c1.25-1.84,2.57-3.21,3.96-4.12s2.83-1.36,4.34-1.36c1.13,0,2.34,0.36,3.63,1.08l-2.14,3.46
				c-0.86-0.37-1.58-0.56-2.17-0.56c-1.37,0-2.69,0.56-3.96,1.68s-2.24,2.87-2.9,5.23c-0.51,1.82-0.76,5.49-0.76,11.02v10.78h-4.19
				V218.83z"/>
			<path d="M727.04,218.83h4.37l10.7,23.24l10.57-23.24h4.39l-14.59,31.88h-0.76L727.04,218.83z"/>
			<path d="M758.73,205.71c0.93,0,1.73,0.33,2.39,1s0.99,1.46,0.99,2.4c0,0.92-0.33,1.71-0.99,2.37s-1.46,1-2.39,1
				c-0.91,0-1.7-0.33-2.36-1s-0.99-1.46-0.99-2.37c0-0.94,0.33-1.74,0.99-2.4S757.81,205.71,758.73,205.71z M756.69,218.83h4.1
				v31.88h-4.1V218.83z"/>
			<path d="M794.25,225.45l-3.25,2.02c-2.81-3.73-6.64-5.6-11.5-5.6c-3.88,0-7.11,1.25-9.67,3.75s-3.85,5.53-3.85,9.1
				c0,2.32,0.59,4.51,1.77,6.56c1.18,2.05,2.8,3.64,4.86,4.77c2.06,1.13,4.37,1.7,6.92,1.7c4.68,0,8.5-1.87,11.47-5.6l3.25,2.14
				c-1.52,2.29-3.57,4.07-6.14,5.34s-5.49,1.9-8.77,1.9c-5.04,0-9.22-1.6-12.54-4.8s-4.98-7.1-4.98-11.69c0-3.09,0.78-5.95,2.33-8.6
				s3.69-4.71,6.4-6.2s5.75-2.23,9.11-2.23c2.11,0,4.15,0.32,6.11,0.97s3.63,1.48,5,2.52S793.3,223.85,794.25,225.45z"/>
			<path d="M822.97,240.13l3.46,1.82c-1.13,2.23-2.44,4.02-3.93,5.39c-1.49,1.37-3.16,2.41-5.01,3.12
				c-1.86,0.71-3.96,1.07-6.31,1.07c-5.2,0-9.27-1.7-12.2-5.11s-4.4-7.26-4.4-11.56c0-4.04,1.24-7.65,3.72-10.81
				c3.15-4.02,7.36-6.04,12.64-6.04c5.43,0,9.77,2.06,13.02,6.18c2.31,2.91,3.48,6.54,3.52,10.9H798.8c0.08,3.7,1.26,6.74,3.55,9.1
				c2.29,2.37,5.11,3.55,8.48,3.55c1.62,0,3.2-0.28,4.74-0.85c1.53-0.56,2.84-1.31,3.92-2.25
				C820.56,243.72,821.72,242.21,822.97,240.13z M822.97,231.55c-0.55-2.19-1.34-3.94-2.39-5.24c-1.05-1.31-2.43-2.36-4.15-3.16
				c-1.72-0.8-3.53-1.2-5.43-1.2c-3.13,0-5.82,1.01-8.07,3.02c-1.64,1.46-2.88,3.66-3.73,6.59H822.97z"/>
			<path d="M845.16,222.32l-2.64,2.72c-2.19-2.13-4.34-3.19-6.43-3.19c-1.33,0-2.47,0.44-3.42,1.32c-0.95,0.88-1.42,1.9-1.42,3.08
				c0,1.04,0.39,2.02,1.17,2.96c0.78,0.96,2.43,2.08,4.93,3.37c3.05,1.58,5.13,3.11,6.22,4.57c1.08,1.48,1.61,3.15,1.61,5.01
				c0,2.62-0.92,4.83-2.76,6.65s-4.14,2.72-6.89,2.72c-1.84,0-3.59-0.4-5.27-1.2c-1.67-0.8-3.06-1.9-4.15-3.31l2.58-2.93
				c2.09,2.36,4.32,3.54,6.67,3.54c1.64,0,3.04-0.53,4.2-1.58c1.15-1.05,1.73-2.29,1.73-3.72c0-1.17-0.38-2.22-1.14-3.13
				c-0.76-0.9-2.49-2.03-5.17-3.4c-2.88-1.48-4.83-2.95-5.87-4.39s-1.56-3.1-1.56-4.95c0-2.42,0.83-4.43,2.48-6.04
				s3.74-2.4,6.27-2.4C839.23,218.01,842.18,219.45,845.16,222.32z"/>
		</g>
		<g>
			<path class="st0" d="M141.88,149.54H40.55c1.46,8.94,5.37,16.04,11.73,21.32c6.35,5.28,14.46,7.91,24.32,7.91
				c11.79,0,21.91-4.12,30.39-12.36l26.57,12.48c-6.63,9.4-14.56,16.35-23.8,20.86c-9.24,4.51-20.22,6.76-32.93,6.76
				c-19.72,0-35.78-6.22-48.18-18.66c-12.4-12.44-18.6-28.02-18.6-46.74c0-19.18,6.18-35.1,18.54-47.78
				c12.36-12.67,27.86-19.01,46.5-19.01c19.8,0,35.89,6.34,48.3,19.01c12.4,12.67,18.6,29.41,18.6,50.2L141.88,149.54z
				 M110.34,124.69c-2.08-7.01-6.19-12.71-12.33-17.1c-6.13-4.39-13.25-6.59-21.35-6.59c-8.79,0-16.51,2.47-23.15,7.4
				c-4.17,3.08-8.03,8.51-11.57,16.29H110.34z"/>
			<path class="st1" d="M175.07,29.03v62.39c5.7-5.7,11.86-9.97,18.49-12.83c6.62-2.85,13.71-4.27,21.26-4.27
				c16.41,0,30.35,6.2,41.83,18.6c11.48,12.4,17.22,28.31,17.22,47.72c0,18.72-5.93,34.37-17.79,46.97
				c-11.86,12.59-25.92,18.89-42.17,18.89c-7.24,0-13.98-1.29-20.22-3.87c-6.24-2.58-12.44-6.8-18.6-12.65v13.29h-31.31V29.03
				H175.07z M208.23,103.44c-9.94,0-18.18,3.39-24.73,10.17c-6.55,6.78-9.82,15.64-9.82,26.57c0,11.17,3.27,20.2,9.82,27.09
				c6.55,6.89,14.79,10.34,24.73,10.34c9.63,0,17.74-3.5,24.32-10.51c6.59-7.01,9.88-15.94,9.88-26.81
				c0-10.78-3.24-19.62-9.71-26.52C226.25,106.88,218.09,103.44,208.23,103.44z"/>
			<path class="st1" d="M369.09,77.55h31.54v125.71h-31.54v-13.29c-6.16,5.85-12.33,10.07-18.52,12.65
				c-6.19,2.58-12.91,3.87-20.14,3.87c-16.23,0-30.28-6.3-42.12-18.89c-11.85-12.59-17.77-28.25-17.77-46.97
				c0-19.41,5.73-35.32,17.2-47.72c11.46-12.4,25.39-18.6,41.78-18.6c7.54,0,14.62,1.43,21.23,4.27
				c6.62,2.85,12.73,7.13,18.35,12.83V77.55z M335.93,103.44c-9.75,0-17.85,3.45-24.3,10.34c-6.45,6.89-9.67,15.73-9.67,26.52
				c0,10.86,3.28,19.8,9.84,26.81c6.56,7.01,14.64,10.51,24.24,10.51c9.9,0,18.12-3.45,24.64-10.34c6.52-6.89,9.79-15.92,9.79-27.09
				c0-10.94-3.26-19.8-9.79-26.57C354.16,106.83,345.91,103.44,335.93,103.44z"/>
			<path class="st1" d="M662.42,149.54H561.09c1.46,8.94,5.37,16.04,11.73,21.32c6.36,5.28,14.46,7.91,24.32,7.91
				c11.79,0,21.91-4.12,30.39-12.36l26.58,12.48c-6.63,9.4-14.56,16.35-23.8,20.86s-20.22,6.76-32.93,6.76
				c-19.72,0-35.78-6.22-48.18-18.66c-12.4-12.44-18.6-28.02-18.6-46.74c0-19.18,6.18-35.1,18.54-47.78
				c12.36-12.67,27.86-19.01,46.5-19.01c19.8,0,35.89,6.34,48.3,19.01c12.4,12.67,18.6,29.41,18.6,50.2L662.42,149.54z
				 M630.88,124.69c-2.08-7.01-6.19-12.71-12.33-17.1c-6.13-4.39-13.25-6.59-21.35-6.59c-8.8,0-16.51,2.47-23.15,7.4
				c-4.17,3.08-8.02,8.51-11.57,16.29H630.88z"/>
		</g>
		<g>
			<path class="st0" d="M411.76,90.7c1.77-1.93,3.48-3.91,5.33-5.77c6.6-6.65,14.52-10.68,23.51-12.76
				c8.84-2.05,17.82-2.82,26.82-3.42c12.88-0.86,25.78-0.91,38.66-1.63c2.21-0.12,4.43-0.26,6.64-0.53c2.15-0.27,4.08,0.64,5.99,1.4
				c3.6,1.42,7.02,3.24,10.7,4.47c1.13,0.37,2.27,0.69,3.41,1.03c0.23,0.07,0.46,0.12,0.68,0.2c0.83,0.33,1.77,0.66,1.75,1.74
				c-0.02,1-0.96,1.25-1.71,1.57c-1.53,0.65-3.18,0.79-4.79,1.12c-1.27,0.26-2.56,0.48-3.75,1.05c-1.1,0.53-1.16,1.19-0.17,1.89
				c1.08,0.76,2.25,1.4,3.45,1.96c0.29,0.14,0.75,0.24,0.75,0.6c0,0.41-0.51,0.39-0.8,0.52c-6.76,3.06-13.76,3.34-20.88,2.1
				c-15.82-2.75-31.8-3.58-47.86-2.68c-11.79,0.66-21.79,5.8-30.01,14.41c-5.34,5.59-5.86,12.16-3.7,19.14
				c1.55,5.01,4.14,9.38,8.26,12.63c3.76,2.97,8.05,4.97,12.66,6.35c5.44,1.64,11.06,1.81,16.67,2.05c2.3,0.1,2.31,0.08,2.19,2.43
				c-0.22,4.22-0.47,8.45-0.66,12.67c-0.04,0.77-0.32,0.96-1.04,1.01c-10.83,0.75-21.18-1.21-31.14-5.18
				c-7.9-3.15-14.83-7.71-20.29-14.37c-2.72-3.32-4.23-7.21-5.41-11.26c-1.62-5.56-2.46-11.24-1.79-17.09
				c0.31-2.71,0.97-5.35,2.07-7.87c0.18-0.41,0.28-0.85,0.42-1.27C409.06,95.05,410.41,92.87,411.76,90.7z M519.37,73.21
				c-0.78-0.5-2.46-0.11-2.97,0.69c-0.29,0.46-0.09,0.73,0.32,0.87c0.91,0.29,1.82,0.23,2.67-0.26
				C519.99,74.16,519.96,73.58,519.37,73.21z"/>
			<path class="st0" d="M490.01,39.25c0.53,0.61,1.07,1.22,1.6,1.84c3.64,4.25,3.19,8.84-0.04,13.27c-1.65,2.25-3.51,4.35-4.83,6.84
				c-0.36,0.68-0.67,1.38-0.6,2.16c0.08,0.95-0.45,1.43-1.28,1.57c-0.97,0.16-1.97,0.3-2.95,0.31c-4.47,0.06-8.93,0.07-13.4,0.13
				c-0.73,0.01-1.03-0.24-1.12-0.96c-0.16-1.19-0.39-2.37-0.63-3.54c-0.42-2.08-1.53-3.67-3.26-4.88c-1.33-0.93-2.68-1.84-3.67-3.18
				c-2.38-3.21-1.9-7.09,0.25-10.07c2.01-2.79,4.75-4.58,7.94-5.66c5.19-1.76,10.45-2.46,15.8-1.03c0.62,0.17,1.24,0.34,1.86,0.51
				C487.13,37.46,488.57,38.35,490.01,39.25z"/>
			<path class="st0" d="M469.21,197.23c-0.7-0.38-0.8-1.08-0.85-1.76c-0.14-1.81-0.28-3.63-0.34-5.45
				c-0.66-19.5-0.77-39.02-0.92-58.54c-0.11-14.71-0.16-29.42-0.27-44.12c-0.01-1.01,0.28-1.27,1.26-1.26
				c5.32,0.03,10.64,0.01,15.96-0.04c0.95-0.01,1.21,0.26,1.15,1.23c-1.62,24.37-3.19,48.74-4.81,73.11
				c-0.79,11.87-1.57,23.75-2.88,35.59c-0.11,0.99-0.4,1.37-1.4,1.39c-1.87,0.04-3.74,0.41-5.62,0.19
				C470.04,197.51,469.6,197.44,469.21,197.23z"/>
			<path class="st0" d="M497.59,159.96c-3.84-2.22-7.71-4.42-11.9-5.94c-0.06-0.02-0.13-0.07-0.19-0.07
				c-2.28-0.09-2.55-1.71-2.63-3.5c-0.16-3.26-0.02-6.53-0.01-9.79c0-0.59,0.2-0.78,0.8-0.73c7.59,0.71,15.05,2,22.02,5.21
				c6.59,3.04,12.44,7.09,16.9,12.91c6.6,8.61,7.82,18.16,3.88,28.35c-3.66,9.47-10.78,15.74-19.49,20.4
				c-6.36,3.4-13.22,4.85-20.23,5.87c-6.97,1.02-14,1.49-20.96,2.53c-4.49,0.67-8.87,1.72-12.84,4.12
				c-4.63,2.8-8.22,6.55-10.27,11.66c-2.55,6.37-0.67,11.74,4.2,15.93c3.3,2.84,7.28,4.41,11.37,5.74c1.9,0.62,3.82,1.2,5.76,1.71
				c1.03,0.27,1.53,0.89,1.73,1.89c0.34,1.69,0.38,3.41,0.37,5.13c0,2.03-0.07,4.06-0.06,6.08c0,0.73-0.2,1.03-0.99,1.02
				c-8.9-0.1-17.48-1.73-25.58-5.35c-6.77-3.02-12.09-7.69-15.18-14.66c-3.17-7.15-3.27-14.38-0.45-21.74
				c0.93-2.42,1.9-4.81,3.2-7.06c3.25-5.6,8.06-9.46,13.71-12.34c6.45-3.28,13.34-5,20.41-6.08c5.55-0.84,11.16-1.01,16.71-1.81
				c6.49-0.94,12.86-2.35,18.79-5.38c4.03-2.06,7.47-4.78,9.61-8.93c1-1.94,1.79-3.96,2.21-6.1c0.46-2.35-0.25-4.5-1.07-6.61
				c-1.34-3.46-3.03-6.72-5.63-9.4C500.55,161.77,499.07,160.86,497.59,159.96z"/>
			<path class="st0" d="M496.38,305.87c-2.71,4.3-6.46,7.52-10.61,10.29c-6.73,4.5-14.02,7.75-21.86,9.59
				c-4.31,1.02-8.69,1.47-13.11,1.16c-0.2-0.01-0.41-0.02-0.61-0.06c-0.34-0.07-0.72-0.16-0.77-0.55c-0.06-0.42,0.33-0.57,0.63-0.72
				c0.87-0.44,1.78-0.79,2.74-0.83c3.49-0.16,6.7-1.33,9.81-2.84c6.43-3.11,12.56-6.74,17.68-11.83c6.49-6.47,9.63-14.32,8.98-23.45
				c-0.35-5.01-2.2-9.44-5.96-12.87c-1.32-1.2-2.87-2.05-4.54-2.65c-0.94-0.34-1.41-0.99-1.65-1.91c-0.32-1.24-0.27-2.52-0.29-3.79
				c-0.04-1.82-0.02-3.64,0.18-5.46c0.27-2.45,1.33-3.1,3.53-2.07c2.21,1.03,4.4,2.15,6.41,3.53c4.1,2.81,7.46,6.35,10.24,10.5
				c3.49,5.21,4.41,11,3.88,17.17c-0.41,4.69-1.33,9.26-3.02,13.68C497.61,303.87,496.98,304.86,496.38,305.87z"/>
			<path class="st0" d="M470.78,313.12c-0.16,0.13-0.29,0.34-0.41,0.33c-0.33-0.02-0.39-0.34-0.46-0.6
				c-0.46-1.83-0.64-3.72-0.74-5.6c-0.52-9.91-0.59-19.84-0.72-29.77c-0.24-19.68-0.57-39.36-1.16-59.03
				c-0.03-0.88,0.18-1.14,1.06-1.05c2.51,0.23,5.02,0.41,7.54,0.53c0.84,0.04,0.99,0.37,0.96,1.13c-0.34,9.04-0.81,18.07-1.48,27.09
				c-1.14,15.44-2.02,30.88-2.82,46.34c-0.33,6.39-0.55,12.78-1.49,19.13C471,312.12,470.88,312.63,470.78,313.12z"/>
			<path class="st0" d="M546.82,80.5c-0.4,0.51-1.04,0.66-1.69,0.74c-2.45,0.31-4.91,0.19-7.36,0.12c-2.08-0.06-4.16-0.12-6.2-0.58
				c-0.38-0.08-1.01-0.06-0.99-0.51c0.03-0.52,0.67-0.47,1.09-0.53c2.58-0.41,5.17-0.24,7.76-0.24c2.15,0,4.3,0.08,6.41-0.53
				c0.39-0.11,0.74-0.09,0.99,0.29C547.03,79.56,547.04,80.12,546.82,80.5z"/>
			<path class="st0" d="M470.55,336.72c-0.15,0.23-0.31,0.51-0.61,0.48c-0.38-0.04-0.44-0.4-0.47-0.7c-0.3-3.16-0.3-6.3,0.55-9.41
				c0.11-0.4,0.23-0.87,0.76-0.83c0.5,0.04,0.59,0.53,0.65,0.93c0.4,2.46,0.29,4.92-0.17,7.37
				C471.11,335.31,470.99,336.07,470.55,336.72z"/>
		</g>
	</g>
</g>
<g id="Layer_4" class="st2">
	<text transform="matrix(1 0 0 1 334.3418 256.9067)" class="st3 st4 st5 st6">effective basic services</text>
	<text transform="matrix(1 0 0 1 96.9858 213.1637)" class="st3"><tspan x="0" y="0" class="st0 st7 st8 st9">e</tspan><tspan x="133.73" y="0" class="st1 st7 st8 st9">ba</tspan><tspan x="410.66" y="0" class="st0 st7 st8 st9">s</tspan><tspan x="497.01" y="0" class="st1 st7 st8 st9">e</tspan></text>
</g>
<g id="Layer_3" class="st2">
	<text transform="matrix(1 0 0 1 53.5605 259.5809)" class="st3"><tspan x="0" y="0" class="st0 st7 st10 st11">e</tspan><tspan x="127.47" y="0" class="st1 st7 st10 st11">base</tspan></text>
	<g class="st3">
		<path class="st1" d="M689.98,143.75c0.88-2.33,1.69-4.69,2.66-6.99c3.48-8.21,9.11-14.58,16.4-19.61
			c7.17-4.95,14.94-8.81,22.78-12.53c11.23-5.32,22.77-9.94,34.05-15.15c1.94-0.89,3.87-1.8,5.75-2.82c1.83-1,3.89-0.88,5.88-0.89
			c3.74-0.02,7.48,0.38,11.22,0.16c1.15-0.07,2.29-0.2,3.43-0.3c0.23-0.02,0.46-0.06,0.69-0.06c0.87-0.01,1.82-0.05,2.2,0.91
			c0.35,0.89-0.4,1.45-0.96,1.99c-1.14,1.12-2.56,1.83-3.88,2.69c-1.05,0.68-2.12,1.33-2.98,2.26c-0.79,0.86-0.61,1.47,0.54,1.73
			c1.25,0.29,2.52,0.44,3.81,0.51c0.31,0.02,0.76-0.05,0.89,0.27c0.15,0.36-0.31,0.52-0.53,0.74c-4.94,5.1-11.11,7.83-17.94,9.26
			c-15.19,3.18-29.81,8.12-43.87,14.6c-10.33,4.76-17.4,12.84-21.62,23.37c-2.74,6.83-0.8,12.82,3.68,18.22
			c3.22,3.88,7.14,6.81,12.03,8.23c4.46,1.29,9.03,1.53,13.67,1.12c5.47-0.48,10.57-2.32,15.69-4.1c2.1-0.73,2.1-0.75,2.85,1.37
			c1.35,3.81,2.67,7.63,4.04,11.43c0.25,0.7,0.07,0.96-0.56,1.26c-9.43,4.5-19.42,6.44-29.8,6.47c-8.23,0.02-16.11-1.55-23.44-5.51
			c-3.66-1.97-6.43-4.87-8.97-8.03c-3.48-4.34-6.31-9.06-7.85-14.46c-0.71-2.51-1.09-5.07-1.02-7.69c0.01-0.42-0.06-0.85-0.09-1.27
			C689.15,148.54,689.57,146.14,689.98,143.75z M780.01,90.14c-0.88-0.17-2.24,0.77-2.41,1.66c-0.09,0.51,0.19,0.68,0.6,0.65
			c0.92-0.07,1.72-0.44,2.3-1.17C780.91,90.76,780.67,90.26,780.01,90.14z"/>
		<path d="M741.28,70.55c0.7,0.35,1.41,0.7,2.11,1.06c4.81,2.47,6.1,6.68,4.82,11.74c-0.65,2.58-1.55,5.09-1.83,7.75
			c-0.07,0.73-0.09,1.45,0.25,2.12c0.42,0.82,0.12,1.42-0.57,1.84c-0.81,0.49-1.65,0.96-2.53,1.32c-3.98,1.64-7.98,3.23-11.96,4.86
			c-0.65,0.27-1.01,0.16-1.36-0.45c-0.58-0.99-1.21-1.95-1.86-2.91c-1.14-1.68-2.72-2.7-4.7-3.16c-1.53-0.35-3.07-0.67-4.45-1.51
			c-3.31-2-4.29-5.59-3.46-8.98c0.78-3.18,2.59-5.73,5.05-7.81c4.01-3.39,8.46-5.88,13.78-6.51c0.62-0.07,1.24-0.14,1.85-0.21
			C738.04,69.99,739.66,70.27,741.28,70.55z"/>
		<path d="M780.43,217.49c-0.77-0.08-1.11-0.67-1.41-1.26c-0.79-1.55-1.58-3.11-2.3-4.69c-7.73-16.99-14.97-34.2-22.24-51.39
			c-5.48-12.95-10.9-25.93-16.38-38.88c-0.38-0.89-0.21-1.22,0.66-1.56c4.78-1.86,9.54-3.76,14.29-5.69
			c0.84-0.34,1.18-0.19,1.48,0.68c7.46,22.1,14.97,44.19,22.43,66.29c3.64,10.77,7.28,21.54,10.44,32.46
			c0.26,0.91,0.14,1.35-0.75,1.73c-1.66,0.7-3.2,1.69-4.96,2.16C781.28,217.44,780.86,217.54,780.43,217.49z"/>
		<g>
			<path class="st12" d="M758.98,305.76c-25.9-19.29-51.8-38.59-77.7-57.88c4.45-1.2,8.9-2.41,13.35-3.61
				C716.08,264.77,737.53,285.26,758.98,305.76z"/>
			<path class="st13" d="M766.04,302.66c-28.49-27.44-56.97-54.88-85.45-82.33c5.19-1.31,10.38-2.62,15.58-3.94
				C719.46,245.16,742.75,273.91,766.04,302.66z"/>
			<path class="st14" d="M773.15,299.42c-28.5-34.75-57-69.49-85.5-104.24c7.71-0.72,15.41-1.45,23.12-2.17
				C731.57,228.48,752.36,263.95,773.15,299.42z"/>
			<path class="st0" d="M880.59,252.01c-34.4,15.29-68.94,30.54-103.47,45.79c-22.14-41.67-44.28-83.33-66.42-125
				c40.17-12.87,80.35-25.75,120.52-38.62C847.62,173.44,864.04,212.71,880.59,252.01z"/>
		</g>
		<path class="st1" d="M792.23,174.5c-4.26-0.6-8.52-1.17-12.84-1.03c-0.07,0-0.14-0.02-0.2,0c-2.08,0.73-2.91-0.61-3.64-2.16
			c-1.34-2.83-2.4-5.76-3.59-8.65c-0.21-0.52-0.11-0.76,0.45-0.92c7.06-2.07,14.21-3.57,21.63-3.2c7.02,0.34,13.74,1.85,19.87,5.41
			c9.06,5.27,13.65,13.27,13.85,23.67c0.18,9.66-3.9,17.73-10,24.93c-4.45,5.26-10.07,8.98-15.98,12.36
			c-5.88,3.37-12,6.27-17.86,9.67c-3.78,2.19-7.32,4.67-10,8.19c-3.13,4.12-4.97,8.7-4.94,13.94c0.05,6.53,3.7,10.61,9.59,12.59
			c4,1.34,8.14,1.32,12.29,1.04c1.93-0.13,3.86-0.29,5.79-0.53c1.03-0.13,1.7,0.24,2.24,1.06c0.92,1.38,1.58,2.88,2.21,4.4
			c0.74,1.79,1.42,3.61,2.17,5.4c0.27,0.65,0.2,0.98-0.51,1.25c-8.01,3.07-16.3,4.67-24.88,4.34c-7.18-0.27-13.64-2.5-18.97-7.57
			c-5.46-5.19-8.19-11.54-8.35-19.04c-0.06-2.47-0.06-4.93,0.29-7.37c0.86-6.1,3.76-11.22,7.78-15.76
			c4.58-5.19,10.12-9.15,16.06-12.6c4.66-2.71,9.63-4.85,14.31-7.52c5.47-3.13,10.67-6.63,14.87-11.41
			c2.86-3.25,4.94-6.87,5.34-11.29c0.19-2.07,0.16-4.13-0.25-6.18c-0.45-2.24-1.87-3.89-3.37-5.46c-2.47-2.58-5.17-4.86-8.48-6.31
			C795.54,175.05,793.88,174.77,792.23,174.5z"/>
		<path class="st1" d="M844.52,303.83c-0.86,4.75-3.04,8.94-5.74,12.85c-4.38,6.36-9.73,11.81-16.08,16.23
			c-3.49,2.42-7.25,4.38-11.33,5.67c-0.19,0.06-0.37,0.13-0.57,0.16c-0.33,0.06-0.7,0.11-0.9-0.21c-0.21-0.35,0.09-0.62,0.3-0.86
			c0.62-0.69,1.3-1.33,2.15-1.71c3.07-1.37,5.52-3.55,7.75-5.98c4.63-5.03,8.79-10.4,11.51-16.72c3.45-8.01,3.39-16.06-0.53-23.9
			c-2.15-4.3-5.43-7.56-10.05-9.26c-1.62-0.59-3.32-0.79-5.04-0.73c-0.96,0.04-1.62-0.37-2.17-1.1c-0.74-0.98-1.16-2.13-1.65-3.24
			c-0.7-1.6-1.35-3.21-1.83-4.89c-0.66-2.26,0.06-3.21,2.4-3.08c2.36,0.13,4.72,0.34,7.03,0.84c4.7,1.03,9.01,2.97,13.02,5.65
			c5.03,3.37,7.98,8.15,9.76,13.8c1.35,4.28,2.19,8.65,2.3,13.15C844.89,301.63,844.69,302.72,844.52,303.83z"/>
		<path d="M824.23,319.31c-0.09,0.17-0.14,0.4-0.25,0.44c-0.3,0.1-0.48-0.16-0.63-0.36c-1.09-1.45-1.93-3.06-2.71-4.68
			c-4.09-8.57-7.79-17.32-11.53-26.04c-7.42-17.3-14.91-34.57-22.63-51.74c-0.35-0.77-0.25-1.07,0.57-1.31
			c2.33-0.69,4.65-1.41,6.95-2.2c0.77-0.26,1.02-0.03,1.28,0.66c3,8.1,5.88,16.25,8.58,24.45c4.62,14.04,9.49,28,14.43,41.93
			c2.04,5.76,4.18,11.49,5.66,17.42C824.07,318.35,824.14,318.84,824.23,319.31z"/>
		<path d="M807.28,86.85c-0.18,0.59-0.69,0.95-1.24,1.25c-2.08,1.15-4.33,1.91-6.55,2.71c-1.88,0.68-3.77,1.36-5.76,1.69
			c-0.37,0.06-0.93,0.31-1.07-0.1c-0.17-0.47,0.43-0.65,0.78-0.86c2.17-1.27,4.55-2.04,6.87-2.97c1.92-0.77,3.88-1.46,5.55-2.74
			c0.31-0.24,0.63-0.34,0.99-0.09C807.12,85.95,807.34,86.44,807.28,86.85z"/>
		<path d="M832.66,340.24c-0.05,0.26-0.09,0.56-0.37,0.64c-0.35,0.1-0.54-0.19-0.68-0.45c-1.42-2.68-2.58-5.46-2.95-8.51
			c-0.05-0.39-0.11-0.85,0.37-1c0.46-0.14,0.72,0.26,0.93,0.59c1.26,2.03,2.06,4.24,2.54,6.58
			C832.65,338.8,832.81,339.51,832.66,340.24z"/>
	</g>
	<text transform="matrix(1.1482 0 0 1 197.6202 299.3678)" class="st3 st4 st15 st16">effective basic services</text>
</g>
</svg>
