<?xml version="1.0" encoding="UTF-8"?><svg id="Layer_1" xmlns="http://www.w3.org/2000/svg" xmlns:xlink="http://www.w3.org/1999/xlink" viewBox="0 0 1283.67 641.83"><defs><style>.cls-1{fill:none;}.cls-2{clip-path:url(#clippath);}.cls-3{fill:#f49c76;}.cls-4{fill:#f7a881;}.cls-5{fill:#f7f7f7;}.cls-6{fill:#f7996a;}.cls-7{fill:#f75c5c;}.cls-8{fill:#fff;}.cls-9{fill:#fcbb65;}.cls-10{fill:#ef4b4b;}.cls-11{fill:#7ed8fb;}.cls-12{fill:#1c80cc;}.cls-13{fill:#094372;}.cls-14{fill:#2c2e30;}.cls-15{clip-path:url(#clippath-1);}</style><clipPath id="clippath"><path class="cls-1" d="M1283.67,366.26v275.57H0v-253.4c160.46-96.16,214.28,77.92,347.07,101.55,132.81,23.62,174.79-157.19,269.09-160.25,101.09-3.27,94.9,159.7,195.76,169.56,120.2,11.73,134.85-161.34,206.43-166.83,93.52-7.16,93.8,158.2,157.81,92.02,65.4-67.6,107.51-58.23,107.51-58.23Z"/></clipPath><clipPath id="clippath-1"><rect class="cls-1" x="150.53" y="120.83" width="325" height="521"/></clipPath></defs><g class="cls-2"><g><rect class="cls-5" x="-11.63" y="-90.07" width="1313.51" height="815.53"/><polygon class="cls-8" points="-11.63 10.86 73.06 -90.07 61.62 -90.07 -11.63 -2.77 -11.63 10.86"/><polygon class="cls-8" points="-11.63 32.15 90.93 -90.07 79.49 -90.07 -11.63 18.52 -11.63 32.15"/><polygon class="cls-8" points="-11.63 53.45 108.79 -90.07 97.35 -90.07 -11.63 39.81 -11.63 53.45"/><polygon class="cls-8" points="-11.63 74.74 126.66 -90.07 115.22 -90.07 -11.63 61.11 -11.63 74.74"/><polygon class="cls-8" points="-11.63 96.03 144.53 -90.07 133.09 -90.07 -11.63 82.4 -11.63 96.03"/><polygon class="cls-8" points="-11.63 117.32 162.39 -90.07 150.95 -90.07 -11.63 103.69 -11.63 117.32"/><polygon class="cls-8" points="-11.63 138.62 180.26 -90.07 168.82 -90.07 -11.63 124.98 -11.63 138.62"/><polygon class="cls-8" points="-11.63 159.91 198.13 -90.07 186.69 -90.07 -11.63 146.28 -11.63 159.91"/><polygon class="cls-8" points="-11.63 181.2 215.99 -90.07 204.55 -90.07 -11.63 167.57 -11.63 181.2"/><polygon class="cls-8" points="-11.63 202.49 233.86 -90.07 222.42 -90.07 -11.63 188.86 -11.63 202.49"/><polygon class="cls-8" points="-11.63 223.79 251.73 -90.07 240.29 -90.07 -11.63 210.15 -11.63 223.79"/><polygon class="cls-8" points="-11.63 245.08 269.59 -90.07 258.15 -90.07 -11.63 231.45 -11.63 245.08"/><polygon class="cls-8" points="-11.63 266.37 287.46 -90.07 276.02 -90.07 -11.63 252.74 -11.63 266.37"/><polygon class="cls-8" points="-11.63 287.66 305.33 -90.07 293.89 -90.07 -11.63 274.03 -11.63 287.66"/><polygon class="cls-8" points="-11.63 308.96 323.19 -90.07 311.75 -90.07 -11.63 295.32 -11.63 308.96"/><polygon class="cls-8" points="-11.63 330.25 341.06 -90.07 329.62 -90.07 -11.63 316.62 -11.63 330.25"/><polygon class="cls-8" points="-11.63 351.54 358.93 -90.07 347.49 -90.07 -11.63 337.91 -11.63 351.54"/><polygon class="cls-8" points="-11.63 372.83 376.79 -90.07 365.35 -90.07 -11.63 359.2 -11.63 372.83"/><polygon class="cls-8" points="-11.63 394.13 394.66 -90.07 383.22 -90.07 -11.63 380.49 -11.63 394.13"/><polygon class="cls-8" points="-11.63 415.42 412.52 -90.07 401.09 -90.07 -11.63 401.79 -11.63 415.42"/><polygon class="cls-8" points="-11.63 436.71 430.39 -90.07 418.95 -90.07 -11.63 423.08 -11.63 436.71"/><polygon class="cls-8" points="-11.63 458 448.26 -90.07 436.82 -90.07 -11.63 444.37 -11.63 458"/><polygon class="cls-8" points="-11.63 479.3 466.12 -90.07 454.68 -90.07 -11.63 465.66 -11.63 479.3"/><polygon class="cls-8" points="-11.63 500.59 483.99 -90.07 472.55 -90.07 -11.63 486.96 -11.63 500.59"/><polygon class="cls-8" points="-11.63 521.88 501.86 -90.07 490.42 -90.07 -11.63 508.25 -11.63 521.88"/><polygon class="cls-8" points="-11.63 543.17 519.72 -90.07 508.28 -90.07 -11.63 529.54 -11.63 543.17"/><polygon class="cls-8" points="-11.63 564.47 537.59 -90.07 526.15 -90.07 -11.63 550.83 -11.63 564.47"/><polygon class="cls-8" points="-11.63 585.76 555.46 -90.07 544.02 -90.07 -11.63 572.13 -11.63 585.76"/><polygon class="cls-8" points="-11.63 607.05 573.32 -90.07 561.88 -90.07 -11.63 593.42 -11.63 607.05"/><polygon class="cls-8" points="-11.63 628.34 591.19 -90.07 579.75 -90.07 -11.63 614.71 -11.63 628.34"/><polygon class="cls-8" points="-11.63 649.64 609.06 -90.07 597.62 -90.07 -11.63 636 -11.63 649.64"/><polygon class="cls-8" points="-11.63 670.93 626.92 -90.07 615.48 -90.07 -11.63 657.3 -11.63 670.93"/><polygon class="cls-8" points="-11.63 692.22 644.79 -90.07 633.35 -90.07 -11.63 678.59 -11.63 692.22"/><polygon class="cls-8" points="-11.63 713.51 662.66 -90.07 651.22 -90.07 -11.63 699.88 -11.63 713.51"/><polygon class="cls-8" points="669.08 -90.07 -11.63 721.17 -11.63 725.46 -3.79 725.46 680.52 -90.07 669.08 -90.07"/><polygon class="cls-8" points="14.08 725.46 698.39 -90.07 686.95 -90.07 2.64 725.46 14.08 725.46"/><polygon class="cls-8" points="31.94 725.46 716.25 -90.07 704.82 -90.07 20.51 725.46 31.94 725.46"/><polygon class="cls-8" points="49.81 725.46 734.12 -90.07 722.68 -90.07 38.37 725.46 49.81 725.46"/><polygon class="cls-8" points="67.68 725.46 751.99 -90.07 740.55 -90.07 56.24 725.46 67.68 725.46"/><polygon class="cls-8" points="85.54 725.46 769.85 -90.07 758.41 -90.07 74.1 725.46 85.54 725.46"/><polygon class="cls-8" points="103.41 725.46 787.72 -90.07 776.28 -90.07 91.97 725.46 103.41 725.46"/><polygon class="cls-8" points="121.28 725.46 805.59 -90.07 794.15 -90.07 109.84 725.46 121.28 725.46"/><polygon class="cls-8" points="139.14 725.46 823.45 -90.07 812.01 -90.07 127.7 725.46 139.14 725.46"/><polygon class="cls-8" points="157.01 725.46 841.32 -90.07 829.88 -90.07 145.57 725.46 157.01 725.46"/><polygon class="cls-8" points="174.88 725.46 859.19 -90.07 847.75 -90.07 163.44 725.46 174.88 725.46"/><polygon class="cls-8" points="192.74 725.46 877.05 -90.07 865.61 -90.07 181.3 725.46 192.74 725.46"/><polygon class="cls-8" points="210.61 725.46 894.92 -90.07 883.48 -90.07 199.17 725.46 210.61 725.46"/><polygon class="cls-8" points="228.48 725.46 912.79 -90.07 901.35 -90.07 217.04 725.46 228.48 725.46"/><polygon class="cls-8" points="246.34 725.46 930.65 -90.07 919.21 -90.07 234.9 725.46 246.34 725.46"/><polygon class="cls-8" points="264.21 725.46 948.52 -90.07 937.08 -90.07 252.77 725.46 264.21 725.46"/><polygon class="cls-8" points="282.08 725.46 966.39 -90.07 954.95 -90.07 270.64 725.46 282.08 725.46"/><polygon class="cls-8" points="299.94 725.46 984.25 -90.07 972.81 -90.07 288.5 725.46 299.94 725.46"/><polygon class="cls-8" points="317.81 725.46 1002.12 -90.07 990.68 -90.07 306.37 725.46 317.81 725.46"/><polygon class="cls-8" points="335.67 725.46 1019.99 -90.07 1008.55 -90.07 324.24 725.46 335.67 725.46"/><polygon class="cls-8" points="353.54 725.46 1037.85 -90.07 1026.41 -90.07 342.1 725.46 353.54 725.46"/><polygon class="cls-8" points="371.41 725.46 1055.72 -90.07 1044.28 -90.07 359.97 725.46 371.41 725.46"/><polygon class="cls-8" points="389.27 725.46 1073.58 -90.07 1062.15 -90.07 377.83 725.46 389.27 725.46"/><polygon class="cls-8" points="407.14 725.46 1091.45 -90.07 1080.01 -90.07 395.7 725.46 407.14 725.46"/><polygon class="cls-8" points="425.01 725.46 1109.32 -90.07 1097.88 -90.07 413.57 725.46 425.01 725.46"/><polygon class="cls-8" points="442.87 725.46 1127.18 -90.07 1115.74 -90.07 431.43 725.46 442.87 725.46"/><polygon class="cls-8" points="460.74 725.46 1145.05 -90.07 1133.61 -90.07 449.3 725.46 460.74 725.46"/><polygon class="cls-8" points="478.61 725.46 1162.92 -90.07 1151.48 -90.07 467.17 725.46 478.61 725.46"/><polygon class="cls-8" points="496.47 725.46 1180.78 -90.07 1169.34 -90.07 485.03 725.46 496.47 725.46"/><polygon class="cls-8" points="514.34 725.46 1198.65 -90.07 1187.21 -90.07 502.9 725.46 514.34 725.46"/><polygon class="cls-8" points="532.21 725.46 1216.52 -90.07 1205.08 -90.07 520.77 725.46 532.21 725.46"/><polygon class="cls-8" points="550.07 725.46 1234.38 -90.07 1222.94 -90.07 538.63 725.46 550.07 725.46"/><polygon class="cls-8" points="567.94 725.46 1252.25 -90.07 1240.81 -90.07 556.5 725.46 567.94 725.46"/><polygon class="cls-8" points="585.81 725.46 1270.12 -90.07 1258.68 -90.07 574.37 725.46 585.81 725.46"/><polygon class="cls-8" points="603.67 725.46 1287.98 -90.07 1276.54 -90.07 592.23 725.46 603.67 725.46"/><polygon class="cls-8" points="621.54 725.46 1301.88 -85.34 1301.88 -90.07 1294.41 -90.07 610.1 725.46 621.54 725.46"/><polygon class="cls-8" points="639.41 725.46 1301.88 -64.04 1301.88 -77.68 627.97 725.46 639.41 725.46"/><polygon class="cls-8" points="657.27 725.46 1301.88 -42.75 1301.88 -56.38 645.83 725.46 657.27 725.46"/><polygon class="cls-8" points="675.14 725.46 1301.88 -21.46 1301.88 -35.09 663.7 725.46 675.14 725.46"/><polygon class="cls-8" points="693 725.46 1301.88 -.17 1301.88 -13.8 681.57 725.46 693 725.46"/><polygon class="cls-8" points="710.87 725.46 1301.88 21.13 1301.88 7.49 699.43 725.46 710.87 725.46"/><polygon class="cls-8" points="728.74 725.46 1301.88 42.42 1301.88 28.79 717.3 725.46 728.74 725.46"/><polygon class="cls-8" points="746.6 725.46 1301.88 63.71 1301.88 50.08 735.16 725.46 746.6 725.46"/><polygon class="cls-8" points="764.47 725.46 1301.88 85 1301.88 71.37 753.03 725.46 764.47 725.46"/><polygon class="cls-8" points="782.34 725.46 1301.88 106.3 1301.88 92.66 770.9 725.46 782.34 725.46"/><polygon class="cls-8" points="800.2 725.46 1301.88 127.59 1301.88 113.96 788.76 725.46 800.2 725.46"/><polygon class="cls-8" points="818.07 725.46 1301.88 148.88 1301.88 135.25 806.63 725.46 818.07 725.46"/><polygon class="cls-8" points="835.94 725.46 1301.88 170.17 1301.88 156.54 824.5 725.46 835.94 725.46"/><polygon class="cls-8" points="853.8 725.46 1301.88 191.47 1301.88 177.83 842.36 725.46 853.8 725.46"/><polygon class="cls-8" points="871.67 725.46 1301.88 212.76 1301.88 199.13 860.23 725.46 871.67 725.46"/><polygon class="cls-8" points="889.54 725.46 1301.88 234.05 1301.88 220.42 878.1 725.46 889.54 725.46"/><polygon class="cls-8" points="907.4 725.46 1301.88 255.34 1301.88 241.71 895.96 725.46 907.4 725.46"/><polygon class="cls-8" points="925.27 725.46 1301.88 276.64 1301.88 263 913.83 725.46 925.27 725.46"/><polygon class="cls-8" points="943.14 725.46 1301.88 297.93 1301.88 284.3 931.7 725.46 943.14 725.46"/><polygon class="cls-8" points="961 725.46 1301.88 319.22 1301.88 305.59 949.56 725.46 961 725.46"/><polygon class="cls-8" points="978.87 725.46 1301.88 340.51 1301.88 326.88 967.43 725.46 978.87 725.46"/><polygon class="cls-8" points="996.73 725.46 1301.88 361.81 1301.88 348.17 985.3 725.46 996.73 725.46"/><polygon class="cls-8" points="1014.6 725.46 1301.88 383.1 1301.88 369.47 1003.16 725.46 1014.6 725.46"/><polygon class="cls-8" points="1032.47 725.46 1301.88 404.39 1301.88 390.76 1021.03 725.46 1032.47 725.46"/><polygon class="cls-8" points="1050.33 725.46 1301.88 425.68 1301.88 412.05 1038.89 725.46 1050.33 725.46"/><polygon class="cls-8" points="1068.2 725.46 1301.88 446.98 1301.88 433.34 1056.76 725.46 1068.2 725.46"/><polygon class="cls-8" points="1086.07 725.46 1301.88 468.27 1301.88 454.64 1074.63 725.46 1086.07 725.46"/><polygon class="cls-8" points="1103.93 725.46 1301.88 489.56 1301.88 475.93 1092.49 725.46 1103.93 725.46"/><polygon class="cls-8" points="1121.8 725.46 1301.88 510.85 1301.88 497.22 1110.36 725.46 1121.8 725.46"/><polygon class="cls-8" points="1139.67 725.46 1301.88 532.15 1301.88 518.51 1128.23 725.46 1139.67 725.46"/><polygon class="cls-8" points="1157.53 725.46 1301.88 553.44 1301.88 539.8 1146.09 725.46 1157.53 725.46"/><polygon class="cls-8" points="1175.4 725.46 1301.88 574.73 1301.88 561.1 1163.96 725.46 1175.4 725.46"/><polygon class="cls-8" points="1193.27 725.46 1301.88 596.02 1301.88 582.39 1181.83 725.46 1193.27 725.46"/><polygon class="cls-8" points="1211.13 725.46 1301.88 617.32 1301.88 603.68 1199.69 725.46 1211.13 725.46"/><polygon class="cls-8" points="1229 725.46 1301.88 638.61 1301.88 624.97 1217.56 725.46 1229 725.46"/></g></g><path class="cls-5" d="M855.04,420.97c-6.55,0-11.89-5.33-11.89-11.89s5.33-11.88,11.89-11.88,11.88,5.33,11.88,11.88-5.33,11.89-11.88,11.89Zm0-20.56c-4.78,0-8.68,3.89-8.68,8.67s3.89,8.68,8.68,8.68,8.67-3.89,8.67-8.68-3.89-8.67-8.67-8.67Z"/><path class="cls-5" d="M1206.11,69.81c-6.55,0-11.89-5.33-11.89-11.88s5.33-11.88,11.89-11.88,11.88,5.33,11.88,11.88-5.33,11.88-11.88,11.88Zm0-20.56c-4.78,0-8.68,3.89-8.68,8.68s3.89,8.68,8.68,8.68,8.67-3.89,8.67-8.68-3.89-8.68-8.67-8.68Z"/><g><rect class="cls-14" x="305.67" y="67.97" width="3.21" height="25.67"/><rect class="cls-14" x="294.44" y="79.2" width="25.67" height="3.21"/></g><g><rect class="cls-5" x="975.78" y="65.23" width="3.21" height="25.67"/><rect class="cls-5" x="964.55" y="76.46" width="25.67" height="3.21"/></g><g><rect class="cls-5" x="137.72" y="223.83" width="3.21" height="25.67" transform="translate(-126.54 167.83) rotate(-45)"/><rect class="cls-5" x="126.49" y="235.07" width="25.67" height="3.21" transform="translate(-126.54 167.82) rotate(-45)"/></g><g><rect class="cls-5" x="1133.53" y="258.69" width="3.21" height="25.67" transform="translate(140.45 882.14) rotate(-45)"/><rect class="cls-5" x="1122.29" y="269.92" width="25.67" height="3.21" transform="translate(140.48 882.19) rotate(-45)"/></g><path class="cls-8" d="M1168.93,201.91c0,2.78-2.26,5.04-5.04,5.04s-5.04-2.26-5.04-5.04,2.26-5.04,5.04-5.04,5.04,2.26,5.04,5.04Z"/><circle class="cls-8" cx="1147.02" cy="48.36" r="3.82"/><path class="cls-5" d="M1087.82,105.82c.76-1.65,1.89-2.81,3.4-3.47,1.51-.66,3.25-.54,5.21,.36,1.96,.9,3.19,2.14,3.7,3.73,.5,1.59,.38,3.2-.38,4.85-.76,1.65-1.89,2.78-3.41,3.4-1.51,.61-3.25,.47-5.21-.43-1.96-.9-3.19-2.12-3.7-3.66-.5-1.54-.37-3.14,.38-4.79Zm18.16-12.7l-9.1-4.17,25.37-57.2,10.57,4.85-26.84,56.52Z"/><path class="cls-8" d="M836.11,403.57c-.51-5.19-.39-9.36,.35-12.49,.74-3.13,2.58-6.72,5.52-10.77l7.55-9.81c3.19-4.56,4.51-9.21,3.96-13.95-.53-4.57-2.14-8.01-4.84-10.32-2.7-2.31-6.34-3.2-10.92-2.68-4.45,.51-7.89,2.11-10.32,4.77-2.43,2.67-3.42,5.99-2.96,9.96l-12.11,1.4c-.73-7.08,1.13-13.07,5.58-17.98,4.45-4.91,10.64-7.83,18.58-8.74,8.24-.95,14.92,.52,20.04,4.41,5.11,3.89,8.11,9.69,9,17.4,.88,7.62-1.79,15.54-8,23.76l-6.32,7.88c-2.78,3.9-3.78,9.16-3.02,15.78l-12.11,1.4Zm1.88,20.85c-.23-1.98,.18-3.71,1.22-5.19,1.04-1.48,2.75-2.36,5.1-2.63,2.36-.27,4.22,.19,5.6,1.4,1.38,1.2,2.18,2.79,2.41,4.77,.23,1.98-.19,3.69-1.27,5.14-1.07,1.44-2.78,2.29-5.14,2.57-2.36,.27-4.21-.17-5.56-1.33-1.35-1.16-2.14-2.73-2.37-4.71Z"/><polygon class="cls-9" points="1140.95 119.13 1168.54 177.36 1232.01 106.41 1209.4 90.58 1170.78 158.86 1153.49 108.22 1140.95 119.13"/><g><path class="cls-14" d="M602.59,84.72h-6c-.83,0-1.5-.67-1.5-1.5s.67-1.5,1.5-1.5h4.5v-4.5c0-.83,.67-1.5,1.5-1.5s1.5,.67,1.5,1.5v6c0,.83-.67,1.5-1.5,1.5Z"/><path class="cls-14" d="M589.93,84.72h-6.67c-.83,0-1.5-.67-1.5-1.5s.67-1.5,1.5-1.5h6.67c.83,0,1.5,.67,1.5,1.5s-.67,1.5-1.5,1.5Z"/><path class="cls-14" d="M576.59,84.72h-6c-.83,0-1.5-.67-1.5-1.5v-6c0-.83,.67-1.5,1.5-1.5s1.5,.67,1.5,1.5v4.5h4.5c.83,0,1.5,.67,1.5,1.5s-.67,1.5-1.5,1.5Z"/><path class="cls-14" d="M570.59,72.06c-.83,0-1.5-.67-1.5-1.5v-6.67c0-.83,.67-1.5,1.5-1.5s1.5,.67,1.5,1.5v6.67c0,.83-.67,1.5-1.5,1.5Z"/><path class="cls-14" d="M570.59,58.72c-.83,0-1.5-.67-1.5-1.5v-6c0-.83,.67-1.5,1.5-1.5h6c.83,0,1.5,.67,1.5,1.5s-.67,1.5-1.5,1.5h-4.5v4.5c0,.83-.67,1.5-1.5,1.5Z"/><path class="cls-14" d="M589.93,52.72h-6.67c-.83,0-1.5-.67-1.5-1.5s.67-1.5,1.5-1.5h6.67c.83,0,1.5,.67,1.5,1.5s-.67,1.5-1.5,1.5Z"/><path class="cls-14" d="M602.59,58.72c-.83,0-1.5-.67-1.5-1.5v-4.5h-4.5c-.83,0-1.5-.67-1.5-1.5s.67-1.5,1.5-1.5h6c.83,0,1.5,.67,1.5,1.5v6c0,.83-.67,1.5-1.5,1.5Z"/><path class="cls-14" d="M602.59,72.06c-.83,0-1.5-.67-1.5-1.5v-6.67c0-.83,.67-1.5,1.5-1.5s1.5,.67,1.5,1.5v6.67c0,.83-.67,1.5-1.5,1.5Z"/></g><g><path class="cls-14" d="M659.4,84.72h-6c-.83,0-1.5-.67-1.5-1.5s.67-1.5,1.5-1.5h4.5v-4.5c0-.83,.67-1.5,1.5-1.5s1.5,.67,1.5,1.5v6c0,.83-.67,1.5-1.5,1.5Z"/><path class="cls-14" d="M646.73,84.72h-6.67c-.83,0-1.5-.67-1.5-1.5s.67-1.5,1.5-1.5h6.67c.83,0,1.5,.67,1.5,1.5s-.67,1.5-1.5,1.5Z"/><path class="cls-14" d="M633.4,84.72h-6c-.83,0-1.5-.67-1.5-1.5v-6c0-.83,.67-1.5,1.5-1.5s1.5,.67,1.5,1.5v4.5h4.5c.83,0,1.5,.67,1.5,1.5s-.67,1.5-1.5,1.5Z"/><path class="cls-14" d="M627.4,72.06c-.83,0-1.5-.67-1.5-1.5v-6.67c0-.83,.67-1.5,1.5-1.5s1.5,.67,1.5,1.5v6.67c0,.83-.67,1.5-1.5,1.5Z"/><path class="cls-14" d="M627.4,58.72c-.83,0-1.5-.67-1.5-1.5v-6c0-.83,.67-1.5,1.5-1.5h6c.83,0,1.5,.67,1.5,1.5s-.67,1.5-1.5,1.5h-4.5v4.5c0,.83-.67,1.5-1.5,1.5Z"/><path class="cls-14" d="M646.73,52.72h-6.67c-.83,0-1.5-.67-1.5-1.5s.67-1.5,1.5-1.5h6.67c.83,0,1.5,.67,1.5,1.5s-.67,1.5-1.5,1.5Z"/><path class="cls-14" d="M659.4,58.72c-.83,0-1.5-.67-1.5-1.5v-4.5h-4.5c-.83,0-1.5-.67-1.5-1.5s.67-1.5,1.5-1.5h6c.83,0,1.5,.67,1.5,1.5v6c0,.83-.67,1.5-1.5,1.5Z"/><path class="cls-14" d="M659.4,72.06c-.83,0-1.5-.67-1.5-1.5v-6.67c0-.83,.67-1.5,1.5-1.5s1.5,.67,1.5,1.5v6.67c0,.83-.67,1.5-1.5,1.5Z"/></g><g><path class="cls-14" d="M716.21,84.72h-6c-.83,0-1.5-.67-1.5-1.5s.67-1.5,1.5-1.5h4.5v-4.5c0-.83,.67-1.5,1.5-1.5s1.5,.67,1.5,1.5v6c0,.83-.67,1.5-1.5,1.5Z"/><path class="cls-14" d="M703.54,84.72h-6.67c-.83,0-1.5-.67-1.5-1.5s.67-1.5,1.5-1.5h6.67c.83,0,1.5,.67,1.5,1.5s-.67,1.5-1.5,1.5Z"/><path class="cls-14" d="M690.21,84.72h-6c-.83,0-1.5-.67-1.5-1.5v-6c0-.83,.67-1.5,1.5-1.5s1.5,.67,1.5,1.5v4.5h4.5c.83,0,1.5,.67,1.5,1.5s-.67,1.5-1.5,1.5Z"/><path class="cls-14" d="M684.21,72.06c-.83,0-1.5-.67-1.5-1.5v-6.67c0-.83,.67-1.5,1.5-1.5s1.5,.67,1.5,1.5v6.67c0,.83-.67,1.5-1.5,1.5Z"/><path class="cls-14" d="M684.21,58.72c-.83,0-1.5-.67-1.5-1.5v-6c0-.83,.67-1.5,1.5-1.5h6c.83,0,1.5,.67,1.5,1.5s-.67,1.5-1.5,1.5h-4.5v4.5c0,.83-.67,1.5-1.5,1.5Z"/><path class="cls-14" d="M703.54,52.72h-6.67c-.83,0-1.5-.67-1.5-1.5s.67-1.5,1.5-1.5h6.67c.83,0,1.5,.67,1.5,1.5s-.67,1.5-1.5,1.5Z"/><path class="cls-14" d="M716.21,58.72c-.83,0-1.5-.67-1.5-1.5v-4.5h-4.5c-.83,0-1.5-.67-1.5-1.5s.67-1.5,1.5-1.5h6c.83,0,1.5,.67,1.5,1.5v6c0,.83-.67,1.5-1.5,1.5Z"/><path class="cls-14" d="M716.21,72.06c-.83,0-1.5-.67-1.5-1.5v-6.67c0-.83,.67-1.5,1.5-1.5s1.5,.67,1.5,1.5v6.67c0,.83-.67,1.5-1.5,1.5Z"/></g><path class="cls-14" d="M84.83,178.48H49.83v-35h35v35Zm-32-3h29v-29h-29v29Z"/><path class="cls-14" d="M1215.31,576.66c-8.82,0-15.99-7.17-15.99-15.99s7.17-15.99,15.99-15.99,15.99,7.17,15.99,15.99-7.17,15.99-15.99,15.99Zm0-28.99c-7.16,0-12.99,5.83-12.99,12.99s5.83,12.99,12.99,12.99,12.99-5.83,12.99-12.99-5.83-12.99-12.99-12.99Z"/><g><path class="cls-14" d="M1184.14,385.36h-3.96c-.83,0-1.5-.67-1.5-1.5s.67-1.5,1.5-1.5h2.46v-2.45c0-.83,.67-1.5,1.5-1.5s1.5,.67,1.5,1.5v3.95c0,.83-.67,1.5-1.5,1.5Z"/><path class="cls-14" d="M1169.24,385.36h-3.96c-.83,0-1.5-.67-1.5-1.5v-3.95c0-.83,.67-1.5,1.5-1.5s1.5,.67,1.5,1.5v2.45h2.46c.83,0,1.5,.67,1.5,1.5s-.67,1.5-1.5,1.5Z"/><path class="cls-14" d="M1165.28,370.46c-.83,0-1.5-.67-1.5-1.5v-3.96c0-.83,.67-1.5,1.5-1.5h3.96c.83,0,1.5,.67,1.5,1.5s-.67,1.5-1.5,1.5h-2.46v2.46c0,.83-.67,1.5-1.5,1.5Z"/><path class="cls-14" d="M1184.14,370.46c-.83,0-1.5-.67-1.5-1.5v-2.46h-2.46c-.83,0-1.5-.67-1.5-1.5s.67-1.5,1.5-1.5h3.96c.83,0,1.5,.67,1.5,1.5v3.96c0,.83-.67,1.5-1.5,1.5Z"/></g><g><path class="cls-14" d="M855.63,546.56h-3.96c-.83,0-1.5-.67-1.5-1.5s.67-1.5,1.5-1.5h2.46v-2.46c0-.83,.67-1.5,1.5-1.5s1.5,.67,1.5,1.5v3.96c0,.83-.67,1.5-1.5,1.5Z"/><path class="cls-14" d="M840.73,546.56h-3.96c-.83,0-1.5-.67-1.5-1.5v-3.96c0-.83,.67-1.5,1.5-1.5s1.5,.67,1.5,1.5v2.46h2.46c.83,0,1.5,.67,1.5,1.5s-.67,1.5-1.5,1.5Z"/><path class="cls-14" d="M836.78,531.66c-.83,0-1.5-.67-1.5-1.5v-3.96c0-.83,.67-1.5,1.5-1.5h3.96c.83,0,1.5,.67,1.5,1.5s-.67,1.5-1.5,1.5h-2.46v2.46c0,.83-.67,1.5-1.5,1.5Z"/><path class="cls-14" d="M855.63,531.66c-.83,0-1.5-.67-1.5-1.5v-2.46h-2.46c-.83,0-1.5-.67-1.5-1.5s.67-1.5,1.5-1.5h3.96c.83,0,1.5,.67,1.5,1.5v3.96c0,.83-.67,1.5-1.5,1.5Z"/></g><g><path class="cls-11" d="M884.6,156.07l.14,3.59c.23,5.88,5.2,10.47,11.08,10.25l3.58-.14c2.84-.11,5.49-1.32,7.42-3.42,1.93-2.09,2.94-4.81,2.82-7.65l-.14-3.59c-.12-2.85-1.33-5.48-3.42-7.42-.2-.19-.42-.37-.63-.54-2-1.58-4.46-2.39-7.02-2.29l-3.59,.15c-5.88,.22-10.47,5.19-10.24,11.07Z"/><path class="cls-14" d="M884.6,156.07l-1.5,.06,.14,3.59c.24,5.98,4.76,10.78,10.49,11.58,.7,.1,1.42,.13,2.14,.11h0l3.58-.14h0c3.24-.12,6.27-1.51,8.47-3.9h0c1.7-1.83,2.78-4.12,3.12-6.56,.1-.71,.13-1.44,.11-2.17v-.04l-.14-3.55h0c-.13-3.24-1.52-6.26-3.9-8.46h0c-.23-.22-.48-.42-.72-.62h0c-1.71-1.35-3.72-2.21-5.85-2.51-.71-.1-1.43-.13-2.16-.11l-3.6,.15h0c-2.98,.11-5.69,1.31-7.73,3.18-2.05,1.87-3.45,4.44-3.84,7.3-.1,.7-.13,1.41-.11,2.14h0l1.5-.06,1.5-.06c-.02-.55,0-1.09,.08-1.62,.3-2.15,1.35-4.09,2.9-5.5,1.55-1.42,3.57-2.31,5.82-2.4h0l3.59-.15h0c.55-.02,1.1,0,1.63,.08,1.61,.22,3.11,.86,4.4,1.89h0c.19,.15,.38,.31,.55,.47h0c1.81,1.67,2.84,3.91,2.94,6.38h0l.14,3.59h0c.02,.56,0,1.1-.08,1.64-.25,1.83-1.06,3.54-2.35,4.93h0c-1.67,1.81-3.92,2.85-6.37,2.94h0l-3.58,.14h0c-.55,.02-1.09,0-1.62-.08-4.31-.6-7.73-4.23-7.91-8.73l-.14-3.59h0l-1.5,.06Z"/><path class="cls-9" d="M929.61,177.2c.22,.17,.43,.36,.64,.55,2.09,1.93,3.31,4.57,3.42,7.41l.14,3.59c.11,2.85-.89,5.57-2.83,7.66-1.93,2.09-4.57,3.31-7.42,3.42l-3.59,.14c-5.87,.23-10.85-4.36-11.08-10.24l-.14-3.59c-.23-5.88,4.37-10.85,10.24-11.08l3.59-.14c2.57-.1,5.03,.7,7.02,2.28Z"/><path class="cls-14" d="M917.87,201.36c-2.44-.34-4.71-1.41-6.56-3.12-2.39-2.21-3.78-5.21-3.91-8.45l-.14-3.59c-.26-6.7,4.98-12.37,11.68-12.64l3.59-.14c2.9-.11,5.74,.81,8.01,2.6,.25,.2,.49,.41,.73,.62,2.39,2.21,3.77,5.21,3.9,8.46l.14,3.59c.13,3.25-1.02,6.35-3.22,8.74-2.21,2.39-5.21,3.77-8.46,3.9l-3.59,.14c-.73,.03-1.46,0-2.17-.11Zm6.44-24.86c-.54-.08-1.1-.1-1.66-.08l-3.59,.14c-5.05,.2-9,4.47-8.8,9.52l.14,3.59c.1,2.44,1.14,4.71,2.94,6.37,1.8,1.66,4.13,2.53,6.58,2.43l3.59-.14c2.45-.1,4.71-1.14,6.37-2.94,1.66-1.8,2.52-4.13,2.43-6.58l-.14-3.59c-.1-2.45-1.14-4.71-2.94-6.37-.18-.16-.36-.32-.55-.47h0c-1.29-1.02-2.78-1.66-4.37-1.88Z"/></g><path class="cls-9" d="M199.28,146.95c-1.08-1.42-1.56-2.94-1.43-4.56,.13-1.62,1.04-3.07,2.73-4.36,1.69-1.28,3.34-1.78,4.95-1.48,1.61,.3,2.96,1.16,4.04,2.58,1.08,1.42,1.54,2.93,1.37,4.53-.17,1.6-1.1,3.04-2.79,4.33-1.69,1.28-3.32,1.79-4.89,1.51-1.57-.28-2.89-1.13-3.98-2.56Zm-10.96-15.22c-2.76-3.77-4.57-7.04-5.43-9.79-.85-2.75-1.07-6.36-.66-10.82l1.35-11.01c.38-4.97-.72-9.16-3.31-12.57-2.49-3.29-5.31-5.2-8.44-5.75-3.13-.55-6.35,.42-9.64,2.92-3.2,2.43-5.12,5.22-5.78,8.39-.66,3.17,.1,6.18,2.26,9.03l-8.69,6.6c-3.79-5.12-5.09-10.59-3.9-16.41,1.19-5.82,4.64-10.89,10.34-15.22,5.93-4.5,11.74-6.41,17.46-5.74,5.72,.66,10.68,3.77,14.88,9.31,4.15,5.48,5.71,12.8,4.67,21.97l-1.28,8.96c-.36,4.27,1.26,8.79,4.87,13.54l-8.7,6.6Z"/><path class="cls-11" d="M146.6,477.37c-3.57-3.78-12.71-.25-15.65,.21-1.8-.25-3.39-.78-4.48-1.75-3.47-3.12-.35-3.59,.24-12.28,.18-2.64,0-11.08-5.23-12.39-3.01-.76-4.13,1.39-4.31,4.04-1.27,19.03-15.15,21.4-17.68,30.29-.65-2.14-2.61-3.71-4.96-3.71h-3.89c-2.88,0-5.21,2.33-5.21,5.21v29.48c0,2.88,2.33,5.21,5.21,5.21h3.89c2.72,0,4.92-2.09,5.16-4.74,.01,.01,.04,.02,.05,.03,3.22,3.38,13.18,2.86,24.73,3.15,12.09,.31,15.79-.13,18.41-3.84,2.33-3.29,10.06-32.18,3.72-38.9Z"/><g><path class="cls-3" d="M1037.4,234.44l-4.69,41.62s-2.87,.37-3.68,2.09c-4.02,8.52-15.6,34.28-10.96,38.96,3.6,3.63,48.95-35.35,48.95-35.35l-5.24-3.82-5.75-50.16-18.62,6.67Z"/><path class="cls-13" d="M1062.84,124.77c28.94,7.73,19.08,32.34,46.56,58.2,14.14,13.3-26.45,54.88-47.26,65.38-2.54,1.28-3.77,3.01-5.02,.7-15.3-28.26-15.87-50.1-16.52-59.38-3.08-44.61,20.36-65.4,22.24-64.9Z"/><path class="cls-4" d="M1077.47,210.74c.06-7.07-6.62-8.37-12.33-6.45-15.92,19.2-13.92-18.09-13.02-29.35,.15-1.88-4.29-6.86-5.81-5.75-4.99,3.66-14.97,13.57-22.99,32.57l.02-.06c-4.13,4.86-9.97,9.92-12.51,12.05-.69,.58-.72,1.62-.09,2.29l6.42,6.8c-2.88,17.64,.17,31.82,5,32.06,5.02,.25,19.9-6.85,30.57-20.97,14.36-5.95,24.67-14.07,24.75-23.18Z"/><path class="cls-7" d="M967.33,641.83c8.17-55.84,35.39-148.65,37.51-166.88,1.22-10.46,44.8-13.59,59.43,1.85,2.42,2.55,4.52,7.25,6.19,12.69,11.85,31.18,22.81,98.62,25.08,152.34h-50.14c-1.04-4.24-2.12-8.54-3.23-12.87v-.02c-1.77-6.97-3.58-14.01-5.39-20.95-5.62,11.61-10.96,23.11-15.24,33.84h-54.22Z"/><path class="cls-4" d="M816.24,304.15c7.54-2.02,25.4,4.62,25.4,4.62,0,0-12-9.2-6.03-9.49,5.41-.26,17.24,6.94,27.43,17.8,10.26,8.08-3.79,15.69-4.19,15.24-6.87-1.13-20.87-3.71-29.68-7.24-12.03-4.81-20.46-18.92-12.93-20.93Z"/><path class="cls-5" d="M858.85,332.31c-4.92-3.21-2.57-20.76,1.95-17.57,3.78,2.67,49.65,1.31,98.34,16.51,18.58-16.27,63.16-51.74,76.45-51.67,19.72,.11,22.23,29.96-3.23,42.18-3.65,1.75-65.63,46.26-86.01,39.73-5.57-1.78-71.44-18.69-87.5-29.18Z"/><path class="cls-10" d="M1037,607.01s2.45,11.18,5.18,21.94l15.56-88.2-20.74,66.27Z"/><path class="cls-5" d="M1062.16,259.79l5.17,20.82-1.88,7.04-38.52-6.21,4.16-15.39s12.93,.12,21.76-6.12c7.42-5.24,9.31-.14,9.31-.14Z"/><path class="cls-12" d="M1080.01,313.94c.98-18.11-13.18-35.34-13.18-35.34,2.63,7.83-20.84-4.54-33.44-1.38-12.74,3.2-26.49,28.51-28.62,42.28-3.72,23.96-3.26,26.33-2.95,60.52,.31,34.18,3.8,88.4,3.02,94.93-2.33,19.4,59.27,10.36,59.44,1.85,.89-44.55,13.86-128.36,15.73-162.86Z"/><path class="cls-4" d="M1026.81,508.99c-3.4,7.86-22.04-12.04-22.04-12.04,0,0,.62-2.88,10.24-9.67,10.65-6.45,15.99,2.15,15.59,2.41-.34,4.45-1.3,13.54-3.79,19.3Z"/><path class="cls-5" d="M1023.32,321.61c-9.29-34.27,20.36-44.48,35.88-18.2,16.68,28.25,20.87,104.9,20.87,108.34,0,16.84-27.84,18.62-29.25,1.46-.97-11.74-24.14-79.26-27.49-91.61Z"/><path class="cls-5" d="M1029.96,495.82c-4.81,4.39-17.78-3.11-14.95-8.54,5.46-10.48,22.87-52.08,30.62-67.96,10.38-21.27,38.74-21.03,33.87-2.92-4.39,16.33-36.64,67.64-49.54,79.42Z"/></g><g class="cls-15"><g><path class="cls-13" d="M332.92,147.22c-17.52-19.48-70.78-2.35-77.57,49.37-6.52,49.67-4.94,77.47-38.52,160.4-32.63,80.58,52.26,146.52,141.73,66.68,43.49-38.81,21.94-146.31,27.67-181.8,13.11-81.25-39.37-101.71-53.3-94.65Z"/><g><path class="cls-6" d="M289.51,443.36c-13.58,42.58-15.53,199.8-16.65,208.4-1.12,8.6-5.48,34.15-5.53,47.65-.09,22.64,4.65,78.82,1.85,101.8-.54,4.42,2.56,29,14.72,2.29,0,0,.49-19.16,7.05-52.95,6.23-32.06,15.83-72.17,14.81-98.38-.28-7.11,53.53-203.22,52.78-211.07-.75-7.85-69.03,2.27-69.03,2.27Z"/><path class="cls-12" d="M288.72,438.1c-38.08,58.44-17.34,223.85-18.48,231.7-1.14,7.85,142.63,14.68,141.07,4.2-6.46-43.38-43.39-229.23-47.83-240.68-4.45-11.45-74.75,4.78-74.75,4.78Z"/></g><path class="cls-5" d="M374.29,279.33c8.4,9.1,44.33,86.03,47.25,94.91,2.89,11.58-6.36,18.85-21.8,14.96-9.3-2.34-49.98-73.94-50.61-95.53-.7-24.1,15.45-24.85,25.16-14.34Z"/><path class="cls-9" d="M309.95,263.92s-31.22,7.9-34.96,13.13c-3.74,5.23,17.5,99.33,18.88,118.44,1.19,16.45-.67,28.51-5.16,42.62-1.6,5.03,75.37,17.69,74.75-4.78-1.83-66.82,27.58-86.75,18.83-116.5-4.37-14.86-13.5-40.5-18.36-43.86-4.86-3.36-22.97-8.88-22.97-8.88l-31.02-.17Z"/><path class="cls-5" d="M382.51,364.98c1.21,4.43,6.6,18.93,14.28,23.51,9.77,5.82,26.1,2.37,26.01-10.13-.02-2.93-3.32-8.13-5.41-9.8-7.8-6.22-15.58-12.64-27.87-16.46,0,0-8.62,6.93-7,12.88Z"/><g><path class="cls-6" d="M316.33,218.63c-1.56,28.62-8.33,43.73-9.91,46.92-.2,.4-.12,.85,.2,1.15,4.01,3.79,29.51,27.35,37.53,20.86,4.11-3.32-.85-18.94-3.17-23.47-5.37-10.51-1.18-47.84-1.18-47.84,0,0-23.16-3.33-23.47,2.38Z"/><path class="cls-6" d="M339.8,216.25s-23.16-3.33-23.47,2.38c-.51,9.34-1.58,17.2-2.84,23.71,6.21,12.36,15.91,23.05,24.34,22.3,1.03-.09,2.05-.39,3.06-.78-5.23-10.77-1.09-47.62-1.09-47.62Z"/></g><path class="cls-4" d="M337.3,178.7c13.32-5.62,28.72,5.78,26.69,30.4-1.87,22.73-15.08,42.99-25.81,44.49-9.3,1.3-20.07-18.36-23.13-34.95-2.19-2.97,14.59-36.7,22.25-39.93Z"/><g><path class="cls-8" d="M388.42,399.22h-38.16c-2.69,0-4.07-2.18-3.1-4.87l27.98-76.87c.98-2.69,3.95-4.87,6.64-4.87h38.16c2.69,0,4.07,2.18,3.1,4.87l-27.98,76.87c-.98,2.69-3.95,4.87-6.64,4.87Z"/><path class="cls-13" d="M390.7,399.22h-38.16c-2.69,0-4.07-2.18-3.1-4.87l27.98-76.87c.98-2.69,3.95-4.87,6.64-4.87h38.16c2.69,0,4.07,2.18,3.1,4.87l-27.98,76.87c-.98,2.69-3.95,4.87-6.64,4.87Z"/><path class="cls-5" d="M391.39,358.6c-.8,2.21-3.25,4.01-5.46,4.01s-3.35-1.79-2.55-4.01c.81-2.21,3.25-4,5.46-4s3.35,1.79,2.55,4Z"/></g><path class="cls-5" d="M293.66,288.68c9.94,32.12-4.63,71.75-5.64,87.26,.06,.03,37.39-9.85,54.7-14.99,4.76-1.41,8.71,7.96,7.95,8.63-16.31,14.11-67,39.68-85.05,37.16-11.16-1.56-4.61-91.93-1.34-110.72,4.34-25.01,23.43-26.58,29.38-7.34Z"/><path class="cls-6" d="M370.53,353.29c-8.58-4.14-12.1-3.67-26.71,7.78-6.04,8.72,7.45,9.43,10.79,8.57,4.03-1.03,10.37-5.58,15.35-6.46,9.24-1.64,7.99-6.32,.58-9.9Z"/></g></g><g><g><rect class="cls-5" x="490.46" y="111.84" width="285.01" height="228.84" rx="10.51" ry="10.51"/><g><path class="cls-11" d="M651.7,334.76c.53,0,.96-.43,.96-.96v-85.18c0-.53-.43-.96-.96-.96s-.96,.43-.96,.96v85.18c0,.53,.43,.96,.96,.96Z"/><g><path class="cls-11" d="M658.22,314.44h4.41c.97,0,1.76-.79,1.76-1.76s-.79-1.76-1.76-1.76h-4.41c-.97,0-1.76,.79-1.76,1.76s.79,1.76,1.76,1.76Z"/><path class="cls-11" d="M519.3,312.68c0-.97,.79-1.76,1.76-1.76h8.57c.97,0,1.76,.79,1.76,1.76s-.79,1.76-1.76,1.76h-8.57c-.97,0-1.76-.79-1.76-1.76Zm17.14,0c0-.97,.79-1.76,1.76-1.76h8.57c.97,0,1.76,.79,1.76,1.76s-.79,1.76-1.76,1.76h-8.57c-.97,0-1.76-.79-1.76-1.76Zm17.14,0c0-.97,.79-1.76,1.76-1.76h8.57c.97,0,1.76,.79,1.76,1.76s-.79,1.76-1.76,1.76h-8.57c-.97,0-1.76-.79-1.76-1.76Zm17.14,0c0-.97,.79-1.76,1.76-1.76h8.57c.97,0,1.76,.79,1.76,1.76s-.79,1.76-1.76,1.76h-8.57c-.97,0-1.76-.79-1.76-1.76Zm17.14,0c0-.97,.79-1.76,1.76-1.76h8.57c.97,0,1.76,.79,1.76,1.76s-.79,1.76-1.76,1.76h-8.57c-.97,0-1.76-.79-1.76-1.76Zm17.14,0c0-.97,.79-1.76,1.76-1.76h8.57c.97,0,1.76,.79,1.76,1.76s-.79,1.76-1.76,1.76h-8.57c-.97,0-1.76-.79-1.76-1.76Zm17.14,0c0-.97,.79-1.76,1.76-1.76h8.57c.97,0,1.76,.79,1.76,1.76s-.79,1.76-1.76,1.76h-8.57c-.97,0-1.76-.79-1.76-1.76Zm17.14,0c0-.97,.79-1.76,1.76-1.76h8.57c.97,0,1.76,.79,1.76,1.76s-.79,1.76-1.76,1.76h-8.57c-.97,0-1.76-.79-1.76-1.76Z"/><path class="cls-11" d="M508.09,314.44h4.41c.97,0,1.76-.79,1.76-1.76s-.79-1.76-1.76-1.76h-4.41c-.97,0-1.76,.79-1.76,1.76s.79,1.76,1.76,1.76Z"/></g><g><path class="cls-11" d="M663.68,290.24h4.41c.97,0,1.76-.79,1.76-1.76s-.79-1.76-1.76-1.76h-4.41c-.97,0-1.76,.79-1.76,1.76s.79,1.76,1.76,1.76Z"/><path class="cls-11" d="M521.14,288.48c0-.97,.79-1.76,1.76-1.76h8.8c.97,0,1.76,.79,1.76,1.76s-.79,1.76-1.76,1.76h-8.8c-.97,0-1.76-.79-1.76-1.76Zm17.6,0c0-.97,.79-1.76,1.76-1.76h8.8c.97,0,1.76,.79,1.76,1.76s-.79,1.76-1.76,1.76h-8.8c-.97,0-1.76-.79-1.76-1.76Zm17.6,0c0-.97,.79-1.76,1.76-1.76h8.8c.97,0,1.76,.79,1.76,1.76s-.79,1.76-1.76,1.76h-8.8c-.97,0-1.76-.79-1.76-1.76Zm17.6,0c0-.97,.79-1.76,1.76-1.76h8.8c.97,0,1.76,.79,1.76,1.76s-.79,1.76-1.76,1.76h-8.8c-.97,0-1.76-.79-1.76-1.76Zm17.6,0c0-.97,.79-1.76,1.76-1.76h8.8c.97,0,1.76,.79,1.76,1.76s-.79,1.76-1.76,1.76h-8.8c-.97,0-1.76-.79-1.76-1.76Zm17.6,0c0-.97,.79-1.76,1.76-1.76h8.8c.97,0,1.76,.79,1.76,1.76s-.79,1.76-1.76,1.76h-8.8c-.97,0-1.76-.79-1.76-1.76Zm17.6,0c0-.97,.79-1.76,1.76-1.76h8.8c.97,0,1.76,.79,1.76,1.76s-.79,1.76-1.76,1.76h-8.8c-.97,0-1.76-.79-1.76-1.76Zm17.6,0c0-.97,.79-1.76,1.76-1.76h8.8c.97,0,1.76,.79,1.76,1.76s-.79,1.76-1.76,1.76h-8.8c-.97,0-1.76-.79-1.76-1.76Z"/><path class="cls-11" d="M509.7,290.24h4.41c.97,0,1.76-.79,1.76-1.76s-.79-1.76-1.76-1.76h-4.41c-.97,0-1.76,.79-1.76,1.76s.79,1.76,1.76,1.76Z"/></g><path class="cls-7" d="M662.61,300.46c1.55,0,3.15-.26,4.79-.78,1.09-.34,1.7-1.51,1.35-2.6-.34-1.09-1.5-1.71-2.6-1.35-3.02,.95-5.7,.74-8.18-.65-7.9-4.42-11.68-19.64-13.1-25.36-.22-.88-.4-1.6-.54-2.1-3.28-11.52-10.44-18.71-18.69-18.74h-.06c-7.92,0-14.81,6.73-17.99,17.57-.4,1.36-.83,2.94-1.3,4.66-2.3,8.46-6.58,24.2-11.93,25.04-6.62,1.04-9.41-7.41-13.27-21.44-4.39-15.98-9.86-35.86-28.72-35.86-17.47,0-22.58,16.71-27.09,31.45-5,16.33-8.71,26.14-21.23,22.36-1.1-.33-2.25,.29-2.58,1.39-.33,1.1,.29,2.25,1.39,2.58,17.15,5.13,21.83-10.24,26.38-25.12,4.29-14.02,8.73-28.52,23.13-28.52,15.71,0,20.5,17.43,24.72,32.82,3.69,13.44,7.17,26.14,17.92,24.43,8-1.27,12.2-16.74,15.28-28.05,.46-1.69,.88-3.25,1.28-4.58,2.64-9.01,8.01-14.6,14.01-14.6h.04c6.33,.03,11.97,6.05,14.72,15.73,.14,.47,.3,1.14,.5,1.97,1.69,6.79,5.64,22.68,15.1,27.98,2.1,1.18,4.33,1.77,6.67,1.77Z"/><path class="cls-13" d="M662.64,297.7c0,2.28,1.85,4.13,4.13,4.13s4.13-1.85,4.13-4.13-1.85-4.13-4.13-4.13-4.13,1.85-4.13,4.13Z"/><path class="cls-13" d="M522.27,272.06c0,2.28,1.85,4.13,4.13,4.13s4.13-1.85,4.13-4.13-1.85-4.13-4.13-4.13-4.13,1.85-4.13,4.13Z"/><path class="cls-13" d="M589.38,298.38c0,2.28,1.85,4.13,4.13,4.13s4.13-1.85,4.13-4.13-1.85-4.13-4.13-4.13-4.13,1.85-4.13,4.13Z"/></g><g><path class="cls-12" d="M661.23,200.94c-11.29-5.65-17.51-13.29-17.51-21.52s6.22-15.87,17.51-21.52c22.49-11.25,59.09-11.25,81.58,0,11.29,5.65,17.51,13.29,17.51,21.52s-6.22,15.87-17.51,21.52c-11.25,5.62-26.02,8.44-40.79,8.44s-29.55-2.81-40.79-8.44Zm1.49-40.06h0c-10.11,5.05-15.67,11.64-15.67,18.54s5.56,13.49,15.67,18.54c21.67,10.84,56.94,10.84,78.61,0,10.1-5.05,15.67-11.64,15.67-18.54s-5.57-13.49-15.67-18.54c-10.83-5.42-25.07-8.13-39.3-8.13s-28.47,2.71-39.3,8.13Z"/><path class="cls-13" d="M672.87,229.92c-7.13-4.11-10.64-13.32-9.88-25.92,1.51-25.1,19.8-56.8,40.79-70.65,10.54-6.96,20.27-8.52,27.39-4.4,7.13,4.11,10.63,13.32,9.88,25.92-1.51,25.11-19.8,56.8-40.79,70.65-6.68,4.41-13.04,6.65-18.62,6.65-3.21,0-6.17-.74-8.77-2.25Zm32.75-93.8c-20.22,13.35-37.85,43.89-39.3,68.08-.68,11.28,2.24,19.39,8.22,22.84,5.98,3.46,14.47,1.92,23.89-4.3,20.22-13.35,37.85-43.89,39.3-68.08,.68-11.28-2.24-19.39-8.22-22.84-2.09-1.21-4.49-1.81-7.13-1.81-4.9,0-10.63,2.06-16.76,6.1Z"/><path class="cls-9" d="M703.78,225.51c-20.99-13.86-39.29-45.55-40.79-70.65-.76-12.6,2.75-21.81,9.88-25.92,7.13-4.12,16.85-2.55,27.39,4.4,20.99,13.85,39.29,45.55,40.79,70.65,.76,12.6-2.75,21.81-9.88,25.92-2.61,1.51-5.56,2.25-8.78,2.25-5.57,0-11.93-2.24-18.62-6.65Zm-29.24-93.69c-5.98,3.45-8.9,11.56-8.22,22.84,1.45,24.19,19.08,54.73,39.3,68.08,9.43,6.23,17.91,7.75,23.89,4.3,5.98-3.45,8.9-11.56,8.22-22.84-1.45-24.19-19.08-54.73-39.3-68.08-6.12-4.04-11.86-6.1-16.76-6.1-2.64,0-5.04,.6-7.13,1.81Z"/><path class="cls-7" d="M659.88,140.04c0,3.54,2.87,6.41,6.41,6.41s6.41-2.87,6.41-6.41-2.87-6.41-6.41-6.41-6.41,2.87-6.41,6.41Z"/><path class="cls-7" d="M745.84,190.3c0,3.54,2.87,6.41,6.41,6.41s6.41-2.87,6.41-6.41-2.87-6.41-6.41-6.41-6.41,2.87-6.41,6.41Z"/><path class="cls-7" d="M716.43,196.71c0,3.54,2.87,6.41,6.41,6.41s6.41-2.87,6.41-6.41-2.87-6.41-6.41-6.41-6.41,2.87-6.41,6.41Z"/></g><g><g><polygon class="cls-11" points="546.55 197.75 536.69 214.83 546.55 231.91 566.27 231.91 576.13 214.83 566.27 197.75 556.41 179.78 546.55 197.75"/><polygon class="cls-13" points="577.29 179.78 557.95 179.78 567.43 196.86 577.29 213.94 597.01 213.94 606.87 196.86 597.01 179.78 577.29 179.78"/><polygon class="cls-7" points="577.34 144.3 567.48 161.38 557.58 178.46 577.34 178.46 597.06 178.46 606.92 161.38 597.06 144.3 577.34 144.3"/><polygon class="cls-9" points="515.8 179.78 505.94 196.86 515.8 213.94 535.52 213.94 545.38 196.86 555.1 179.78 535.52 179.78 515.8 179.78"/><polygon class="cls-7" points="515.85 144.3 505.99 161.38 515.85 178.46 535.57 178.46 555.1 178.46 545.43 161.38 535.57 144.3 515.85 144.3"/><polygon class="cls-11" points="546.46 126.34 536.6 143.42 546.46 160.5 556.41 177.91 566.17 160.5 576.03 143.42 566.17 126.34 546.46 126.34"/><path class="cls-8" d="M515.77,179.32c-.13-22.41,17.99-40.75,40.4-40.89,22.41-.13,40.75,17.99,40.89,40.4,.13,22.41-17.99,40.75-40.4,40.89-22.41,.13-40.75-17.99-40.89-40.4Zm14.97-.09c.08,14.15,11.67,25.6,25.82,25.52,14.15-.08,25.36-11.67,25.52-25.82,.15-14.1-10.28-25.26-25.82-25.52-14.15,.08-25.6,11.67-25.52,25.82Z"/></g><path class="cls-12" d="M552.56,146.13c0,2.77,2.25,5.02,5.02,5.02s5.02-2.25,5.02-5.02-2.25-5.02-5.02-5.02-5.02,2.25-5.02,5.02Z"/><path class="cls-12" d="M522.35,162.94c0,2.77,2.25,5.02,5.02,5.02s5.02-2.25,5.02-5.02-2.25-5.02-5.02-5.02-5.02,2.25-5.02,5.02Z"/><path class="cls-12" d="M580.43,162.94c0,2.77,2.25,5.02,5.02,5.02s5.02-2.25,5.02-5.02-2.25-5.02-5.02-5.02-5.02,2.25-5.02,5.02Z"/><path class="cls-12" d="M522.35,194.9c0,2.77,2.25,5.02,5.02,5.02s5.02-2.25,5.02-5.02-2.25-5.02-5.02-5.02-5.02,2.25-5.02,5.02Z"/><path class="cls-12" d="M580.43,194.9c0,2.77,2.25,5.02,5.02,5.02s5.02-2.25,5.02-5.02-2.25-5.02-5.02-5.02-5.02,2.25-5.02,5.02Z"/><path class="cls-12" d="M552.56,212.29c0,2.77,2.25,5.02,5.02,5.02s5.02-2.25,5.02-5.02-2.25-5.02-5.02-5.02-5.02,2.25-5.02,5.02Z"/></g><path class="cls-12" d="M680.74,304.33h78.04c2.66,0,4.82-2.16,4.82-4.82h0c0-2.66-2.16-4.82-4.82-4.82h-78.04c-2.66,0-4.82,2.16-4.82,4.82h0c0,2.66,2.16,4.82,4.82,4.82Z"/><path class="cls-12" d="M680.74,282.27h78.04c2.66,0,4.82-2.16,4.82-4.82h0c0-2.66-2.16-4.82-4.82-4.82h-78.04c-2.66,0-4.82,2.16-4.82,4.82h0c0,2.66,2.16,4.82,4.82,4.82Z"/></g><g><path class="cls-13" d="M657.02,449.47h127.2c2.93,0,5.31,2.38,5.31,5.31v108.15c0,2.93-2.38,5.31-5.31,5.31h-127.2c-2.93,0-5.31-2.38-5.31-5.31v-108.16c0-2.93,2.38-5.31,5.31-5.31Z"/><path class="cls-7" d="M682.05,523.93c-.69-.01-1.28-.51-1.39-1.17l-5.05-28.46h-10.83c-.68,0-1.23-.55-1.23-1.23s.55-1.23,1.23-1.23h11.67c.69,0,1.29,.49,1.42,1.17l4.27,24.09,11.7-57.1c.13-.65,.7-1.12,1.38-1.13,.01,0,.02,0,.03,0,.67,0,1.24,.44,1.39,1.08l7.66,30.4c.06-.08,.11-.15,.15-.2l.52-.61,.6-.03c.34,0,.8,.08,1.25,.6l1.01,1.16,2.94-2.95c.27-.27,.64-.42,1.02-.42h.01l.67,.07,3.77,3.87h26.7l3.27-2.45c.5-.37,1.19-.39,1.7-.04l3.88,2.65,.54,.44,1.79,14.24,7.12-41.57c.12-.68,.71-1.18,1.41-1.18h0c.7,0,1.29,.49,1.41,1.15l5.15,26.83,9.25-.12h.02c.67,0,1.22,.54,1.23,1.21,0,.68-.53,1.23-1.21,1.24l-10.11,.13c-.7,0-1.3-.49-1.42-1.15l-4.26-22.2-7.33,42.81c-.12,.69-.77,1.15-1.45,1.17-.71-.01-1.3-.53-1.39-1.24l-2.52-19.99-2.91-1.99-2.97,2.23-.46,.29h-27.86l-.68-.06-3.36-3.46-2.73,2.73c-.14,.16-.55,.63-1.26,.63-.37,.05-.84-.11-1.3-.65l-.8-.93c-.41,.52-.81,1.02-.84,1.05l-.67,.64-.72-.18c-.54-.14-.91-.55-1.07-1.24l-7.05-27.98-11.87,57.95c-.14,.66-.73,1.13-1.41,1.13h-.03Zm1.03-1.59s0,0,0-.01h0Zm86.33-29.54s0-.02,0-.03v.03Zm-22.86-1.4h0Zm15.13-25.82v-.02s0,.01,0,.02Zm-67.41-5.01h0Zm1.97-.04h0Z"/><path class="cls-12" d="M667.19,546.06h106.86c1.9,0,3.43-1.54,3.43-3.43h0c0-1.9-1.54-3.43-3.43-3.43h-106.86c-1.9,0-3.43,1.54-3.43,3.43h0c0,1.9,1.54,3.43,3.43,3.43Z"/><rect class="cls-12" x="663.75" y="552.56" width="113.72" height="6.87" rx="3.43" ry="3.43"/></g><g><path class="cls-7" d="M785.99,318.59c4.67,0,8.45,3.78,8.45,8.45v46.14c0,22.98-24.45,54.59-41.61,54.59s-41.61-31.61-41.61-54.59v-46.14c0-4.66,3.78-8.45,8.45-8.45h66.33Z"/><path class="cls-8" d="M731.59,357.35h8.41c1.78,0,3.22-1.44,3.22-3.22v-8.41c0-1.78,1.44-3.22,3.22-3.22h12.8c1.78,0,3.22,1.44,3.22,3.22v8.41c0,1.78,1.44,3.22,3.22,3.22h8.41c1.78,0,3.22,1.44,3.22,3.22v12.8c0,1.78-1.44,3.22-3.22,3.22h-8.41c-1.78,0-3.22,1.44-3.22,3.22v8.41c0,1.78-1.44,3.22-3.22,3.22h-12.8c-1.78,0-3.22-1.44-3.22-3.22v-8.41c0-1.78-1.44-3.22-3.22-3.22h-8.41c-1.78,0-3.22-1.44-3.22-3.22v-12.8c0-1.78,1.44-3.22,3.22-3.22Z"/></g><g><path class="cls-12" d="M508.92,484.93c3.37-.5,6.86-.33,10.15,.49,1.78,.44,3.54,1.07,5.38,1.06,1.84,0,3.85-.87,4.38-2.46,.37-1.13-.09-2.4-.96-3.28-.87-.88-2.08-1.44-3.32-1.81-3.88-1.16-8.32-.67-11.78,1.31-2.08,1.19-4.03,3.05-6.63,3.15-.67,.03-1.26-.05-1.8-.21-2.42-.72-3.8-3.19-3.81-5.72-.03-6.9,3.81-14.84,7.32-21.92,.62,1.4,1.33,2.62,1.69,3.06,2.07,2.48,5.03,4.34,6.52,7.22,.79,1.52,1.17,3.33,2.61,4.39,1.52,1.11,3.91,.96,5.4-.19,1.49-1.14,2.07-3.09,1.68-4.82-.39-1.73-1.67-3.24-3.26-4.25-2.95-1.88-6.9-2.17-9.58-4.42-.19-.16-.4-.45-.62-.83-1.53-2.59-1.6-5.78-.47-8.56,1.01-2.49,1.63-4.68,1.55-6.43-.4-8.73,6.9-23.27,6.9-23.27,5.27,1.39,9.91,3.01,14.04,4.88,3.73,5.16,8.96,14,6.12,26.94-3.89,17.73,13.12,14.71,10.52,.79-1-5.37-5.99-17.13-11.3-25.01,10.98,6.27,17.58,14.82,21.83,26.28-.38,3.86-2.17,7.78-5.64,10.05-2.42,1.58-5.5,2.27-7.64,4.16-1.76,1.56-2.68,3.87-2.41,6.09,.27,2.22,1.71,4.3,3.81,5.48,2.51,1.41,6.23,1.29,8.01-.84,2.17-2.6,.5-6.38,1.41-9.54,.61-2.13,2.36-3.81,3.46-5.77,.53-.93,.86-1.92,1.11-2.93,.55,1.98,1.06,4.01,1.52,6.15,5.32,24.73,12.76,33.1-18.99,36.37-29.24,3.01-38.76-3.85-43.66-15.18,2.1,.43,4.32-.1,6.47-.42Z"/><path class="cls-9" d="M542.23,571.02h20.5c16.65,0,30.15-13.5,30.15-30.15v-6.54c0-3.3-2.68-5.98-5.98-5.98h-68.83c-3.3,0-5.98,2.68-5.98,5.98v6.54c0,16.65,13.5,30.15,30.15,30.15Z"/><path class="cls-11" d="M554.28,445.12c1.35,1.42,2.75,2.78,3.55,4.55,1.63,3.63,.21,7.89,.35,11.84,.13,3.66,2.48,6.75,5.95,7.92,5.85,1.99,10.78-3.88,9.72-9.02-.64-3.09-3.05-5.49-5.61-7.34-2.56-1.84-5.4-3.35-7.58-5.61-2.36-2.45-3.78-5.63-4.52-8.92-.1-.42-.14-.97-.17-1.55,1.82-7.64,4.12-14.42,6.61-19.14,3.11,1.91,5.3,5.17,6.61,8.63,1.5,3.97,2.12,8.2,3.36,12.26,.8,2.6,1.93,5.24,4.05,6.95,2.12,1.71,5.46,2.16,7.51,.36,2.46-2.16,1.84-6.32-.17-8.9-2.01-2.58-5-4.18-7.49-6.31-5.82-4.98-8.35-13.2-7.09-20.66,.02-.09,.06-.25,.1-.38,7.4-5.87,19.25-11.92,29.15-16.33-1.12,2.5-2.32,4.9-3.92,7.23-1.76,2.55-3.83,5.02-4.41,8.16-.84,4.59,2.35,9.56,6.87,10.72,1.69,.43,3.85,.16,4.6-1.41,.7-1.47-.22-3.16-.98-4.61-1.85-3.51-2.86-7.47-2.94-11.43-.06-2.97,1.38-6.2,1.74-9.09,7.84-3.46,14.26-5.82,15.8-6.07,3.73-.61,7.32,23.38,17.2,37.85-.32,.95-.68,1.88-1.23,2.69-2.45,3.59-6.46,5.07-9.73,7.72-2.39,1.94-4.3,5.05-3.43,8,.76,2.58,3.59,4.22,6.28,4.11,2.69-.11,5.16-1.7,6.87-3.78,1.71-2.08,2.75-4.62,3.62-7.17,.58-1.69,1.08-3.44,1.58-5.18,3.64,7.16,5.87,16.65,5.68,26.85-.12,6.16-4.38,11.78-10.47,12.73-.04,0-.07,.01-.11,.02-4.08,.6-8.21-.42-12.28-1.1-4.07-.68-8.46-.98-12.13,.91-3.67,1.89-6.1,6.7-4.11,10.32,1.21,2.21,3.75,3.44,6.26,3.68,2.51,.24,5.01-.38,7.43-1.1,8.64-2.59,16.91-6.77,23.84-12.48-1.87,8.18-5.45,16.36-11.27,23.73-14.71,18.63-37.46,17.14-68.87,.15-9.7-5.25-9.96-28.93-6.22-49.8Z"/><path class="cls-13" d="M530.43,450.06c13.78,47.21,35.19,44.34,32.02,78.29h-4.74c3.62-26.44-9.68-31.03-19.9-52.26-5.04-10.55-11.47-33.79-11.56-42.31-.04-3.69,1.45,7,4.17,16.28Z"/><path class="cls-11" d="M475.26,529.56c1.96-.86,4.2-.65,6.34-.79,1.47-.1,2.96-.39,4.23-1.13,1.27-.74,2.31-1.98,2.53-3.44,.23-1.46-.5-3.08-1.85-3.66-1.69-.73-3.64,.3-4.91,1.63-1.27,1.33-2.22,2.98-3.73,4.04-1,.7-2.25,1.15-3.38,1.69,.31-1.97,.73-3.9,1.3-5.71,.68-2.18,1.53-4.48,2.53-6.8,1.76-4.1,6.39-5.87,10.6-4.38,1.87,.66,3.96,.57,6.36-1.16,3.01-2.17,2.57-6.79,.39-7.35-1.75-.45-2.45,1.95-11.58,2.17,4.46-6.62,10.14-11.82,16.63-12.32,11.85-.93,17.16,7.74,17.16,7.74,11.04,3.59,23.31,17.29,15.13,29.96-2.61,4.05-6.23,7.73-10.39,10.9-1.19-1.36-2.82-2.54-3.61-4.13-1.59-3.17-1.68-6.97-.67-10.34,.79-2.63,2.25-5.22,1.87-7.94-.35-2.5-2.41-4.66-4.89-5.12-2.48-.47-5.18,.8-6.42,2.99-1.6,2.84-.68,6.43,.75,9.37,1.9,3.92,4.6,7.4,7.27,10.84l.03,.04c2.3,2.97,1.41,7.36-1.9,9.14-4.16,2.25-8.54,3.99-12.84,5.11-1.64-2.77-2.34-6.07-1.64-9.25,.4-1.83,1.2-3.54,1.8-5.31,.6-1.77,1-3.69,.56-5.51-.44-1.82-1.9-3.5-3.77-3.68-2.46-.24-4.52,2.22-4.72,4.68-.2,2.46,.96,4.81,2.22,6.93,1.26,2.12,2.7,4.22,3.16,6.65v.06c.63,3.44-2.18,6.57-5.67,6.8-.4,.03-.8,.05-1.2,.06-13.9,.41-16.35,4.09-17.37,1.84-.79-1.74-2.54-12.46-1.52-22.97,.38-.51,.81-1.09,1.19-1.6Z"/><path class="cls-13" d="M566.04,528.35h-14.04c5.9-3.31,21.51-8.03,31.46-50.19,1.41-5.96,15.67-64.3,21.11-61.74,2.51,1.19-4.96,6.09-11.89,39.59-6.75,32.32-6.96,55.11-26.64,72.34Z"/><path class="cls-13" d="M481.24,545.56c2.36-6.02,17.48-35.74,26.71-45.09,12.46-12.29,39.66,2.05,48.39,27.88h-7.8c-8.68-28.35-32.14-27.74-33.87-27.03-8.95,3.64-27.46,36.48-31.76,45-.52,1.03-2.1,.33-1.67-.75Z"/></g></g></svg>